<?xml version="1.0" encoding="UTF-8" standalone="no"?>
<svg xmlns="http://www.w3.org/2000/svg" version="1.1"
     width="3.4375in" height="2.5208in" viewBox="0 0 330 242">
  <title>01_TOY_Blue</title>
  <g fill="#1965B0" stroke="none">
  <path d="M 175,0 L 185,0 L 185,1 L 175,1 Z"/>
  <path d="M 176,1 L 195,1 L 195,2 L 176,2 Z"/>
  <path d="M 176,2 L 205,2 L 205,3 L 176,3 Z"/>
  <path d="M 176,3 L 215,3 L 215,4 L 176,4 Z"/>
  <path d="M 114,4 L 123,4 L 123,5 L 114,5 Z"/>
  <path d="M 177,4 L 224,4 L 224,5 L 177,5 Z"/>
  <path d="M 105,5 L 123,5 L 123,6 L 105,6 Z"/>
  <path d="M 177,5 L 235,5 L 235,6 L 177,6 Z"/>
  <path d="M 96,6 L 123,6 L 123,7 L 96,7 Z"/>
  <path d="M 178,6 L 240,6 L 240,7 L 178,7 Z"/>
  <path d="M 87,7 L 123,7 L 123,8 L 87,8 Z"/>
  <path d="M 178,7 L 240,7 L 240,8 L 178,8 Z"/>
  <path d="M 77,8 L 123,8 L 123,9 L 77,9 Z"/>
  <path d="M 178,8 L 241,8 L 241,9 L 178,9 Z"/>
  <path d="M 265,8 L 277,8 L 277,9 L 265,9 Z"/>
  <path d="M 68,9 L 123,9 L 123,10 L 68,10 Z"/>
  <path d="M 179,9 L 241,9 L 241,10 L 179,10 Z"/>
  <path d="M 265,9 L 288,9 L 288,10 L 265,10 Z"/>
  <path d="M 59,10 L 123,10 L 123,11 L 59,11 Z"/>
  <path d="M 179,10 L 241,10 L 241,11 L 179,11 Z"/>
  <path d="M 264,10 L 300,10 L 300,11 L 264,11 Z"/>
  <path d="M 50,11 L 124,11 L 124,12 L 50,12 Z"/>
  <path d="M 180,11 L 241,11 L 241,12 L 180,12 Z"/>
  <path d="M 264,11 L 311,11 L 311,12 L 264,12 Z"/>
  <path d="M 40,12 L 124,12 L 124,13 L 40,13 Z"/>
  <path d="M 180,12 L 242,12 L 242,13 L 180,13 Z"/>
  <path d="M 263,12 L 322,12 L 322,13 L 263,13 Z"/>
  <path d="M 31,13 L 124,13 L 124,14 L 31,14 Z"/>
  <path d="M 180,13 L 191,13 L 191,14 L 180,14 Z"/>
  <path d="M 200,13 L 242,13 L 242,14 L 200,14 Z"/>
  <path d="M 263,13 L 330,13 L 330,14 L 263,14 Z"/>
  <path d="M 22,14 L 108,14 L 108,15 L 22,15 Z"/>
  <path d="M 113,14 L 124,14 L 124,15 L 113,15 Z"/>
  <path d="M 181,14 L 192,14 L 192,15 L 181,15 Z"/>
  <path d="M 209,14 L 242,14 L 242,15 L 209,15 Z"/>
  <path d="M 262,14 L 330,14 L 330,15 L 262,15 Z"/>
  <path d="M 12,15 L 99,15 L 99,16 L 12,16 Z"/>
  <path d="M 113,15 L 124,15 L 124,16 L 113,16 Z"/>
  <path d="M 181,15 L 192,15 L 192,16 L 181,16 Z"/>
  <path d="M 220,15 L 243,15 L 243,16 L 220,16 Z"/>
  <path d="M 262,15 L 329,15 L 329,16 L 262,16 Z"/>
  <path d="M 3,16 L 89,16 L 89,17 L 3,17 Z"/>
  <path d="M 113,16 L 124,16 L 124,17 L 113,17 Z"/>
  <path d="M 182,16 L 192,16 L 192,17 L 182,17 Z"/>
  <path d="M 229,16 L 243,16 L 243,17 L 229,17 Z"/>
  <path d="M 261,16 L 329,16 L 329,17 L 261,17 Z"/>
  <path d="M 0,17 L 80,17 L 80,18 L 0,18 Z"/>
  <path d="M 113,17 L 124,17 L 124,18 L 113,18 Z"/>
  <path d="M 182,17 L 193,17 L 193,18 L 182,18 Z"/>
  <path d="M 231,17 L 243,17 L 243,18 L 231,18 Z"/>
  <path d="M 261,17 L 328,17 L 328,18 L 261,18 Z"/>
  <path d="M 0,18 L 71,18 L 71,19 L 0,19 Z"/>
  <path d="M 114,18 L 124,18 L 124,19 L 114,19 Z"/>
  <path d="M 183,18 L 193,18 L 193,19 L 183,19 Z"/>
  <path d="M 231,18 L 243,18 L 243,19 L 231,19 Z"/>
  <path d="M 260,18 L 327,18 L 327,19 L 260,19 Z"/>
  <path d="M 0,19 L 62,19 L 62,20 L 0,20 Z"/>
  <path d="M 114,19 L 125,19 L 125,20 L 114,20 Z"/>
  <path d="M 183,19 L 194,19 L 194,20 L 183,20 Z"/>
  <path d="M 232,19 L 244,19 L 244,20 L 232,20 Z"/>
  <path d="M 260,19 L 270,19 L 270,20 L 260,20 Z"/>
  <path d="M 275,19 L 326,19 L 326,20 L 275,20 Z"/>
  <path d="M 0,20 L 53,20 L 53,21 L 0,21 Z"/>
  <path d="M 114,20 L 125,20 L 125,21 L 114,21 Z"/>
  <path d="M 183,20 L 194,20 L 194,21 L 183,21 Z"/>
  <path d="M 232,20 L 244,20 L 244,21 L 232,21 Z"/>
  <path d="M 259,20 L 270,20 L 270,21 L 259,21 Z"/>
  <path d="M 287,20 L 326,20 L 326,21 L 287,21 Z"/>
  <path d="M 0,21 L 44,21 L 44,22 L 0,22 Z"/>
  <path d="M 114,21 L 125,21 L 125,22 L 114,22 Z"/>
  <path d="M 184,21 L 195,21 L 195,22 L 184,22 Z"/>
  <path d="M 232,21 L 244,21 L 244,22 L 232,22 Z"/>
  <path d="M 259,21 L 269,21 L 269,22 L 259,22 Z"/>
  <path d="M 298,21 L 325,21 L 325,22 L 298,22 Z"/>
  <path d="M 0,22 L 34,22 L 34,23 L 0,23 Z"/>
  <path d="M 114,22 L 125,22 L 125,23 L 114,23 Z"/>
  <path d="M 184,22 L 195,22 L 195,23 L 184,23 Z"/>
  <path d="M 233,22 L 245,22 L 245,23 L 233,23 Z"/>
  <path d="M 258,22 L 269,22 L 269,23 L 258,23 Z"/>
  <path d="M 309,22 L 324,22 L 324,23 L 309,23 Z"/>
  <path d="M 0,23 L 25,23 L 25,24 L 0,24 Z"/>
  <path d="M 114,23 L 125,23 L 125,24 L 114,24 Z"/>
  <path d="M 185,23 L 195,23 L 195,24 L 185,24 Z"/>
  <path d="M 233,23 L 245,23 L 245,24 L 233,24 Z"/>
  <path d="M 258,23 L 268,23 L 268,24 L 258,24 Z"/>
  <path d="M 310,23 L 324,23 L 324,24 L 310,24 Z"/>
  <path d="M 0,24 L 16,24 L 16,25 L 0,25 Z"/>
  <path d="M 114,24 L 125,24 L 125,25 L 114,25 Z"/>
  <path d="M 185,24 L 196,24 L 196,25 L 185,25 Z"/>
  <path d="M 233,24 L 245,24 L 245,25 L 233,25 Z"/>
  <path d="M 257,24 L 268,24 L 268,25 L 257,25 Z"/>
  <path d="M 309,24 L 323,24 L 323,25 L 309,25 Z"/>
  <path d="M 1,25 L 12,25 L 12,26 L 1,26 Z"/>
  <path d="M 114,25 L 125,25 L 125,26 L 114,26 Z"/>
  <path d="M 154,25 L 163,25 L 163,26 L 154,26 Z"/>
  <path d="M 185,25 L 196,25 L 196,26 L 185,26 Z"/>
  <path d="M 233,25 L 245,25 L 245,26 L 233,26 Z"/>
  <path d="M 257,25 L 267,25 L 267,26 L 257,26 Z"/>
  <path d="M 309,25 L 322,25 L 322,26 L 309,26 Z"/>
  <path d="M 1,26 L 12,26 L 12,27 L 1,27 Z"/>
  <path d="M 115,26 L 125,26 L 125,27 L 115,27 Z"/>
  <path d="M 146,26 L 171,26 L 171,27 L 146,27 Z"/>
  <path d="M 186,26 L 197,26 L 197,27 L 186,27 Z"/>
  <path d="M 234,26 L 246,26 L 246,27 L 234,27 Z"/>
  <path d="M 256,26 L 267,26 L 267,27 L 256,27 Z"/>
  <path d="M 308,26 L 322,26 L 322,27 L 308,27 Z"/>
  <path d="M 1,27 L 12,27 L 12,28 L 1,28 Z"/>
  <path d="M 115,27 L 126,27 L 126,28 L 115,28 Z"/>
  <path d="M 142,27 L 175,27 L 175,28 L 142,28 Z"/>
  <path d="M 186,27 L 197,27 L 197,28 L 186,28 Z"/>
  <path d="M 234,27 L 246,27 L 246,28 L 234,28 Z"/>
  <path d="M 256,27 L 266,27 L 266,28 L 256,28 Z"/>
  <path d="M 307,27 L 321,27 L 321,28 L 307,28 Z"/>
  <path d="M 1,28 L 12,28 L 12,29 L 1,29 Z"/>
  <path d="M 115,28 L 126,28 L 126,29 L 115,29 Z"/>
  <path d="M 139,28 L 179,28 L 179,29 L 139,29 Z"/>
  <path d="M 187,28 L 198,28 L 198,29 L 187,29 Z"/>
  <path d="M 234,28 L 246,28 L 246,29 L 234,29 Z"/>
  <path d="M 255,28 L 266,28 L 266,29 L 255,29 Z"/>
  <path d="M 307,28 L 320,28 L 320,29 L 307,29 Z"/>
  <path d="M 1,29 L 12,29 L 12,30 L 1,30 Z"/>
  <path d="M 115,29 L 126,29 L 126,30 L 115,30 Z"/>
  <path d="M 136,29 L 182,29 L 182,30 L 136,30 Z"/>
  <path d="M 187,29 L 198,29 L 198,30 L 187,30 Z"/>
  <path d="M 234,29 L 246,29 L 246,30 L 234,30 Z"/>
  <path d="M 255,29 L 265,29 L 265,30 L 255,30 Z"/>
  <path d="M 306,29 L 320,29 L 320,30 L 306,30 Z"/>
  <path d="M 1,30 L 12,30 L 12,31 L 1,31 Z"/>
  <path d="M 115,30 L 126,30 L 126,31 L 115,31 Z"/>
  <path d="M 133,30 L 184,30 L 184,31 L 133,31 Z"/>
  <path d="M 187,30 L 198,30 L 198,31 L 187,31 Z"/>
  <path d="M 235,30 L 247,30 L 247,31 L 235,31 Z"/>
  <path d="M 254,30 L 265,30 L 265,31 L 254,31 Z"/>
  <path d="M 305,30 L 319,30 L 319,31 L 305,31 Z"/>
  <path d="M 1,31 L 12,31 L 12,32 L 1,32 Z"/>
  <path d="M 115,31 L 126,31 L 126,32 L 115,32 Z"/>
  <path d="M 131,31 L 187,31 L 187,32 L 131,32 Z"/>
  <path d="M 188,31 L 199,31 L 199,32 L 188,32 Z"/>
  <path d="M 235,31 L 247,31 L 247,32 L 235,32 Z"/>
  <path d="M 254,31 L 264,31 L 264,32 L 254,32 Z"/>
  <path d="M 305,31 L 318,31 L 318,32 L 305,32 Z"/>
  <path d="M 1,32 L 12,32 L 12,33 L 1,33 Z"/>
  <path d="M 115,32 L 126,32 L 126,33 L 115,33 Z"/>
  <path d="M 129,32 L 199,32 L 199,33 L 129,33 Z"/>
  <path d="M 235,32 L 247,32 L 247,33 L 235,33 Z"/>
  <path d="M 253,32 L 264,32 L 264,33 L 253,33 Z"/>
  <path d="M 304,32 L 318,32 L 318,33 L 304,33 Z"/>
  <path d="M 2,33 L 12,33 L 12,34 L 2,34 Z"/>
  <path d="M 115,33 L 126,33 L 126,34 L 115,34 Z"/>
  <path d="M 127,33 L 200,33 L 200,34 L 127,34 Z"/>
  <path d="M 236,33 L 248,33 L 248,34 L 236,34 Z"/>
  <path d="M 253,33 L 263,33 L 263,34 L 253,34 Z"/>
  <path d="M 303,33 L 317,33 L 317,34 L 303,34 Z"/>
  <path d="M 2,34 L 13,34 L 13,35 L 2,35 Z"/>
  <path d="M 116,34 L 200,34 L 200,35 L 116,35 Z"/>
  <path d="M 236,34 L 248,34 L 248,35 L 236,35 Z"/>
  <path d="M 252,34 L 263,34 L 263,35 L 252,35 Z"/>
  <path d="M 303,34 L 316,34 L 316,35 L 303,35 Z"/>
  <path d="M 2,35 L 13,35 L 13,36 L 2,36 Z"/>
  <path d="M 116,35 L 201,35 L 201,36 L 116,36 Z"/>
  <path d="M 236,35 L 248,35 L 248,36 L 236,36 Z"/>
  <path d="M 252,35 L 262,35 L 262,36 L 252,36 Z"/>
  <path d="M 302,35 L 316,35 L 316,36 L 302,36 Z"/>
  <path d="M 2,36 L 13,36 L 13,37 L 2,37 Z"/>
  <path d="M 116,36 L 201,36 L 201,37 L 116,37 Z"/>
  <path d="M 236,36 L 248,36 L 248,37 L 236,37 Z"/>
  <path d="M 251,36 L 262,36 L 262,37 L 251,37 Z"/>
  <path d="M 301,36 L 315,36 L 315,37 L 301,37 Z"/>
  <path d="M 2,37 L 13,37 L 13,38 L 2,38 Z"/>
  <path d="M 116,37 L 153,37 L 153,38 L 116,38 Z"/>
  <path d="M 162,37 L 201,37 L 201,38 L 162,38 Z"/>
  <path d="M 237,37 L 249,37 L 249,38 L 237,38 Z"/>
  <path d="M 251,37 L 261,37 L 261,38 L 251,38 Z"/>
  <path d="M 301,37 L 314,37 L 314,38 L 301,38 Z"/>
  <path d="M 2,38 L 13,38 L 13,39 L 2,39 Z"/>
  <path d="M 116,38 L 146,38 L 146,39 L 116,39 Z"/>
  <path d="M 169,38 L 202,38 L 202,39 L 169,39 Z"/>
  <path d="M 237,38 L 249,38 L 249,39 L 237,39 Z"/>
  <path d="M 250,38 L 261,38 L 261,39 L 250,39 Z"/>
  <path d="M 300,38 L 314,38 L 314,39 L 300,39 Z"/>
  <path d="M 2,39 L 13,39 L 13,40 L 2,40 Z"/>
  <path d="M 116,39 L 142,39 L 142,40 L 116,40 Z"/>
  <path d="M 173,39 L 202,39 L 202,40 L 173,40 Z"/>
  <path d="M 237,39 L 249,39 L 249,40 L 237,40 Z"/>
  <path d="M 250,39 L 260,39 L 260,40 L 250,40 Z"/>
  <path d="M 299,39 L 313,39 L 313,40 L 299,40 Z"/>
  <path d="M 2,40 L 13,40 L 13,41 L 2,41 Z"/>
  <path d="M 116,40 L 139,40 L 139,41 L 116,41 Z"/>
  <path d="M 176,40 L 203,40 L 203,41 L 176,41 Z"/>
  <path d="M 238,40 L 260,40 L 260,41 L 238,41 Z"/>
  <path d="M 299,40 L 312,40 L 312,41 L 299,41 Z"/>
  <path d="M 2,41 L 13,41 L 13,42 L 2,42 Z"/>
  <path d="M 116,41 L 136,41 L 136,42 L 116,42 Z"/>
  <path d="M 179,41 L 203,41 L 203,42 L 179,42 Z"/>
  <path d="M 238,41 L 260,41 L 260,42 L 238,42 Z"/>
  <path d="M 298,41 L 312,41 L 312,42 L 298,42 Z"/>
  <path d="M 3,42 L 14,42 L 14,43 L 3,43 Z"/>
  <path d="M 117,42 L 134,42 L 134,43 L 117,43 Z"/>
  <path d="M 181,42 L 204,42 L 204,43 L 181,43 Z"/>
  <path d="M 238,42 L 259,42 L 259,43 L 238,43 Z"/>
  <path d="M 297,42 L 311,42 L 311,43 L 297,43 Z"/>
  <path d="M 3,43 L 14,43 L 14,44 L 3,44 Z"/>
  <path d="M 83,43 L 90,43 L 90,44 L 83,44 Z"/>
  <path d="M 117,43 L 132,43 L 132,44 L 117,44 Z"/>
  <path d="M 183,43 L 204,43 L 204,44 L 183,44 Z"/>
  <path d="M 238,43 L 259,43 L 259,44 L 238,44 Z"/>
  <path d="M 297,43 L 310,43 L 310,44 L 297,44 Z"/>
  <path d="M 3,44 L 14,44 L 14,45 L 3,45 Z"/>
  <path d="M 83,44 L 130,44 L 130,45 L 83,45 Z"/>
  <path d="M 185,44 L 204,44 L 204,45 L 185,45 Z"/>
  <path d="M 239,44 L 258,44 L 258,45 L 239,45 Z"/>
  <path d="M 296,44 L 310,44 L 310,45 L 296,45 Z"/>
  <path d="M 3,45 L 14,45 L 14,46 L 3,46 Z"/>
  <path d="M 84,45 L 129,45 L 129,46 L 84,46 Z"/>
  <path d="M 187,45 L 205,45 L 205,46 L 187,46 Z"/>
  <path d="M 239,45 L 258,45 L 258,46 L 239,46 Z"/>
  <path d="M 295,45 L 309,45 L 309,46 L 295,46 Z"/>
  <path d="M 3,46 L 14,46 L 14,47 L 3,47 Z"/>
  <path d="M 84,46 L 127,46 L 127,47 L 84,47 Z"/>
  <path d="M 189,46 L 205,46 L 205,47 L 189,47 Z"/>
  <path d="M 239,46 L 257,46 L 257,47 L 239,47 Z"/>
  <path d="M 295,46 L 308,46 L 308,47 L 295,47 Z"/>
  <path d="M 3,47 L 14,47 L 14,48 L 3,48 Z"/>
  <path d="M 84,47 L 128,47 L 128,48 L 84,48 Z"/>
  <path d="M 190,47 L 206,47 L 206,48 L 190,48 Z"/>
  <path d="M 240,47 L 257,47 L 257,48 L 240,48 Z"/>
  <path d="M 294,47 L 307,47 L 307,48 L 294,48 Z"/>
  <path d="M 3,48 L 14,48 L 14,49 L 3,49 Z"/>
  <path d="M 46,48 L 47,48 L 47,49 L 46,49 Z"/>
  <path d="M 84,48 L 128,48 L 128,49 L 84,49 Z"/>
  <path d="M 191,48 L 207,48 L 207,49 L 191,49 Z"/>
  <path d="M 240,48 L 256,48 L 256,49 L 240,49 Z"/>
  <path d="M 293,48 L 307,48 L 307,49 L 293,49 Z"/>
  <path d="M 3,49 L 14,49 L 14,50 L 3,50 Z"/>
  <path d="M 42,49 L 47,49 L 47,50 L 42,50 Z"/>
  <path d="M 84,49 L 128,49 L 128,50 L 84,50 Z"/>
  <path d="M 193,49 L 208,49 L 208,50 L 193,50 Z"/>
  <path d="M 240,49 L 256,49 L 256,50 L 240,50 Z"/>
  <path d="M 293,49 L 306,49 L 306,50 L 293,50 Z"/>
  <path d="M 4,50 L 14,50 L 14,51 L 4,51 Z"/>
  <path d="M 38,50 L 47,50 L 47,51 L 38,51 Z"/>
  <path d="M 84,50 L 128,50 L 128,51 L 84,51 Z"/>
  <path d="M 194,50 L 209,50 L 209,51 L 194,51 Z"/>
  <path d="M 240,50 L 255,50 L 255,51 L 240,51 Z"/>
  <path d="M 292,50 L 305,50 L 305,51 L 292,51 Z"/>
  <path d="M 4,51 L 15,51 L 15,52 L 4,52 Z"/>
  <path d="M 35,51 L 47,51 L 47,52 L 35,52 Z"/>
  <path d="M 84,51 L 128,51 L 128,52 L 84,52 Z"/>
  <path d="M 195,51 L 210,51 L 210,52 L 195,52 Z"/>
  <path d="M 241,51 L 255,51 L 255,52 L 241,52 Z"/>
  <path d="M 291,51 L 305,51 L 305,52 L 291,52 Z"/>
  <path d="M 4,52 L 15,52 L 15,53 L 4,53 Z"/>
  <path d="M 31,52 L 47,52 L 47,53 L 31,53 Z"/>
  <path d="M 84,52 L 128,52 L 128,53 L 84,53 Z"/>
  <path d="M 196,52 L 211,52 L 211,53 L 196,53 Z"/>
  <path d="M 241,52 L 254,52 L 254,53 L 241,53 Z"/>
  <path d="M 291,52 L 304,52 L 304,53 L 291,53 Z"/>
  <path d="M 4,53 L 15,53 L 15,54 L 4,54 Z"/>
  <path d="M 27,53 L 47,53 L 47,54 L 27,54 Z"/>
  <path d="M 84,53 L 128,53 L 128,54 L 84,54 Z"/>
  <path d="M 197,53 L 211,53 L 211,54 L 197,54 Z"/>
  <path d="M 241,53 L 254,53 L 254,54 L 241,54 Z"/>
  <path d="M 290,53 L 303,53 L 303,54 L 290,54 Z"/>
  <path d="M 4,54 L 15,54 L 15,55 L 4,55 Z"/>
  <path d="M 23,54 L 48,54 L 48,55 L 23,55 Z"/>
  <path d="M 85,54 L 128,54 L 128,55 L 85,55 Z"/>
  <path d="M 198,54 L 212,54 L 212,55 L 198,55 Z"/>
  <path d="M 242,54 L 253,54 L 253,55 L 242,55 Z"/>
  <path d="M 289,54 L 303,54 L 303,55 L 289,55 Z"/>
  <path d="M 4,55 L 15,55 L 15,56 L 4,56 Z"/>
  <path d="M 19,55 L 48,55 L 48,56 L 19,56 Z"/>
  <path d="M 85,55 L 129,55 L 129,56 L 85,56 Z"/>
  <path d="M 199,55 L 213,55 L 213,56 L 199,56 Z"/>
  <path d="M 242,55 L 253,55 L 253,56 L 242,56 Z"/>
  <path d="M 289,55 L 302,55 L 302,56 L 289,56 Z"/>
  <path d="M 4,56 L 48,56 L 48,57 L 4,57 Z"/>
  <path d="M 85,56 L 97,56 L 97,57 L 85,57 Z"/>
  <path d="M 103,56 L 116,56 L 116,57 L 103,57 Z"/>
  <path d="M 121,56 L 129,56 L 129,57 L 121,57 Z"/>
  <path d="M 200,56 L 213,56 L 213,57 L 200,57 Z"/>
  <path d="M 242,56 L 252,56 L 252,57 L 242,57 Z"/>
  <path d="M 288,56 L 301,56 L 301,57 L 288,57 Z"/>
  <path d="M 4,57 L 48,57 L 48,58 L 4,58 Z"/>
  <path d="M 85,57 L 97,57 L 97,58 L 85,58 Z"/>
  <path d="M 102,57 L 115,57 L 115,58 L 102,58 Z"/>
  <path d="M 201,57 L 214,57 L 214,58 L 201,58 Z"/>
  <path d="M 242,57 L 252,57 L 252,58 L 242,58 Z"/>
  <path d="M 287,57 L 301,57 L 301,58 L 287,58 Z"/>
  <path d="M 5,58 L 48,58 L 48,59 L 5,59 Z"/>
  <path d="M 85,58 L 97,58 L 97,59 L 85,59 Z"/>
  <path d="M 101,58 L 114,58 L 114,59 L 101,59 Z"/>
  <path d="M 202,58 L 215,58 L 215,59 L 202,59 Z"/>
  <path d="M 243,58 L 251,58 L 251,59 L 243,59 Z"/>
  <path d="M 287,58 L 300,58 L 300,59 L 287,59 Z"/>
  <path d="M 5,59 L 48,59 L 48,60 L 5,60 Z"/>
  <path d="M 85,59 L 97,59 L 97,60 L 85,60 Z"/>
  <path d="M 101,59 L 113,59 L 113,60 L 101,60 Z"/>
  <path d="M 202,59 L 215,59 L 215,60 L 202,60 Z"/>
  <path d="M 243,59 L 251,59 L 251,60 L 243,60 Z"/>
  <path d="M 286,59 L 299,59 L 299,60 L 286,60 Z"/>
  <path d="M 5,60 L 48,60 L 48,61 L 5,61 Z"/>
  <path d="M 85,60 L 97,60 L 97,61 L 85,61 Z"/>
  <path d="M 100,60 L 112,60 L 112,61 L 100,61 Z"/>
  <path d="M 203,60 L 216,60 L 216,61 L 203,61 Z"/>
  <path d="M 243,60 L 250,60 L 250,61 L 243,61 Z"/>
  <path d="M 285,60 L 299,60 L 299,61 L 285,61 Z"/>
  <path d="M 5,61 L 48,61 L 48,62 L 5,62 Z"/>
  <path d="M 85,61 L 97,61 L 97,62 L 85,62 Z"/>
  <path d="M 100,61 L 112,61 L 112,62 L 100,62 Z"/>
  <path d="M 204,61 L 216,61 L 216,62 L 204,62 Z"/>
  <path d="M 243,61 L 250,61 L 250,62 L 243,62 Z"/>
  <path d="M 284,61 L 298,61 L 298,62 L 284,62 Z"/>
  <path d="M 5,62 L 48,62 L 48,63 L 5,63 Z"/>
  <path d="M 85,62 L 97,62 L 97,63 L 85,63 Z"/>
  <path d="M 99,62 L 111,62 L 111,63 L 99,63 Z"/>
  <path d="M 205,62 L 217,62 L 217,63 L 205,63 Z"/>
  <path d="M 244,62 L 249,62 L 249,63 L 244,63 Z"/>
  <path d="M 284,62 L 297,62 L 297,63 L 284,63 Z"/>
  <path d="M 5,63 L 48,63 L 48,64 L 5,64 Z"/>
  <path d="M 86,63 L 97,63 L 97,64 L 86,64 Z"/>
  <path d="M 99,63 L 110,63 L 110,64 L 99,64 Z"/>
  <path d="M 205,63 L 217,63 L 217,64 L 205,64 Z"/>
  <path d="M 244,63 L 249,63 L 249,64 L 244,64 Z"/>
  <path d="M 283,63 L 297,63 L 297,64 L 283,64 Z"/>
  <path d="M 5,64 L 36,64 L 36,65 L 5,65 Z"/>
  <path d="M 37,64 L 49,64 L 49,65 L 37,65 Z"/>
  <path d="M 86,64 L 110,64 L 110,65 L 86,65 Z"/>
  <path d="M 206,64 L 218,64 L 218,65 L 206,65 Z"/>
  <path d="M 244,64 L 248,64 L 248,65 L 244,65 Z"/>
  <path d="M 282,64 L 296,64 L 296,65 L 282,65 Z"/>
  <path d="M 5,65 L 32,65 L 32,66 L 5,66 Z"/>
  <path d="M 37,65 L 49,65 L 49,66 L 37,66 Z"/>
  <path d="M 86,65 L 109,65 L 109,66 L 86,66 Z"/>
  <path d="M 206,65 L 218,65 L 218,66 L 206,66 Z"/>
  <path d="M 245,65 L 248,65 L 248,66 L 245,66 Z"/>
  <path d="M 282,65 L 295,65 L 295,66 L 282,66 Z"/>
  <path d="M 5,66 L 28,66 L 28,67 L 5,67 Z"/>
  <path d="M 37,66 L 49,66 L 49,67 L 37,67 Z"/>
  <path d="M 86,66 L 109,66 L 109,67 L 86,67 Z"/>
  <path d="M 207,66 L 219,66 L 219,67 L 207,67 Z"/>
  <path d="M 245,66 L 247,66 L 247,67 L 245,67 Z"/>
  <path d="M 281,66 L 295,66 L 295,67 L 281,67 Z"/>
  <path d="M 6,67 L 24,67 L 24,68 L 6,68 Z"/>
  <path d="M 37,67 L 49,67 L 49,68 L 37,68 Z"/>
  <path d="M 86,67 L 108,67 L 108,68 L 86,68 Z"/>
  <path d="M 207,67 L 219,67 L 219,68 L 207,68 Z"/>
  <path d="M 245,67 L 247,67 L 247,68 L 245,68 Z"/>
  <path d="M 280,67 L 294,67 L 294,68 L 280,68 Z"/>
  <path d="M 6,68 L 20,68 L 20,69 L 6,69 Z"/>
  <path d="M 38,68 L 49,68 L 49,69 L 38,69 Z"/>
  <path d="M 86,68 L 107,68 L 107,69 L 86,69 Z"/>
  <path d="M 208,68 L 219,68 L 219,69 L 208,69 Z"/>
  <path d="M 245,68 L 246,68 L 246,69 L 245,69 Z"/>
  <path d="M 280,68 L 293,68 L 293,69 L 280,69 Z"/>
  <path d="M 6,69 L 16,69 L 16,70 L 6,70 Z"/>
  <path d="M 38,69 L 49,69 L 49,70 L 38,70 Z"/>
  <path d="M 86,69 L 107,69 L 107,70 L 86,70 Z"/>
  <path d="M 208,69 L 220,69 L 220,70 L 208,70 Z"/>
  <path d="M 279,69 L 293,69 L 293,70 L 279,70 Z"/>
  <path d="M 6,70 L 11,70 L 11,71 L 6,71 Z"/>
  <path d="M 38,70 L 49,70 L 49,71 L 38,71 Z"/>
  <path d="M 86,70 L 107,70 L 107,71 L 86,71 Z"/>
  <path d="M 209,70 L 220,70 L 220,71 L 209,71 Z"/>
  <path d="M 278,70 L 292,70 L 292,71 L 278,71 Z"/>
  <path d="M 6,71 L 7,71 L 7,72 L 6,72 Z"/>
  <path d="M 38,71 L 49,71 L 49,72 L 38,72 Z"/>
  <path d="M 86,71 L 106,71 L 106,72 L 86,72 Z"/>
  <path d="M 209,71 L 220,71 L 220,72 L 209,72 Z"/>
  <path d="M 278,71 L 291,71 L 291,72 L 278,72 Z"/>
  <path d="M 38,72 L 49,72 L 49,73 L 38,73 Z"/>
  <path d="M 87,72 L 106,72 L 106,73 L 87,73 Z"/>
  <path d="M 210,72 L 221,72 L 221,73 L 210,73 Z"/>
  <path d="M 277,72 L 291,72 L 291,73 L 277,73 Z"/>
  <path d="M 38,73 L 50,73 L 50,74 L 38,74 Z"/>
  <path d="M 87,73 L 105,73 L 105,74 L 87,74 Z"/>
  <path d="M 210,73 L 221,73 L 221,74 L 210,74 Z"/>
  <path d="M 276,73 L 290,73 L 290,74 L 276,74 Z"/>
  <path d="M 38,74 L 50,74 L 50,75 L 38,75 Z"/>
  <path d="M 87,74 L 105,74 L 105,75 L 87,75 Z"/>
  <path d="M 210,74 L 221,74 L 221,75 L 210,75 Z"/>
  <path d="M 276,74 L 289,74 L 289,75 L 276,75 Z"/>
  <path d="M 38,75 L 50,75 L 50,76 L 38,76 Z"/>
  <path d="M 87,75 L 105,75 L 105,76 L 87,76 Z"/>
  <path d="M 211,75 L 222,75 L 222,76 L 211,76 Z"/>
  <path d="M 275,75 L 288,75 L 288,76 L 275,76 Z"/>
  <path d="M 38,76 L 50,76 L 50,77 L 38,77 Z"/>
  <path d="M 87,76 L 104,76 L 104,77 L 87,77 Z"/>
  <path d="M 153,76 L 164,76 L 164,77 L 153,77 Z"/>
  <path d="M 211,76 L 222,76 L 222,77 L 211,77 Z"/>
  <path d="M 274,76 L 288,76 L 288,77 L 274,77 Z"/>
  <path d="M 39,77 L 50,77 L 50,78 L 39,78 Z"/>
  <path d="M 87,77 L 104,77 L 104,78 L 87,78 Z"/>
  <path d="M 151,77 L 166,77 L 166,78 L 151,78 Z"/>
  <path d="M 211,77 L 222,77 L 222,78 L 211,78 Z"/>
  <path d="M 274,77 L 287,77 L 287,78 L 274,78 Z"/>
  <path d="M 39,78 L 50,78 L 50,79 L 39,79 Z"/>
  <path d="M 87,78 L 104,78 L 104,79 L 87,79 Z"/>
  <path d="M 149,78 L 167,78 L 167,79 L 149,79 Z"/>
  <path d="M 212,78 L 222,78 L 222,79 L 212,79 Z"/>
  <path d="M 273,78 L 286,78 L 286,79 L 273,79 Z"/>
  <path d="M 39,79 L 50,79 L 50,80 L 39,80 Z"/>
  <path d="M 87,79 L 104,79 L 104,80 L 87,80 Z"/>
  <path d="M 148,79 L 169,79 L 169,80 L 148,80 Z"/>
  <path d="M 212,79 L 223,79 L 223,80 L 212,80 Z"/>
  <path d="M 272,79 L 286,79 L 286,80 L 272,80 Z"/>
  <path d="M 39,80 L 50,80 L 50,81 L 39,81 Z"/>
  <path d="M 88,80 L 103,80 L 103,81 L 88,81 Z"/>
  <path d="M 147,80 L 170,80 L 170,81 L 147,81 Z"/>
  <path d="M 212,80 L 223,80 L 223,81 L 212,81 Z"/>
  <path d="M 272,80 L 285,80 L 285,81 L 272,81 Z"/>
  <path d="M 39,81 L 50,81 L 50,82 L 39,82 Z"/>
  <path d="M 88,81 L 103,81 L 103,82 L 88,82 Z"/>
  <path d="M 146,81 L 171,81 L 171,82 L 146,82 Z"/>
  <path d="M 212,81 L 223,81 L 223,82 L 212,82 Z"/>
  <path d="M 271,81 L 284,81 L 284,82 L 271,82 Z"/>
  <path d="M 39,82 L 50,82 L 50,83 L 39,83 Z"/>
  <path d="M 88,82 L 103,82 L 103,83 L 88,83 Z"/>
  <path d="M 146,82 L 171,82 L 171,83 L 146,83 Z"/>
  <path d="M 212,82 L 223,82 L 223,83 L 212,83 Z"/>
  <path d="M 270,82 L 284,82 L 284,83 L 270,83 Z"/>
  <path d="M 39,83 L 51,83 L 51,84 L 39,84 Z"/>
  <path d="M 88,83 L 103,83 L 103,84 L 88,84 Z"/>
  <path d="M 145,83 L 172,83 L 172,84 L 145,84 Z"/>
  <path d="M 213,83 L 223,83 L 223,84 L 213,84 Z"/>
  <path d="M 270,83 L 283,83 L 283,84 L 270,84 Z"/>
  <path d="M 39,84 L 51,84 L 51,85 L 39,85 Z"/>
  <path d="M 88,84 L 103,84 L 103,85 L 88,85 Z"/>
  <path d="M 144,84 L 157,84 L 157,85 L 144,85 Z"/>
  <path d="M 160,84 L 172,84 L 172,85 L 160,85 Z"/>
  <path d="M 213,84 L 223,84 L 223,85 L 213,85 Z"/>
  <path d="M 269,84 L 282,84 L 282,85 L 269,85 Z"/>
  <path d="M 39,85 L 51,85 L 51,86 L 39,86 Z"/>
  <path d="M 88,85 L 103,85 L 103,86 L 88,86 Z"/>
  <path d="M 144,85 L 155,85 L 155,86 L 144,86 Z"/>
  <path d="M 162,85 L 173,85 L 173,86 L 162,86 Z"/>
  <path d="M 213,85 L 223,85 L 223,86 L 213,86 Z"/>
  <path d="M 268,85 L 282,85 L 282,86 L 268,86 Z"/>
  <path d="M 40,86 L 51,86 L 51,87 L 40,87 Z"/>
  <path d="M 88,86 L 102,86 L 102,87 L 88,87 Z"/>
  <path d="M 144,86 L 154,86 L 154,87 L 144,87 Z"/>
  <path d="M 164,86 L 173,86 L 173,87 L 164,87 Z"/>
  <path d="M 213,86 L 223,86 L 223,87 L 213,87 Z"/>
  <path d="M 268,86 L 281,86 L 281,87 L 268,87 Z"/>
  <path d="M 40,87 L 51,87 L 51,88 L 40,88 Z"/>
  <path d="M 88,87 L 102,87 L 102,88 L 88,88 Z"/>
  <path d="M 143,87 L 153,87 L 153,88 L 143,88 Z"/>
  <path d="M 164,87 L 173,87 L 173,88 L 164,88 Z"/>
  <path d="M 213,87 L 224,87 L 224,88 L 213,88 Z"/>
  <path d="M 267,87 L 280,87 L 280,88 L 267,88 Z"/>
  <path d="M 40,88 L 51,88 L 51,89 L 40,89 Z"/>
  <path d="M 88,88 L 102,88 L 102,89 L 88,89 Z"/>
  <path d="M 143,88 L 152,88 L 152,89 L 143,89 Z"/>
  <path d="M 165,88 L 174,88 L 174,89 L 165,89 Z"/>
  <path d="M 213,88 L 224,88 L 224,89 L 213,89 Z"/>
  <path d="M 266,88 L 280,88 L 280,89 L 266,89 Z"/>
  <path d="M 40,89 L 51,89 L 51,90 L 40,90 Z"/>
  <path d="M 89,89 L 102,89 L 102,90 L 89,90 Z"/>
  <path d="M 143,89 L 152,89 L 152,90 L 143,90 Z"/>
  <path d="M 165,89 L 174,89 L 174,90 L 165,90 Z"/>
  <path d="M 213,89 L 224,89 L 224,90 L 213,90 Z"/>
  <path d="M 266,89 L 279,89 L 279,90 L 266,90 Z"/>
  <path d="M 40,90 L 51,90 L 51,91 L 40,91 Z"/>
  <path d="M 89,90 L 102,90 L 102,91 L 89,91 Z"/>
  <path d="M 143,90 L 152,90 L 152,91 L 143,91 Z"/>
  <path d="M 165,90 L 174,90 L 174,91 L 165,91 Z"/>
  <path d="M 213,90 L 224,90 L 224,91 L 213,91 Z"/>
  <path d="M 265,90 L 278,90 L 278,91 L 265,91 Z"/>
  <path d="M 40,91 L 51,91 L 51,92 L 40,92 Z"/>
  <path d="M 89,91 L 102,91 L 102,92 L 89,92 Z"/>
  <path d="M 143,91 L 152,91 L 152,92 L 143,92 Z"/>
  <path d="M 165,91 L 174,91 L 174,92 L 165,92 Z"/>
  <path d="M 213,91 L 224,91 L 224,92 L 213,92 Z"/>
  <path d="M 264,91 L 278,91 L 278,92 L 264,92 Z"/>
  <path d="M 40,92 L 52,92 L 52,93 L 40,93 Z"/>
  <path d="M 89,92 L 102,92 L 102,93 L 89,93 Z"/>
  <path d="M 143,92 L 152,92 L 152,93 L 143,93 Z"/>
  <path d="M 165,92 L 174,92 L 174,93 L 165,93 Z"/>
  <path d="M 213,92 L 224,92 L 224,93 L 213,93 Z"/>
  <path d="M 264,92 L 277,92 L 277,93 L 264,93 Z"/>
  <path d="M 40,93 L 52,93 L 52,94 L 40,94 Z"/>
  <path d="M 89,93 L 102,93 L 102,94 L 89,94 Z"/>
  <path d="M 143,93 L 152,93 L 152,94 L 143,94 Z"/>
  <path d="M 165,93 L 174,93 L 174,94 L 165,94 Z"/>
  <path d="M 213,93 L 224,93 L 224,94 L 213,94 Z"/>
  <path d="M 263,93 L 276,93 L 276,94 L 263,94 Z"/>
  <path d="M 40,94 L 52,94 L 52,95 L 40,95 Z"/>
  <path d="M 89,94 L 102,94 L 102,95 L 89,95 Z"/>
  <path d="M 143,94 L 153,94 L 153,95 L 143,95 Z"/>
  <path d="M 164,94 L 173,94 L 173,95 L 164,95 Z"/>
  <path d="M 213,94 L 224,94 L 224,95 L 213,95 Z"/>
  <path d="M 262,94 L 276,94 L 276,95 L 262,95 Z"/>
  <path d="M 41,95 L 52,95 L 52,96 L 41,96 Z"/>
  <path d="M 89,95 L 102,95 L 102,96 L 89,96 Z"/>
  <path d="M 144,95 L 154,95 L 154,96 L 144,96 Z"/>
  <path d="M 164,95 L 173,95 L 173,96 L 164,96 Z"/>
  <path d="M 213,95 L 224,95 L 224,96 L 213,96 Z"/>
  <path d="M 261,95 L 275,95 L 275,96 L 261,96 Z"/>
  <path d="M 41,96 L 52,96 L 52,97 L 41,97 Z"/>
  <path d="M 89,96 L 102,96 L 102,97 L 89,97 Z"/>
  <path d="M 144,96 L 155,96 L 155,97 L 144,97 Z"/>
  <path d="M 163,96 L 173,96 L 173,97 L 163,97 Z"/>
  <path d="M 213,96 L 223,96 L 223,97 L 213,97 Z"/>
  <path d="M 261,96 L 274,96 L 274,97 L 261,97 Z"/>
  <path d="M 41,97 L 52,97 L 52,98 L 41,98 Z"/>
  <path d="M 89,97 L 103,97 L 103,98 L 89,98 Z"/>
  <path d="M 145,97 L 157,97 L 157,98 L 145,98 Z"/>
  <path d="M 161,97 L 172,97 L 172,98 L 161,98 Z"/>
  <path d="M 213,97 L 223,97 L 223,98 L 213,98 Z"/>
  <path d="M 260,97 L 274,97 L 274,98 L 260,98 Z"/>
  <path d="M 41,98 L 52,98 L 52,99 L 41,99 Z"/>
  <path d="M 90,98 L 103,98 L 103,99 L 90,99 Z"/>
  <path d="M 145,98 L 172,98 L 172,99 L 145,99 Z"/>
  <path d="M 213,98 L 223,98 L 223,99 L 213,99 Z"/>
  <path d="M 260,98 L 273,98 L 273,99 L 260,99 Z"/>
  <path d="M 41,99 L 52,99 L 52,100 L 41,100 Z"/>
  <path d="M 90,99 L 103,99 L 103,100 L 90,100 Z"/>
  <path d="M 146,99 L 171,99 L 171,100 L 146,100 Z"/>
  <path d="M 213,99 L 223,99 L 223,100 L 213,100 Z"/>
  <path d="M 260,99 L 272,99 L 272,100 L 260,100 Z"/>
  <path d="M 41,100 L 52,100 L 52,101 L 41,101 Z"/>
  <path d="M 90,100 L 103,100 L 103,101 L 90,101 Z"/>
  <path d="M 146,100 L 171,100 L 171,101 L 146,101 Z"/>
  <path d="M 212,100 L 223,100 L 223,101 L 212,101 Z"/>
  <path d="M 260,100 L 272,100 L 272,101 L 260,101 Z"/>
  <path d="M 41,101 L 52,101 L 52,102 L 41,102 Z"/>
  <path d="M 90,101 L 103,101 L 103,102 L 90,102 Z"/>
  <path d="M 147,101 L 170,101 L 170,102 L 147,102 Z"/>
  <path d="M 212,101 L 223,101 L 223,102 L 212,102 Z"/>
  <path d="M 260,101 L 271,101 L 271,102 L 260,102 Z"/>
  <path d="M 41,102 L 53,102 L 53,103 L 41,103 Z"/>
  <path d="M 90,102 L 103,102 L 103,103 L 90,103 Z"/>
  <path d="M 148,102 L 169,102 L 169,103 L 148,103 Z"/>
  <path d="M 212,102 L 223,102 L 223,103 L 212,103 Z"/>
  <path d="M 260,102 L 271,102 L 271,103 L 260,103 Z"/>
  <path d="M 41,103 L 53,103 L 53,104 L 41,104 Z"/>
  <path d="M 90,103 L 104,103 L 104,104 L 90,104 Z"/>
  <path d="M 149,103 L 167,103 L 167,104 L 149,104 Z"/>
  <path d="M 212,103 L 223,103 L 223,104 L 212,104 Z"/>
  <path d="M 260,103 L 271,103 L 271,104 L 260,104 Z"/>
  <path d="M 42,104 L 53,104 L 53,105 L 42,105 Z"/>
  <path d="M 90,104 L 104,104 L 104,105 L 90,105 Z"/>
  <path d="M 151,104 L 166,104 L 166,105 L 151,105 Z"/>
  <path d="M 212,104 L 222,104 L 222,105 L 212,105 Z"/>
  <path d="M 260,104 L 271,104 L 271,105 L 260,105 Z"/>
  <path d="M 42,105 L 53,105 L 53,106 L 42,106 Z"/>
  <path d="M 90,105 L 104,105 L 104,106 L 90,106 Z"/>
  <path d="M 153,105 L 164,105 L 164,106 L 153,106 Z"/>
  <path d="M 211,105 L 222,105 L 222,106 L 211,106 Z"/>
  <path d="M 260,105 L 271,105 L 271,106 L 260,106 Z"/>
  <path d="M 42,106 L 53,106 L 53,107 L 42,107 Z"/>
  <path d="M 90,106 L 104,106 L 104,107 L 90,107 Z"/>
  <path d="M 211,106 L 222,106 L 222,107 L 211,107 Z"/>
  <path d="M 260,106 L 271,106 L 271,107 L 260,107 Z"/>
  <path d="M 42,107 L 53,107 L 53,108 L 42,108 Z"/>
  <path d="M 91,107 L 105,107 L 105,108 L 91,108 Z"/>
  <path d="M 211,107 L 222,107 L 222,108 L 211,108 Z"/>
  <path d="M 259,107 L 271,107 L 271,108 L 259,108 Z"/>
  <path d="M 42,108 L 53,108 L 53,109 L 42,109 Z"/>
  <path d="M 91,108 L 105,108 L 105,109 L 91,109 Z"/>
  <path d="M 211,108 L 222,108 L 222,109 L 211,109 Z"/>
  <path d="M 259,108 L 271,108 L 271,109 L 259,109 Z"/>
  <path d="M 42,109 L 53,109 L 53,110 L 42,110 Z"/>
  <path d="M 91,109 L 105,109 L 105,110 L 91,110 Z"/>
  <path d="M 210,109 L 222,109 L 222,110 L 210,110 Z"/>
  <path d="M 259,109 L 271,109 L 271,110 L 259,110 Z"/>
  <path d="M 42,110 L 53,110 L 53,111 L 42,111 Z"/>
  <path d="M 91,110 L 106,110 L 106,111 L 91,111 Z"/>
  <path d="M 210,110 L 222,110 L 222,111 L 210,111 Z"/>
  <path d="M 259,110 L 271,110 L 271,111 L 259,111 Z"/>
  <path d="M 42,111 L 54,111 L 54,112 L 42,112 Z"/>
  <path d="M 91,111 L 106,111 L 106,112 L 91,112 Z"/>
  <path d="M 209,111 L 222,111 L 222,112 L 209,112 Z"/>
  <path d="M 259,111 L 270,111 L 270,112 L 259,112 Z"/>
  <path d="M 43,112 L 54,112 L 54,113 L 43,113 Z"/>
  <path d="M 91,112 L 106,112 L 106,113 L 91,113 Z"/>
  <path d="M 209,112 L 222,112 L 222,113 L 209,113 Z"/>
  <path d="M 259,112 L 270,112 L 270,113 L 259,113 Z"/>
  <path d="M 43,113 L 54,113 L 54,114 L 43,114 Z"/>
  <path d="M 91,113 L 107,113 L 107,114 L 91,114 Z"/>
  <path d="M 209,113 L 222,113 L 222,114 L 209,114 Z"/>
  <path d="M 259,113 L 270,113 L 270,114 L 259,114 Z"/>
  <path d="M 43,114 L 54,114 L 54,115 L 43,115 Z"/>
  <path d="M 91,114 L 107,114 L 107,115 L 91,115 Z"/>
  <path d="M 208,114 L 221,114 L 221,115 L 208,115 Z"/>
  <path d="M 259,114 L 270,114 L 270,115 L 259,115 Z"/>
  <path d="M 43,115 L 54,115 L 54,116 L 43,116 Z"/>
  <path d="M 91,115 L 108,115 L 108,116 L 91,116 Z"/>
  <path d="M 208,115 L 221,115 L 221,116 L 208,116 Z"/>
  <path d="M 259,115 L 270,115 L 270,116 L 259,116 Z"/>
  <path d="M 43,116 L 54,116 L 54,117 L 43,117 Z"/>
  <path d="M 92,116 L 108,116 L 108,117 L 92,117 Z"/>
  <path d="M 207,116 L 221,116 L 221,117 L 207,117 Z"/>
  <path d="M 259,116 L 270,116 L 270,117 L 259,117 Z"/>
  <path d="M 43,117 L 54,117 L 54,118 L 43,118 Z"/>
  <path d="M 92,117 L 109,117 L 109,118 L 92,118 Z"/>
  <path d="M 207,117 L 221,117 L 221,118 L 207,118 Z"/>
  <path d="M 258,117 L 270,117 L 270,118 L 258,118 Z"/>
  <path d="M 43,118 L 54,118 L 54,119 L 43,119 Z"/>
  <path d="M 92,118 L 109,118 L 109,119 L 92,119 Z"/>
  <path d="M 206,118 L 221,118 L 221,119 L 206,119 Z"/>
  <path d="M 258,118 L 270,118 L 270,119 L 258,119 Z"/>
  <path d="M 43,119 L 54,119 L 54,120 L 43,120 Z"/>
  <path d="M 92,119 L 110,119 L 110,120 L 92,120 Z"/>
  <path d="M 205,119 L 221,119 L 221,120 L 205,120 Z"/>
  <path d="M 258,119 L 270,119 L 270,120 L 258,120 Z"/>
  <path d="M 43,120 L 54,120 L 54,121 L 43,121 Z"/>
  <path d="M 92,120 L 111,120 L 111,121 L 92,121 Z"/>
  <path d="M 205,120 L 221,120 L 221,121 L 205,121 Z"/>
  <path d="M 258,120 L 269,120 L 269,121 L 258,121 Z"/>
  <path d="M 44,121 L 55,121 L 55,122 L 44,122 Z"/>
  <path d="M 92,121 L 111,121 L 111,122 L 92,122 Z"/>
  <path d="M 204,121 L 221,121 L 221,122 L 204,122 Z"/>
  <path d="M 258,121 L 269,121 L 269,122 L 258,122 Z"/>
  <path d="M 44,122 L 55,122 L 55,123 L 44,123 Z"/>
  <path d="M 92,122 L 112,122 L 112,123 L 92,123 Z"/>
  <path d="M 203,122 L 221,122 L 221,123 L 203,123 Z"/>
  <path d="M 258,122 L 269,122 L 269,123 L 258,123 Z"/>
  <path d="M 44,123 L 55,123 L 55,124 L 44,124 Z"/>
  <path d="M 92,123 L 113,123 L 113,124 L 92,124 Z"/>
  <path d="M 203,123 L 221,123 L 221,124 L 203,124 Z"/>
  <path d="M 258,123 L 269,123 L 269,124 L 258,124 Z"/>
  <path d="M 44,124 L 55,124 L 55,125 L 44,125 Z"/>
  <path d="M 93,124 L 114,124 L 114,125 L 93,125 Z"/>
  <path d="M 202,124 L 220,124 L 220,125 L 202,125 Z"/>
  <path d="M 258,124 L 269,124 L 269,125 L 258,125 Z"/>
  <path d="M 44,125 L 55,125 L 55,126 L 44,126 Z"/>
  <path d="M 93,125 L 114,125 L 114,126 L 93,126 Z"/>
  <path d="M 201,125 L 220,125 L 220,126 L 201,126 Z"/>
  <path d="M 258,125 L 269,125 L 269,126 L 258,126 Z"/>
  <path d="M 45,126 L 55,126 L 55,127 L 45,127 Z"/>
  <path d="M 93,126 L 115,126 L 115,127 L 93,127 Z"/>
  <path d="M 200,126 L 220,126 L 220,127 L 200,127 Z"/>
  <path d="M 257,126 L 269,126 L 269,127 L 257,127 Z"/>
  <path d="M 45,127 L 55,127 L 55,128 L 45,128 Z"/>
  <path d="M 93,127 L 116,127 L 116,128 L 93,128 Z"/>
  <path d="M 199,127 L 220,127 L 220,128 L 199,128 Z"/>
  <path d="M 257,127 L 269,127 L 269,128 L 257,128 Z"/>
  <path d="M 45,128 L 55,128 L 55,129 L 45,129 Z"/>
  <path d="M 93,128 L 104,128 L 104,129 L 93,129 Z"/>
  <path d="M 105,128 L 117,128 L 117,129 L 105,129 Z"/>
  <path d="M 199,128 L 220,128 L 220,129 L 199,129 Z"/>
  <path d="M 257,128 L 269,128 L 269,129 L 257,129 Z"/>
  <path d="M 45,129 L 55,129 L 55,130 L 45,130 Z"/>
  <path d="M 93,129 L 104,129 L 104,130 L 93,130 Z"/>
  <path d="M 105,129 L 118,129 L 118,130 L 105,130 Z"/>
  <path d="M 198,129 L 220,129 L 220,130 L 198,130 Z"/>
  <path d="M 257,129 L 268,129 L 268,130 L 257,130 Z"/>
  <path d="M 45,130 L 55,130 L 55,131 L 45,131 Z"/>
  <path d="M 93,130 L 104,130 L 104,131 L 93,131 Z"/>
  <path d="M 106,130 L 119,130 L 119,131 L 106,131 Z"/>
  <path d="M 197,130 L 220,130 L 220,131 L 197,131 Z"/>
  <path d="M 257,130 L 268,130 L 268,131 L 257,131 Z"/>
  <path d="M 45,131 L 56,131 L 56,132 L 45,132 Z"/>
  <path d="M 93,131 L 104,131 L 104,132 L 93,132 Z"/>
  <path d="M 107,131 L 120,131 L 120,132 L 107,132 Z"/>
  <path d="M 195,131 L 220,131 L 220,132 L 195,132 Z"/>
  <path d="M 257,131 L 268,131 L 268,132 L 257,132 Z"/>
  <path d="M 45,132 L 56,132 L 56,133 L 45,133 Z"/>
  <path d="M 93,132 L 104,132 L 104,133 L 93,133 Z"/>
  <path d="M 108,132 L 121,132 L 121,133 L 108,133 Z"/>
  <path d="M 194,132 L 220,132 L 220,133 L 194,133 Z"/>
  <path d="M 257,132 L 268,132 L 268,133 L 257,133 Z"/>
  <path d="M 45,133 L 56,133 L 56,134 L 45,134 Z"/>
  <path d="M 94,133 L 105,133 L 105,134 L 94,134 Z"/>
  <path d="M 109,133 L 122,133 L 122,134 L 109,134 Z"/>
  <path d="M 193,133 L 209,133 L 209,134 L 193,134 Z"/>
  <path d="M 210,133 L 220,133 L 220,134 L 210,134 Z"/>
  <path d="M 257,133 L 268,133 L 268,134 L 257,134 Z"/>
  <path d="M 46,134 L 56,134 L 56,135 L 46,135 Z"/>
  <path d="M 94,134 L 105,134 L 105,135 L 94,135 Z"/>
  <path d="M 109,134 L 124,134 L 124,135 L 109,135 Z"/>
  <path d="M 192,134 L 208,134 L 208,135 L 192,135 Z"/>
  <path d="M 210,134 L 221,134 L 221,135 L 210,135 Z"/>
  <path d="M 257,134 L 268,134 L 268,135 L 257,135 Z"/>
  <path d="M 46,135 L 56,135 L 56,136 L 46,136 Z"/>
  <path d="M 94,135 L 105,135 L 105,136 L 94,136 Z"/>
  <path d="M 110,135 L 125,135 L 125,136 L 110,136 Z"/>
  <path d="M 191,135 L 207,135 L 207,136 L 191,136 Z"/>
  <path d="M 210,135 L 232,135 L 232,136 L 210,136 Z"/>
  <path d="M 257,135 L 267,135 L 267,136 L 257,136 Z"/>
  <path d="M 46,136 L 56,136 L 56,137 L 46,137 Z"/>
  <path d="M 94,136 L 105,136 L 105,137 L 94,137 Z"/>
  <path d="M 111,136 L 126,136 L 126,137 L 111,137 Z"/>
  <path d="M 189,136 L 206,136 L 206,137 L 189,137 Z"/>
  <path d="M 209,136 L 243,136 L 243,137 L 209,137 Z"/>
  <path d="M 256,136 L 267,136 L 267,137 L 256,137 Z"/>
  <path d="M 46,137 L 56,137 L 56,138 L 46,138 Z"/>
  <path d="M 94,137 L 105,137 L 105,138 L 94,138 Z"/>
  <path d="M 112,137 L 128,137 L 128,138 L 112,138 Z"/>
  <path d="M 188,137 L 205,137 L 205,138 L 188,138 Z"/>
  <path d="M 209,137 L 253,137 L 253,138 L 209,138 Z"/>
  <path d="M 256,137 L 267,137 L 267,138 L 256,138 Z"/>
  <path d="M 46,138 L 56,138 L 56,139 L 46,139 Z"/>
  <path d="M 94,138 L 105,138 L 105,139 L 94,139 Z"/>
  <path d="M 113,138 L 130,138 L 130,139 L 113,139 Z"/>
  <path d="M 186,138 L 204,138 L 204,139 L 186,139 Z"/>
  <path d="M 209,138 L 267,138 L 267,139 L 209,139 Z"/>
  <path d="M 46,139 L 56,139 L 56,140 L 46,140 Z"/>
  <path d="M 92,139 L 105,139 L 105,140 L 92,140 Z"/>
  <path d="M 114,139 L 131,139 L 131,140 L 114,140 Z"/>
  <path d="M 184,139 L 203,139 L 203,140 L 184,140 Z"/>
  <path d="M 209,139 L 267,139 L 267,140 L 209,140 Z"/>
  <path d="M 46,140 L 57,140 L 57,141 L 46,141 Z"/>
  <path d="M 82,140 L 105,140 L 105,141 L 82,141 Z"/>
  <path d="M 115,140 L 133,140 L 133,141 L 115,141 Z"/>
  <path d="M 182,140 L 202,140 L 202,141 L 182,141 Z"/>
  <path d="M 209,140 L 267,140 L 267,141 L 209,141 Z"/>
  <path d="M 46,141 L 57,141 L 57,142 L 46,142 Z"/>
  <path d="M 72,141 L 105,141 L 105,142 L 72,142 Z"/>
  <path d="M 116,141 L 135,141 L 135,142 L 116,142 Z"/>
  <path d="M 180,141 L 201,141 L 201,142 L 180,142 Z"/>
  <path d="M 209,141 L 267,141 L 267,142 L 209,142 Z"/>
  <path d="M 46,142 L 57,142 L 57,143 L 46,143 Z"/>
  <path d="M 62,142 L 106,142 L 106,143 L 62,143 Z"/>
  <path d="M 118,142 L 138,142 L 138,143 L 118,143 Z"/>
  <path d="M 177,142 L 200,142 L 200,143 L 177,143 Z"/>
  <path d="M 209,142 L 267,142 L 267,143 L 209,143 Z"/>
  <path d="M 47,143 L 106,143 L 106,144 L 47,144 Z"/>
  <path d="M 119,143 L 141,143 L 141,144 L 119,144 Z"/>
  <path d="M 175,143 L 198,143 L 198,144 L 175,144 Z"/>
  <path d="M 209,143 L 266,143 L 266,144 L 209,144 Z"/>
  <path d="M 47,144 L 106,144 L 106,145 L 47,145 Z"/>
  <path d="M 120,144 L 145,144 L 145,145 L 120,145 Z"/>
  <path d="M 171,144 L 197,144 L 197,145 L 171,145 Z"/>
  <path d="M 217,144 L 266,144 L 266,145 L 217,145 Z"/>
  <path d="M 47,145 L 106,145 L 106,146 L 47,146 Z"/>
  <path d="M 122,145 L 150,145 L 150,146 L 122,146 Z"/>
  <path d="M 166,145 L 196,145 L 196,146 L 166,146 Z"/>
  <path d="M 229,145 L 266,145 L 266,146 L 229,146 Z"/>
  <path d="M 47,146 L 106,146 L 106,147 L 47,147 Z"/>
  <path d="M 123,146 L 194,146 L 194,147 L 123,147 Z"/>
  <path d="M 241,146 L 266,146 L 266,147 L 241,147 Z"/>
  <path d="M 47,147 L 106,147 L 106,148 L 47,148 Z"/>
  <path d="M 125,147 L 193,147 L 193,148 L 125,148 Z"/>
  <path d="M 252,147 L 266,147 L 266,148 L 252,148 Z"/>
  <path d="M 47,148 L 106,148 L 106,149 L 47,149 Z"/>
  <path d="M 127,148 L 191,148 L 191,149 L 127,149 Z"/>
  <path d="M 264,148 L 266,148 L 266,149 L 264,149 Z"/>
  <path d="M 47,149 L 106,149 L 106,150 L 47,150 Z"/>
  <path d="M 129,149 L 189,149 L 189,150 L 129,150 Z"/>
  <path d="M 47,150 L 106,150 L 106,151 L 47,151 Z"/>
  <path d="M 130,150 L 187,150 L 187,151 L 130,151 Z"/>
  <path d="M 47,151 L 96,151 L 96,152 L 47,152 Z"/>
  <path d="M 133,151 L 185,151 L 185,152 L 133,152 Z"/>
  <path d="M 48,152 L 87,152 L 87,153 L 48,153 Z"/>
  <path d="M 135,152 L 182,152 L 182,153 L 135,153 Z"/>
  <path d="M 48,153 L 77,153 L 77,154 L 48,154 Z"/>
  <path d="M 138,153 L 179,153 L 179,154 L 138,154 Z"/>
  <path d="M 48,154 L 67,154 L 67,155 L 48,155 Z"/>
  <path d="M 141,154 L 176,154 L 176,155 L 141,155 Z"/>
  <path d="M 48,155 L 57,155 L 57,156 L 48,156 Z"/>
  <path d="M 145,155 L 172,155 L 172,156 L 145,156 Z"/>
  <path d="M 152,156 L 166,156 L 166,157 L 152,157 Z"/>
  </g>
</svg>
