<?xml version="1.0" encoding="UTF-8" standalone="no"?>
<svg xmlns="http://www.w3.org/2000/svg" version="1.1"
     width="3.4375in" height="2.5208in" viewBox="0 0 330 242">
  <title>02_STORY_Red</title>
  <g fill="#D8231C" stroke="none">
  <path d="M 23,125 L 42,125 L 42,126 L 23,126 Z"/>
  <path d="M 22,126 L 44,126 L 44,127 L 22,127 Z"/>
  <path d="M 22,127 L 44,127 L 44,128 L 22,128 Z"/>
  <path d="M 22,128 L 45,128 L 45,129 L 22,129 Z"/>
  <path d="M 22,129 L 45,129 L 45,130 L 22,130 Z"/>
  <path d="M 104,129 L 105,129 L 105,130 L 104,130 Z"/>
  <path d="M 22,130 L 45,130 L 45,131 L 22,131 Z"/>
  <path d="M 105,130 L 106,130 L 106,131 L 105,131 Z"/>
  <path d="M 22,131 L 45,131 L 45,132 L 22,132 Z"/>
  <path d="M 105,131 L 107,131 L 107,132 L 105,132 Z"/>
  <path d="M 22,132 L 45,132 L 45,133 L 22,133 Z"/>
  <path d="M 105,132 L 107,132 L 107,133 L 105,133 Z"/>
  <path d="M 22,133 L 45,133 L 45,134 L 22,134 Z"/>
  <path d="M 105,133 L 108,133 L 108,134 L 105,134 Z"/>
  <path d="M 21,134 L 45,134 L 45,135 L 21,135 Z"/>
  <path d="M 105,134 L 109,134 L 109,135 L 105,135 Z"/>
  <path d="M 208,134 L 209,134 L 209,135 L 208,135 Z"/>
  <path d="M 268,134 L 283,134 L 283,135 L 268,135 Z"/>
  <path d="M 21,135 L 45,135 L 45,136 L 21,136 Z"/>
  <path d="M 105,135 L 110,135 L 110,136 L 105,136 Z"/>
  <path d="M 207,135 L 209,135 L 209,136 L 207,136 Z"/>
  <path d="M 268,135 L 287,135 L 287,136 L 268,136 Z"/>
  <path d="M 21,136 L 45,136 L 45,137 L 21,137 Z"/>
  <path d="M 105,136 L 111,136 L 111,137 L 105,137 Z"/>
  <path d="M 207,136 L 209,136 L 209,137 L 207,137 Z"/>
  <path d="M 267,136 L 287,136 L 287,137 L 267,137 Z"/>
  <path d="M 21,137 L 46,137 L 46,138 L 21,138 Z"/>
  <path d="M 105,137 L 112,137 L 112,138 L 105,138 Z"/>
  <path d="M 206,137 L 209,137 L 209,138 L 206,138 Z"/>
  <path d="M 267,137 L 288,137 L 288,138 L 267,138 Z"/>
  <path d="M 21,138 L 46,138 L 46,139 L 21,139 Z"/>
  <path d="M 105,138 L 113,138 L 113,139 L 105,139 Z"/>
  <path d="M 205,138 L 209,138 L 209,139 L 205,139 Z"/>
  <path d="M 267,138 L 288,138 L 288,139 L 267,139 Z"/>
  <path d="M 21,139 L 46,139 L 46,140 L 21,140 Z"/>
  <path d="M 106,139 L 114,139 L 114,140 L 106,140 Z"/>
  <path d="M 203,139 L 209,139 L 209,140 L 203,140 Z"/>
  <path d="M 267,139 L 288,139 L 288,140 L 267,140 Z"/>
  <path d="M 21,140 L 46,140 L 46,141 L 21,141 Z"/>
  <path d="M 106,140 L 115,140 L 115,141 L 106,141 Z"/>
  <path d="M 202,140 L 209,140 L 209,141 L 202,141 Z"/>
  <path d="M 267,140 L 288,140 L 288,141 L 267,141 Z"/>
  <path d="M 20,141 L 46,141 L 46,142 L 20,142 Z"/>
  <path d="M 106,141 L 116,141 L 116,142 L 106,142 Z"/>
  <path d="M 201,141 L 209,141 L 209,142 L 201,142 Z"/>
  <path d="M 267,141 L 288,141 L 288,142 L 267,142 Z"/>
  <path d="M 20,142 L 46,142 L 46,143 L 20,143 Z"/>
  <path d="M 106,142 L 117,142 L 117,143 L 106,143 Z"/>
  <path d="M 200,142 L 208,142 L 208,143 L 200,143 Z"/>
  <path d="M 267,142 L 289,142 L 289,143 L 267,143 Z"/>
  <path d="M 20,143 L 46,143 L 46,144 L 20,144 Z"/>
  <path d="M 106,143 L 119,143 L 119,144 L 106,144 Z"/>
  <path d="M 199,143 L 208,143 L 208,144 L 199,144 Z"/>
  <path d="M 267,143 L 289,143 L 289,144 L 267,144 Z"/>
  <path d="M 20,144 L 46,144 L 46,145 L 20,145 Z"/>
  <path d="M 106,144 L 120,144 L 120,145 L 106,145 Z"/>
  <path d="M 197,144 L 214,144 L 214,145 L 197,145 Z"/>
  <path d="M 267,144 L 289,144 L 289,145 L 267,145 Z"/>
  <path d="M 20,145 L 46,145 L 46,146 L 20,146 Z"/>
  <path d="M 106,145 L 121,145 L 121,146 L 106,146 Z"/>
  <path d="M 196,145 L 226,145 L 226,146 L 196,146 Z"/>
  <path d="M 267,145 L 289,145 L 289,146 L 267,146 Z"/>
  <path d="M 20,146 L 47,146 L 47,147 L 20,147 Z"/>
  <path d="M 106,146 L 123,146 L 123,147 L 106,147 Z"/>
  <path d="M 195,146 L 237,146 L 237,147 L 195,147 Z"/>
  <path d="M 266,146 L 290,146 L 290,147 L 266,147 Z"/>
  <path d="M 20,147 L 47,147 L 47,148 L 20,148 Z"/>
  <path d="M 106,147 L 124,147 L 124,148 L 106,148 Z"/>
  <path d="M 193,147 L 249,147 L 249,148 L 193,148 Z"/>
  <path d="M 266,147 L 290,147 L 290,148 L 266,148 Z"/>
  <path d="M 20,148 L 47,148 L 47,149 L 20,149 Z"/>
  <path d="M 106,148 L 126,148 L 126,149 L 106,149 Z"/>
  <path d="M 191,148 L 260,148 L 260,149 L 191,149 Z"/>
  <path d="M 266,148 L 290,148 L 290,149 L 266,149 Z"/>
  <path d="M 19,149 L 47,149 L 47,150 L 19,150 Z"/>
  <path d="M 107,149 L 128,149 L 128,150 L 107,150 Z"/>
  <path d="M 190,149 L 290,149 L 290,150 L 190,150 Z"/>
  <path d="M 19,150 L 47,150 L 47,151 L 19,151 Z"/>
  <path d="M 107,150 L 130,150 L 130,151 L 107,151 Z"/>
  <path d="M 188,150 L 290,150 L 290,151 L 188,151 Z"/>
  <path d="M 19,151 L 47,151 L 47,152 L 19,152 Z"/>
  <path d="M 99,151 L 132,151 L 132,152 L 99,152 Z"/>
  <path d="M 185,151 L 291,151 L 291,152 L 185,152 Z"/>
  <path d="M 19,152 L 47,152 L 47,153 L 19,153 Z"/>
  <path d="M 90,152 L 134,152 L 134,153 L 90,153 Z"/>
  <path d="M 183,152 L 291,152 L 291,153 L 183,153 Z"/>
  <path d="M 19,153 L 47,153 L 47,154 L 19,154 Z"/>
  <path d="M 80,153 L 137,153 L 137,154 L 80,154 Z"/>
  <path d="M 180,153 L 291,153 L 291,154 L 180,154 Z"/>
  <path d="M 19,154 L 47,154 L 47,155 L 19,155 Z"/>
  <path d="M 70,154 L 140,154 L 140,155 L 70,155 Z"/>
  <path d="M 177,154 L 291,154 L 291,155 L 177,155 Z"/>
  <path d="M 19,155 L 48,155 L 48,156 L 19,156 Z"/>
  <path d="M 60,155 L 144,155 L 144,156 L 60,156 Z"/>
  <path d="M 173,155 L 291,155 L 291,156 L 173,156 Z"/>
  <path d="M 19,156 L 48,156 L 48,157 L 19,157 Z"/>
  <path d="M 50,156 L 149,156 L 149,157 L 50,157 Z"/>
  <path d="M 168,156 L 292,156 L 292,157 L 168,157 Z"/>
  <path d="M 18,157 L 292,157 L 292,158 L 18,158 Z"/>
  <path d="M 18,158 L 292,158 L 292,159 L 18,159 Z"/>
  <path d="M 18,159 L 292,159 L 292,160 L 18,160 Z"/>
  <path d="M 18,160 L 292,160 L 292,161 L 18,161 Z"/>
  <path d="M 18,161 L 293,161 L 293,162 L 18,162 Z"/>
  <path d="M 18,162 L 293,162 L 293,163 L 18,163 Z"/>
  <path d="M 18,163 L 56,163 L 56,164 L 18,164 Z"/>
  <path d="M 71,163 L 86,163 L 86,164 L 71,164 Z"/>
  <path d="M 122,163 L 144,163 L 144,164 L 122,164 Z"/>
  <path d="M 155,163 L 181,163 L 181,164 L 155,164 Z"/>
  <path d="M 207,163 L 226,163 L 226,164 L 207,164 Z"/>
  <path d="M 243,163 L 257,163 L 257,164 L 243,164 Z"/>
  <path d="M 274,163 L 293,163 L 293,164 L 274,164 Z"/>
  <path d="M 18,164 L 53,164 L 53,165 L 18,165 Z"/>
  <path d="M 77,164 L 86,164 L 86,165 L 77,165 Z"/>
  <path d="M 122,164 L 141,164 L 141,165 L 122,165 Z"/>
  <path d="M 158,164 L 181,164 L 181,165 L 158,165 Z"/>
  <path d="M 214,164 L 226,164 L 226,165 L 214,165 Z"/>
  <path d="M 244,164 L 256,164 L 256,165 L 244,165 Z"/>
  <path d="M 274,164 L 293,164 L 293,165 L 274,165 Z"/>
  <path d="M 17,165 L 50,165 L 50,166 L 17,166 Z"/>
  <path d="M 80,165 L 86,165 L 86,166 L 80,166 Z"/>
  <path d="M 122,165 L 139,165 L 139,166 L 122,166 Z"/>
  <path d="M 160,165 L 181,165 L 181,166 L 160,166 Z"/>
  <path d="M 216,165 L 227,165 L 227,166 L 216,166 Z"/>
  <path d="M 245,165 L 255,165 L 255,166 L 245,166 Z"/>
  <path d="M 273,165 L 293,165 L 293,166 L 273,166 Z"/>
  <path d="M 17,166 L 49,166 L 49,167 L 17,167 Z"/>
  <path d="M 79,166 L 86,166 L 86,167 L 79,167 Z"/>
  <path d="M 122,166 L 138,166 L 138,167 L 122,167 Z"/>
  <path d="M 162,166 L 181,166 L 181,167 L 162,167 Z"/>
  <path d="M 218,166 L 228,166 L 228,167 L 218,167 Z"/>
  <path d="M 246,166 L 255,166 L 255,167 L 246,167 Z"/>
  <path d="M 272,166 L 294,166 L 294,167 L 272,167 Z"/>
  <path d="M 17,167 L 47,167 L 47,168 L 17,168 Z"/>
  <path d="M 79,167 L 86,167 L 86,168 L 79,168 Z"/>
  <path d="M 122,167 L 136,167 L 136,168 L 122,168 Z"/>
  <path d="M 163,167 L 181,167 L 181,168 L 163,168 Z"/>
  <path d="M 219,167 L 228,167 L 228,168 L 219,168 Z"/>
  <path d="M 246,167 L 254,167 L 254,168 L 246,168 Z"/>
  <path d="M 272,167 L 294,167 L 294,168 L 272,168 Z"/>
  <path d="M 17,168 L 47,168 L 47,169 L 17,169 Z"/>
  <path d="M 79,168 L 86,168 L 86,169 L 79,169 Z"/>
  <path d="M 122,168 L 135,168 L 135,169 L 122,169 Z"/>
  <path d="M 164,168 L 181,168 L 181,169 L 164,169 Z"/>
  <path d="M 220,168 L 229,168 L 229,169 L 220,169 Z"/>
  <path d="M 247,168 L 253,168 L 253,169 L 247,169 Z"/>
  <path d="M 271,168 L 294,168 L 294,169 L 271,169 Z"/>
  <path d="M 17,169 L 46,169 L 46,170 L 17,170 Z"/>
  <path d="M 78,169 L 86,169 L 86,170 L 78,170 Z"/>
  <path d="M 122,169 L 134,169 L 134,170 L 122,170 Z"/>
  <path d="M 165,169 L 181,169 L 181,170 L 165,170 Z"/>
  <path d="M 220,169 L 230,169 L 230,170 L 220,170 Z"/>
  <path d="M 248,169 L 252,169 L 252,170 L 248,170 Z"/>
  <path d="M 270,169 L 294,169 L 294,170 L 270,170 Z"/>
  <path d="M 17,170 L 45,170 L 45,171 L 17,171 Z"/>
  <path d="M 78,170 L 86,170 L 86,171 L 78,171 Z"/>
  <path d="M 122,170 L 133,170 L 133,171 L 122,171 Z"/>
  <path d="M 166,170 L 181,170 L 181,171 L 166,171 Z"/>
  <path d="M 221,170 L 231,170 L 231,171 L 221,171 Z"/>
  <path d="M 248,170 L 252,170 L 252,171 L 248,171 Z"/>
  <path d="M 270,170 L 294,170 L 294,171 L 270,171 Z"/>
  <path d="M 17,171 L 45,171 L 45,172 L 17,172 Z"/>
  <path d="M 78,171 L 86,171 L 86,172 L 78,172 Z"/>
  <path d="M 122,171 L 133,171 L 133,172 L 122,172 Z"/>
  <path d="M 167,171 L 181,171 L 181,172 L 167,172 Z"/>
  <path d="M 199,171 L 201,171 L 201,172 L 199,172 Z"/>
  <path d="M 221,171 L 231,171 L 231,172 L 221,172 Z"/>
  <path d="M 249,171 L 251,171 L 251,172 L 249,172 Z"/>
  <path d="M 269,171 L 295,171 L 295,172 L 269,172 Z"/>
  <path d="M 17,172 L 45,172 L 45,173 L 17,173 Z"/>
  <path d="M 63,172 L 69,172 L 69,173 L 63,173 Z"/>
  <path d="M 77,172 L 86,172 L 86,173 L 77,173 Z"/>
  <path d="M 122,172 L 132,172 L 132,173 L 122,173 Z"/>
  <path d="M 167,172 L 181,172 L 181,173 L 167,173 Z"/>
  <path d="M 198,172 L 203,172 L 203,173 L 198,173 Z"/>
  <path d="M 222,172 L 232,172 L 232,173 L 222,173 Z"/>
  <path d="M 268,172 L 295,172 L 295,173 L 268,173 Z"/>
  <path d="M 16,173 L 44,173 L 44,174 L 16,174 Z"/>
  <path d="M 62,173 L 71,173 L 71,174 L 62,174 Z"/>
  <path d="M 77,173 L 86,173 L 86,174 L 77,174 Z"/>
  <path d="M 122,173 L 131,173 L 131,174 L 122,174 Z"/>
  <path d="M 168,173 L 181,173 L 181,174 L 168,174 Z"/>
  <path d="M 198,173 L 204,173 L 204,174 L 198,174 Z"/>
  <path d="M 222,173 L 233,173 L 233,174 L 222,174 Z"/>
  <path d="M 268,173 L 295,173 L 295,174 L 268,174 Z"/>
  <path d="M 16,174 L 44,174 L 44,175 L 16,175 Z"/>
  <path d="M 62,174 L 72,174 L 72,175 L 62,175 Z"/>
  <path d="M 77,174 L 86,174 L 86,175 L 77,175 Z"/>
  <path d="M 122,174 L 131,174 L 131,175 L 122,175 Z"/>
  <path d="M 168,174 L 181,174 L 181,175 L 168,175 Z"/>
  <path d="M 198,174 L 204,174 L 204,175 L 198,175 Z"/>
  <path d="M 222,174 L 233,174 L 233,175 L 222,175 Z"/>
  <path d="M 267,174 L 295,174 L 295,175 L 267,175 Z"/>
  <path d="M 16,175 L 44,175 L 44,176 L 16,176 Z"/>
  <path d="M 62,175 L 74,175 L 74,176 L 62,176 Z"/>
  <path d="M 76,175 L 86,175 L 86,176 L 76,176 Z"/>
  <path d="M 122,175 L 130,175 L 130,176 L 122,176 Z"/>
  <path d="M 169,175 L 181,175 L 181,176 L 169,176 Z"/>
  <path d="M 198,175 L 204,175 L 204,176 L 198,176 Z"/>
  <path d="M 222,175 L 234,175 L 234,176 L 222,176 Z"/>
  <path d="M 266,175 L 295,175 L 295,176 L 266,176 Z"/>
  <path d="M 16,176 L 44,176 L 44,177 L 16,177 Z"/>
  <path d="M 63,176 L 75,176 L 75,177 L 63,177 Z"/>
  <path d="M 76,176 L 86,176 L 86,177 L 76,177 Z"/>
  <path d="M 122,176 L 130,176 L 130,177 L 122,177 Z"/>
  <path d="M 169,176 L 181,176 L 181,177 L 169,177 Z"/>
  <path d="M 198,176 L 204,176 L 204,177 L 198,177 Z"/>
  <path d="M 222,176 L 235,176 L 235,177 L 222,177 Z"/>
  <path d="M 266,176 L 296,176 L 296,177 L 266,177 Z"/>
  <path d="M 16,177 L 44,177 L 44,178 L 16,178 Z"/>
  <path d="M 65,177 L 86,177 L 86,178 L 65,178 Z"/>
  <path d="M 122,177 L 130,177 L 130,178 L 122,178 Z"/>
  <path d="M 170,177 L 181,177 L 181,178 L 170,178 Z"/>
  <path d="M 198,177 L 204,177 L 204,178 L 198,178 Z"/>
  <path d="M 222,177 L 235,177 L 235,178 L 222,178 Z"/>
  <path d="M 265,177 L 296,177 L 296,178 L 265,178 Z"/>
  <path d="M 16,178 L 44,178 L 44,179 L 16,179 Z"/>
  <path d="M 68,178 L 86,178 L 86,179 L 68,179 Z"/>
  <path d="M 122,178 L 129,178 L 129,179 L 122,179 Z"/>
  <path d="M 148,178 L 152,178 L 152,179 L 148,179 Z"/>
  <path d="M 170,178 L 181,178 L 181,179 L 170,179 Z"/>
  <path d="M 198,178 L 203,178 L 203,179 L 198,179 Z"/>
  <path d="M 222,178 L 236,178 L 236,179 L 222,179 Z"/>
  <path d="M 264,178 L 296,178 L 296,179 L 264,179 Z"/>
  <path d="M 16,179 L 45,179 L 45,180 L 16,180 Z"/>
  <path d="M 70,179 L 86,179 L 86,180 L 70,180 Z"/>
  <path d="M 122,179 L 129,179 L 129,180 L 122,180 Z"/>
  <path d="M 146,179 L 153,179 L 153,180 L 146,180 Z"/>
  <path d="M 170,179 L 181,179 L 181,180 L 170,180 Z"/>
  <path d="M 199,179 L 201,179 L 201,180 L 199,180 Z"/>
  <path d="M 221,179 L 237,179 L 237,180 L 221,180 Z"/>
  <path d="M 264,179 L 296,179 L 296,180 L 264,180 Z"/>
  <path d="M 16,180 L 45,180 L 45,181 L 16,181 Z"/>
  <path d="M 72,180 L 86,180 L 86,181 L 72,181 Z"/>
  <path d="M 122,180 L 129,180 L 129,181 L 122,181 Z"/>
  <path d="M 146,180 L 154,180 L 154,181 L 146,181 Z"/>
  <path d="M 170,180 L 181,180 L 181,181 L 170,181 Z"/>
  <path d="M 221,180 L 237,180 L 237,181 L 221,181 Z"/>
  <path d="M 263,180 L 297,180 L 297,181 L 263,181 Z"/>
  <path d="M 15,181 L 45,181 L 45,182 L 15,182 Z"/>
  <path d="M 74,181 L 95,181 L 95,182 L 74,182 Z"/>
  <path d="M 113,181 L 129,181 L 129,182 L 113,182 Z"/>
  <path d="M 145,181 L 154,181 L 154,182 L 145,182 Z"/>
  <path d="M 170,181 L 181,181 L 181,182 L 170,182 Z"/>
  <path d="M 220,181 L 238,181 L 238,182 L 220,182 Z"/>
  <path d="M 262,181 L 297,181 L 297,182 L 262,182 Z"/>
  <path d="M 15,182 L 46,182 L 46,183 L 15,183 Z"/>
  <path d="M 76,182 L 95,182 L 95,183 L 76,183 Z"/>
  <path d="M 113,182 L 129,182 L 129,183 L 113,183 Z"/>
  <path d="M 145,182 L 154,182 L 154,183 L 145,183 Z"/>
  <path d="M 170,182 L 181,182 L 181,183 L 170,183 Z"/>
  <path d="M 220,182 L 239,182 L 239,183 L 220,183 Z"/>
  <path d="M 261,182 L 297,182 L 297,183 L 261,183 Z"/>
  <path d="M 15,183 L 47,183 L 47,184 L 15,184 Z"/>
  <path d="M 77,183 L 95,183 L 95,184 L 77,184 Z"/>
  <path d="M 113,183 L 129,183 L 129,184 L 113,184 Z"/>
  <path d="M 145,183 L 154,183 L 154,184 L 145,184 Z"/>
  <path d="M 170,183 L 181,183 L 181,184 L 170,184 Z"/>
  <path d="M 219,183 L 239,183 L 239,184 L 219,184 Z"/>
  <path d="M 261,183 L 297,183 L 297,184 L 261,184 Z"/>
  <path d="M 15,184 L 48,184 L 48,185 L 15,185 Z"/>
  <path d="M 78,184 L 95,184 L 95,185 L 78,185 Z"/>
  <path d="M 113,184 L 129,184 L 129,185 L 113,185 Z"/>
  <path d="M 146,184 L 154,184 L 154,185 L 146,185 Z"/>
  <path d="M 170,184 L 181,184 L 181,185 L 170,185 Z"/>
  <path d="M 218,184 L 240,184 L 240,185 L 218,185 Z"/>
  <path d="M 260,184 L 297,184 L 297,185 L 260,185 Z"/>
  <path d="M 15,185 L 50,185 L 50,186 L 15,186 Z"/>
  <path d="M 79,185 L 95,185 L 95,186 L 79,186 Z"/>
  <path d="M 113,185 L 129,185 L 129,186 L 113,186 Z"/>
  <path d="M 146,185 L 153,185 L 153,186 L 146,186 Z"/>
  <path d="M 170,185 L 181,185 L 181,186 L 170,186 Z"/>
  <path d="M 218,185 L 241,185 L 241,186 L 218,186 Z"/>
  <path d="M 259,185 L 298,185 L 298,186 L 259,186 Z"/>
  <path d="M 15,186 L 51,186 L 51,187 L 15,187 Z"/>
  <path d="M 80,186 L 95,186 L 95,187 L 80,187 Z"/>
  <path d="M 113,186 L 129,186 L 129,187 L 113,187 Z"/>
  <path d="M 148,186 L 152,186 L 152,187 L 148,187 Z"/>
  <path d="M 170,186 L 181,186 L 181,187 L 170,187 Z"/>
  <path d="M 219,186 L 241,186 L 241,187 L 219,187 Z"/>
  <path d="M 259,186 L 298,186 L 298,187 L 259,187 Z"/>
  <path d="M 15,187 L 54,187 L 54,188 L 15,188 Z"/>
  <path d="M 80,187 L 95,187 L 95,188 L 80,188 Z"/>
  <path d="M 113,187 L 129,187 L 129,188 L 113,188 Z"/>
  <path d="M 170,187 L 181,187 L 181,188 L 170,188 Z"/>
  <path d="M 220,187 L 241,187 L 241,188 L 220,188 Z"/>
  <path d="M 259,187 L 298,187 L 298,188 L 259,188 Z"/>
  <path d="M 15,188 L 56,188 L 56,189 L 15,189 Z"/>
  <path d="M 80,188 L 95,188 L 95,189 L 80,189 Z"/>
  <path d="M 113,188 L 129,188 L 129,189 L 113,189 Z"/>
  <path d="M 170,188 L 181,188 L 181,189 L 170,189 Z"/>
  <path d="M 220,188 L 241,188 L 241,189 L 220,189 Z"/>
  <path d="M 259,188 L 298,188 L 298,189 L 259,189 Z"/>
  <path d="M 14,189 L 46,189 L 46,190 L 14,190 Z"/>
  <path d="M 47,189 L 58,189 L 58,190 L 47,190 Z"/>
  <path d="M 80,189 L 95,189 L 95,190 L 80,190 Z"/>
  <path d="M 113,189 L 130,189 L 130,190 L 113,190 Z"/>
  <path d="M 170,189 L 181,189 L 181,190 L 170,190 Z"/>
  <path d="M 198,189 L 202,189 L 202,190 L 198,190 Z"/>
  <path d="M 221,189 L 241,189 L 241,190 L 221,190 Z"/>
  <path d="M 259,189 L 298,189 L 298,190 L 259,190 Z"/>
  <path d="M 14,190 L 46,190 L 46,191 L 14,191 Z"/>
  <path d="M 48,190 L 60,190 L 60,191 L 48,191 Z"/>
  <path d="M 80,190 L 95,190 L 95,191 L 80,191 Z"/>
  <path d="M 113,190 L 130,190 L 130,191 L 113,191 Z"/>
  <path d="M 169,190 L 181,190 L 181,191 L 169,191 Z"/>
  <path d="M 198,190 L 203,190 L 203,191 L 198,191 Z"/>
  <path d="M 222,190 L 241,190 L 241,191 L 222,191 Z"/>
  <path d="M 259,190 L 299,190 L 299,191 L 259,191 Z"/>
  <path d="M 14,191 L 46,191 L 46,192 L 14,192 Z"/>
  <path d="M 49,191 L 60,191 L 60,192 L 49,192 Z"/>
  <path d="M 81,191 L 95,191 L 95,192 L 81,192 Z"/>
  <path d="M 113,191 L 130,191 L 130,192 L 113,192 Z"/>
  <path d="M 169,191 L 181,191 L 181,192 L 169,192 Z"/>
  <path d="M 198,191 L 204,191 L 204,192 L 198,192 Z"/>
  <path d="M 222,191 L 241,191 L 241,192 L 222,192 Z"/>
  <path d="M 259,191 L 299,191 L 299,192 L 259,192 Z"/>
  <path d="M 14,192 L 45,192 L 45,193 L 14,193 Z"/>
  <path d="M 51,192 L 60,192 L 60,193 L 51,193 Z"/>
  <path d="M 80,192 L 95,192 L 95,193 L 80,193 Z"/>
  <path d="M 113,192 L 131,192 L 131,193 L 113,193 Z"/>
  <path d="M 169,192 L 181,192 L 181,193 L 169,193 Z"/>
  <path d="M 198,192 L 205,192 L 205,193 L 198,193 Z"/>
  <path d="M 222,192 L 241,192 L 241,193 L 222,193 Z"/>
  <path d="M 259,192 L 299,192 L 299,193 L 259,193 Z"/>
  <path d="M 14,193 L 45,193 L 45,194 L 14,194 Z"/>
  <path d="M 52,193 L 60,193 L 60,194 L 52,194 Z"/>
  <path d="M 80,193 L 95,193 L 95,194 L 80,194 Z"/>
  <path d="M 113,193 L 131,193 L 131,194 L 113,194 Z"/>
  <path d="M 168,193 L 181,193 L 181,194 L 168,194 Z"/>
  <path d="M 198,193 L 205,193 L 205,194 L 198,194 Z"/>
  <path d="M 223,193 L 241,193 L 241,194 L 223,194 Z"/>
  <path d="M 259,193 L 299,193 L 299,194 L 259,194 Z"/>
  <path d="M 14,194 L 45,194 L 45,195 L 14,195 Z"/>
  <path d="M 55,194 L 58,194 L 58,195 L 55,195 Z"/>
  <path d="M 80,194 L 95,194 L 95,195 L 80,195 Z"/>
  <path d="M 113,194 L 132,194 L 132,195 L 113,195 Z"/>
  <path d="M 168,194 L 181,194 L 181,195 L 168,195 Z"/>
  <path d="M 198,194 L 205,194 L 205,195 L 198,195 Z"/>
  <path d="M 223,194 L 241,194 L 241,195 L 223,195 Z"/>
  <path d="M 259,194 L 299,194 L 299,195 L 259,195 Z"/>
  <path d="M 14,195 L 44,195 L 44,196 L 14,196 Z"/>
  <path d="M 80,195 L 95,195 L 95,196 L 80,196 Z"/>
  <path d="M 113,195 L 132,195 L 132,196 L 113,196 Z"/>
  <path d="M 167,195 L 181,195 L 181,196 L 167,196 Z"/>
  <path d="M 198,195 L 206,195 L 206,196 L 198,196 Z"/>
  <path d="M 224,195 L 241,195 L 241,196 L 224,196 Z"/>
  <path d="M 259,195 L 300,195 L 300,196 L 259,196 Z"/>
  <path d="M 13,196 L 44,196 L 44,197 L 13,197 Z"/>
  <path d="M 80,196 L 95,196 L 95,197 L 80,197 Z"/>
  <path d="M 113,196 L 133,196 L 133,197 L 113,197 Z"/>
  <path d="M 166,196 L 181,196 L 181,197 L 166,197 Z"/>
  <path d="M 198,196 L 206,196 L 206,197 L 198,197 Z"/>
  <path d="M 224,196 L 241,196 L 241,197 L 224,197 Z"/>
  <path d="M 259,196 L 300,196 L 300,197 L 259,197 Z"/>
  <path d="M 13,197 L 44,197 L 44,198 L 13,198 Z"/>
  <path d="M 79,197 L 95,197 L 95,198 L 79,198 Z"/>
  <path d="M 113,197 L 134,197 L 134,198 L 113,198 Z"/>
  <path d="M 165,197 L 181,197 L 181,198 L 165,198 Z"/>
  <path d="M 198,197 L 206,197 L 206,198 L 198,198 Z"/>
  <path d="M 224,197 L 241,197 L 241,198 L 224,198 Z"/>
  <path d="M 259,197 L 300,197 L 300,198 L 259,198 Z"/>
  <path d="M 13,198 L 43,198 L 43,199 L 13,199 Z"/>
  <path d="M 78,198 L 95,198 L 95,199 L 78,199 Z"/>
  <path d="M 113,198 L 135,198 L 135,199 L 113,199 Z"/>
  <path d="M 164,198 L 181,198 L 181,199 L 164,199 Z"/>
  <path d="M 198,198 L 206,198 L 206,199 L 198,199 Z"/>
  <path d="M 224,198 L 241,198 L 241,199 L 224,199 Z"/>
  <path d="M 259,198 L 300,198 L 300,199 L 259,199 Z"/>
  <path d="M 13,199 L 43,199 L 43,200 L 13,200 Z"/>
  <path d="M 77,199 L 95,199 L 95,200 L 77,200 Z"/>
  <path d="M 113,199 L 136,199 L 136,200 L 113,200 Z"/>
  <path d="M 163,199 L 181,199 L 181,200 L 163,200 Z"/>
  <path d="M 198,199 L 207,199 L 207,200 L 198,200 Z"/>
  <path d="M 225,199 L 241,199 L 241,200 L 225,200 Z"/>
  <path d="M 259,199 L 300,199 L 300,200 L 259,200 Z"/>
  <path d="M 13,200 L 43,200 L 43,201 L 13,201 Z"/>
  <path d="M 76,200 L 95,200 L 95,201 L 76,201 Z"/>
  <path d="M 113,200 L 137,200 L 137,201 L 113,201 Z"/>
  <path d="M 162,200 L 181,200 L 181,201 L 162,201 Z"/>
  <path d="M 198,200 L 207,200 L 207,201 L 198,201 Z"/>
  <path d="M 225,200 L 241,200 L 241,201 L 225,201 Z"/>
  <path d="M 259,200 L 301,200 L 301,201 L 259,201 Z"/>
  <path d="M 13,201 L 43,201 L 43,202 L 13,202 Z"/>
  <path d="M 75,201 L 95,201 L 95,202 L 75,202 Z"/>
  <path d="M 113,201 L 139,201 L 139,202 L 113,202 Z"/>
  <path d="M 160,201 L 181,201 L 181,202 L 160,202 Z"/>
  <path d="M 198,201 L 207,201 L 207,202 L 198,202 Z"/>
  <path d="M 225,201 L 241,201 L 241,202 L 225,202 Z"/>
  <path d="M 259,201 L 301,201 L 301,202 L 259,202 Z"/>
  <path d="M 13,202 L 46,202 L 46,203 L 13,203 Z"/>
  <path d="M 73,202 L 95,202 L 95,203 L 73,203 Z"/>
  <path d="M 113,202 L 141,202 L 141,203 L 113,203 Z"/>
  <path d="M 158,202 L 181,202 L 181,203 L 158,203 Z"/>
  <path d="M 198,202 L 207,202 L 207,203 L 198,203 Z"/>
  <path d="M 225,202 L 241,202 L 241,203 L 225,203 Z"/>
  <path d="M 259,202 L 301,202 L 301,203 L 259,203 Z"/>
  <path d="M 13,203 L 50,203 L 50,204 L 13,204 Z"/>
  <path d="M 70,203 L 95,203 L 95,204 L 70,204 Z"/>
  <path d="M 113,203 L 143,203 L 143,204 L 113,204 Z"/>
  <path d="M 156,203 L 181,203 L 181,204 L 156,204 Z"/>
  <path d="M 198,203 L 207,203 L 207,204 L 198,204 Z"/>
  <path d="M 225,203 L 241,203 L 241,204 L 225,204 Z"/>
  <path d="M 259,203 L 301,203 L 301,204 L 259,204 Z"/>
  <path d="M 12,204 L 301,204 L 301,205 L 12,205 Z"/>
  <path d="M 12,205 L 302,205 L 302,206 L 12,206 Z"/>
  <path d="M 12,206 L 302,206 L 302,207 L 12,207 Z"/>
  <path d="M 12,207 L 302,207 L 302,208 L 12,208 Z"/>
  <path d="M 12,208 L 302,208 L 302,209 L 12,209 Z"/>
  <path d="M 12,209 L 302,209 L 302,210 L 12,210 Z"/>
  <path d="M 12,210 L 303,210 L 303,211 L 12,211 Z"/>
  <path d="M 12,211 L 303,211 L 303,212 L 12,212 Z"/>
  <path d="M 11,212 L 303,212 L 303,213 L 11,213 Z"/>
  <path d="M 11,213 L 303,213 L 303,214 L 11,214 Z"/>
  <path d="M 11,214 L 303,214 L 303,215 L 11,215 Z"/>
  <path d="M 11,215 L 304,215 L 304,216 L 11,216 Z"/>
  <path d="M 11,216 L 304,216 L 304,217 L 11,217 Z"/>
  <path d="M 11,217 L 304,217 L 304,218 L 11,218 Z"/>
  <path d="M 11,218 L 304,218 L 304,219 L 11,219 Z"/>
  <path d="M 11,219 L 304,219 L 304,220 L 11,220 Z"/>
  <path d="M 10,220 L 299,220 L 299,221 L 10,221 Z"/>
  <path d="M 10,221 L 286,221 L 286,222 L 10,222 Z"/>
  <path d="M 10,222 L 272,222 L 272,223 L 10,223 Z"/>
  <path d="M 10,223 L 258,223 L 258,224 L 10,224 Z"/>
  <path d="M 10,224 L 244,224 L 244,225 L 10,225 Z"/>
  <path d="M 10,225 L 230,225 L 230,226 L 10,226 Z"/>
  <path d="M 10,226 L 216,226 L 216,227 L 10,227 Z"/>
  <path d="M 10,227 L 202,227 L 202,228 L 10,228 Z"/>
  <path d="M 9,228 L 189,228 L 189,229 L 9,229 Z"/>
  <path d="M 9,229 L 175,229 L 175,230 L 9,230 Z"/>
  <path d="M 9,230 L 161,230 L 161,231 L 9,231 Z"/>
  <path d="M 9,231 L 147,231 L 147,232 L 9,232 Z"/>
  <path d="M 9,232 L 133,232 L 133,233 L 9,233 Z"/>
  <path d="M 9,233 L 119,233 L 119,234 L 9,234 Z"/>
  <path d="M 9,234 L 105,234 L 105,235 L 9,235 Z"/>
  <path d="M 9,235 L 92,235 L 92,236 L 9,236 Z"/>
  <path d="M 8,236 L 78,236 L 78,237 L 8,237 Z"/>
  <path d="M 8,237 L 64,237 L 64,238 L 8,238 Z"/>
  <path d="M 8,238 L 50,238 L 50,239 L 8,239 Z"/>
  <path d="M 8,239 L 36,239 L 36,240 L 8,240 Z"/>
  <path d="M 8,240 L 22,240 L 22,241 L 8,241 Z"/>
  </g>
</svg>
