<?xml version="1.0" encoding="UTF-8" standalone="no"?>
<svg xmlns="http://www.w3.org/2000/svg" version="1.1"
     width="4.7812in" height="4.0833in" viewBox="0 0 459 392">
  <rect x="0" y="0" width="459" height="392" fill="none"/>
  <g fill="#6DC121" stroke="none">
  <path d="M 185,112 L 190,112 L 190,113 L 185,113 Z"/>
  <path d="M 185,113 L 204,113 L 204,114 L 185,114 Z"/>
  <path d="M 185,114 L 217,114 L 217,115 L 185,115 Z"/>
  <path d="M 185,115 L 218,115 L 218,116 L 185,116 Z"/>
  <path d="M 224,115 L 252,115 L 252,116 L 224,116 Z"/>
  <path d="M 185,116 L 218,116 L 218,117 L 185,117 Z"/>
  <path d="M 223,116 L 227,116 L 227,117 L 223,117 Z"/>
  <path d="M 228,116 L 231,116 L 231,117 L 228,117 Z"/>
  <path d="M 232,116 L 239,116 L 239,117 L 232,117 Z"/>
  <path d="M 240,116 L 253,116 L 253,117 L 240,117 Z"/>
  <path d="M 185,117 L 218,117 L 218,118 L 185,118 Z"/>
  <path d="M 222,117 L 231,117 L 231,118 L 222,118 Z"/>
  <path d="M 232,117 L 239,117 L 239,118 L 232,118 Z"/>
  <path d="M 240,117 L 253,117 L 253,118 L 240,118 Z"/>
  <path d="M 185,118 L 218,118 L 218,119 L 185,119 Z"/>
  <path d="M 221,118 L 234,118 L 234,119 L 221,119 Z"/>
  <path d="M 235,118 L 254,118 L 254,119 L 235,119 Z"/>
  <path d="M 185,119 L 218,119 L 218,120 L 185,120 Z"/>
  <path d="M 221,119 L 254,119 L 254,120 L 221,120 Z"/>
  <path d="M 197,120 L 206,120 L 206,121 L 197,121 Z"/>
  <path d="M 221,120 L 230,120 L 230,121 L 221,121 Z"/>
  <path d="M 245,120 L 251,120 L 251,121 L 245,121 Z"/>
  <path d="M 252,120 L 254,120 L 254,121 L 252,121 Z"/>
  <path d="M 197,121 L 206,121 L 206,122 L 197,122 Z"/>
  <path d="M 221,121 L 229,121 L 229,122 L 221,122 Z"/>
  <path d="M 245,121 L 254,121 L 254,122 L 245,122 Z"/>
  <path d="M 197,122 L 206,122 L 206,123 L 197,123 Z"/>
  <path d="M 221,122 L 225,122 L 225,123 L 221,123 Z"/>
  <path d="M 226,122 L 229,122 L 229,123 L 226,123 Z"/>
  <path d="M 246,122 L 254,122 L 254,123 L 246,123 Z"/>
  <path d="M 197,123 L 198,123 L 198,124 L 197,124 Z"/>
  <path d="M 199,123 L 206,123 L 206,124 L 199,124 Z"/>
  <path d="M 221,123 L 229,123 L 229,124 L 221,124 Z"/>
  <path d="M 246,123 L 254,123 L 254,124 L 246,124 Z"/>
  <path d="M 197,124 L 198,124 L 198,125 L 197,125 Z"/>
  <path d="M 199,124 L 206,124 L 206,125 L 199,125 Z"/>
  <path d="M 221,124 L 229,124 L 229,125 L 221,125 Z"/>
  <path d="M 246,124 L 254,124 L 254,125 L 246,125 Z"/>
  <path d="M 197,125 L 206,125 L 206,126 L 197,126 Z"/>
  <path d="M 221,125 L 225,125 L 225,126 L 221,126 Z"/>
  <path d="M 226,125 L 229,125 L 229,126 L 226,126 Z"/>
  <path d="M 246,125 L 254,125 L 254,126 L 246,126 Z"/>
  <path d="M 197,126 L 206,126 L 206,127 L 197,127 Z"/>
  <path d="M 221,126 L 225,126 L 225,127 L 221,127 Z"/>
  <path d="M 226,126 L 229,126 L 229,127 L 226,127 Z"/>
  <path d="M 246,126 L 254,126 L 254,127 L 246,127 Z"/>
  <path d="M 197,127 L 206,127 L 206,128 L 197,128 Z"/>
  <path d="M 221,127 L 229,127 L 229,128 L 221,128 Z"/>
  <path d="M 246,127 L 254,127 L 254,128 L 246,128 Z"/>
  <path d="M 197,128 L 206,128 L 206,129 L 197,129 Z"/>
  <path d="M 221,128 L 229,128 L 229,129 L 221,129 Z"/>
  <path d="M 246,128 L 254,128 L 254,129 L 246,129 Z"/>
  <path d="M 197,129 L 206,129 L 206,130 L 197,130 Z"/>
  <path d="M 221,129 L 229,129 L 229,130 L 221,130 Z"/>
  <path d="M 246,129 L 254,129 L 254,130 L 246,130 Z"/>
  <path d="M 197,130 L 206,130 L 206,131 L 197,131 Z"/>
  <path d="M 221,130 L 229,130 L 229,131 L 221,131 Z"/>
  <path d="M 246,130 L 254,130 L 254,131 L 246,131 Z"/>
  <path d="M 197,131 L 206,131 L 206,132 L 197,132 Z"/>
  <path d="M 221,131 L 229,131 L 229,132 L 221,132 Z"/>
  <path d="M 246,131 L 254,131 L 254,132 L 246,132 Z"/>
  <path d="M 197,132 L 206,132 L 206,133 L 197,133 Z"/>
  <path d="M 221,132 L 229,132 L 229,133 L 221,133 Z"/>
  <path d="M 246,132 L 254,132 L 254,133 L 246,133 Z"/>
  <path d="M 197,133 L 206,133 L 206,134 L 197,134 Z"/>
  <path d="M 221,133 L 225,133 L 225,134 L 221,134 Z"/>
  <path d="M 226,133 L 229,133 L 229,134 L 226,134 Z"/>
  <path d="M 246,133 L 254,133 L 254,134 L 246,134 Z"/>
  <path d="M 197,134 L 198,134 L 198,135 L 197,135 Z"/>
  <path d="M 199,134 L 206,134 L 206,135 L 199,135 Z"/>
  <path d="M 221,134 L 229,134 L 229,135 L 221,135 Z"/>
  <path d="M 246,134 L 254,134 L 254,135 L 246,135 Z"/>
  <path d="M 197,135 L 206,135 L 206,136 L 197,136 Z"/>
  <path d="M 221,135 L 229,135 L 229,136 L 221,136 Z"/>
  <path d="M 246,135 L 254,135 L 254,136 L 246,136 Z"/>
  <path d="M 197,136 L 198,136 L 198,137 L 197,137 Z"/>
  <path d="M 199,136 L 206,136 L 206,137 L 199,137 Z"/>
  <path d="M 221,136 L 230,136 L 230,137 L 221,137 Z"/>
  <path d="M 246,136 L 254,136 L 254,137 L 246,137 Z"/>
  <path d="M 197,137 L 198,137 L 198,138 L 197,138 Z"/>
  <path d="M 199,137 L 206,137 L 206,138 L 199,138 Z"/>
  <path d="M 221,137 L 254,137 L 254,138 L 221,138 Z"/>
  <path d="M 197,138 L 206,138 L 206,139 L 197,139 Z"/>
  <path d="M 221,138 L 225,138 L 225,139 L 221,139 Z"/>
  <path d="M 226,138 L 254,138 L 254,139 L 226,139 Z"/>
  <path d="M 197,139 L 206,139 L 206,140 L 197,140 Z"/>
  <path d="M 227,139 L 229,139 L 229,140 L 227,140 Z"/>
  <path d="M 230,139 L 253,139 L 253,140 L 230,140 Z"/>
  <path d="M 197,140 L 206,140 L 206,141 L 197,141 Z"/>
  <path d="M 222,140 L 230,140 L 230,141 L 222,141 Z"/>
  <path d="M 231,140 L 252,140 L 252,141 L 231,141 Z"/>
  <path d="M 197,141 L 204,141 L 204,142 L 197,142 Z"/>
  <path d="M 205,141 L 206,141 L 206,142 L 205,142 Z"/>
  <path d="M 223,141 L 251,141 L 251,142 L 223,142 Z"/>
  <path d="M 199,142 L 205,142 L 205,143 L 199,143 Z"/>
  <path d="M 225,142 L 247,142 L 247,143 L 225,143 Z"/>
  <path d="M 80,157 L 83,157 L 83,158 L 80,158 Z"/>
  <path d="M 96,157 L 104,157 L 104,158 L 96,158 Z"/>
  <path d="M 196,157 L 198,157 L 198,158 L 196,158 Z"/>
  <path d="M 211,157 L 221,157 L 221,158 L 211,158 Z"/>
  <path d="M 261,157 L 264,157 L 264,158 L 261,158 Z"/>
  <path d="M 277,157 L 289,157 L 289,158 L 277,158 Z"/>
  <path d="M 327,157 L 329,157 L 329,158 L 327,158 Z"/>
  <path d="M 361,157 L 364,157 L 364,158 L 361,158 Z"/>
  <path d="M 80,158 L 86,158 L 86,159 L 80,159 Z"/>
  <path d="M 96,158 L 115,158 L 115,159 L 96,159 Z"/>
  <path d="M 196,158 L 202,158 L 202,159 L 196,159 Z"/>
  <path d="M 211,158 L 231,158 L 231,159 L 211,159 Z"/>
  <path d="M 261,158 L 268,158 L 268,159 L 261,159 Z"/>
  <path d="M 277,158 L 300,158 L 300,159 L 277,159 Z"/>
  <path d="M 301,158 L 302,158 L 302,159 L 301,159 Z"/>
  <path d="M 327,158 L 333,158 L 333,159 L 327,159 Z"/>
  <path d="M 361,158 L 367,158 L 367,159 L 361,159 Z"/>
  <path d="M 80,159 L 84,159 L 84,160 L 80,160 Z"/>
  <path d="M 85,159 L 89,159 L 89,160 L 85,160 Z"/>
  <path d="M 97,159 L 127,159 L 127,160 L 97,160 Z"/>
  <path d="M 196,159 L 205,159 L 205,160 L 196,160 Z"/>
  <path d="M 211,159 L 243,159 L 243,160 L 211,160 Z"/>
  <path d="M 261,159 L 264,159 L 264,160 L 261,160 Z"/>
  <path d="M 265,159 L 270,159 L 270,160 L 265,160 Z"/>
  <path d="M 277,159 L 278,159 L 278,160 L 277,160 Z"/>
  <path d="M 279,159 L 313,159 L 313,160 L 279,160 Z"/>
  <path d="M 314,159 L 315,159 L 315,160 L 314,160 Z"/>
  <path d="M 327,159 L 330,159 L 330,160 L 327,160 Z"/>
  <path d="M 331,159 L 336,159 L 336,160 L 331,160 Z"/>
  <path d="M 361,159 L 371,159 L 371,160 L 361,160 Z"/>
  <path d="M 80,160 L 91,160 L 91,161 L 80,161 Z"/>
  <path d="M 96,160 L 103,160 L 103,161 L 96,161 Z"/>
  <path d="M 104,160 L 136,160 L 136,161 L 104,161 Z"/>
  <path d="M 153,160 L 191,160 L 191,161 L 153,161 Z"/>
  <path d="M 196,160 L 207,160 L 207,161 L 196,161 Z"/>
  <path d="M 211,160 L 252,160 L 252,161 L 211,161 Z"/>
  <path d="M 261,160 L 273,160 L 273,161 L 261,161 Z"/>
  <path d="M 277,160 L 301,160 L 301,161 L 277,161 Z"/>
  <path d="M 302,160 L 323,160 L 323,161 L 302,161 Z"/>
  <path d="M 327,160 L 330,160 L 330,161 L 327,161 Z"/>
  <path d="M 331,160 L 338,160 L 338,161 L 331,161 Z"/>
  <path d="M 361,160 L 373,160 L 373,161 L 361,161 Z"/>
  <path d="M 80,161 L 92,161 L 92,162 L 80,162 Z"/>
  <path d="M 96,161 L 102,161 L 102,162 L 96,162 Z"/>
  <path d="M 103,161 L 138,161 L 138,162 L 103,162 Z"/>
  <path d="M 150,161 L 155,161 L 155,162 L 150,162 Z"/>
  <path d="M 156,161 L 162,161 L 162,162 L 156,162 Z"/>
  <path d="M 163,161 L 170,161 L 170,162 L 163,162 Z"/>
  <path d="M 171,161 L 192,161 L 192,162 L 171,162 Z"/>
  <path d="M 196,161 L 207,161 L 207,162 L 196,162 Z"/>
  <path d="M 211,161 L 216,161 L 216,162 L 211,162 Z"/>
  <path d="M 217,161 L 254,161 L 254,162 L 217,162 Z"/>
  <path d="M 261,161 L 264,161 L 264,162 L 261,162 Z"/>
  <path d="M 265,161 L 273,161 L 273,162 L 265,162 Z"/>
  <path d="M 277,161 L 297,161 L 297,162 L 277,162 Z"/>
  <path d="M 298,161 L 323,161 L 323,162 L 298,162 Z"/>
  <path d="M 327,161 L 331,161 L 331,162 L 327,162 Z"/>
  <path d="M 332,161 L 339,161 L 339,162 L 332,162 Z"/>
  <path d="M 362,161 L 369,161 L 369,162 L 362,162 Z"/>
  <path d="M 370,161 L 373,161 L 373,162 L 370,162 Z"/>
  <path d="M 80,162 L 83,162 L 83,163 L 80,163 Z"/>
  <path d="M 84,162 L 92,162 L 92,163 L 84,163 Z"/>
  <path d="M 96,162 L 135,162 L 135,163 L 96,163 Z"/>
  <path d="M 136,162 L 140,162 L 140,163 L 136,163 Z"/>
  <path d="M 148,162 L 151,162 L 151,163 L 148,163 Z"/>
  <path d="M 152,162 L 192,162 L 192,163 L 152,163 Z"/>
  <path d="M 196,162 L 207,162 L 207,163 L 196,163 Z"/>
  <path d="M 211,162 L 255,162 L 255,163 L 211,163 Z"/>
  <path d="M 261,162 L 264,162 L 264,163 L 261,163 Z"/>
  <path d="M 265,162 L 273,162 L 273,163 L 265,163 Z"/>
  <path d="M 277,162 L 323,162 L 323,163 L 277,163 Z"/>
  <path d="M 327,162 L 331,162 L 331,163 L 327,163 Z"/>
  <path d="M 332,162 L 339,162 L 339,163 L 332,163 Z"/>
  <path d="M 361,162 L 370,162 L 370,163 L 361,163 Z"/>
  <path d="M 371,162 L 373,162 L 373,163 L 371,163 Z"/>
  <path d="M 80,163 L 81,163 L 81,164 L 80,164 Z"/>
  <path d="M 82,163 L 86,163 L 86,164 L 82,164 Z"/>
  <path d="M 87,163 L 92,163 L 92,164 L 87,164 Z"/>
  <path d="M 96,163 L 141,163 L 141,164 L 96,164 Z"/>
  <path d="M 147,163 L 151,163 L 151,164 L 147,164 Z"/>
  <path d="M 152,163 L 192,163 L 192,164 L 152,164 Z"/>
  <path d="M 196,163 L 207,163 L 207,164 L 196,164 Z"/>
  <path d="M 211,163 L 256,163 L 256,164 L 211,164 Z"/>
  <path d="M 261,163 L 273,163 L 273,164 L 261,164 Z"/>
  <path d="M 277,163 L 323,163 L 323,164 L 277,164 Z"/>
  <path d="M 327,163 L 330,163 L 330,164 L 327,164 Z"/>
  <path d="M 331,163 L 339,163 L 339,164 L 331,164 Z"/>
  <path d="M 361,163 L 366,163 L 366,164 L 361,164 Z"/>
  <path d="M 367,163 L 371,163 L 371,164 L 367,164 Z"/>
  <path d="M 372,163 L 373,163 L 373,164 L 372,164 Z"/>
  <path d="M 80,164 L 87,164 L 87,165 L 80,165 Z"/>
  <path d="M 88,164 L 92,164 L 92,165 L 88,165 Z"/>
  <path d="M 96,164 L 103,164 L 103,165 L 96,165 Z"/>
  <path d="M 104,164 L 141,164 L 141,165 L 104,165 Z"/>
  <path d="M 146,164 L 192,164 L 192,165 L 146,165 Z"/>
  <path d="M 196,164 L 207,164 L 207,165 L 196,165 Z"/>
  <path d="M 211,164 L 249,164 L 249,165 L 211,165 Z"/>
  <path d="M 250,164 L 257,164 L 257,165 L 250,165 Z"/>
  <path d="M 261,164 L 273,164 L 273,165 L 261,165 Z"/>
  <path d="M 277,164 L 323,164 L 323,165 L 277,165 Z"/>
  <path d="M 327,164 L 334,164 L 334,165 L 327,165 Z"/>
  <path d="M 335,164 L 339,164 L 339,165 L 335,165 Z"/>
  <path d="M 362,164 L 373,164 L 373,165 L 362,165 Z"/>
  <path d="M 80,165 L 88,165 L 88,166 L 80,166 Z"/>
  <path d="M 89,165 L 92,165 L 92,166 L 89,166 Z"/>
  <path d="M 96,165 L 135,165 L 135,166 L 96,166 Z"/>
  <path d="M 136,165 L 141,165 L 141,166 L 136,166 Z"/>
  <path d="M 146,165 L 192,165 L 192,166 L 146,166 Z"/>
  <path d="M 196,165 L 207,165 L 207,166 L 196,166 Z"/>
  <path d="M 211,165 L 214,165 L 214,166 L 211,166 Z"/>
  <path d="M 215,165 L 257,165 L 257,166 L 215,166 Z"/>
  <path d="M 261,165 L 267,165 L 267,166 L 261,166 Z"/>
  <path d="M 268,165 L 273,165 L 273,166 L 268,166 Z"/>
  <path d="M 277,165 L 323,165 L 323,166 L 277,166 Z"/>
  <path d="M 327,165 L 328,165 L 328,166 L 327,166 Z"/>
  <path d="M 329,165 L 331,165 L 331,166 L 329,166 Z"/>
  <path d="M 332,165 L 339,165 L 339,166 L 332,166 Z"/>
  <path d="M 361,165 L 373,165 L 373,166 L 361,166 Z"/>
  <path d="M 80,166 L 85,166 L 85,167 L 80,167 Z"/>
  <path d="M 86,166 L 92,166 L 92,167 L 86,167 Z"/>
  <path d="M 97,166 L 133,166 L 133,167 L 97,167 Z"/>
  <path d="M 134,166 L 141,166 L 141,167 L 134,167 Z"/>
  <path d="M 146,166 L 192,166 L 192,167 L 146,167 Z"/>
  <path d="M 196,166 L 207,166 L 207,167 L 196,167 Z"/>
  <path d="M 211,166 L 215,166 L 215,167 L 211,167 Z"/>
  <path d="M 216,166 L 250,166 L 250,167 L 216,167 Z"/>
  <path d="M 251,166 L 257,166 L 257,167 L 251,167 Z"/>
  <path d="M 261,166 L 267,166 L 267,167 L 261,167 Z"/>
  <path d="M 268,166 L 273,166 L 273,167 L 268,167 Z"/>
  <path d="M 277,166 L 299,166 L 299,167 L 277,167 Z"/>
  <path d="M 300,166 L 323,166 L 323,167 L 300,167 Z"/>
  <path d="M 327,166 L 339,166 L 339,167 L 327,167 Z"/>
  <path d="M 361,166 L 373,166 L 373,167 L 361,167 Z"/>
  <path d="M 80,167 L 92,167 L 92,168 L 80,168 Z"/>
  <path d="M 97,167 L 142,167 L 142,168 L 97,168 Z"/>
  <path d="M 146,167 L 190,167 L 190,168 L 146,168 Z"/>
  <path d="M 191,167 L 192,167 L 192,168 L 191,168 Z"/>
  <path d="M 196,167 L 198,167 L 198,168 L 196,168 Z"/>
  <path d="M 199,167 L 207,167 L 207,168 L 199,168 Z"/>
  <path d="M 211,167 L 257,167 L 257,168 L 211,168 Z"/>
  <path d="M 261,167 L 268,167 L 268,168 L 261,168 Z"/>
  <path d="M 269,167 L 273,167 L 273,168 L 269,168 Z"/>
  <path d="M 277,167 L 300,167 L 300,168 L 277,168 Z"/>
  <path d="M 301,167 L 323,167 L 323,168 L 301,168 Z"/>
  <path d="M 327,167 L 334,167 L 334,168 L 327,168 Z"/>
  <path d="M 335,167 L 339,167 L 339,168 L 335,168 Z"/>
  <path d="M 361,167 L 373,167 L 373,168 L 361,168 Z"/>
  <path d="M 80,168 L 82,168 L 82,169 L 80,169 Z"/>
  <path d="M 83,168 L 92,168 L 92,169 L 83,169 Z"/>
  <path d="M 96,168 L 133,168 L 133,169 L 96,169 Z"/>
  <path d="M 134,168 L 142,168 L 142,169 L 134,169 Z"/>
  <path d="M 147,168 L 191,168 L 191,169 L 147,169 Z"/>
  <path d="M 196,168 L 207,168 L 207,169 L 196,169 Z"/>
  <path d="M 211,168 L 216,168 L 216,169 L 211,169 Z"/>
  <path d="M 217,168 L 248,168 L 248,169 L 217,169 Z"/>
  <path d="M 249,168 L 257,168 L 257,169 L 249,169 Z"/>
  <path d="M 261,168 L 273,168 L 273,169 L 261,169 Z"/>
  <path d="M 279,168 L 302,168 L 302,169 L 279,169 Z"/>
  <path d="M 303,168 L 322,168 L 322,169 L 303,169 Z"/>
  <path d="M 327,168 L 328,168 L 328,169 L 327,169 Z"/>
  <path d="M 329,168 L 339,168 L 339,169 L 329,169 Z"/>
  <path d="M 361,168 L 373,168 L 373,169 L 361,169 Z"/>
  <path d="M 80,169 L 82,169 L 82,170 L 80,170 Z"/>
  <path d="M 83,169 L 92,169 L 92,170 L 83,170 Z"/>
  <path d="M 96,169 L 98,169 L 98,170 L 96,170 Z"/>
  <path d="M 99,169 L 107,169 L 107,170 L 99,170 Z"/>
  <path d="M 129,169 L 133,169 L 133,170 L 129,170 Z"/>
  <path d="M 134,169 L 142,169 L 142,170 L 134,170 Z"/>
  <path d="M 146,169 L 148,169 L 148,170 L 146,170 Z"/>
  <path d="M 149,169 L 157,169 L 157,170 L 149,170 Z"/>
  <path d="M 196,169 L 207,169 L 207,170 L 196,170 Z"/>
  <path d="M 211,169 L 223,169 L 223,170 L 211,170 Z"/>
  <path d="M 245,169 L 257,169 L 257,170 L 245,170 Z"/>
  <path d="M 261,169 L 269,169 L 269,170 L 261,170 Z"/>
  <path d="M 270,169 L 273,169 L 273,170 L 270,170 Z"/>
  <path d="M 294,169 L 298,169 L 298,170 L 294,170 Z"/>
  <path d="M 299,169 L 306,169 L 306,170 L 299,170 Z"/>
  <path d="M 327,169 L 339,169 L 339,170 L 327,170 Z"/>
  <path d="M 362,169 L 373,169 L 373,170 L 362,170 Z"/>
  <path d="M 80,170 L 83,170 L 83,171 L 80,171 Z"/>
  <path d="M 84,170 L 92,170 L 92,171 L 84,171 Z"/>
  <path d="M 96,170 L 107,170 L 107,171 L 96,171 Z"/>
  <path d="M 130,170 L 133,170 L 133,171 L 130,171 Z"/>
  <path d="M 134,170 L 142,170 L 142,171 L 134,171 Z"/>
  <path d="M 146,170 L 150,170 L 150,171 L 146,171 Z"/>
  <path d="M 151,170 L 157,170 L 157,171 L 151,171 Z"/>
  <path d="M 196,170 L 200,170 L 200,171 L 196,171 Z"/>
  <path d="M 201,170 L 207,170 L 207,171 L 201,171 Z"/>
  <path d="M 211,170 L 223,170 L 223,171 L 211,171 Z"/>
  <path d="M 246,170 L 257,170 L 257,171 L 246,171 Z"/>
  <path d="M 261,170 L 268,170 L 268,171 L 261,171 Z"/>
  <path d="M 269,170 L 273,170 L 273,171 L 269,171 Z"/>
  <path d="M 294,170 L 298,170 L 298,171 L 294,171 Z"/>
  <path d="M 299,170 L 306,170 L 306,171 L 299,171 Z"/>
  <path d="M 327,170 L 339,170 L 339,171 L 327,171 Z"/>
  <path d="M 361,170 L 373,170 L 373,171 L 361,171 Z"/>
  <path d="M 80,171 L 83,171 L 83,172 L 80,172 Z"/>
  <path d="M 84,171 L 92,171 L 92,172 L 84,172 Z"/>
  <path d="M 96,171 L 101,171 L 101,172 L 96,172 Z"/>
  <path d="M 102,171 L 107,171 L 107,172 L 102,172 Z"/>
  <path d="M 130,171 L 137,171 L 137,172 L 130,172 Z"/>
  <path d="M 138,171 L 142,171 L 142,172 L 138,172 Z"/>
  <path d="M 146,171 L 157,171 L 157,172 L 146,172 Z"/>
  <path d="M 196,171 L 199,171 L 199,172 L 196,172 Z"/>
  <path d="M 200,171 L 207,171 L 207,172 L 200,172 Z"/>
  <path d="M 211,171 L 214,171 L 214,172 L 211,172 Z"/>
  <path d="M 215,171 L 223,171 L 223,172 L 215,172 Z"/>
  <path d="M 246,171 L 250,171 L 250,172 L 246,172 Z"/>
  <path d="M 251,171 L 257,171 L 257,172 L 251,172 Z"/>
  <path d="M 261,171 L 273,171 L 273,172 L 261,172 Z"/>
  <path d="M 294,171 L 297,171 L 297,172 L 294,172 Z"/>
  <path d="M 298,171 L 306,171 L 306,172 L 298,172 Z"/>
  <path d="M 327,171 L 339,171 L 339,172 L 327,172 Z"/>
  <path d="M 361,171 L 373,171 L 373,172 L 361,172 Z"/>
  <path d="M 80,172 L 83,172 L 83,173 L 80,173 Z"/>
  <path d="M 84,172 L 92,172 L 92,173 L 84,173 Z"/>
  <path d="M 96,172 L 98,172 L 98,173 L 96,173 Z"/>
  <path d="M 99,172 L 107,172 L 107,173 L 99,173 Z"/>
  <path d="M 130,172 L 138,172 L 138,173 L 130,173 Z"/>
  <path d="M 139,172 L 142,172 L 142,173 L 139,173 Z"/>
  <path d="M 146,172 L 150,172 L 150,173 L 146,173 Z"/>
  <path d="M 151,172 L 157,172 L 157,173 L 151,173 Z"/>
  <path d="M 196,172 L 207,172 L 207,173 L 196,173 Z"/>
  <path d="M 211,172 L 220,172 L 220,173 L 211,173 Z"/>
  <path d="M 221,172 L 223,172 L 223,173 L 221,173 Z"/>
  <path d="M 246,172 L 249,172 L 249,173 L 246,173 Z"/>
  <path d="M 250,172 L 257,172 L 257,173 L 250,173 Z"/>
  <path d="M 261,172 L 265,172 L 265,173 L 261,173 Z"/>
  <path d="M 266,172 L 273,172 L 273,173 L 266,173 Z"/>
  <path d="M 294,172 L 296,172 L 296,173 L 294,173 Z"/>
  <path d="M 297,172 L 306,172 L 306,173 L 297,173 Z"/>
  <path d="M 327,172 L 328,172 L 328,173 L 327,173 Z"/>
  <path d="M 329,172 L 339,172 L 339,173 L 329,173 Z"/>
  <path d="M 361,172 L 373,172 L 373,173 L 361,173 Z"/>
  <path d="M 80,173 L 92,173 L 92,174 L 80,174 Z"/>
  <path d="M 96,173 L 99,173 L 99,174 L 96,174 Z"/>
  <path d="M 100,173 L 107,173 L 107,174 L 100,174 Z"/>
  <path d="M 130,173 L 132,173 L 132,174 L 130,174 Z"/>
  <path d="M 133,173 L 142,173 L 142,174 L 133,174 Z"/>
  <path d="M 146,173 L 149,173 L 149,174 L 146,174 Z"/>
  <path d="M 150,173 L 159,173 L 159,174 L 150,174 Z"/>
  <path d="M 196,173 L 201,173 L 201,174 L 196,174 Z"/>
  <path d="M 202,173 L 207,173 L 207,174 L 202,174 Z"/>
  <path d="M 211,173 L 218,173 L 218,174 L 211,174 Z"/>
  <path d="M 219,173 L 223,173 L 223,174 L 219,174 Z"/>
  <path d="M 246,173 L 257,173 L 257,174 L 246,174 Z"/>
  <path d="M 261,173 L 271,173 L 271,174 L 261,174 Z"/>
  <path d="M 272,173 L 273,173 L 273,174 L 272,174 Z"/>
  <path d="M 294,173 L 299,173 L 299,174 L 294,174 Z"/>
  <path d="M 300,173 L 306,173 L 306,174 L 300,174 Z"/>
  <path d="M 327,173 L 339,173 L 339,174 L 327,174 Z"/>
  <path d="M 361,173 L 373,173 L 373,174 L 361,174 Z"/>
  <path d="M 80,174 L 92,174 L 92,175 L 80,175 Z"/>
  <path d="M 96,174 L 100,174 L 100,175 L 96,175 Z"/>
  <path d="M 101,174 L 107,174 L 107,175 L 101,175 Z"/>
  <path d="M 130,174 L 139,174 L 139,175 L 130,175 Z"/>
  <path d="M 140,174 L 142,174 L 142,175 L 140,175 Z"/>
  <path d="M 146,174 L 151,174 L 151,175 L 146,175 Z"/>
  <path d="M 152,174 L 187,174 L 187,175 L 152,175 Z"/>
  <path d="M 196,174 L 201,174 L 201,175 L 196,175 Z"/>
  <path d="M 202,174 L 207,174 L 207,175 L 202,175 Z"/>
  <path d="M 211,174 L 217,174 L 217,175 L 211,175 Z"/>
  <path d="M 218,174 L 223,174 L 223,175 L 218,175 Z"/>
  <path d="M 246,174 L 251,174 L 251,175 L 246,175 Z"/>
  <path d="M 252,174 L 257,174 L 257,175 L 252,175 Z"/>
  <path d="M 261,174 L 273,174 L 273,175 L 261,175 Z"/>
  <path d="M 294,174 L 303,174 L 303,175 L 294,175 Z"/>
  <path d="M 304,174 L 306,174 L 306,175 L 304,175 Z"/>
  <path d="M 327,174 L 339,174 L 339,175 L 327,175 Z"/>
  <path d="M 361,174 L 373,174 L 373,175 L 361,175 Z"/>
  <path d="M 80,175 L 92,175 L 92,176 L 80,176 Z"/>
  <path d="M 96,175 L 101,175 L 101,176 L 96,176 Z"/>
  <path d="M 102,175 L 107,175 L 107,176 L 102,176 Z"/>
  <path d="M 130,175 L 134,175 L 134,176 L 130,176 Z"/>
  <path d="M 135,175 L 142,175 L 142,176 L 135,176 Z"/>
  <path d="M 146,175 L 188,175 L 188,176 L 146,176 Z"/>
  <path d="M 196,175 L 207,175 L 207,176 L 196,176 Z"/>
  <path d="M 211,175 L 223,175 L 223,176 L 211,176 Z"/>
  <path d="M 246,175 L 248,175 L 248,176 L 246,176 Z"/>
  <path d="M 249,175 L 257,175 L 257,176 L 249,176 Z"/>
  <path d="M 261,175 L 264,175 L 264,176 L 261,176 Z"/>
  <path d="M 265,175 L 273,175 L 273,176 L 265,176 Z"/>
  <path d="M 294,175 L 297,175 L 297,176 L 294,176 Z"/>
  <path d="M 298,175 L 306,175 L 306,176 L 298,176 Z"/>
  <path d="M 327,175 L 339,175 L 339,176 L 327,176 Z"/>
  <path d="M 362,175 L 373,175 L 373,176 L 362,176 Z"/>
  <path d="M 80,176 L 92,176 L 92,177 L 80,177 Z"/>
  <path d="M 96,176 L 102,176 L 102,177 L 96,177 Z"/>
  <path d="M 103,176 L 107,176 L 107,177 L 103,177 Z"/>
  <path d="M 130,176 L 142,176 L 142,177 L 130,177 Z"/>
  <path d="M 146,176 L 153,176 L 153,177 L 146,177 Z"/>
  <path d="M 154,176 L 188,176 L 188,177 L 154,177 Z"/>
  <path d="M 196,176 L 198,176 L 198,177 L 196,177 Z"/>
  <path d="M 199,176 L 207,176 L 207,177 L 199,177 Z"/>
  <path d="M 211,176 L 214,176 L 214,177 L 211,177 Z"/>
  <path d="M 215,176 L 223,176 L 223,177 L 215,177 Z"/>
  <path d="M 246,176 L 251,176 L 251,177 L 246,177 Z"/>
  <path d="M 252,176 L 257,176 L 257,177 L 252,177 Z"/>
  <path d="M 261,176 L 273,176 L 273,177 L 261,177 Z"/>
  <path d="M 294,176 L 295,176 L 295,177 L 294,177 Z"/>
  <path d="M 296,176 L 301,176 L 301,177 L 296,177 Z"/>
  <path d="M 302,176 L 306,176 L 306,177 L 302,177 Z"/>
  <path d="M 327,176 L 339,176 L 339,177 L 327,177 Z"/>
  <path d="M 361,176 L 373,176 L 373,177 L 361,177 Z"/>
  <path d="M 80,177 L 92,177 L 92,178 L 80,178 Z"/>
  <path d="M 96,177 L 104,177 L 104,178 L 96,178 Z"/>
  <path d="M 105,177 L 107,177 L 107,178 L 105,178 Z"/>
  <path d="M 130,177 L 133,177 L 133,178 L 130,178 Z"/>
  <path d="M 134,177 L 142,177 L 142,178 L 134,178 Z"/>
  <path d="M 146,177 L 149,177 L 149,178 L 146,178 Z"/>
  <path d="M 150,177 L 188,177 L 188,178 L 150,178 Z"/>
  <path d="M 196,177 L 207,177 L 207,178 L 196,178 Z"/>
  <path d="M 211,177 L 223,177 L 223,178 L 211,178 Z"/>
  <path d="M 246,177 L 252,177 L 252,178 L 246,178 Z"/>
  <path d="M 253,177 L 257,177 L 257,178 L 253,178 Z"/>
  <path d="M 261,177 L 265,177 L 265,178 L 261,178 Z"/>
  <path d="M 266,177 L 273,177 L 273,178 L 266,178 Z"/>
  <path d="M 294,177 L 300,177 L 300,178 L 294,178 Z"/>
  <path d="M 301,177 L 306,177 L 306,178 L 301,178 Z"/>
  <path d="M 327,177 L 328,177 L 328,178 L 327,178 Z"/>
  <path d="M 329,177 L 339,177 L 339,178 L 329,178 Z"/>
  <path d="M 362,177 L 373,177 L 373,178 L 362,178 Z"/>
  <path d="M 80,178 L 83,178 L 83,179 L 80,179 Z"/>
  <path d="M 84,178 L 92,178 L 92,179 L 84,179 Z"/>
  <path d="M 96,178 L 102,178 L 102,179 L 96,179 Z"/>
  <path d="M 103,178 L 107,178 L 107,179 L 103,179 Z"/>
  <path d="M 130,178 L 132,178 L 132,179 L 130,179 Z"/>
  <path d="M 133,178 L 142,178 L 142,179 L 133,179 Z"/>
  <path d="M 146,178 L 150,178 L 150,179 L 146,179 Z"/>
  <path d="M 151,178 L 188,178 L 188,179 L 151,179 Z"/>
  <path d="M 196,178 L 202,178 L 202,179 L 196,179 Z"/>
  <path d="M 203,178 L 207,178 L 207,179 L 203,179 Z"/>
  <path d="M 211,178 L 219,178 L 219,179 L 211,179 Z"/>
  <path d="M 220,178 L 223,178 L 223,179 L 220,179 Z"/>
  <path d="M 246,178 L 257,178 L 257,179 L 246,179 Z"/>
  <path d="M 261,178 L 273,178 L 273,179 L 261,179 Z"/>
  <path d="M 294,178 L 299,178 L 299,179 L 294,179 Z"/>
  <path d="M 300,178 L 306,178 L 306,179 L 300,179 Z"/>
  <path d="M 327,178 L 339,178 L 339,179 L 327,179 Z"/>
  <path d="M 362,178 L 373,178 L 373,179 L 362,179 Z"/>
  <path d="M 80,179 L 81,179 L 81,180 L 80,180 Z"/>
  <path d="M 82,179 L 88,179 L 88,180 L 82,180 Z"/>
  <path d="M 89,179 L 92,179 L 92,180 L 89,180 Z"/>
  <path d="M 96,179 L 107,179 L 107,180 L 96,180 Z"/>
  <path d="M 130,179 L 132,179 L 132,180 L 130,180 Z"/>
  <path d="M 133,179 L 142,179 L 142,180 L 133,180 Z"/>
  <path d="M 146,179 L 151,179 L 151,180 L 146,180 Z"/>
  <path d="M 152,179 L 188,179 L 188,180 L 152,180 Z"/>
  <path d="M 196,179 L 199,179 L 199,180 L 196,180 Z"/>
  <path d="M 200,179 L 207,179 L 207,180 L 200,180 Z"/>
  <path d="M 211,179 L 216,179 L 216,180 L 211,180 Z"/>
  <path d="M 217,179 L 223,179 L 223,180 L 217,180 Z"/>
  <path d="M 246,179 L 249,179 L 249,180 L 246,180 Z"/>
  <path d="M 250,179 L 257,179 L 257,180 L 250,180 Z"/>
  <path d="M 261,179 L 267,179 L 267,180 L 261,180 Z"/>
  <path d="M 268,179 L 273,179 L 273,180 L 268,180 Z"/>
  <path d="M 294,179 L 299,179 L 299,180 L 294,180 Z"/>
  <path d="M 300,179 L 306,179 L 306,180 L 300,180 Z"/>
  <path d="M 327,179 L 339,179 L 339,180 L 327,180 Z"/>
  <path d="M 361,179 L 373,179 L 373,180 L 361,180 Z"/>
  <path d="M 80,180 L 92,180 L 92,181 L 80,181 Z"/>
  <path d="M 96,180 L 105,180 L 105,181 L 96,181 Z"/>
  <path d="M 106,180 L 107,180 L 107,181 L 106,181 Z"/>
  <path d="M 130,180 L 132,180 L 132,181 L 130,181 Z"/>
  <path d="M 133,180 L 142,180 L 142,181 L 133,181 Z"/>
  <path d="M 146,180 L 152,180 L 152,181 L 146,181 Z"/>
  <path d="M 153,180 L 188,180 L 188,181 L 153,181 Z"/>
  <path d="M 196,180 L 202,180 L 202,181 L 196,181 Z"/>
  <path d="M 203,180 L 207,180 L 207,181 L 203,181 Z"/>
  <path d="M 211,180 L 218,180 L 218,181 L 211,181 Z"/>
  <path d="M 219,180 L 223,180 L 223,181 L 219,181 Z"/>
  <path d="M 246,180 L 253,180 L 253,181 L 246,181 Z"/>
  <path d="M 254,180 L 257,180 L 257,181 L 254,181 Z"/>
  <path d="M 261,180 L 266,180 L 266,181 L 261,181 Z"/>
  <path d="M 267,180 L 273,180 L 273,181 L 267,181 Z"/>
  <path d="M 294,180 L 300,180 L 300,181 L 294,181 Z"/>
  <path d="M 301,180 L 306,180 L 306,181 L 301,181 Z"/>
  <path d="M 327,180 L 328,180 L 328,181 L 327,181 Z"/>
  <path d="M 329,180 L 339,180 L 339,181 L 329,181 Z"/>
  <path d="M 361,180 L 373,180 L 373,181 L 361,181 Z"/>
  <path d="M 80,181 L 83,181 L 83,182 L 80,182 Z"/>
  <path d="M 84,181 L 92,181 L 92,182 L 84,182 Z"/>
  <path d="M 96,181 L 107,181 L 107,182 L 96,182 Z"/>
  <path d="M 130,181 L 133,181 L 133,182 L 130,182 Z"/>
  <path d="M 134,181 L 142,181 L 142,182 L 134,182 Z"/>
  <path d="M 146,181 L 150,181 L 150,182 L 146,182 Z"/>
  <path d="M 151,181 L 188,181 L 188,182 L 151,182 Z"/>
  <path d="M 196,181 L 198,181 L 198,182 L 196,182 Z"/>
  <path d="M 199,181 L 207,181 L 207,182 L 199,182 Z"/>
  <path d="M 211,181 L 215,181 L 215,182 L 211,182 Z"/>
  <path d="M 216,181 L 223,181 L 223,182 L 216,182 Z"/>
  <path d="M 246,181 L 250,181 L 250,182 L 246,182 Z"/>
  <path d="M 251,181 L 257,181 L 257,182 L 251,182 Z"/>
  <path d="M 261,181 L 273,181 L 273,182 L 261,182 Z"/>
  <path d="M 294,181 L 297,181 L 297,182 L 294,182 Z"/>
  <path d="M 298,181 L 306,181 L 306,182 L 298,182 Z"/>
  <path d="M 327,181 L 362,181 L 362,182 L 327,182 Z"/>
  <path d="M 363,181 L 373,181 L 373,182 L 363,182 Z"/>
  <path d="M 80,182 L 82,182 L 82,183 L 80,183 Z"/>
  <path d="M 83,182 L 92,182 L 92,183 L 83,183 Z"/>
  <path d="M 96,182 L 107,182 L 107,183 L 96,183 Z"/>
  <path d="M 130,182 L 142,182 L 142,183 L 130,183 Z"/>
  <path d="M 146,182 L 157,182 L 157,183 L 146,183 Z"/>
  <path d="M 196,182 L 207,182 L 207,183 L 196,183 Z"/>
  <path d="M 211,182 L 223,182 L 223,183 L 211,183 Z"/>
  <path d="M 246,182 L 257,182 L 257,183 L 246,183 Z"/>
  <path d="M 261,182 L 273,182 L 273,183 L 261,183 Z"/>
  <path d="M 294,182 L 306,182 L 306,183 L 294,183 Z"/>
  <path d="M 327,182 L 328,182 L 328,183 L 327,183 Z"/>
  <path d="M 329,182 L 373,182 L 373,183 L 329,183 Z"/>
  <path d="M 80,183 L 81,183 L 81,184 L 80,184 Z"/>
  <path d="M 82,183 L 92,183 L 92,184 L 82,184 Z"/>
  <path d="M 96,183 L 99,183 L 99,184 L 96,184 Z"/>
  <path d="M 100,183 L 107,183 L 107,184 L 100,184 Z"/>
  <path d="M 130,183 L 142,183 L 142,184 L 130,184 Z"/>
  <path d="M 146,183 L 157,183 L 157,184 L 146,184 Z"/>
  <path d="M 196,183 L 207,183 L 207,184 L 196,184 Z"/>
  <path d="M 211,183 L 223,183 L 223,184 L 211,184 Z"/>
  <path d="M 246,183 L 257,183 L 257,184 L 246,184 Z"/>
  <path d="M 261,183 L 273,183 L 273,184 L 261,184 Z"/>
  <path d="M 294,183 L 295,183 L 295,184 L 294,184 Z"/>
  <path d="M 296,183 L 306,183 L 306,184 L 296,184 Z"/>
  <path d="M 327,183 L 373,183 L 373,184 L 327,184 Z"/>
  <path d="M 80,184 L 81,184 L 81,185 L 80,185 Z"/>
  <path d="M 82,184 L 92,184 L 92,185 L 82,185 Z"/>
  <path d="M 96,184 L 107,184 L 107,185 L 96,185 Z"/>
  <path d="M 130,184 L 142,184 L 142,185 L 130,185 Z"/>
  <path d="M 146,184 L 149,184 L 149,185 L 146,185 Z"/>
  <path d="M 150,184 L 157,184 L 157,185 L 150,185 Z"/>
  <path d="M 196,184 L 207,184 L 207,185 L 196,185 Z"/>
  <path d="M 211,184 L 214,184 L 214,185 L 211,185 Z"/>
  <path d="M 215,184 L 223,184 L 223,185 L 215,185 Z"/>
  <path d="M 246,184 L 257,184 L 257,185 L 246,185 Z"/>
  <path d="M 261,184 L 273,184 L 273,185 L 261,185 Z"/>
  <path d="M 294,184 L 306,184 L 306,185 L 294,185 Z"/>
  <path d="M 327,184 L 372,184 L 372,185 L 327,185 Z"/>
  <path d="M 80,185 L 81,185 L 81,186 L 80,186 Z"/>
  <path d="M 82,185 L 92,185 L 92,186 L 82,186 Z"/>
  <path d="M 96,185 L 107,185 L 107,186 L 96,186 Z"/>
  <path d="M 130,185 L 142,185 L 142,186 L 130,186 Z"/>
  <path d="M 146,185 L 157,185 L 157,186 L 146,186 Z"/>
  <path d="M 196,185 L 207,185 L 207,186 L 196,186 Z"/>
  <path d="M 211,185 L 223,185 L 223,186 L 211,186 Z"/>
  <path d="M 246,185 L 257,185 L 257,186 L 246,186 Z"/>
  <path d="M 261,185 L 273,185 L 273,186 L 261,186 Z"/>
  <path d="M 294,185 L 306,185 L 306,186 L 294,186 Z"/>
  <path d="M 328,185 L 372,185 L 372,186 L 328,186 Z"/>
  <path d="M 80,186 L 92,186 L 92,187 L 80,187 Z"/>
  <path d="M 96,186 L 107,186 L 107,187 L 96,187 Z"/>
  <path d="M 130,186 L 142,186 L 142,187 L 130,187 Z"/>
  <path d="M 146,186 L 157,186 L 157,187 L 146,187 Z"/>
  <path d="M 196,186 L 207,186 L 207,187 L 196,187 Z"/>
  <path d="M 211,186 L 214,186 L 214,187 L 211,187 Z"/>
  <path d="M 215,186 L 223,186 L 223,187 L 215,187 Z"/>
  <path d="M 246,186 L 249,186 L 249,187 L 246,187 Z"/>
  <path d="M 250,186 L 257,186 L 257,187 L 250,187 Z"/>
  <path d="M 261,186 L 273,186 L 273,187 L 261,187 Z"/>
  <path d="M 294,186 L 295,186 L 295,187 L 294,187 Z"/>
  <path d="M 296,186 L 306,186 L 306,187 L 296,187 Z"/>
  <path d="M 329,186 L 371,186 L 371,187 L 329,187 Z"/>
  <path d="M 80,187 L 92,187 L 92,188 L 80,188 Z"/>
  <path d="M 96,187 L 99,187 L 99,188 L 96,188 Z"/>
  <path d="M 100,187 L 107,187 L 107,188 L 100,188 Z"/>
  <path d="M 130,187 L 131,187 L 131,188 L 130,188 Z"/>
  <path d="M 132,187 L 142,187 L 142,188 L 132,188 Z"/>
  <path d="M 146,187 L 157,187 L 157,188 L 146,188 Z"/>
  <path d="M 196,187 L 199,187 L 199,188 L 196,188 Z"/>
  <path d="M 200,187 L 207,187 L 207,188 L 200,188 Z"/>
  <path d="M 211,187 L 223,187 L 223,188 L 211,188 Z"/>
  <path d="M 246,187 L 249,187 L 249,188 L 246,188 Z"/>
  <path d="M 250,187 L 257,187 L 257,188 L 250,188 Z"/>
  <path d="M 261,187 L 273,187 L 273,188 L 261,188 Z"/>
  <path d="M 294,187 L 306,187 L 306,188 L 294,188 Z"/>
  <path d="M 330,187 L 370,187 L 370,188 L 330,188 Z"/>
  <path d="M 80,188 L 92,188 L 92,189 L 80,189 Z"/>
  <path d="M 96,188 L 99,188 L 99,189 L 96,189 Z"/>
  <path d="M 100,188 L 107,188 L 107,189 L 100,189 Z"/>
  <path d="M 130,188 L 142,188 L 142,189 L 130,189 Z"/>
  <path d="M 146,188 L 157,188 L 157,189 L 146,189 Z"/>
  <path d="M 196,188 L 207,188 L 207,189 L 196,189 Z"/>
  <path d="M 211,188 L 214,188 L 214,189 L 211,189 Z"/>
  <path d="M 215,188 L 223,188 L 223,189 L 215,189 Z"/>
  <path d="M 246,188 L 257,188 L 257,189 L 246,189 Z"/>
  <path d="M 261,188 L 273,188 L 273,189 L 261,189 Z"/>
  <path d="M 294,188 L 306,188 L 306,189 L 294,189 Z"/>
  <path d="M 331,188 L 369,188 L 369,189 L 331,189 Z"/>
  <path d="M 80,189 L 81,189 L 81,190 L 80,190 Z"/>
  <path d="M 82,189 L 92,189 L 92,190 L 82,190 Z"/>
  <path d="M 96,189 L 99,189 L 99,190 L 96,190 Z"/>
  <path d="M 100,189 L 107,189 L 107,190 L 100,190 Z"/>
  <path d="M 130,189 L 142,189 L 142,190 L 130,190 Z"/>
  <path d="M 146,189 L 157,189 L 157,190 L 146,190 Z"/>
  <path d="M 196,189 L 207,189 L 207,190 L 196,190 Z"/>
  <path d="M 211,189 L 214,189 L 214,190 L 211,190 Z"/>
  <path d="M 215,189 L 223,189 L 223,190 L 215,190 Z"/>
  <path d="M 246,189 L 257,189 L 257,190 L 246,190 Z"/>
  <path d="M 261,189 L 273,189 L 273,190 L 261,190 Z"/>
  <path d="M 294,189 L 306,189 L 306,190 L 294,190 Z"/>
  <path d="M 343,189 L 356,189 L 356,190 L 343,190 Z"/>
  <path d="M 80,190 L 92,190 L 92,191 L 80,191 Z"/>
  <path d="M 96,190 L 107,190 L 107,191 L 96,191 Z"/>
  <path d="M 130,190 L 142,190 L 142,191 L 130,191 Z"/>
  <path d="M 146,190 L 157,190 L 157,191 L 146,191 Z"/>
  <path d="M 196,190 L 199,190 L 199,191 L 196,191 Z"/>
  <path d="M 200,190 L 207,190 L 207,191 L 200,191 Z"/>
  <path d="M 211,190 L 223,190 L 223,191 L 211,191 Z"/>
  <path d="M 246,190 L 257,190 L 257,191 L 246,191 Z"/>
  <path d="M 261,190 L 273,190 L 273,191 L 261,191 Z"/>
  <path d="M 294,190 L 295,190 L 295,191 L 294,191 Z"/>
  <path d="M 296,190 L 306,190 L 306,191 L 296,191 Z"/>
  <path d="M 344,190 L 356,190 L 356,191 L 344,191 Z"/>
  <path d="M 80,191 L 92,191 L 92,192 L 80,192 Z"/>
  <path d="M 96,191 L 107,191 L 107,192 L 96,192 Z"/>
  <path d="M 130,191 L 131,191 L 131,192 L 130,192 Z"/>
  <path d="M 132,191 L 142,191 L 142,192 L 132,192 Z"/>
  <path d="M 146,191 L 157,191 L 157,192 L 146,192 Z"/>
  <path d="M 196,191 L 207,191 L 207,192 L 196,192 Z"/>
  <path d="M 211,191 L 214,191 L 214,192 L 211,192 Z"/>
  <path d="M 215,191 L 223,191 L 223,192 L 215,192 Z"/>
  <path d="M 246,191 L 249,191 L 249,192 L 246,192 Z"/>
  <path d="M 250,191 L 257,191 L 257,192 L 250,192 Z"/>
  <path d="M 261,191 L 273,191 L 273,192 L 261,192 Z"/>
  <path d="M 294,191 L 295,191 L 295,192 L 294,192 Z"/>
  <path d="M 296,191 L 306,191 L 306,192 L 296,192 Z"/>
  <path d="M 344,191 L 347,191 L 347,192 L 344,192 Z"/>
  <path d="M 348,191 L 356,191 L 356,192 L 348,192 Z"/>
  <path d="M 80,192 L 92,192 L 92,193 L 80,193 Z"/>
  <path d="M 96,192 L 107,192 L 107,193 L 96,193 Z"/>
  <path d="M 130,192 L 131,192 L 131,193 L 130,193 Z"/>
  <path d="M 132,192 L 142,192 L 142,193 L 132,193 Z"/>
  <path d="M 146,192 L 157,192 L 157,193 L 146,193 Z"/>
  <path d="M 196,192 L 207,192 L 207,193 L 196,193 Z"/>
  <path d="M 211,192 L 223,192 L 223,193 L 211,193 Z"/>
  <path d="M 246,192 L 257,192 L 257,193 L 246,193 Z"/>
  <path d="M 261,192 L 273,192 L 273,193 L 261,193 Z"/>
  <path d="M 294,192 L 306,192 L 306,193 L 294,193 Z"/>
  <path d="M 344,192 L 356,192 L 356,193 L 344,193 Z"/>
  <path d="M 80,193 L 92,193 L 92,194 L 80,194 Z"/>
  <path d="M 96,193 L 107,193 L 107,194 L 96,194 Z"/>
  <path d="M 130,193 L 142,193 L 142,194 L 130,194 Z"/>
  <path d="M 146,193 L 149,193 L 149,194 L 146,194 Z"/>
  <path d="M 150,193 L 157,193 L 157,194 L 150,194 Z"/>
  <path d="M 196,193 L 207,193 L 207,194 L 196,194 Z"/>
  <path d="M 211,193 L 223,193 L 223,194 L 211,194 Z"/>
  <path d="M 246,193 L 249,193 L 249,194 L 246,194 Z"/>
  <path d="M 250,193 L 257,193 L 257,194 L 250,194 Z"/>
  <path d="M 261,193 L 273,193 L 273,194 L 261,194 Z"/>
  <path d="M 294,193 L 306,193 L 306,194 L 294,194 Z"/>
  <path d="M 344,193 L 356,193 L 356,194 L 344,194 Z"/>
  <path d="M 80,194 L 92,194 L 92,195 L 80,195 Z"/>
  <path d="M 96,194 L 107,194 L 107,195 L 96,195 Z"/>
  <path d="M 130,194 L 131,194 L 131,195 L 130,195 Z"/>
  <path d="M 132,194 L 142,194 L 142,195 L 132,195 Z"/>
  <path d="M 146,194 L 149,194 L 149,195 L 146,195 Z"/>
  <path d="M 150,194 L 157,194 L 157,195 L 150,195 Z"/>
  <path d="M 196,194 L 207,194 L 207,195 L 196,195 Z"/>
  <path d="M 211,194 L 223,194 L 223,195 L 211,195 Z"/>
  <path d="M 246,194 L 257,194 L 257,195 L 246,195 Z"/>
  <path d="M 261,194 L 273,194 L 273,195 L 261,195 Z"/>
  <path d="M 294,194 L 306,194 L 306,195 L 294,195 Z"/>
  <path d="M 344,194 L 356,194 L 356,195 L 344,195 Z"/>
  <path d="M 80,195 L 92,195 L 92,196 L 80,196 Z"/>
  <path d="M 96,195 L 107,195 L 107,196 L 96,196 Z"/>
  <path d="M 130,195 L 142,195 L 142,196 L 130,196 Z"/>
  <path d="M 146,195 L 149,195 L 149,196 L 146,196 Z"/>
  <path d="M 150,195 L 157,195 L 157,196 L 150,196 Z"/>
  <path d="M 196,195 L 199,195 L 199,196 L 196,196 Z"/>
  <path d="M 200,195 L 207,195 L 207,196 L 200,196 Z"/>
  <path d="M 211,195 L 214,195 L 214,196 L 211,196 Z"/>
  <path d="M 215,195 L 223,195 L 223,196 L 215,196 Z"/>
  <path d="M 246,195 L 257,195 L 257,196 L 246,196 Z"/>
  <path d="M 261,195 L 273,195 L 273,196 L 261,196 Z"/>
  <path d="M 294,195 L 295,195 L 295,196 L 294,196 Z"/>
  <path d="M 296,195 L 306,195 L 306,196 L 296,196 Z"/>
  <path d="M 344,195 L 356,195 L 356,196 L 344,196 Z"/>
  <path d="M 80,196 L 92,196 L 92,197 L 80,197 Z"/>
  <path d="M 96,196 L 107,196 L 107,197 L 96,197 Z"/>
  <path d="M 130,196 L 142,196 L 142,197 L 130,197 Z"/>
  <path d="M 146,196 L 157,196 L 157,197 L 146,197 Z"/>
  <path d="M 196,196 L 207,196 L 207,197 L 196,197 Z"/>
  <path d="M 211,196 L 223,196 L 223,197 L 211,197 Z"/>
  <path d="M 246,196 L 257,196 L 257,197 L 246,197 Z"/>
  <path d="M 261,196 L 273,196 L 273,197 L 261,197 Z"/>
  <path d="M 294,196 L 306,196 L 306,197 L 294,197 Z"/>
  <path d="M 344,196 L 347,196 L 347,197 L 344,197 Z"/>
  <path d="M 348,196 L 356,196 L 356,197 L 348,197 Z"/>
  <path d="M 80,197 L 92,197 L 92,198 L 80,198 Z"/>
  <path d="M 96,197 L 99,197 L 99,198 L 96,198 Z"/>
  <path d="M 100,197 L 107,197 L 107,198 L 100,198 Z"/>
  <path d="M 130,197 L 142,197 L 142,198 L 130,198 Z"/>
  <path d="M 146,197 L 157,197 L 157,198 L 146,198 Z"/>
  <path d="M 196,197 L 199,197 L 199,198 L 196,198 Z"/>
  <path d="M 200,197 L 207,197 L 207,198 L 200,198 Z"/>
  <path d="M 211,197 L 223,197 L 223,198 L 211,198 Z"/>
  <path d="M 246,197 L 257,197 L 257,198 L 246,198 Z"/>
  <path d="M 261,197 L 273,197 L 273,198 L 261,198 Z"/>
  <path d="M 294,197 L 306,197 L 306,198 L 294,198 Z"/>
  <path d="M 344,197 L 356,197 L 356,198 L 344,198 Z"/>
  <path d="M 80,198 L 92,198 L 92,199 L 80,199 Z"/>
  <path d="M 96,198 L 107,198 L 107,199 L 96,199 Z"/>
  <path d="M 130,198 L 142,198 L 142,199 L 130,199 Z"/>
  <path d="M 146,198 L 157,198 L 157,199 L 146,199 Z"/>
  <path d="M 196,198 L 207,198 L 207,199 L 196,199 Z"/>
  <path d="M 211,198 L 214,198 L 214,199 L 211,199 Z"/>
  <path d="M 215,198 L 223,198 L 223,199 L 215,199 Z"/>
  <path d="M 246,198 L 257,198 L 257,199 L 246,199 Z"/>
  <path d="M 261,198 L 273,198 L 273,199 L 261,199 Z"/>
  <path d="M 294,198 L 306,198 L 306,199 L 294,199 Z"/>
  <path d="M 344,198 L 356,198 L 356,199 L 344,199 Z"/>
  <path d="M 80,199 L 81,199 L 81,200 L 80,200 Z"/>
  <path d="M 82,199 L 91,199 L 91,200 L 82,200 Z"/>
  <path d="M 96,199 L 107,199 L 107,200 L 96,200 Z"/>
  <path d="M 130,199 L 131,199 L 131,200 L 130,200 Z"/>
  <path d="M 132,199 L 141,199 L 141,200 L 132,200 Z"/>
  <path d="M 146,199 L 157,199 L 157,200 L 146,200 Z"/>
  <path d="M 196,199 L 207,199 L 207,200 L 196,200 Z"/>
  <path d="M 211,199 L 214,199 L 214,200 L 211,200 Z"/>
  <path d="M 215,199 L 223,199 L 223,200 L 215,200 Z"/>
  <path d="M 246,199 L 257,199 L 257,200 L 246,200 Z"/>
  <path d="M 261,199 L 273,199 L 273,200 L 261,200 Z"/>
  <path d="M 294,199 L 305,199 L 305,200 L 294,200 Z"/>
  <path d="M 344,199 L 356,199 L 356,200 L 344,200 Z"/>
  <path d="M 80,200 L 87,200 L 87,201 L 80,201 Z"/>
  <path d="M 96,200 L 103,200 L 103,201 L 96,201 Z"/>
  <path d="M 130,200 L 137,200 L 137,201 L 130,201 Z"/>
  <path d="M 146,200 L 153,200 L 153,201 L 146,201 Z"/>
  <path d="M 196,200 L 203,200 L 203,201 L 196,201 Z"/>
  <path d="M 211,200 L 218,200 L 218,201 L 211,201 Z"/>
  <path d="M 246,200 L 253,200 L 253,201 L 246,201 Z"/>
  <path d="M 261,200 L 268,200 L 268,201 L 261,201 Z"/>
  <path d="M 294,200 L 301,200 L 301,201 L 294,201 Z"/>
  <path d="M 344,200 L 351,200 L 351,201 L 344,201 Z"/>
  <path d="M 97,201 L 98,201 L 98,202 L 97,202 Z"/>
  <path d="M 147,201 L 148,201 L 148,202 L 147,202 Z"/>
  <path d="M 197,201 L 198,201 L 198,202 L 197,202 Z"/>
  <path d="M 247,201 L 248,201 L 248,202 L 247,202 Z"/>
  <path d="M 335,218 L 340,218 L 340,219 L 335,219 Z"/>
  <path d="M 113,219 L 118,219 L 118,220 L 113,220 Z"/>
  <path d="M 204,219 L 205,219 L 205,220 L 204,220 Z"/>
  <path d="M 245,219 L 246,219 L 246,220 L 245,220 Z"/>
  <path d="M 334,219 L 337,219 L 337,220 L 334,220 Z"/>
  <path d="M 338,219 L 341,219 L 341,220 L 338,220 Z"/>
  <path d="M 112,220 L 119,220 L 119,221 L 112,221 Z"/>
  <path d="M 245,220 L 246,220 L 246,221 L 245,221 Z"/>
  <path d="M 286,220 L 287,220 L 287,221 L 286,221 Z"/>
  <path d="M 333,220 L 341,220 L 341,221 L 333,221 Z"/>
  <path d="M 112,221 L 120,221 L 120,222 L 112,222 Z"/>
  <path d="M 205,221 L 206,221 L 206,222 L 205,222 Z"/>
  <path d="M 245,221 L 246,221 L 246,222 L 245,222 Z"/>
  <path d="M 286,221 L 287,221 L 287,222 L 286,222 Z"/>
  <path d="M 333,221 L 341,221 L 341,222 L 333,222 Z"/>
  <path d="M 112,222 L 120,222 L 120,223 L 112,223 Z"/>
  <path d="M 205,222 L 206,222 L 206,223 L 205,223 Z"/>
  <path d="M 218,222 L 221,222 L 221,223 L 218,223 Z"/>
  <path d="M 222,222 L 224,222 L 224,223 L 222,223 Z"/>
  <path d="M 225,222 L 227,222 L 227,223 L 225,223 Z"/>
  <path d="M 228,222 L 231,222 L 231,223 L 228,223 Z"/>
  <path d="M 232,222 L 235,222 L 235,223 L 232,223 Z"/>
  <path d="M 245,222 L 247,222 L 247,223 L 245,223 Z"/>
  <path d="M 259,222 L 262,222 L 262,223 L 259,223 Z"/>
  <path d="M 263,222 L 268,222 L 268,223 L 263,223 Z"/>
  <path d="M 269,222 L 275,222 L 275,223 L 269,223 Z"/>
  <path d="M 286,222 L 287,222 L 287,223 L 286,223 Z"/>
  <path d="M 333,222 L 341,222 L 341,223 L 333,223 Z"/>
  <path d="M 112,223 L 120,223 L 120,224 L 112,224 Z"/>
  <path d="M 177,223 L 194,223 L 194,224 L 177,224 Z"/>
  <path d="M 205,223 L 206,223 L 206,224 L 205,224 Z"/>
  <path d="M 217,223 L 235,223 L 235,224 L 217,224 Z"/>
  <path d="M 245,223 L 247,223 L 247,224 L 245,224 Z"/>
  <path d="M 258,223 L 276,223 L 276,224 L 258,224 Z"/>
  <path d="M 286,223 L 287,223 L 287,224 L 286,224 Z"/>
  <path d="M 333,223 L 341,223 L 341,224 L 333,224 Z"/>
  <path d="M 112,224 L 120,224 L 120,225 L 112,225 Z"/>
  <path d="M 177,224 L 178,224 L 178,225 L 177,225 Z"/>
  <path d="M 205,224 L 206,224 L 206,225 L 205,225 Z"/>
  <path d="M 217,224 L 219,224 L 219,225 L 217,225 Z"/>
  <path d="M 245,224 L 247,224 L 247,225 L 245,225 Z"/>
  <path d="M 258,224 L 259,224 L 259,225 L 258,225 Z"/>
  <path d="M 286,224 L 287,224 L 287,225 L 286,225 Z"/>
  <path d="M 333,224 L 341,224 L 341,225 L 333,225 Z"/>
  <path d="M 112,225 L 120,225 L 120,226 L 112,226 Z"/>
  <path d="M 177,225 L 178,225 L 178,226 L 177,226 Z"/>
  <path d="M 205,225 L 206,225 L 206,226 L 205,226 Z"/>
  <path d="M 217,225 L 219,225 L 219,226 L 217,226 Z"/>
  <path d="M 245,225 L 247,225 L 247,226 L 245,226 Z"/>
  <path d="M 258,225 L 259,225 L 259,226 L 258,226 Z"/>
  <path d="M 286,225 L 287,225 L 287,226 L 286,226 Z"/>
  <path d="M 333,225 L 341,225 L 341,226 L 333,226 Z"/>
  <path d="M 112,226 L 120,226 L 120,227 L 112,227 Z"/>
  <path d="M 205,226 L 206,226 L 206,227 L 205,227 Z"/>
  <path d="M 217,226 L 219,226 L 219,227 L 217,227 Z"/>
  <path d="M 245,226 L 247,226 L 247,227 L 245,227 Z"/>
  <path d="M 258,226 L 259,226 L 259,227 L 258,227 Z"/>
  <path d="M 286,226 L 287,226 L 287,227 L 286,227 Z"/>
  <path d="M 293,226 L 301,226 L 301,227 L 293,227 Z"/>
  <path d="M 306,226 L 313,226 L 313,227 L 306,227 Z"/>
  <path d="M 320,226 L 328,226 L 328,227 L 320,227 Z"/>
  <path d="M 333,226 L 341,226 L 341,227 L 333,227 Z"/>
  <path d="M 112,227 L 133,227 L 133,228 L 112,228 Z"/>
  <path d="M 134,227 L 150,227 L 150,228 L 134,228 Z"/>
  <path d="M 151,227 L 160,227 L 160,228 L 151,228 Z"/>
  <path d="M 205,227 L 206,227 L 206,228 L 205,228 Z"/>
  <path d="M 217,227 L 219,227 L 219,228 L 217,228 Z"/>
  <path d="M 245,227 L 247,227 L 247,228 L 245,228 Z"/>
  <path d="M 258,227 L 259,227 L 259,228 L 258,228 Z"/>
  <path d="M 286,227 L 287,227 L 287,228 L 286,228 Z"/>
  <path d="M 293,227 L 341,227 L 341,228 L 293,228 Z"/>
  <path d="M 112,228 L 160,228 L 160,229 L 112,229 Z"/>
  <path d="M 205,228 L 206,228 L 206,229 L 205,229 Z"/>
  <path d="M 217,228 L 219,228 L 219,229 L 217,229 Z"/>
  <path d="M 245,228 L 247,228 L 247,229 L 245,229 Z"/>
  <path d="M 258,228 L 259,228 L 259,229 L 258,229 Z"/>
  <path d="M 286,228 L 287,228 L 287,229 L 286,229 Z"/>
  <path d="M 293,228 L 341,228 L 341,229 L 293,229 Z"/>
  <path d="M 112,229 L 160,229 L 160,230 L 112,230 Z"/>
  <path d="M 205,229 L 206,229 L 206,230 L 205,230 Z"/>
  <path d="M 217,229 L 219,229 L 219,230 L 217,230 Z"/>
  <path d="M 245,229 L 247,229 L 247,230 L 245,230 Z"/>
  <path d="M 258,229 L 259,229 L 259,230 L 258,230 Z"/>
  <path d="M 286,229 L 287,229 L 287,230 L 286,230 Z"/>
  <path d="M 333,229 L 341,229 L 341,230 L 333,230 Z"/>
  <path d="M 112,230 L 120,230 L 120,231 L 112,231 Z"/>
  <path d="M 205,230 L 206,230 L 206,231 L 205,231 Z"/>
  <path d="M 217,230 L 219,230 L 219,231 L 217,231 Z"/>
  <path d="M 245,230 L 247,230 L 247,231 L 245,231 Z"/>
  <path d="M 258,230 L 259,230 L 259,231 L 258,231 Z"/>
  <path d="M 286,230 L 287,230 L 287,231 L 286,231 Z"/>
  <path d="M 333,230 L 341,230 L 341,231 L 333,231 Z"/>
  <path d="M 112,231 L 120,231 L 120,232 L 112,232 Z"/>
  <path d="M 205,231 L 206,231 L 206,232 L 205,232 Z"/>
  <path d="M 217,231 L 219,231 L 219,232 L 217,232 Z"/>
  <path d="M 245,231 L 247,231 L 247,232 L 245,232 Z"/>
  <path d="M 258,231 L 259,231 L 259,232 L 258,232 Z"/>
  <path d="M 286,231 L 287,231 L 287,232 L 286,232 Z"/>
  <path d="M 333,231 L 341,231 L 341,232 L 333,232 Z"/>
  <path d="M 112,232 L 120,232 L 120,233 L 112,233 Z"/>
  <path d="M 205,232 L 206,232 L 206,233 L 205,233 Z"/>
  <path d="M 217,232 L 219,232 L 219,233 L 217,233 Z"/>
  <path d="M 245,232 L 247,232 L 247,233 L 245,233 Z"/>
  <path d="M 258,232 L 259,232 L 259,233 L 258,233 Z"/>
  <path d="M 286,232 L 287,232 L 287,233 L 286,233 Z"/>
  <path d="M 333,232 L 341,232 L 341,233 L 333,233 Z"/>
  <path d="M 112,233 L 120,233 L 120,234 L 112,234 Z"/>
  <path d="M 177,233 L 194,233 L 194,234 L 177,234 Z"/>
  <path d="M 205,233 L 206,233 L 206,234 L 205,234 Z"/>
  <path d="M 217,233 L 219,233 L 219,234 L 217,234 Z"/>
  <path d="M 245,233 L 247,233 L 247,234 L 245,234 Z"/>
  <path d="M 258,233 L 259,233 L 259,234 L 258,234 Z"/>
  <path d="M 286,233 L 287,233 L 287,234 L 286,234 Z"/>
  <path d="M 333,233 L 341,233 L 341,234 L 333,234 Z"/>
  <path d="M 112,234 L 120,234 L 120,235 L 112,235 Z"/>
  <path d="M 177,234 L 193,234 L 193,235 L 177,235 Z"/>
  <path d="M 205,234 L 206,234 L 206,235 L 205,235 Z"/>
  <path d="M 217,234 L 219,234 L 219,235 L 217,235 Z"/>
  <path d="M 245,234 L 247,234 L 247,235 L 245,235 Z"/>
  <path d="M 258,234 L 259,234 L 259,235 L 258,235 Z"/>
  <path d="M 286,234 L 287,234 L 287,235 L 286,235 Z"/>
  <path d="M 333,234 L 341,234 L 341,235 L 333,235 Z"/>
  <path d="M 112,235 L 120,235 L 120,236 L 112,236 Z"/>
  <path d="M 177,235 L 178,235 L 178,236 L 177,236 Z"/>
  <path d="M 205,235 L 206,235 L 206,236 L 205,236 Z"/>
  <path d="M 217,235 L 219,235 L 219,236 L 217,236 Z"/>
  <path d="M 245,235 L 247,235 L 247,236 L 245,236 Z"/>
  <path d="M 258,235 L 259,235 L 259,236 L 258,236 Z"/>
  <path d="M 286,235 L 287,235 L 287,236 L 286,236 Z"/>
  <path d="M 333,235 L 341,235 L 341,236 L 333,236 Z"/>
  <path d="M 112,236 L 120,236 L 120,237 L 112,237 Z"/>
  <path d="M 177,236 L 178,236 L 178,237 L 177,237 Z"/>
  <path d="M 205,236 L 206,236 L 206,237 L 205,237 Z"/>
  <path d="M 217,236 L 219,236 L 219,237 L 217,237 Z"/>
  <path d="M 245,236 L 247,236 L 247,237 L 245,237 Z"/>
  <path d="M 258,236 L 259,236 L 259,237 L 258,237 Z"/>
  <path d="M 286,236 L 287,236 L 287,237 L 286,237 Z"/>
  <path d="M 333,236 L 341,236 L 341,237 L 333,237 Z"/>
  <path d="M 112,237 L 120,237 L 120,238 L 112,238 Z"/>
  <path d="M 177,237 L 178,237 L 178,238 L 177,238 Z"/>
  <path d="M 205,237 L 206,237 L 206,238 L 205,238 Z"/>
  <path d="M 217,237 L 219,237 L 219,238 L 217,238 Z"/>
  <path d="M 245,237 L 247,237 L 247,238 L 245,238 Z"/>
  <path d="M 258,237 L 259,237 L 259,238 L 258,238 Z"/>
  <path d="M 286,237 L 287,237 L 287,238 L 286,238 Z"/>
  <path d="M 333,237 L 341,237 L 341,238 L 333,238 Z"/>
  <path d="M 112,238 L 120,238 L 120,239 L 112,239 Z"/>
  <path d="M 177,238 L 178,238 L 178,239 L 177,239 Z"/>
  <path d="M 205,238 L 206,238 L 206,239 L 205,239 Z"/>
  <path d="M 217,238 L 219,238 L 219,239 L 217,239 Z"/>
  <path d="M 245,238 L 247,238 L 247,239 L 245,239 Z"/>
  <path d="M 258,238 L 259,238 L 259,239 L 258,239 Z"/>
  <path d="M 286,238 L 287,238 L 287,239 L 286,239 Z"/>
  <path d="M 333,238 L 341,238 L 341,239 L 333,239 Z"/>
  <path d="M 112,239 L 120,239 L 120,240 L 112,240 Z"/>
  <path d="M 177,239 L 178,239 L 178,240 L 177,240 Z"/>
  <path d="M 205,239 L 206,239 L 206,240 L 205,240 Z"/>
  <path d="M 217,239 L 219,239 L 219,240 L 217,240 Z"/>
  <path d="M 245,239 L 247,239 L 247,240 L 245,240 Z"/>
  <path d="M 258,239 L 259,239 L 259,240 L 258,240 Z"/>
  <path d="M 286,239 L 287,239 L 287,240 L 286,240 Z"/>
  <path d="M 333,239 L 341,239 L 341,240 L 333,240 Z"/>
  <path d="M 112,240 L 120,240 L 120,241 L 112,241 Z"/>
  <path d="M 177,240 L 178,240 L 178,241 L 177,241 Z"/>
  <path d="M 205,240 L 206,240 L 206,241 L 205,241 Z"/>
  <path d="M 217,240 L 219,240 L 219,241 L 217,241 Z"/>
  <path d="M 245,240 L 247,240 L 247,241 L 245,241 Z"/>
  <path d="M 258,240 L 260,240 L 260,241 L 258,241 Z"/>
  <path d="M 286,240 L 287,240 L 287,241 L 286,241 Z"/>
  <path d="M 333,240 L 341,240 L 341,241 L 333,241 Z"/>
  <path d="M 112,241 L 120,241 L 120,242 L 112,242 Z"/>
  <path d="M 177,241 L 178,241 L 178,242 L 177,242 Z"/>
  <path d="M 205,241 L 206,241 L 206,242 L 205,242 Z"/>
  <path d="M 217,241 L 219,241 L 219,242 L 217,242 Z"/>
  <path d="M 245,241 L 247,241 L 247,242 L 245,242 Z"/>
  <path d="M 286,241 L 287,241 L 287,242 L 286,242 Z"/>
  <path d="M 333,241 L 341,241 L 341,242 L 333,242 Z"/>
  <path d="M 112,242 L 120,242 L 120,243 L 112,243 Z"/>
  <path d="M 177,242 L 178,242 L 178,243 L 177,243 Z"/>
  <path d="M 205,242 L 206,242 L 206,243 L 205,243 Z"/>
  <path d="M 217,242 L 219,242 L 219,243 L 217,243 Z"/>
  <path d="M 245,242 L 247,242 L 247,243 L 245,243 Z"/>
  <path d="M 286,242 L 287,242 L 287,243 L 286,243 Z"/>
  <path d="M 333,242 L 341,242 L 341,243 L 333,243 Z"/>
  <path d="M 112,243 L 120,243 L 120,244 L 112,244 Z"/>
  <path d="M 177,243 L 178,243 L 178,244 L 177,244 Z"/>
  <path d="M 205,243 L 206,243 L 206,244 L 205,244 Z"/>
  <path d="M 217,243 L 219,243 L 219,244 L 217,244 Z"/>
  <path d="M 245,243 L 247,243 L 247,244 L 245,244 Z"/>
  <path d="M 286,243 L 287,243 L 287,244 L 286,244 Z"/>
  <path d="M 333,243 L 341,243 L 341,244 L 333,244 Z"/>
  <path d="M 112,244 L 120,244 L 120,245 L 112,245 Z"/>
  <path d="M 177,244 L 178,244 L 178,245 L 177,245 Z"/>
  <path d="M 205,244 L 206,244 L 206,245 L 205,245 Z"/>
  <path d="M 217,244 L 219,244 L 219,245 L 217,245 Z"/>
  <path d="M 245,244 L 247,244 L 247,245 L 245,245 Z"/>
  <path d="M 285,244 L 287,244 L 287,245 L 285,245 Z"/>
  <path d="M 333,244 L 341,244 L 341,245 L 333,245 Z"/>
  <path d="M 112,245 L 120,245 L 120,246 L 112,246 Z"/>
  <path d="M 177,245 L 178,245 L 178,246 L 177,246 Z"/>
  <path d="M 205,245 L 206,245 L 206,246 L 205,246 Z"/>
  <path d="M 217,245 L 219,245 L 219,246 L 217,246 Z"/>
  <path d="M 245,245 L 247,245 L 247,246 L 245,246 Z"/>
  <path d="M 284,245 L 287,245 L 287,246 L 284,246 Z"/>
  <path d="M 333,245 L 341,245 L 341,246 L 333,246 Z"/>
  <path d="M 112,246 L 120,246 L 120,247 L 112,247 Z"/>
  <path d="M 177,246 L 178,246 L 178,247 L 177,247 Z"/>
  <path d="M 205,246 L 206,246 L 206,247 L 205,247 Z"/>
  <path d="M 217,246 L 219,246 L 219,247 L 217,247 Z"/>
  <path d="M 245,246 L 247,246 L 247,247 L 245,247 Z"/>
  <path d="M 282,246 L 286,246 L 286,247 L 282,247 Z"/>
  <path d="M 176,247 L 178,247 L 178,248 L 176,248 Z"/>
  <path d="M 204,247 L 206,247 L 206,248 L 204,248 Z"/>
  <path d="M 217,247 L 219,247 L 219,248 L 217,248 Z"/>
  <path d="M 245,247 L 247,247 L 247,248 L 245,248 Z"/>
  <path d="M 280,247 L 285,247 L 285,248 L 280,248 Z"/>
  <path d="M 169,248 L 178,248 L 178,249 L 169,249 Z"/>
  <path d="M 197,248 L 206,248 L 206,249 L 197,249 Z"/>
  <path d="M 210,248 L 219,248 L 219,249 L 210,249 Z"/>
  <path d="M 238,248 L 247,248 L 247,249 L 238,249 Z"/>
  <path d="M 251,248 L 282,248 L 282,249 L 251,249 Z"/>
  <path d="M 159,259 L 160,259 L 160,260 L 159,260 Z"/>
  <path d="M 177,259 L 178,259 L 178,260 L 177,260 Z"/>
  <path d="M 215,259 L 217,259 L 217,260 L 215,260 Z"/>
  <path d="M 402,259 L 403,259 L 403,260 L 402,260 Z"/>
  <path d="M 159,260 L 160,260 L 160,261 L 159,261 Z"/>
  <path d="M 177,260 L 178,260 L 178,261 L 177,261 Z"/>
  <path d="M 215,260 L 217,260 L 217,261 L 215,261 Z"/>
  <path d="M 402,260 L 403,260 L 403,261 L 402,261 Z"/>
  <path d="M 159,261 L 160,261 L 160,262 L 159,262 Z"/>
  <path d="M 177,261 L 178,261 L 178,262 L 177,262 Z"/>
  <path d="M 215,261 L 217,261 L 217,262 L 215,262 Z"/>
  <path d="M 402,261 L 403,261 L 403,262 L 402,262 Z"/>
  <path d="M 102,262 L 103,262 L 103,263 L 102,263 Z"/>
  <path d="M 159,262 L 160,262 L 160,263 L 159,263 Z"/>
  <path d="M 177,262 L 178,262 L 178,263 L 177,263 Z"/>
  <path d="M 215,262 L 217,262 L 217,263 L 215,263 Z"/>
  <path d="M 271,262 L 272,262 L 272,263 L 271,263 Z"/>
  <path d="M 402,262 L 403,262 L 403,263 L 402,263 Z"/>
  <path d="M 159,263 L 160,263 L 160,264 L 159,264 Z"/>
  <path d="M 177,263 L 178,263 L 178,264 L 177,264 Z"/>
  <path d="M 215,263 L 217,263 L 217,264 L 215,264 Z"/>
  <path d="M 328,263 L 329,263 L 329,264 L 328,264 Z"/>
  <path d="M 384,263 L 385,263 L 385,264 L 384,264 Z"/>
  <path d="M 402,263 L 403,263 L 403,264 L 402,264 Z"/>
  <path d="M 103,264 L 104,264 L 104,265 L 103,265 Z"/>
  <path d="M 159,264 L 160,264 L 160,265 L 159,265 Z"/>
  <path d="M 177,264 L 178,264 L 178,265 L 177,265 Z"/>
  <path d="M 215,264 L 217,264 L 217,265 L 215,265 Z"/>
  <path d="M 272,264 L 273,264 L 273,265 L 272,265 Z"/>
  <path d="M 328,264 L 329,264 L 329,265 L 328,265 Z"/>
  <path d="M 402,264 L 403,264 L 403,265 L 402,265 Z"/>
  <path d="M 64,265 L 65,265 L 65,266 L 64,266 Z"/>
  <path d="M 66,265 L 89,265 L 89,266 L 66,266 Z"/>
  <path d="M 103,265 L 104,265 L 104,266 L 103,266 Z"/>
  <path d="M 159,265 L 160,265 L 160,266 L 159,266 Z"/>
  <path d="M 177,265 L 178,265 L 178,266 L 177,266 Z"/>
  <path d="M 215,265 L 217,265 L 217,266 L 215,266 Z"/>
  <path d="M 272,265 L 273,265 L 273,266 L 272,266 Z"/>
  <path d="M 328,265 L 329,265 L 329,266 L 328,266 Z"/>
  <path d="M 385,265 L 386,265 L 386,266 L 385,266 Z"/>
  <path d="M 402,265 L 403,265 L 403,266 L 402,266 Z"/>
  <path d="M 64,266 L 65,266 L 65,267 L 64,267 Z"/>
  <path d="M 103,266 L 104,266 L 104,267 L 103,267 Z"/>
  <path d="M 159,266 L 160,266 L 160,267 L 159,267 Z"/>
  <path d="M 177,266 L 178,266 L 178,267 L 177,267 Z"/>
  <path d="M 215,266 L 217,266 L 217,267 L 215,267 Z"/>
  <path d="M 272,266 L 273,266 L 273,267 L 272,267 Z"/>
  <path d="M 328,266 L 329,266 L 329,267 L 328,267 Z"/>
  <path d="M 385,266 L 386,266 L 386,267 L 385,267 Z"/>
  <path d="M 402,266 L 403,266 L 403,267 L 402,267 Z"/>
  <path d="M 64,267 L 65,267 L 65,268 L 64,268 Z"/>
  <path d="M 103,267 L 104,267 L 104,268 L 103,268 Z"/>
  <path d="M 122,267 L 160,267 L 160,268 L 122,268 Z"/>
  <path d="M 177,267 L 178,267 L 178,268 L 177,268 Z"/>
  <path d="M 215,267 L 217,267 L 217,268 L 215,268 Z"/>
  <path d="M 233,267 L 258,267 L 258,268 L 233,268 Z"/>
  <path d="M 272,267 L 273,267 L 273,268 L 272,268 Z"/>
  <path d="M 291,267 L 314,267 L 314,268 L 291,268 Z"/>
  <path d="M 328,267 L 329,267 L 329,268 L 328,268 Z"/>
  <path d="M 346,267 L 370,267 L 370,268 L 346,268 Z"/>
  <path d="M 385,267 L 386,267 L 386,268 L 385,268 Z"/>
  <path d="M 402,267 L 403,267 L 403,268 L 402,268 Z"/>
  <path d="M 64,268 L 65,268 L 65,269 L 64,269 Z"/>
  <path d="M 103,268 L 104,268 L 104,269 L 103,269 Z"/>
  <path d="M 120,268 L 121,268 L 121,269 L 120,269 Z"/>
  <path d="M 177,268 L 178,268 L 178,269 L 177,269 Z"/>
  <path d="M 215,268 L 216,268 L 216,269 L 215,269 Z"/>
  <path d="M 233,268 L 235,268 L 235,269 L 233,269 Z"/>
  <path d="M 272,268 L 273,268 L 273,269 L 272,269 Z"/>
  <path d="M 290,268 L 291,268 L 291,269 L 290,269 Z"/>
  <path d="M 328,268 L 329,268 L 329,269 L 328,269 Z"/>
  <path d="M 346,268 L 347,268 L 347,269 L 346,269 Z"/>
  <path d="M 385,268 L 386,268 L 386,269 L 385,269 Z"/>
  <path d="M 402,268 L 403,268 L 403,269 L 402,269 Z"/>
  <path d="M 64,269 L 65,269 L 65,270 L 64,270 Z"/>
  <path d="M 103,269 L 104,269 L 104,270 L 103,270 Z"/>
  <path d="M 120,269 L 122,269 L 122,270 L 120,270 Z"/>
  <path d="M 177,269 L 178,269 L 178,270 L 177,270 Z"/>
  <path d="M 215,269 L 216,269 L 216,270 L 215,270 Z"/>
  <path d="M 233,269 L 234,269 L 234,270 L 233,270 Z"/>
  <path d="M 272,269 L 273,269 L 273,270 L 272,270 Z"/>
  <path d="M 290,269 L 291,269 L 291,270 L 290,270 Z"/>
  <path d="M 328,269 L 329,269 L 329,270 L 328,270 Z"/>
  <path d="M 346,269 L 347,269 L 347,270 L 346,270 Z"/>
  <path d="M 385,269 L 386,269 L 386,270 L 385,270 Z"/>
  <path d="M 402,269 L 403,269 L 403,270 L 402,270 Z"/>
  <path d="M 102,270 L 104,270 L 104,271 L 102,271 Z"/>
  <path d="M 120,270 L 122,270 L 122,271 L 120,271 Z"/>
  <path d="M 177,270 L 178,270 L 178,271 L 177,271 Z"/>
  <path d="M 215,270 L 217,270 L 217,271 L 215,271 Z"/>
  <path d="M 233,270 L 234,270 L 234,271 L 233,271 Z"/>
  <path d="M 272,270 L 273,270 L 273,271 L 272,271 Z"/>
  <path d="M 290,270 L 291,270 L 291,271 L 290,271 Z"/>
  <path d="M 328,270 L 329,270 L 329,271 L 328,271 Z"/>
  <path d="M 346,270 L 347,270 L 347,271 L 346,271 Z"/>
  <path d="M 385,270 L 386,270 L 386,271 L 385,271 Z"/>
  <path d="M 402,270 L 403,270 L 403,271 L 402,271 Z"/>
  <path d="M 102,271 L 104,271 L 104,272 L 102,272 Z"/>
  <path d="M 120,271 L 122,271 L 122,272 L 120,272 Z"/>
  <path d="M 177,271 L 178,271 L 178,272 L 177,272 Z"/>
  <path d="M 215,271 L 216,271 L 216,272 L 215,272 Z"/>
  <path d="M 233,271 L 234,271 L 234,272 L 233,272 Z"/>
  <path d="M 272,271 L 273,271 L 273,272 L 272,272 Z"/>
  <path d="M 290,271 L 291,271 L 291,272 L 290,272 Z"/>
  <path d="M 328,271 L 329,271 L 329,272 L 328,272 Z"/>
  <path d="M 346,271 L 347,271 L 347,272 L 346,272 Z"/>
  <path d="M 385,271 L 386,271 L 386,272 L 385,272 Z"/>
  <path d="M 402,271 L 403,271 L 403,272 L 402,272 Z"/>
  <path d="M 102,272 L 103,272 L 103,273 L 102,273 Z"/>
  <path d="M 120,272 L 122,272 L 122,273 L 120,273 Z"/>
  <path d="M 177,272 L 178,272 L 178,273 L 177,273 Z"/>
  <path d="M 215,272 L 217,272 L 217,273 L 215,273 Z"/>
  <path d="M 233,272 L 234,272 L 234,273 L 233,273 Z"/>
  <path d="M 272,272 L 273,272 L 273,273 L 272,273 Z"/>
  <path d="M 290,272 L 291,272 L 291,273 L 290,273 Z"/>
  <path d="M 328,272 L 329,272 L 329,273 L 328,273 Z"/>
  <path d="M 346,272 L 347,272 L 347,273 L 346,273 Z"/>
  <path d="M 385,272 L 386,272 L 386,273 L 385,273 Z"/>
  <path d="M 402,272 L 403,272 L 403,273 L 402,273 Z"/>
  <path d="M 101,273 L 103,273 L 103,274 L 101,274 Z"/>
  <path d="M 120,273 L 122,273 L 122,274 L 120,274 Z"/>
  <path d="M 177,273 L 178,273 L 178,274 L 177,274 Z"/>
  <path d="M 215,273 L 216,273 L 216,274 L 215,274 Z"/>
  <path d="M 233,273 L 234,273 L 234,274 L 233,274 Z"/>
  <path d="M 272,273 L 273,273 L 273,274 L 272,274 Z"/>
  <path d="M 290,273 L 291,273 L 291,274 L 290,274 Z"/>
  <path d="M 328,273 L 329,273 L 329,274 L 328,274 Z"/>
  <path d="M 346,273 L 347,273 L 347,274 L 346,274 Z"/>
  <path d="M 385,273 L 386,273 L 386,274 L 385,274 Z"/>
  <path d="M 402,273 L 403,273 L 403,274 L 402,274 Z"/>
  <path d="M 101,274 L 103,274 L 103,275 L 101,275 Z"/>
  <path d="M 121,274 L 122,274 L 122,275 L 121,275 Z"/>
  <path d="M 177,274 L 178,274 L 178,275 L 177,275 Z"/>
  <path d="M 215,274 L 216,274 L 216,275 L 215,275 Z"/>
  <path d="M 233,274 L 234,274 L 234,275 L 233,275 Z"/>
  <path d="M 272,274 L 273,274 L 273,275 L 272,275 Z"/>
  <path d="M 290,274 L 291,274 L 291,275 L 290,275 Z"/>
  <path d="M 328,274 L 329,274 L 329,275 L 328,275 Z"/>
  <path d="M 346,274 L 347,274 L 347,275 L 346,275 Z"/>
  <path d="M 385,274 L 386,274 L 386,275 L 385,275 Z"/>
  <path d="M 402,274 L 403,274 L 403,275 L 402,275 Z"/>
  <path d="M 100,275 L 102,275 L 102,276 L 100,276 Z"/>
  <path d="M 177,275 L 178,275 L 178,276 L 177,276 Z"/>
  <path d="M 215,275 L 217,275 L 217,276 L 215,276 Z"/>
  <path d="M 233,275 L 234,275 L 234,276 L 233,276 Z"/>
  <path d="M 272,275 L 273,275 L 273,276 L 272,276 Z"/>
  <path d="M 290,275 L 291,275 L 291,276 L 290,276 Z"/>
  <path d="M 328,275 L 329,275 L 329,276 L 328,276 Z"/>
  <path d="M 346,275 L 347,275 L 347,276 L 346,276 Z"/>
  <path d="M 385,275 L 386,275 L 386,276 L 385,276 Z"/>
  <path d="M 402,275 L 403,275 L 403,276 L 402,276 Z"/>
  <path d="M 99,276 L 102,276 L 102,277 L 99,277 Z"/>
  <path d="M 215,276 L 216,276 L 216,277 L 215,277 Z"/>
  <path d="M 233,276 L 234,276 L 234,277 L 233,277 Z"/>
  <path d="M 272,276 L 273,276 L 273,277 L 272,277 Z"/>
  <path d="M 290,276 L 291,276 L 291,277 L 290,277 Z"/>
  <path d="M 328,276 L 329,276 L 329,277 L 328,277 Z"/>
  <path d="M 346,276 L 347,276 L 347,277 L 346,277 Z"/>
  <path d="M 385,276 L 386,276 L 386,277 L 385,277 Z"/>
  <path d="M 402,276 L 403,276 L 403,277 L 402,277 Z"/>
  <path d="M 99,277 L 101,277 L 101,278 L 99,278 Z"/>
  <path d="M 155,277 L 156,277 L 156,278 L 155,278 Z"/>
  <path d="M 215,277 L 217,277 L 217,278 L 215,278 Z"/>
  <path d="M 233,277 L 234,277 L 234,278 L 233,278 Z"/>
  <path d="M 272,277 L 273,277 L 273,278 L 272,278 Z"/>
  <path d="M 290,277 L 291,277 L 291,278 L 290,278 Z"/>
  <path d="M 328,277 L 329,277 L 329,278 L 328,278 Z"/>
  <path d="M 346,277 L 347,277 L 347,278 L 346,278 Z"/>
  <path d="M 385,277 L 386,277 L 386,278 L 385,278 Z"/>
  <path d="M 402,277 L 403,277 L 403,278 L 402,278 Z"/>
  <path d="M 155,278 L 156,278 L 156,279 L 155,279 Z"/>
  <path d="M 215,278 L 217,278 L 217,279 L 215,279 Z"/>
  <path d="M 233,278 L 234,278 L 234,279 L 233,279 Z"/>
  <path d="M 272,278 L 273,278 L 273,279 L 272,279 Z"/>
  <path d="M 290,278 L 291,278 L 291,279 L 290,279 Z"/>
  <path d="M 328,278 L 329,278 L 329,279 L 328,279 Z"/>
  <path d="M 346,278 L 347,278 L 347,279 L 346,279 Z"/>
  <path d="M 385,278 L 386,278 L 386,279 L 385,279 Z"/>
  <path d="M 402,278 L 403,278 L 403,279 L 402,279 Z"/>
  <path d="M 155,279 L 156,279 L 156,280 L 155,280 Z"/>
  <path d="M 215,279 L 217,279 L 217,280 L 215,280 Z"/>
  <path d="M 233,279 L 234,279 L 234,280 L 233,280 Z"/>
  <path d="M 272,279 L 273,279 L 273,280 L 272,280 Z"/>
  <path d="M 290,279 L 291,279 L 291,280 L 290,280 Z"/>
  <path d="M 328,279 L 329,279 L 329,280 L 328,280 Z"/>
  <path d="M 346,279 L 347,279 L 347,280 L 346,280 Z"/>
  <path d="M 385,279 L 386,279 L 386,280 L 385,280 Z"/>
  <path d="M 402,279 L 403,279 L 403,280 L 402,280 Z"/>
  <path d="M 155,280 L 156,280 L 156,281 L 155,281 Z"/>
  <path d="M 215,280 L 216,280 L 216,281 L 215,281 Z"/>
  <path d="M 233,280 L 234,280 L 234,281 L 233,281 Z"/>
  <path d="M 272,280 L 273,280 L 273,281 L 272,281 Z"/>
  <path d="M 290,280 L 291,280 L 291,281 L 290,281 Z"/>
  <path d="M 328,280 L 329,280 L 329,281 L 328,281 Z"/>
  <path d="M 346,280 L 347,280 L 347,281 L 346,281 Z"/>
  <path d="M 385,280 L 386,280 L 386,281 L 385,281 Z"/>
  <path d="M 402,280 L 403,280 L 403,281 L 402,281 Z"/>
  <path d="M 155,281 L 156,281 L 156,282 L 155,282 Z"/>
  <path d="M 214,281 L 216,281 L 216,282 L 214,282 Z"/>
  <path d="M 233,281 L 234,281 L 234,282 L 233,282 Z"/>
  <path d="M 272,281 L 273,281 L 273,282 L 272,282 Z"/>
  <path d="M 290,281 L 291,281 L 291,282 L 290,282 Z"/>
  <path d="M 328,281 L 329,281 L 329,282 L 328,282 Z"/>
  <path d="M 346,281 L 347,281 L 347,282 L 346,282 Z"/>
  <path d="M 385,281 L 386,281 L 386,282 L 385,282 Z"/>
  <path d="M 402,281 L 403,281 L 403,282 L 402,282 Z"/>
  <path d="M 102,282 L 103,282 L 103,283 L 102,283 Z"/>
  <path d="M 155,282 L 156,282 L 156,283 L 155,283 Z"/>
  <path d="M 214,282 L 216,282 L 216,283 L 214,283 Z"/>
  <path d="M 233,282 L 234,282 L 234,283 L 233,283 Z"/>
  <path d="M 272,282 L 273,282 L 273,283 L 272,283 Z"/>
  <path d="M 290,282 L 291,282 L 291,283 L 290,283 Z"/>
  <path d="M 328,282 L 329,282 L 329,283 L 328,283 Z"/>
  <path d="M 346,282 L 347,282 L 347,283 L 346,283 Z"/>
  <path d="M 385,282 L 386,282 L 386,283 L 385,283 Z"/>
  <path d="M 402,282 L 403,282 L 403,283 L 402,283 Z"/>
  <path d="M 64,283 L 86,283 L 86,284 L 64,284 Z"/>
  <path d="M 155,283 L 156,283 L 156,284 L 155,284 Z"/>
  <path d="M 213,283 L 215,283 L 215,284 L 213,284 Z"/>
  <path d="M 233,283 L 234,283 L 234,284 L 233,284 Z"/>
  <path d="M 272,283 L 273,283 L 273,284 L 272,284 Z"/>
  <path d="M 290,283 L 291,283 L 291,284 L 290,284 Z"/>
  <path d="M 328,283 L 329,283 L 329,284 L 328,284 Z"/>
  <path d="M 346,283 L 347,283 L 347,284 L 346,284 Z"/>
  <path d="M 385,283 L 386,283 L 386,284 L 385,284 Z"/>
  <path d="M 402,283 L 403,283 L 403,284 L 402,284 Z"/>
  <path d="M 64,284 L 65,284 L 65,285 L 64,285 Z"/>
  <path d="M 103,284 L 104,284 L 104,285 L 103,285 Z"/>
  <path d="M 121,284 L 156,284 L 156,285 L 121,285 Z"/>
  <path d="M 212,284 L 214,284 L 214,285 L 212,285 Z"/>
  <path d="M 233,284 L 234,284 L 234,285 L 233,285 Z"/>
  <path d="M 272,284 L 273,284 L 273,285 L 272,285 Z"/>
  <path d="M 290,284 L 291,284 L 291,285 L 290,285 Z"/>
  <path d="M 328,284 L 329,284 L 329,285 L 328,285 Z"/>
  <path d="M 346,284 L 347,284 L 347,285 L 346,285 Z"/>
  <path d="M 385,284 L 386,284 L 386,285 L 385,285 Z"/>
  <path d="M 401,284 L 403,284 L 403,285 L 401,285 Z"/>
  <path d="M 64,285 L 65,285 L 65,286 L 64,286 Z"/>
  <path d="M 103,285 L 104,285 L 104,286 L 103,286 Z"/>
  <path d="M 120,285 L 121,285 L 121,286 L 120,286 Z"/>
  <path d="M 155,285 L 156,285 L 156,286 L 155,286 Z"/>
  <path d="M 168,285 L 169,285 L 169,286 L 168,286 Z"/>
  <path d="M 209,285 L 213,285 L 213,286 L 209,286 Z"/>
  <path d="M 233,285 L 234,285 L 234,286 L 233,286 Z"/>
  <path d="M 272,285 L 273,285 L 273,286 L 272,286 Z"/>
  <path d="M 290,285 L 291,285 L 291,286 L 290,286 Z"/>
  <path d="M 328,285 L 329,285 L 329,286 L 328,286 Z"/>
  <path d="M 346,285 L 347,285 L 347,286 L 346,286 Z"/>
  <path d="M 385,285 L 386,285 L 386,286 L 385,286 Z"/>
  <path d="M 401,285 L 403,285 L 403,286 L 401,286 Z"/>
  <path d="M 64,286 L 65,286 L 65,287 L 64,287 Z"/>
  <path d="M 103,286 L 104,286 L 104,287 L 103,287 Z"/>
  <path d="M 120,286 L 122,286 L 122,287 L 120,287 Z"/>
  <path d="M 171,286 L 182,286 L 182,287 L 171,287 Z"/>
  <path d="M 196,286 L 211,286 L 211,287 L 196,287 Z"/>
  <path d="M 233,286 L 234,286 L 234,287 L 233,287 Z"/>
  <path d="M 272,286 L 273,286 L 273,287 L 272,287 Z"/>
  <path d="M 290,286 L 291,286 L 291,287 L 290,287 Z"/>
  <path d="M 328,286 L 329,286 L 329,287 L 328,287 Z"/>
  <path d="M 346,286 L 347,286 L 347,287 L 346,287 Z"/>
  <path d="M 385,286 L 386,286 L 386,287 L 385,287 Z"/>
  <path d="M 401,286 L 403,286 L 403,287 L 401,287 Z"/>
  <path d="M 64,287 L 65,287 L 65,288 L 64,288 Z"/>
  <path d="M 103,287 L 104,287 L 104,288 L 103,288 Z"/>
  <path d="M 120,287 L 122,287 L 122,288 L 120,288 Z"/>
  <path d="M 196,287 L 197,287 L 197,288 L 196,288 Z"/>
  <path d="M 233,287 L 234,287 L 234,288 L 233,288 Z"/>
  <path d="M 272,287 L 273,287 L 273,288 L 272,288 Z"/>
  <path d="M 290,287 L 291,287 L 291,288 L 290,288 Z"/>
  <path d="M 328,287 L 329,287 L 329,288 L 328,288 Z"/>
  <path d="M 346,287 L 347,287 L 347,288 L 346,288 Z"/>
  <path d="M 385,287 L 386,287 L 386,288 L 385,288 Z"/>
  <path d="M 392,287 L 403,287 L 403,288 L 392,288 Z"/>
  <path d="M 64,288 L 65,288 L 65,289 L 64,289 Z"/>
  <path d="M 103,288 L 104,288 L 104,289 L 103,289 Z"/>
  <path d="M 120,288 L 122,288 L 122,289 L 120,289 Z"/>
  <path d="M 196,288 L 197,288 L 197,289 L 196,289 Z"/>
  <path d="M 233,288 L 234,288 L 234,289 L 233,289 Z"/>
  <path d="M 272,288 L 273,288 L 273,289 L 272,289 Z"/>
  <path d="M 290,288 L 291,288 L 291,289 L 290,289 Z"/>
  <path d="M 328,288 L 329,288 L 329,289 L 328,289 Z"/>
  <path d="M 346,288 L 347,288 L 347,289 L 346,289 Z"/>
  <path d="M 385,288 L 386,288 L 386,289 L 385,289 Z"/>
  <path d="M 64,289 L 65,289 L 65,290 L 64,290 Z"/>
  <path d="M 103,289 L 104,289 L 104,290 L 103,290 Z"/>
  <path d="M 120,289 L 122,289 L 122,290 L 120,290 Z"/>
  <path d="M 196,289 L 197,289 L 197,290 L 196,290 Z"/>
  <path d="M 233,289 L 234,289 L 234,290 L 233,290 Z"/>
  <path d="M 272,289 L 273,289 L 273,290 L 272,290 Z"/>
  <path d="M 290,289 L 291,289 L 291,290 L 290,290 Z"/>
  <path d="M 328,289 L 329,289 L 329,290 L 328,290 Z"/>
  <path d="M 346,289 L 347,289 L 347,290 L 346,290 Z"/>
  <path d="M 385,289 L 386,289 L 386,290 L 385,290 Z"/>
  <path d="M 64,290 L 65,290 L 65,291 L 64,291 Z"/>
  <path d="M 103,290 L 104,290 L 104,291 L 103,291 Z"/>
  <path d="M 120,290 L 122,290 L 122,291 L 120,291 Z"/>
  <path d="M 196,290 L 197,290 L 197,291 L 196,291 Z"/>
  <path d="M 233,290 L 234,290 L 234,291 L 233,291 Z"/>
  <path d="M 272,290 L 273,290 L 273,291 L 272,291 Z"/>
  <path d="M 290,290 L 291,290 L 291,291 L 290,291 Z"/>
  <path d="M 328,290 L 329,290 L 329,291 L 328,291 Z"/>
  <path d="M 346,290 L 347,290 L 347,291 L 346,291 Z"/>
  <path d="M 385,290 L 386,290 L 386,291 L 385,291 Z"/>
  <path d="M 64,291 L 65,291 L 65,292 L 64,292 Z"/>
  <path d="M 103,291 L 104,291 L 104,292 L 103,292 Z"/>
  <path d="M 120,291 L 121,291 L 121,292 L 120,292 Z"/>
  <path d="M 196,291 L 197,291 L 197,292 L 196,292 Z"/>
  <path d="M 233,291 L 234,291 L 234,292 L 233,292 Z"/>
  <path d="M 272,291 L 273,291 L 273,292 L 272,292 Z"/>
  <path d="M 290,291 L 291,291 L 291,292 L 290,292 Z"/>
  <path d="M 328,291 L 329,291 L 329,292 L 328,292 Z"/>
  <path d="M 346,291 L 347,291 L 347,292 L 346,292 Z"/>
  <path d="M 385,291 L 386,291 L 386,292 L 385,292 Z"/>
  <path d="M 64,292 L 65,292 L 65,293 L 64,293 Z"/>
  <path d="M 103,292 L 104,292 L 104,293 L 103,293 Z"/>
  <path d="M 196,292 L 197,292 L 197,293 L 196,293 Z"/>
  <path d="M 272,292 L 273,292 L 273,293 L 272,293 Z"/>
  <path d="M 290,292 L 291,292 L 291,293 L 290,293 Z"/>
  <path d="M 328,292 L 329,292 L 329,293 L 328,293 Z"/>
  <path d="M 385,292 L 386,292 L 386,293 L 385,293 Z"/>
  <path d="M 103,293 L 104,293 L 104,294 L 103,294 Z"/>
  <path d="M 196,293 L 197,293 L 197,294 L 196,294 Z"/>
  <path d="M 272,293 L 273,293 L 273,294 L 272,294 Z"/>
  <path d="M 290,293 L 291,293 L 291,294 L 290,294 Z"/>
  <path d="M 328,293 L 329,293 L 329,294 L 328,294 Z"/>
  <path d="M 385,293 L 386,293 L 386,294 L 385,294 Z"/>
  <path d="M 103,294 L 104,294 L 104,295 L 103,295 Z"/>
  <path d="M 196,294 L 197,294 L 197,295 L 196,295 Z"/>
  <path d="M 272,294 L 273,294 L 273,295 L 272,295 Z"/>
  <path d="M 290,294 L 291,294 L 291,295 L 290,295 Z"/>
  <path d="M 328,294 L 329,294 L 329,295 L 328,295 Z"/>
  <path d="M 384,294 L 386,294 L 386,295 L 384,295 Z"/>
  <path d="M 102,295 L 104,295 L 104,296 L 102,296 Z"/>
  <path d="M 159,295 L 160,295 L 160,296 L 159,296 Z"/>
  <path d="M 196,295 L 197,295 L 197,296 L 196,296 Z"/>
  <path d="M 271,295 L 273,295 L 273,296 L 271,296 Z"/>
  <path d="M 290,295 L 291,295 L 291,296 L 290,296 Z"/>
  <path d="M 328,295 L 329,295 L 329,296 L 328,296 Z"/>
  <path d="M 384,295 L 386,295 L 386,296 L 384,296 Z"/>
  <path d="M 401,295 L 402,295 L 402,296 L 401,296 Z"/>
  <path d="M 102,296 L 104,296 L 104,297 L 102,297 Z"/>
  <path d="M 159,296 L 160,296 L 160,297 L 159,297 Z"/>
  <path d="M 196,296 L 197,296 L 197,297 L 196,297 Z"/>
  <path d="M 271,296 L 273,296 L 273,297 L 271,297 Z"/>
  <path d="M 290,296 L 291,296 L 291,297 L 290,297 Z"/>
  <path d="M 328,296 L 329,296 L 329,297 L 328,297 Z"/>
  <path d="M 384,296 L 385,296 L 385,297 L 384,297 Z"/>
  <path d="M 401,296 L 402,296 L 402,297 L 401,297 Z"/>
  <path d="M 101,297 L 103,297 L 103,298 L 101,298 Z"/>
  <path d="M 159,297 L 160,297 L 160,298 L 159,298 Z"/>
  <path d="M 196,297 L 197,297 L 197,298 L 196,298 Z"/>
  <path d="M 270,297 L 273,297 L 273,298 L 270,298 Z"/>
  <path d="M 290,297 L 291,297 L 291,298 L 290,298 Z"/>
  <path d="M 328,297 L 329,297 L 329,298 L 328,298 Z"/>
  <path d="M 383,297 L 385,297 L 385,298 L 383,298 Z"/>
  <path d="M 401,297 L 402,297 L 402,298 L 401,298 Z"/>
  <path d="M 100,298 L 103,298 L 103,299 L 100,299 Z"/>
  <path d="M 159,298 L 160,298 L 160,299 L 159,299 Z"/>
  <path d="M 196,298 L 197,298 L 197,299 L 196,299 Z"/>
  <path d="M 270,298 L 272,298 L 272,299 L 270,299 Z"/>
  <path d="M 290,298 L 291,298 L 291,299 L 290,299 Z"/>
  <path d="M 328,298 L 329,298 L 329,299 L 328,299 Z"/>
  <path d="M 382,298 L 385,298 L 385,299 L 382,299 Z"/>
  <path d="M 401,298 L 402,298 L 402,299 L 401,299 Z"/>
  <path d="M 99,299 L 102,299 L 102,300 L 99,300 Z"/>
  <path d="M 159,299 L 160,299 L 160,300 L 159,300 Z"/>
  <path d="M 196,299 L 197,299 L 197,300 L 196,300 Z"/>
  <path d="M 268,299 L 271,299 L 271,300 L 268,300 Z"/>
  <path d="M 290,299 L 291,299 L 291,300 L 290,300 Z"/>
  <path d="M 328,299 L 329,299 L 329,300 L 328,300 Z"/>
  <path d="M 381,299 L 384,299 L 384,300 L 381,300 Z"/>
  <path d="M 401,299 L 402,299 L 402,300 L 401,300 Z"/>
  <path d="M 97,300 L 101,300 L 101,301 L 97,301 Z"/>
  <path d="M 159,300 L 160,300 L 160,301 L 159,301 Z"/>
  <path d="M 196,300 L 197,300 L 197,301 L 196,301 Z"/>
  <path d="M 268,300 L 270,300 L 270,301 L 268,301 Z"/>
  <path d="M 290,300 L 291,300 L 291,301 L 290,301 Z"/>
  <path d="M 328,300 L 329,300 L 329,301 L 328,301 Z"/>
  <path d="M 379,300 L 383,300 L 383,301 L 379,301 Z"/>
  <path d="M 401,300 L 402,300 L 402,301 L 401,301 Z"/>
  <path d="M 95,301 L 99,301 L 99,302 L 95,302 Z"/>
  <path d="M 159,301 L 160,301 L 160,302 L 159,302 Z"/>
  <path d="M 196,301 L 197,301 L 197,302 L 196,302 Z"/>
  <path d="M 264,301 L 269,301 L 269,302 L 264,302 Z"/>
  <path d="M 290,301 L 291,301 L 291,302 L 290,302 Z"/>
  <path d="M 328,301 L 329,301 L 329,302 L 328,302 Z"/>
  <path d="M 377,301 L 381,301 L 381,302 L 377,302 Z"/>
  <path d="M 392,301 L 402,301 L 402,302 L 392,302 Z"/>
  <path d="M 84,302 L 97,302 L 97,303 L 84,303 Z"/>
  <path d="M 113,302 L 160,302 L 160,303 L 113,303 Z"/>
  <path d="M 194,302 L 197,302 L 197,303 L 194,303 Z"/>
  <path d="M 226,302 L 266,302 L 266,303 L 226,303 Z"/>
  <path d="M 288,302 L 291,302 L 291,303 L 288,303 Z"/>
  <path d="M 326,302 L 329,302 L 329,303 L 326,303 Z"/>
  <path d="M 366,302 L 378,302 L 378,303 L 366,303 Z"/>
  <path d="M 67,303 L 86,303 L 86,304 L 67,304 Z"/>
  <path d="M 188,303 L 196,303 L 196,304 L 188,304 Z"/>
  <path d="M 282,303 L 289,303 L 289,304 L 282,304 Z"/>
  <path d="M 320,303 L 328,303 L 328,304 L 320,304 Z"/>
  <path d="M 349,303 L 368,303 L 368,304 L 349,304 Z"/>
  <path d="M 53,304 L 67,304 L 67,305 L 53,305 Z"/>
  <path d="M 68,304 L 69,304 L 69,305 L 68,305 Z"/>
  <path d="M 185,304 L 190,304 L 190,305 L 185,305 Z"/>
  <path d="M 278,304 L 283,304 L 283,305 L 278,305 Z"/>
  <path d="M 317,304 L 322,304 L 322,305 L 317,305 Z"/>
  <path d="M 334,304 L 353,304 L 353,305 L 334,305 Z"/>
  <path d="M 53,305 L 54,305 L 54,306 L 53,306 Z"/>
  </g>
</svg>
