<?xml version="1.0" encoding="UTF-8"?>
<svg xmlns="http://www.w3.org/2000/svg" version="1.1"
     width="476px" height="209px" viewBox="0 0 476 209">
  <path fill="none" stroke="#000000" stroke-width="4.0"
        stroke-linejoin="miter" d="M 307.02,33.44 L 421.26,33.44 L 409.36,71.06 L 295.12,71.06 Z"/>
  <path fill="#000000" fill-rule="evenodd" d="M 319.879,43.421 C 318.390,48.129 316.900,52.837 315.411,57.545 C 316.342,57.545 317.272,57.545 318.203,57.545 C 317.831,58.723 317.458,59.901 317.085,61.079 C 314.624,61.079 312.162,61.079 309.701,61.079 C 311.563,55.193 313.425,49.307 315.287,43.421 C 316.818,43.421 318.348,43.421 319.879,43.421 Z M 328.376,43.421 C 326.514,49.307 324.652,55.193 322.790,61.079 C 321.259,61.079 319.728,61.079 318.198,61.079 C 320.060,55.193 321.922,49.307 323.784,43.421 C 325.314,43.421 326.845,43.421 328.376,43.421 Z M 338.699,49.921 C 337.168,49.921 335.638,49.921 334.107,49.921 C 334.276,49.387 334.445,48.852 334.614,48.318 C 334.934,47.307 335.091,46.675 335.084,46.420 C 335.077,46.166 334.910,46.038 334.583,46.038 C 334.299,46.038 334.072,46.147 333.901,46.366 C 333.730,46.584 333.502,47.144 333.217,48.045 C 332.324,50.870 331.430,53.695 330.536,56.520 C 330.286,57.313 330.172,57.835 330.194,58.085 C 330.216,58.336 330.380,58.462 330.686,58.462 C 331.020,58.462 331.292,58.320 331.502,58.036 C 331.712,57.753 331.946,57.200 332.206,56.378 C 332.427,55.680 332.648,54.982 332.869,54.284 C 332.560,54.284 332.251,54.284 331.942,54.284 C 332.225,53.390 332.508,52.495 332.790,51.601 C 334.583,51.601 336.375,51.601 338.168,51.601 C 337.168,54.760 336.169,57.920 335.170,61.079 C 334.206,61.079 333.243,61.079 332.279,61.079 C 332.271,60.658 332.262,60.236 332.254,59.814 C 331.769,60.360 331.245,60.769 330.682,61.041 C 330.120,61.314 329.515,61.450 328.868,61.450 C 328.097,61.450 327.435,61.263 326.880,60.889 C 326.326,60.514 325.962,60.051 325.788,59.498 C 325.614,58.945 325.579,58.365 325.684,57.758 C 325.789,57.151 326.033,56.240 326.417,55.026 C 326.970,53.277 327.523,51.528 328.077,49.780 C 328.610,48.093 329.089,46.867 329.512,46.104 C 329.935,45.340 330.678,44.640 331.741,44.004 C 332.804,43.368 334.019,43.050 335.386,43.050 C 336.732,43.050 337.760,43.326 338.473,43.879 C 339.185,44.431 339.555,45.088 339.584,45.847 C 339.613,46.607 339.398,47.711 338.941,49.158 C 338.860,49.412 338.780,49.667 338.699,49.921 Z M 353.092,43.421 C 351.230,49.307 349.368,55.193 347.506,61.079 C 345.975,61.079 344.444,61.079 342.914,61.079 C 343.696,58.607 344.478,56.135 345.260,53.662 C 344.802,53.662 344.344,53.662 343.886,53.662 C 343.103,56.135 342.321,58.607 341.539,61.079 C 340.009,61.079 338.478,61.079 336.947,61.079 C 338.809,55.193 340.671,49.307 342.533,43.421 C 344.064,43.421 345.595,43.421 347.125,43.421 C 346.459,45.526 345.793,47.631 345.128,49.736 C 345.586,49.736 346.044,49.736 346.502,49.736 C 347.168,47.631 347.834,45.526 348.500,43.421 C 350.030,43.421 351.561,43.421 353.092,43.421 Z M 364.184,43.421 C 363.812,44.599 363.439,45.777 363.066,46.955 C 362.157,46.955 361.248,46.955 360.340,46.955 C 358.850,51.663 357.361,56.371 355.872,61.079 C 354.341,61.079 352.810,61.079 351.280,61.079 C 352.769,56.371 354.258,51.663 355.748,46.955 C 354.842,46.955 353.937,46.955 353.032,46.955 C 353.404,45.777 353.777,44.599 354.150,43.421 C 357.494,43.421 360.839,43.421 364.184,43.421 Z M 375.015,43.421 C 372.711,47.176 370.407,50.932 368.103,54.688 C 367.429,56.818 366.755,58.949 366.081,61.079 C 364.663,61.079 363.245,61.079 361.827,61.079 C 362.501,58.949 363.175,56.818 363.849,54.688 C 363.961,50.932 364.072,47.176 364.184,43.421 C 365.591,43.421 366.998,43.421 368.405,43.421 C 367.979,46.860 367.617,49.176 367.320,50.368 C 368.170,48.485 369.328,46.169 370.794,43.421 C 372.201,43.421 373.608,43.421 375.015,43.421 Z M 375.800,43.421 C 378.353,43.421 380.905,43.421 383.457,43.421 C 383.085,44.599 382.712,45.777 382.339,46.955 C 381.318,46.955 380.296,46.955 379.275,46.955 C 378.921,48.071 378.568,49.187 378.215,50.303 C 379.172,50.303 380.128,50.303 381.084,50.303 C 380.730,51.423 380.376,52.543 380.021,53.662 C 379.065,53.662 378.109,53.662 377.153,53.662 C 376.743,54.957 376.334,56.251 375.924,57.545 C 377.048,57.545 378.171,57.545 379.295,57.545 C 378.922,58.723 378.550,59.901 378.177,61.079 C 375.523,61.079 372.869,61.079 370.215,61.079 C 372.077,55.193 373.939,49.307 375.800,43.421 Z M 393.012,43.421 C 392.026,49.307 391.041,55.193 390.055,61.079 C 388.488,61.079 386.921,61.079 385.354,61.079 C 385.612,60.021 385.871,58.963 386.129,57.905 C 385.580,57.905 385.031,57.905 384.482,57.905 C 384.056,58.963 383.631,60.021 383.205,61.079 C 381.620,61.079 380.035,61.079 378.450,61.079 C 381.090,55.193 383.730,49.307 386.370,43.421 C 388.584,43.421 390.798,43.421 393.012,43.421 Z M 386.988,54.775 C 387.388,52.775 387.936,50.307 388.633,47.369 C 387.100,50.743 386.028,53.212 385.418,54.775 C 385.941,54.775 386.465,54.775 386.988,54.775 Z M 396.426,43.421 C 397.510,43.421 398.593,43.421 399.676,43.421 C 401.843,43.421 403.284,43.504 403.998,43.671 C 404.712,43.839 405.203,44.266 405.469,44.953 C 405.735,45.640 405.630,46.736 405.154,48.242 C 404.719,49.616 404.256,50.539 403.765,51.012 C 403.274,51.485 402.511,51.768 401.478,51.863 C 402.316,52.088 402.831,52.390 403.024,52.768 C 403.217,53.146 403.302,53.493 403.278,53.810 C 403.254,54.126 403.017,54.997 402.566,56.422 C 402.075,57.974 401.584,59.527 401.093,61.079 C 399.671,61.079 398.250,61.079 396.828,61.079 C 397.447,59.123 398.066,57.167 398.685,55.211 C 398.984,54.266 399.094,53.681 399.016,53.455 C 398.939,53.230 398.583,53.117 397.951,53.117 C 397.111,55.771 396.272,58.425 395.432,61.079 C 393.902,61.079 392.371,61.079 390.840,61.079 C 392.702,55.193 394.564,49.307 396.426,43.421 Z M 400.062,46.442 C 399.648,47.751 399.234,49.060 398.820,50.368 C 399.337,50.368 399.721,50.298 399.973,50.156 C 400.225,50.014 400.474,49.554 400.720,48.776 C 400.823,48.452 400.925,48.129 401.027,47.805 C 401.204,47.245 401.220,46.878 401.076,46.704 C 400.931,46.529 400.593,46.442 400.062,46.442 Z"/>
</svg>
