<?xml version="1.0" encoding="UTF-8" standalone="no"?>
<svg xmlns="http://www.w3.org/2000/svg" version="1.1"
     width="4.7812in" height="4.0833in" viewBox="0 0 459 392">
  <rect x="0" y="0" width="459" height="392" fill="none"/>
  <g fill="#1A1A1A" stroke="none">
  <path d="M 0,0 L 459,0 L 459,1 L 0,1 Z"/>
  <path d="M 0,1 L 459,1 L 459,2 L 0,2 Z"/>
  <path d="M 0,2 L 459,2 L 459,3 L 0,3 Z"/>
  <path d="M 0,3 L 459,3 L 459,4 L 0,4 Z"/>
  <path d="M 0,4 L 459,4 L 459,5 L 0,5 Z"/>
  <path d="M 0,5 L 459,5 L 459,6 L 0,6 Z"/>
  <path d="M 0,6 L 459,6 L 459,7 L 0,7 Z"/>
  <path d="M 0,7 L 459,7 L 459,8 L 0,8 Z"/>
  <path d="M 0,8 L 459,8 L 459,9 L 0,9 Z"/>
  <path d="M 0,9 L 459,9 L 459,10 L 0,10 Z"/>
  <path d="M 0,10 L 459,10 L 459,11 L 0,11 Z"/>
  <path d="M 0,11 L 459,11 L 459,12 L 0,12 Z"/>
  <path d="M 0,12 L 459,12 L 459,13 L 0,13 Z"/>
  <path d="M 0,13 L 459,13 L 459,14 L 0,14 Z"/>
  <path d="M 0,14 L 459,14 L 459,15 L 0,15 Z"/>
  <path d="M 0,15 L 459,15 L 459,16 L 0,16 Z"/>
  <path d="M 0,16 L 459,16 L 459,17 L 0,17 Z"/>
  <path d="M 0,17 L 459,17 L 459,18 L 0,18 Z"/>
  <path d="M 0,18 L 459,18 L 459,19 L 0,19 Z"/>
  <path d="M 0,19 L 459,19 L 459,20 L 0,20 Z"/>
  <path d="M 0,20 L 459,20 L 459,21 L 0,21 Z"/>
  <path d="M 0,21 L 459,21 L 459,22 L 0,22 Z"/>
  <path d="M 0,22 L 459,22 L 459,23 L 0,23 Z"/>
  <path d="M 0,23 L 459,23 L 459,24 L 0,24 Z"/>
  <path d="M 0,24 L 459,24 L 459,25 L 0,25 Z"/>
  <path d="M 0,25 L 459,25 L 459,26 L 0,26 Z"/>
  <path d="M 0,26 L 459,26 L 459,27 L 0,27 Z"/>
  <path d="M 0,27 L 459,27 L 459,28 L 0,28 Z"/>
  <path d="M 0,28 L 459,28 L 459,29 L 0,29 Z"/>
  <path d="M 0,29 L 459,29 L 459,30 L 0,30 Z"/>
  <path d="M 0,30 L 459,30 L 459,31 L 0,31 Z"/>
  <path d="M 0,31 L 459,31 L 459,32 L 0,32 Z"/>
  <path d="M 0,32 L 459,32 L 459,33 L 0,33 Z"/>
  <path d="M 0,33 L 459,33 L 459,34 L 0,34 Z"/>
  <path d="M 0,34 L 459,34 L 459,35 L 0,35 Z"/>
  <path d="M 0,35 L 459,35 L 459,36 L 0,36 Z"/>
  <path d="M 0,36 L 459,36 L 459,37 L 0,37 Z"/>
  <path d="M 0,37 L 459,37 L 459,38 L 0,38 Z"/>
  <path d="M 0,38 L 459,38 L 459,39 L 0,39 Z"/>
  <path d="M 0,39 L 459,39 L 459,40 L 0,40 Z"/>
  <path d="M 0,40 L 459,40 L 459,41 L 0,41 Z"/>
  <path d="M 0,41 L 459,41 L 459,42 L 0,42 Z"/>
  <path d="M 0,42 L 459,42 L 459,43 L 0,43 Z"/>
  <path d="M 0,43 L 459,43 L 459,44 L 0,44 Z"/>
  <path d="M 0,44 L 459,44 L 459,45 L 0,45 Z"/>
  <path d="M 0,45 L 459,45 L 459,46 L 0,46 Z"/>
  <path d="M 0,46 L 459,46 L 459,47 L 0,47 Z"/>
  <path d="M 0,47 L 459,47 L 459,48 L 0,48 Z"/>
  <path d="M 0,48 L 459,48 L 459,49 L 0,49 Z"/>
  <path d="M 0,49 L 459,49 L 459,50 L 0,50 Z"/>
  <path d="M 0,50 L 459,50 L 459,51 L 0,51 Z"/>
  <path d="M 0,51 L 459,51 L 459,52 L 0,52 Z"/>
  <path d="M 0,52 L 459,52 L 459,53 L 0,53 Z"/>
  <path d="M 0,53 L 459,53 L 459,54 L 0,54 Z"/>
  <path d="M 0,54 L 459,54 L 459,55 L 0,55 Z"/>
  <path d="M 0,55 L 459,55 L 459,56 L 0,56 Z"/>
  <path d="M 0,56 L 459,56 L 459,57 L 0,57 Z"/>
  <path d="M 0,57 L 459,57 L 459,58 L 0,58 Z"/>
  <path d="M 0,58 L 459,58 L 459,59 L 0,59 Z"/>
  <path d="M 0,59 L 459,59 L 459,60 L 0,60 Z"/>
  <path d="M 0,60 L 459,60 L 459,61 L 0,61 Z"/>
  <path d="M 0,61 L 26,61 L 26,62 L 0,62 Z"/>
  <path d="M 426,61 L 459,61 L 459,62 L 426,62 Z"/>
  <path d="M 0,62 L 26,62 L 26,63 L 0,63 Z"/>
  <path d="M 426,62 L 459,62 L 459,63 L 426,63 Z"/>
  <path d="M 0,63 L 26,63 L 26,64 L 0,64 Z"/>
  <path d="M 426,63 L 459,63 L 459,64 L 426,64 Z"/>
  <path d="M 0,64 L 26,64 L 26,65 L 0,65 Z"/>
  <path d="M 426,64 L 459,64 L 459,65 L 426,65 Z"/>
  <path d="M 0,65 L 26,65 L 26,66 L 0,66 Z"/>
  <path d="M 426,65 L 459,65 L 459,66 L 426,66 Z"/>
  <path d="M 0,66 L 26,66 L 26,67 L 0,67 Z"/>
  <path d="M 426,66 L 459,66 L 459,67 L 426,67 Z"/>
  <path d="M 0,67 L 26,67 L 26,68 L 0,68 Z"/>
  <path d="M 426,67 L 459,67 L 459,68 L 426,68 Z"/>
  <path d="M 0,68 L 26,68 L 26,69 L 0,69 Z"/>
  <path d="M 426,68 L 459,68 L 459,69 L 426,69 Z"/>
  <path d="M 0,69 L 26,69 L 26,70 L 0,70 Z"/>
  <path d="M 426,69 L 459,69 L 459,70 L 426,70 Z"/>
  <path d="M 0,70 L 26,70 L 26,71 L 0,71 Z"/>
  <path d="M 426,70 L 459,70 L 459,71 L 426,71 Z"/>
  <path d="M 0,71 L 26,71 L 26,72 L 0,72 Z"/>
  <path d="M 426,71 L 459,71 L 459,72 L 426,72 Z"/>
  <path d="M 0,72 L 26,72 L 26,73 L 0,73 Z"/>
  <path d="M 426,72 L 459,72 L 459,73 L 426,73 Z"/>
  <path d="M 0,73 L 26,73 L 26,74 L 0,74 Z"/>
  <path d="M 426,73 L 459,73 L 459,74 L 426,74 Z"/>
  <path d="M 0,74 L 26,74 L 26,75 L 0,75 Z"/>
  <path d="M 426,74 L 459,74 L 459,75 L 426,75 Z"/>
  <path d="M 0,75 L 26,75 L 26,76 L 0,76 Z"/>
  <path d="M 426,75 L 459,75 L 459,76 L 426,76 Z"/>
  <path d="M 0,76 L 26,76 L 26,77 L 0,77 Z"/>
  <path d="M 426,76 L 459,76 L 459,77 L 426,77 Z"/>
  <path d="M 0,77 L 26,77 L 26,78 L 0,78 Z"/>
  <path d="M 426,77 L 459,77 L 459,78 L 426,78 Z"/>
  <path d="M 0,78 L 26,78 L 26,79 L 0,79 Z"/>
  <path d="M 426,78 L 459,78 L 459,79 L 426,79 Z"/>
  <path d="M 0,79 L 26,79 L 26,80 L 0,80 Z"/>
  <path d="M 426,79 L 459,79 L 459,80 L 426,80 Z"/>
  <path d="M 0,80 L 26,80 L 26,81 L 0,81 Z"/>
  <path d="M 426,80 L 459,80 L 459,81 L 426,81 Z"/>
  <path d="M 0,81 L 26,81 L 26,82 L 0,82 Z"/>
  <path d="M 426,81 L 459,81 L 459,82 L 426,82 Z"/>
  <path d="M 0,82 L 26,82 L 26,83 L 0,83 Z"/>
  <path d="M 426,82 L 459,82 L 459,83 L 426,83 Z"/>
  <path d="M 0,83 L 26,83 L 26,84 L 0,84 Z"/>
  <path d="M 426,83 L 459,83 L 459,84 L 426,84 Z"/>
  <path d="M 0,84 L 26,84 L 26,85 L 0,85 Z"/>
  <path d="M 426,84 L 459,84 L 459,85 L 426,85 Z"/>
  <path d="M 0,85 L 26,85 L 26,86 L 0,86 Z"/>
  <path d="M 426,85 L 459,85 L 459,86 L 426,86 Z"/>
  <path d="M 0,86 L 26,86 L 26,87 L 0,87 Z"/>
  <path d="M 426,86 L 459,86 L 459,87 L 426,87 Z"/>
  <path d="M 0,87 L 26,87 L 26,88 L 0,88 Z"/>
  <path d="M 426,87 L 459,87 L 459,88 L 426,88 Z"/>
  <path d="M 0,88 L 26,88 L 26,89 L 0,89 Z"/>
  <path d="M 426,88 L 459,88 L 459,89 L 426,89 Z"/>
  <path d="M 0,89 L 26,89 L 26,90 L 0,90 Z"/>
  <path d="M 426,89 L 459,89 L 459,90 L 426,90 Z"/>
  <path d="M 0,90 L 26,90 L 26,91 L 0,91 Z"/>
  <path d="M 426,90 L 459,90 L 459,91 L 426,91 Z"/>
  <path d="M 0,91 L 26,91 L 26,92 L 0,92 Z"/>
  <path d="M 426,91 L 459,91 L 459,92 L 426,92 Z"/>
  <path d="M 0,92 L 26,92 L 26,93 L 0,93 Z"/>
  <path d="M 426,92 L 459,92 L 459,93 L 426,93 Z"/>
  <path d="M 0,93 L 26,93 L 26,94 L 0,94 Z"/>
  <path d="M 426,93 L 459,93 L 459,94 L 426,94 Z"/>
  <path d="M 0,94 L 26,94 L 26,95 L 0,95 Z"/>
  <path d="M 426,94 L 459,94 L 459,95 L 426,95 Z"/>
  <path d="M 0,95 L 26,95 L 26,96 L 0,96 Z"/>
  <path d="M 426,95 L 459,95 L 459,96 L 426,96 Z"/>
  <path d="M 0,96 L 26,96 L 26,97 L 0,97 Z"/>
  <path d="M 426,96 L 459,96 L 459,97 L 426,97 Z"/>
  <path d="M 0,97 L 26,97 L 26,98 L 0,98 Z"/>
  <path d="M 426,97 L 459,97 L 459,98 L 426,98 Z"/>
  <path d="M 0,98 L 26,98 L 26,99 L 0,99 Z"/>
  <path d="M 426,98 L 459,98 L 459,99 L 426,99 Z"/>
  <path d="M 0,99 L 26,99 L 26,100 L 0,100 Z"/>
  <path d="M 426,99 L 459,99 L 459,100 L 426,100 Z"/>
  <path d="M 0,100 L 26,100 L 26,101 L 0,101 Z"/>
  <path d="M 426,100 L 459,100 L 459,101 L 426,101 Z"/>
  <path d="M 0,101 L 26,101 L 26,102 L 0,102 Z"/>
  <path d="M 426,101 L 459,101 L 459,102 L 426,102 Z"/>
  <path d="M 0,102 L 26,102 L 26,103 L 0,103 Z"/>
  <path d="M 426,102 L 459,102 L 459,103 L 426,103 Z"/>
  <path d="M 0,103 L 26,103 L 26,104 L 0,104 Z"/>
  <path d="M 426,103 L 459,103 L 459,104 L 426,104 Z"/>
  <path d="M 0,104 L 26,104 L 26,105 L 0,105 Z"/>
  <path d="M 426,104 L 459,104 L 459,105 L 426,105 Z"/>
  <path d="M 0,105 L 26,105 L 26,106 L 0,106 Z"/>
  <path d="M 426,105 L 459,105 L 459,106 L 426,106 Z"/>
  <path d="M 0,106 L 26,106 L 26,107 L 0,107 Z"/>
  <path d="M 426,106 L 459,106 L 459,107 L 426,107 Z"/>
  <path d="M 0,107 L 26,107 L 26,108 L 0,108 Z"/>
  <path d="M 426,107 L 459,107 L 459,108 L 426,108 Z"/>
  <path d="M 0,108 L 26,108 L 26,109 L 0,109 Z"/>
  <path d="M 426,108 L 459,108 L 459,109 L 426,109 Z"/>
  <path d="M 0,109 L 26,109 L 26,110 L 0,110 Z"/>
  <path d="M 426,109 L 459,109 L 459,110 L 426,110 Z"/>
  <path d="M 0,110 L 26,110 L 26,111 L 0,111 Z"/>
  <path d="M 426,110 L 459,110 L 459,111 L 426,111 Z"/>
  <path d="M 0,111 L 26,111 L 26,112 L 0,112 Z"/>
  <path d="M 426,111 L 459,111 L 459,112 L 426,112 Z"/>
  <path d="M 0,112 L 26,112 L 26,113 L 0,113 Z"/>
  <path d="M 426,112 L 459,112 L 459,113 L 426,113 Z"/>
  <path d="M 0,113 L 26,113 L 26,114 L 0,114 Z"/>
  <path d="M 426,113 L 459,113 L 459,114 L 426,114 Z"/>
  <path d="M 0,114 L 26,114 L 26,115 L 0,115 Z"/>
  <path d="M 426,114 L 459,114 L 459,115 L 426,115 Z"/>
  <path d="M 0,115 L 26,115 L 26,116 L 0,116 Z"/>
  <path d="M 426,115 L 459,115 L 459,116 L 426,116 Z"/>
  <path d="M 0,116 L 26,116 L 26,117 L 0,117 Z"/>
  <path d="M 426,116 L 459,116 L 459,117 L 426,117 Z"/>
  <path d="M 0,117 L 26,117 L 26,118 L 0,118 Z"/>
  <path d="M 426,117 L 459,117 L 459,118 L 426,118 Z"/>
  <path d="M 0,118 L 26,118 L 26,119 L 0,119 Z"/>
  <path d="M 426,118 L 459,118 L 459,119 L 426,119 Z"/>
  <path d="M 0,119 L 26,119 L 26,120 L 0,120 Z"/>
  <path d="M 426,119 L 459,119 L 459,120 L 426,120 Z"/>
  <path d="M 0,120 L 26,120 L 26,121 L 0,121 Z"/>
  <path d="M 426,120 L 459,120 L 459,121 L 426,121 Z"/>
  <path d="M 0,121 L 26,121 L 26,122 L 0,122 Z"/>
  <path d="M 426,121 L 459,121 L 459,122 L 426,122 Z"/>
  <path d="M 0,122 L 26,122 L 26,123 L 0,123 Z"/>
  <path d="M 426,122 L 459,122 L 459,123 L 426,123 Z"/>
  <path d="M 0,123 L 26,123 L 26,124 L 0,124 Z"/>
  <path d="M 426,123 L 459,123 L 459,124 L 426,124 Z"/>
  <path d="M 0,124 L 26,124 L 26,125 L 0,125 Z"/>
  <path d="M 426,124 L 459,124 L 459,125 L 426,125 Z"/>
  <path d="M 0,125 L 26,125 L 26,126 L 0,126 Z"/>
  <path d="M 426,125 L 459,125 L 459,126 L 426,126 Z"/>
  <path d="M 0,126 L 26,126 L 26,127 L 0,127 Z"/>
  <path d="M 426,126 L 459,126 L 459,127 L 426,127 Z"/>
  <path d="M 0,127 L 26,127 L 26,128 L 0,128 Z"/>
  <path d="M 426,127 L 459,127 L 459,128 L 426,128 Z"/>
  <path d="M 0,128 L 26,128 L 26,129 L 0,129 Z"/>
  <path d="M 426,128 L 459,128 L 459,129 L 426,129 Z"/>
  <path d="M 0,129 L 26,129 L 26,130 L 0,130 Z"/>
  <path d="M 426,129 L 459,129 L 459,130 L 426,130 Z"/>
  <path d="M 0,130 L 26,130 L 26,131 L 0,131 Z"/>
  <path d="M 426,130 L 459,130 L 459,131 L 426,131 Z"/>
  <path d="M 0,131 L 26,131 L 26,132 L 0,132 Z"/>
  <path d="M 426,131 L 459,131 L 459,132 L 426,132 Z"/>
  <path d="M 0,132 L 26,132 L 26,133 L 0,133 Z"/>
  <path d="M 426,132 L 459,132 L 459,133 L 426,133 Z"/>
  <path d="M 0,133 L 26,133 L 26,134 L 0,134 Z"/>
  <path d="M 426,133 L 459,133 L 459,134 L 426,134 Z"/>
  <path d="M 0,134 L 26,134 L 26,135 L 0,135 Z"/>
  <path d="M 426,134 L 459,134 L 459,135 L 426,135 Z"/>
  <path d="M 0,135 L 26,135 L 26,136 L 0,136 Z"/>
  <path d="M 426,135 L 459,135 L 459,136 L 426,136 Z"/>
  <path d="M 0,136 L 26,136 L 26,137 L 0,137 Z"/>
  <path d="M 426,136 L 459,136 L 459,137 L 426,137 Z"/>
  <path d="M 0,137 L 26,137 L 26,138 L 0,138 Z"/>
  <path d="M 426,137 L 459,137 L 459,138 L 426,138 Z"/>
  <path d="M 0,138 L 26,138 L 26,139 L 0,139 Z"/>
  <path d="M 426,138 L 459,138 L 459,139 L 426,139 Z"/>
  <path d="M 0,139 L 26,139 L 26,140 L 0,140 Z"/>
  <path d="M 426,139 L 459,139 L 459,140 L 426,140 Z"/>
  <path d="M 0,140 L 26,140 L 26,141 L 0,141 Z"/>
  <path d="M 426,140 L 459,140 L 459,141 L 426,141 Z"/>
  <path d="M 0,141 L 26,141 L 26,142 L 0,142 Z"/>
  <path d="M 426,141 L 459,141 L 459,142 L 426,142 Z"/>
  <path d="M 0,142 L 26,142 L 26,143 L 0,143 Z"/>
  <path d="M 426,142 L 459,142 L 459,143 L 426,143 Z"/>
  <path d="M 0,143 L 26,143 L 26,144 L 0,144 Z"/>
  <path d="M 426,143 L 459,143 L 459,144 L 426,144 Z"/>
  <path d="M 0,144 L 26,144 L 26,145 L 0,145 Z"/>
  <path d="M 426,144 L 459,144 L 459,145 L 426,145 Z"/>
  <path d="M 0,145 L 26,145 L 26,146 L 0,146 Z"/>
  <path d="M 426,145 L 459,145 L 459,146 L 426,146 Z"/>
  <path d="M 0,146 L 26,146 L 26,147 L 0,147 Z"/>
  <path d="M 426,146 L 459,146 L 459,147 L 426,147 Z"/>
  <path d="M 0,147 L 26,147 L 26,148 L 0,148 Z"/>
  <path d="M 426,147 L 459,147 L 459,148 L 426,148 Z"/>
  <path d="M 0,148 L 26,148 L 26,149 L 0,149 Z"/>
  <path d="M 426,148 L 459,148 L 459,149 L 426,149 Z"/>
  <path d="M 0,149 L 26,149 L 26,150 L 0,150 Z"/>
  <path d="M 426,149 L 459,149 L 459,150 L 426,150 Z"/>
  <path d="M 0,150 L 26,150 L 26,151 L 0,151 Z"/>
  <path d="M 426,150 L 459,150 L 459,151 L 426,151 Z"/>
  <path d="M 0,151 L 26,151 L 26,152 L 0,152 Z"/>
  <path d="M 426,151 L 459,151 L 459,152 L 426,152 Z"/>
  <path d="M 0,152 L 26,152 L 26,153 L 0,153 Z"/>
  <path d="M 426,152 L 459,152 L 459,153 L 426,153 Z"/>
  <path d="M 0,153 L 26,153 L 26,154 L 0,154 Z"/>
  <path d="M 426,153 L 459,153 L 459,154 L 426,154 Z"/>
  <path d="M 0,154 L 26,154 L 26,155 L 0,155 Z"/>
  <path d="M 426,154 L 459,154 L 459,155 L 426,155 Z"/>
  <path d="M 0,155 L 26,155 L 26,156 L 0,156 Z"/>
  <path d="M 426,155 L 459,155 L 459,156 L 426,156 Z"/>
  <path d="M 0,156 L 26,156 L 26,157 L 0,157 Z"/>
  <path d="M 426,156 L 459,156 L 459,157 L 426,157 Z"/>
  <path d="M 0,157 L 26,157 L 26,158 L 0,158 Z"/>
  <path d="M 426,157 L 459,157 L 459,158 L 426,158 Z"/>
  <path d="M 0,158 L 26,158 L 26,159 L 0,159 Z"/>
  <path d="M 426,158 L 459,158 L 459,159 L 426,159 Z"/>
  <path d="M 0,159 L 26,159 L 26,160 L 0,160 Z"/>
  <path d="M 426,159 L 459,159 L 459,160 L 426,160 Z"/>
  <path d="M 0,160 L 26,160 L 26,161 L 0,161 Z"/>
  <path d="M 426,160 L 459,160 L 459,161 L 426,161 Z"/>
  <path d="M 0,161 L 26,161 L 26,162 L 0,162 Z"/>
  <path d="M 426,161 L 459,161 L 459,162 L 426,162 Z"/>
  <path d="M 0,162 L 26,162 L 26,163 L 0,163 Z"/>
  <path d="M 426,162 L 459,162 L 459,163 L 426,163 Z"/>
  <path d="M 0,163 L 26,163 L 26,164 L 0,164 Z"/>
  <path d="M 426,163 L 459,163 L 459,164 L 426,164 Z"/>
  <path d="M 0,164 L 26,164 L 26,165 L 0,165 Z"/>
  <path d="M 426,164 L 459,164 L 459,165 L 426,165 Z"/>
  <path d="M 0,165 L 26,165 L 26,166 L 0,166 Z"/>
  <path d="M 426,165 L 459,165 L 459,166 L 426,166 Z"/>
  <path d="M 0,166 L 26,166 L 26,167 L 0,167 Z"/>
  <path d="M 426,166 L 459,166 L 459,167 L 426,167 Z"/>
  <path d="M 0,167 L 26,167 L 26,168 L 0,168 Z"/>
  <path d="M 426,167 L 459,167 L 459,168 L 426,168 Z"/>
  <path d="M 0,168 L 26,168 L 26,169 L 0,169 Z"/>
  <path d="M 426,168 L 459,168 L 459,169 L 426,169 Z"/>
  <path d="M 0,169 L 26,169 L 26,170 L 0,170 Z"/>
  <path d="M 426,169 L 459,169 L 459,170 L 426,170 Z"/>
  <path d="M 0,170 L 26,170 L 26,171 L 0,171 Z"/>
  <path d="M 426,170 L 459,170 L 459,171 L 426,171 Z"/>
  <path d="M 0,171 L 26,171 L 26,172 L 0,172 Z"/>
  <path d="M 426,171 L 459,171 L 459,172 L 426,172 Z"/>
  <path d="M 0,172 L 26,172 L 26,173 L 0,173 Z"/>
  <path d="M 426,172 L 459,172 L 459,173 L 426,173 Z"/>
  <path d="M 0,173 L 26,173 L 26,174 L 0,174 Z"/>
  <path d="M 426,173 L 459,173 L 459,174 L 426,174 Z"/>
  <path d="M 0,174 L 26,174 L 26,175 L 0,175 Z"/>
  <path d="M 426,174 L 459,174 L 459,175 L 426,175 Z"/>
  <path d="M 0,175 L 26,175 L 26,176 L 0,176 Z"/>
  <path d="M 426,175 L 459,175 L 459,176 L 426,176 Z"/>
  <path d="M 0,176 L 26,176 L 26,177 L 0,177 Z"/>
  <path d="M 426,176 L 459,176 L 459,177 L 426,177 Z"/>
  <path d="M 0,177 L 26,177 L 26,178 L 0,178 Z"/>
  <path d="M 426,177 L 459,177 L 459,178 L 426,178 Z"/>
  <path d="M 0,178 L 26,178 L 26,179 L 0,179 Z"/>
  <path d="M 426,178 L 459,178 L 459,179 L 426,179 Z"/>
  <path d="M 0,179 L 26,179 L 26,180 L 0,180 Z"/>
  <path d="M 426,179 L 459,179 L 459,180 L 426,180 Z"/>
  <path d="M 0,180 L 26,180 L 26,181 L 0,181 Z"/>
  <path d="M 426,180 L 459,180 L 459,181 L 426,181 Z"/>
  <path d="M 0,181 L 26,181 L 26,182 L 0,182 Z"/>
  <path d="M 426,181 L 459,181 L 459,182 L 426,182 Z"/>
  <path d="M 0,182 L 26,182 L 26,183 L 0,183 Z"/>
  <path d="M 426,182 L 459,182 L 459,183 L 426,183 Z"/>
  <path d="M 0,183 L 26,183 L 26,184 L 0,184 Z"/>
  <path d="M 426,183 L 459,183 L 459,184 L 426,184 Z"/>
  <path d="M 0,184 L 26,184 L 26,185 L 0,185 Z"/>
  <path d="M 426,184 L 459,184 L 459,185 L 426,185 Z"/>
  <path d="M 0,185 L 26,185 L 26,186 L 0,186 Z"/>
  <path d="M 426,185 L 459,185 L 459,186 L 426,186 Z"/>
  <path d="M 0,186 L 26,186 L 26,187 L 0,187 Z"/>
  <path d="M 426,186 L 459,186 L 459,187 L 426,187 Z"/>
  <path d="M 0,187 L 26,187 L 26,188 L 0,188 Z"/>
  <path d="M 426,187 L 459,187 L 459,188 L 426,188 Z"/>
  <path d="M 0,188 L 26,188 L 26,189 L 0,189 Z"/>
  <path d="M 426,188 L 459,188 L 459,189 L 426,189 Z"/>
  <path d="M 0,189 L 26,189 L 26,190 L 0,190 Z"/>
  <path d="M 426,189 L 459,189 L 459,190 L 426,190 Z"/>
  <path d="M 0,190 L 26,190 L 26,191 L 0,191 Z"/>
  <path d="M 426,190 L 459,190 L 459,191 L 426,191 Z"/>
  <path d="M 0,191 L 26,191 L 26,192 L 0,192 Z"/>
  <path d="M 426,191 L 459,191 L 459,192 L 426,192 Z"/>
  <path d="M 0,192 L 26,192 L 26,193 L 0,193 Z"/>
  <path d="M 426,192 L 459,192 L 459,193 L 426,193 Z"/>
  <path d="M 0,193 L 26,193 L 26,194 L 0,194 Z"/>
  <path d="M 426,193 L 459,193 L 459,194 L 426,194 Z"/>
  <path d="M 0,194 L 26,194 L 26,195 L 0,195 Z"/>
  <path d="M 426,194 L 459,194 L 459,195 L 426,195 Z"/>
  <path d="M 0,195 L 26,195 L 26,196 L 0,196 Z"/>
  <path d="M 426,195 L 459,195 L 459,196 L 426,196 Z"/>
  <path d="M 0,196 L 26,196 L 26,197 L 0,197 Z"/>
  <path d="M 426,196 L 459,196 L 459,197 L 426,197 Z"/>
  <path d="M 0,197 L 26,197 L 26,198 L 0,198 Z"/>
  <path d="M 426,197 L 459,197 L 459,198 L 426,198 Z"/>
  <path d="M 0,198 L 26,198 L 26,199 L 0,199 Z"/>
  <path d="M 426,198 L 459,198 L 459,199 L 426,199 Z"/>
  <path d="M 0,199 L 26,199 L 26,200 L 0,200 Z"/>
  <path d="M 426,199 L 459,199 L 459,200 L 426,200 Z"/>
  <path d="M 0,200 L 26,200 L 26,201 L 0,201 Z"/>
  <path d="M 426,200 L 459,200 L 459,201 L 426,201 Z"/>
  <path d="M 0,201 L 26,201 L 26,202 L 0,202 Z"/>
  <path d="M 426,201 L 459,201 L 459,202 L 426,202 Z"/>
  <path d="M 0,202 L 26,202 L 26,203 L 0,203 Z"/>
  <path d="M 426,202 L 459,202 L 459,203 L 426,203 Z"/>
  <path d="M 0,203 L 26,203 L 26,204 L 0,204 Z"/>
  <path d="M 426,203 L 459,203 L 459,204 L 426,204 Z"/>
  <path d="M 0,204 L 26,204 L 26,205 L 0,205 Z"/>
  <path d="M 426,204 L 459,204 L 459,205 L 426,205 Z"/>
  <path d="M 0,205 L 26,205 L 26,206 L 0,206 Z"/>
  <path d="M 426,205 L 459,205 L 459,206 L 426,206 Z"/>
  <path d="M 0,206 L 26,206 L 26,207 L 0,207 Z"/>
  <path d="M 426,206 L 459,206 L 459,207 L 426,207 Z"/>
  <path d="M 0,207 L 26,207 L 26,208 L 0,208 Z"/>
  <path d="M 426,207 L 459,207 L 459,208 L 426,208 Z"/>
  <path d="M 0,208 L 26,208 L 26,209 L 0,209 Z"/>
  <path d="M 426,208 L 459,208 L 459,209 L 426,209 Z"/>
  <path d="M 0,209 L 26,209 L 26,210 L 0,210 Z"/>
  <path d="M 426,209 L 459,209 L 459,210 L 426,210 Z"/>
  <path d="M 0,210 L 26,210 L 26,211 L 0,211 Z"/>
  <path d="M 426,210 L 459,210 L 459,211 L 426,211 Z"/>
  <path d="M 0,211 L 26,211 L 26,212 L 0,212 Z"/>
  <path d="M 426,211 L 459,211 L 459,212 L 426,212 Z"/>
  <path d="M 0,212 L 26,212 L 26,213 L 0,213 Z"/>
  <path d="M 426,212 L 459,212 L 459,213 L 426,213 Z"/>
  <path d="M 0,213 L 26,213 L 26,214 L 0,214 Z"/>
  <path d="M 426,213 L 459,213 L 459,214 L 426,214 Z"/>
  <path d="M 0,214 L 26,214 L 26,215 L 0,215 Z"/>
  <path d="M 426,214 L 459,214 L 459,215 L 426,215 Z"/>
  <path d="M 0,215 L 26,215 L 26,216 L 0,216 Z"/>
  <path d="M 426,215 L 459,215 L 459,216 L 426,216 Z"/>
  <path d="M 0,216 L 26,216 L 26,217 L 0,217 Z"/>
  <path d="M 426,216 L 459,216 L 459,217 L 426,217 Z"/>
  <path d="M 0,217 L 26,217 L 26,218 L 0,218 Z"/>
  <path d="M 426,217 L 459,217 L 459,218 L 426,218 Z"/>
  <path d="M 0,218 L 26,218 L 26,219 L 0,219 Z"/>
  <path d="M 426,218 L 459,218 L 459,219 L 426,219 Z"/>
  <path d="M 0,219 L 26,219 L 26,220 L 0,220 Z"/>
  <path d="M 426,219 L 459,219 L 459,220 L 426,220 Z"/>
  <path d="M 0,220 L 26,220 L 26,221 L 0,221 Z"/>
  <path d="M 426,220 L 459,220 L 459,221 L 426,221 Z"/>
  <path d="M 0,221 L 26,221 L 26,222 L 0,222 Z"/>
  <path d="M 426,221 L 459,221 L 459,222 L 426,222 Z"/>
  <path d="M 0,222 L 26,222 L 26,223 L 0,223 Z"/>
  <path d="M 426,222 L 459,222 L 459,223 L 426,223 Z"/>
  <path d="M 0,223 L 26,223 L 26,224 L 0,224 Z"/>
  <path d="M 426,223 L 459,223 L 459,224 L 426,224 Z"/>
  <path d="M 0,224 L 26,224 L 26,225 L 0,225 Z"/>
  <path d="M 426,224 L 459,224 L 459,225 L 426,225 Z"/>
  <path d="M 0,225 L 26,225 L 26,226 L 0,226 Z"/>
  <path d="M 426,225 L 459,225 L 459,226 L 426,226 Z"/>
  <path d="M 0,226 L 26,226 L 26,227 L 0,227 Z"/>
  <path d="M 426,226 L 459,226 L 459,227 L 426,227 Z"/>
  <path d="M 0,227 L 26,227 L 26,228 L 0,228 Z"/>
  <path d="M 426,227 L 459,227 L 459,228 L 426,228 Z"/>
  <path d="M 0,228 L 26,228 L 26,229 L 0,229 Z"/>
  <path d="M 426,228 L 459,228 L 459,229 L 426,229 Z"/>
  <path d="M 0,229 L 26,229 L 26,230 L 0,230 Z"/>
  <path d="M 426,229 L 459,229 L 459,230 L 426,230 Z"/>
  <path d="M 0,230 L 26,230 L 26,231 L 0,231 Z"/>
  <path d="M 426,230 L 459,230 L 459,231 L 426,231 Z"/>
  <path d="M 0,231 L 26,231 L 26,232 L 0,232 Z"/>
  <path d="M 426,231 L 459,231 L 459,232 L 426,232 Z"/>
  <path d="M 0,232 L 26,232 L 26,233 L 0,233 Z"/>
  <path d="M 426,232 L 459,232 L 459,233 L 426,233 Z"/>
  <path d="M 0,233 L 26,233 L 26,234 L 0,234 Z"/>
  <path d="M 426,233 L 459,233 L 459,234 L 426,234 Z"/>
  <path d="M 0,234 L 26,234 L 26,235 L 0,235 Z"/>
  <path d="M 426,234 L 459,234 L 459,235 L 426,235 Z"/>
  <path d="M 0,235 L 26,235 L 26,236 L 0,236 Z"/>
  <path d="M 426,235 L 459,235 L 459,236 L 426,236 Z"/>
  <path d="M 0,236 L 26,236 L 26,237 L 0,237 Z"/>
  <path d="M 426,236 L 459,236 L 459,237 L 426,237 Z"/>
  <path d="M 0,237 L 26,237 L 26,238 L 0,238 Z"/>
  <path d="M 426,237 L 459,237 L 459,238 L 426,238 Z"/>
  <path d="M 0,238 L 26,238 L 26,239 L 0,239 Z"/>
  <path d="M 426,238 L 459,238 L 459,239 L 426,239 Z"/>
  <path d="M 0,239 L 26,239 L 26,240 L 0,240 Z"/>
  <path d="M 426,239 L 459,239 L 459,240 L 426,240 Z"/>
  <path d="M 0,240 L 26,240 L 26,241 L 0,241 Z"/>
  <path d="M 426,240 L 459,240 L 459,241 L 426,241 Z"/>
  <path d="M 0,241 L 26,241 L 26,242 L 0,242 Z"/>
  <path d="M 426,241 L 459,241 L 459,242 L 426,242 Z"/>
  <path d="M 0,242 L 26,242 L 26,243 L 0,243 Z"/>
  <path d="M 426,242 L 459,242 L 459,243 L 426,243 Z"/>
  <path d="M 0,243 L 26,243 L 26,244 L 0,244 Z"/>
  <path d="M 426,243 L 459,243 L 459,244 L 426,244 Z"/>
  <path d="M 0,244 L 26,244 L 26,245 L 0,245 Z"/>
  <path d="M 426,244 L 459,244 L 459,245 L 426,245 Z"/>
  <path d="M 0,245 L 26,245 L 26,246 L 0,246 Z"/>
  <path d="M 426,245 L 459,245 L 459,246 L 426,246 Z"/>
  <path d="M 0,246 L 26,246 L 26,247 L 0,247 Z"/>
  <path d="M 426,246 L 459,246 L 459,247 L 426,247 Z"/>
  <path d="M 0,247 L 26,247 L 26,248 L 0,248 Z"/>
  <path d="M 426,247 L 459,247 L 459,248 L 426,248 Z"/>
  <path d="M 0,248 L 26,248 L 26,249 L 0,249 Z"/>
  <path d="M 426,248 L 459,248 L 459,249 L 426,249 Z"/>
  <path d="M 0,249 L 26,249 L 26,250 L 0,250 Z"/>
  <path d="M 426,249 L 459,249 L 459,250 L 426,250 Z"/>
  <path d="M 0,250 L 26,250 L 26,251 L 0,251 Z"/>
  <path d="M 426,250 L 459,250 L 459,251 L 426,251 Z"/>
  <path d="M 0,251 L 26,251 L 26,252 L 0,252 Z"/>
  <path d="M 426,251 L 459,251 L 459,252 L 426,252 Z"/>
  <path d="M 0,252 L 26,252 L 26,253 L 0,253 Z"/>
  <path d="M 426,252 L 459,252 L 459,253 L 426,253 Z"/>
  <path d="M 0,253 L 26,253 L 26,254 L 0,254 Z"/>
  <path d="M 426,253 L 459,253 L 459,254 L 426,254 Z"/>
  <path d="M 0,254 L 26,254 L 26,255 L 0,255 Z"/>
  <path d="M 426,254 L 459,254 L 459,255 L 426,255 Z"/>
  <path d="M 0,255 L 26,255 L 26,256 L 0,256 Z"/>
  <path d="M 426,255 L 459,255 L 459,256 L 426,256 Z"/>
  <path d="M 0,256 L 26,256 L 26,257 L 0,257 Z"/>
  <path d="M 426,256 L 459,256 L 459,257 L 426,257 Z"/>
  <path d="M 0,257 L 26,257 L 26,258 L 0,258 Z"/>
  <path d="M 426,257 L 459,257 L 459,258 L 426,258 Z"/>
  <path d="M 0,258 L 26,258 L 26,259 L 0,259 Z"/>
  <path d="M 426,258 L 459,258 L 459,259 L 426,259 Z"/>
  <path d="M 0,259 L 26,259 L 26,260 L 0,260 Z"/>
  <path d="M 426,259 L 459,259 L 459,260 L 426,260 Z"/>
  <path d="M 0,260 L 26,260 L 26,261 L 0,261 Z"/>
  <path d="M 426,260 L 459,260 L 459,261 L 426,261 Z"/>
  <path d="M 0,261 L 26,261 L 26,262 L 0,262 Z"/>
  <path d="M 426,261 L 459,261 L 459,262 L 426,262 Z"/>
  <path d="M 0,262 L 26,262 L 26,263 L 0,263 Z"/>
  <path d="M 426,262 L 459,262 L 459,263 L 426,263 Z"/>
  <path d="M 0,263 L 26,263 L 26,264 L 0,264 Z"/>
  <path d="M 426,263 L 459,263 L 459,264 L 426,264 Z"/>
  <path d="M 0,264 L 26,264 L 26,265 L 0,265 Z"/>
  <path d="M 426,264 L 459,264 L 459,265 L 426,265 Z"/>
  <path d="M 0,265 L 26,265 L 26,266 L 0,266 Z"/>
  <path d="M 426,265 L 459,265 L 459,266 L 426,266 Z"/>
  <path d="M 0,266 L 26,266 L 26,267 L 0,267 Z"/>
  <path d="M 426,266 L 459,266 L 459,267 L 426,267 Z"/>
  <path d="M 0,267 L 26,267 L 26,268 L 0,268 Z"/>
  <path d="M 426,267 L 459,267 L 459,268 L 426,268 Z"/>
  <path d="M 0,268 L 26,268 L 26,269 L 0,269 Z"/>
  <path d="M 426,268 L 459,268 L 459,269 L 426,269 Z"/>
  <path d="M 0,269 L 26,269 L 26,270 L 0,270 Z"/>
  <path d="M 426,269 L 459,269 L 459,270 L 426,270 Z"/>
  <path d="M 0,270 L 26,270 L 26,271 L 0,271 Z"/>
  <path d="M 426,270 L 459,270 L 459,271 L 426,271 Z"/>
  <path d="M 0,271 L 26,271 L 26,272 L 0,272 Z"/>
  <path d="M 426,271 L 459,271 L 459,272 L 426,272 Z"/>
  <path d="M 0,272 L 26,272 L 26,273 L 0,273 Z"/>
  <path d="M 426,272 L 459,272 L 459,273 L 426,273 Z"/>
  <path d="M 0,273 L 26,273 L 26,274 L 0,274 Z"/>
  <path d="M 426,273 L 459,273 L 459,274 L 426,274 Z"/>
  <path d="M 0,274 L 26,274 L 26,275 L 0,275 Z"/>
  <path d="M 426,274 L 459,274 L 459,275 L 426,275 Z"/>
  <path d="M 0,275 L 26,275 L 26,276 L 0,276 Z"/>
  <path d="M 426,275 L 459,275 L 459,276 L 426,276 Z"/>
  <path d="M 0,276 L 26,276 L 26,277 L 0,277 Z"/>
  <path d="M 426,276 L 459,276 L 459,277 L 426,277 Z"/>
  <path d="M 0,277 L 26,277 L 26,278 L 0,278 Z"/>
  <path d="M 426,277 L 459,277 L 459,278 L 426,278 Z"/>
  <path d="M 0,278 L 26,278 L 26,279 L 0,279 Z"/>
  <path d="M 426,278 L 459,278 L 459,279 L 426,279 Z"/>
  <path d="M 0,279 L 26,279 L 26,280 L 0,280 Z"/>
  <path d="M 426,279 L 459,279 L 459,280 L 426,280 Z"/>
  <path d="M 0,280 L 26,280 L 26,281 L 0,281 Z"/>
  <path d="M 426,280 L 459,280 L 459,281 L 426,281 Z"/>
  <path d="M 0,281 L 26,281 L 26,282 L 0,282 Z"/>
  <path d="M 426,281 L 459,281 L 459,282 L 426,282 Z"/>
  <path d="M 0,282 L 26,282 L 26,283 L 0,283 Z"/>
  <path d="M 426,282 L 459,282 L 459,283 L 426,283 Z"/>
  <path d="M 0,283 L 26,283 L 26,284 L 0,284 Z"/>
  <path d="M 426,283 L 459,283 L 459,284 L 426,284 Z"/>
  <path d="M 0,284 L 26,284 L 26,285 L 0,285 Z"/>
  <path d="M 426,284 L 459,284 L 459,285 L 426,285 Z"/>
  <path d="M 0,285 L 26,285 L 26,286 L 0,286 Z"/>
  <path d="M 426,285 L 459,285 L 459,286 L 426,286 Z"/>
  <path d="M 0,286 L 26,286 L 26,287 L 0,287 Z"/>
  <path d="M 426,286 L 459,286 L 459,287 L 426,287 Z"/>
  <path d="M 0,287 L 26,287 L 26,288 L 0,288 Z"/>
  <path d="M 426,287 L 459,287 L 459,288 L 426,288 Z"/>
  <path d="M 0,288 L 26,288 L 26,289 L 0,289 Z"/>
  <path d="M 426,288 L 459,288 L 459,289 L 426,289 Z"/>
  <path d="M 0,289 L 26,289 L 26,290 L 0,290 Z"/>
  <path d="M 426,289 L 459,289 L 459,290 L 426,290 Z"/>
  <path d="M 0,290 L 26,290 L 26,291 L 0,291 Z"/>
  <path d="M 426,290 L 459,290 L 459,291 L 426,291 Z"/>
  <path d="M 0,291 L 26,291 L 26,292 L 0,292 Z"/>
  <path d="M 426,291 L 459,291 L 459,292 L 426,292 Z"/>
  <path d="M 0,292 L 26,292 L 26,293 L 0,293 Z"/>
  <path d="M 426,292 L 459,292 L 459,293 L 426,293 Z"/>
  <path d="M 0,293 L 26,293 L 26,294 L 0,294 Z"/>
  <path d="M 426,293 L 459,293 L 459,294 L 426,294 Z"/>
  <path d="M 0,294 L 26,294 L 26,295 L 0,295 Z"/>
  <path d="M 426,294 L 459,294 L 459,295 L 426,295 Z"/>
  <path d="M 0,295 L 26,295 L 26,296 L 0,296 Z"/>
  <path d="M 426,295 L 459,295 L 459,296 L 426,296 Z"/>
  <path d="M 0,296 L 26,296 L 26,297 L 0,297 Z"/>
  <path d="M 426,296 L 459,296 L 459,297 L 426,297 Z"/>
  <path d="M 0,297 L 26,297 L 26,298 L 0,298 Z"/>
  <path d="M 426,297 L 459,297 L 459,298 L 426,298 Z"/>
  <path d="M 0,298 L 26,298 L 26,299 L 0,299 Z"/>
  <path d="M 426,298 L 459,298 L 459,299 L 426,299 Z"/>
  <path d="M 0,299 L 26,299 L 26,300 L 0,300 Z"/>
  <path d="M 426,299 L 459,299 L 459,300 L 426,300 Z"/>
  <path d="M 0,300 L 26,300 L 26,301 L 0,301 Z"/>
  <path d="M 426,300 L 459,300 L 459,301 L 426,301 Z"/>
  <path d="M 0,301 L 26,301 L 26,302 L 0,302 Z"/>
  <path d="M 426,301 L 459,301 L 459,302 L 426,302 Z"/>
  <path d="M 0,302 L 26,302 L 26,303 L 0,303 Z"/>
  <path d="M 426,302 L 459,302 L 459,303 L 426,303 Z"/>
  <path d="M 0,303 L 26,303 L 26,304 L 0,304 Z"/>
  <path d="M 426,303 L 459,303 L 459,304 L 426,304 Z"/>
  <path d="M 0,304 L 26,304 L 26,305 L 0,305 Z"/>
  <path d="M 426,304 L 459,304 L 459,305 L 426,305 Z"/>
  <path d="M 0,305 L 26,305 L 26,306 L 0,306 Z"/>
  <path d="M 426,305 L 459,305 L 459,306 L 426,306 Z"/>
  <path d="M 0,306 L 26,306 L 26,307 L 0,307 Z"/>
  <path d="M 426,306 L 459,306 L 459,307 L 426,307 Z"/>
  <path d="M 0,307 L 26,307 L 26,308 L 0,308 Z"/>
  <path d="M 426,307 L 459,307 L 459,308 L 426,308 Z"/>
  <path d="M 0,308 L 26,308 L 26,309 L 0,309 Z"/>
  <path d="M 426,308 L 459,308 L 459,309 L 426,309 Z"/>
  <path d="M 0,309 L 26,309 L 26,310 L 0,310 Z"/>
  <path d="M 426,309 L 459,309 L 459,310 L 426,310 Z"/>
  <path d="M 0,310 L 26,310 L 26,311 L 0,311 Z"/>
  <path d="M 426,310 L 459,310 L 459,311 L 426,311 Z"/>
  <path d="M 0,311 L 26,311 L 26,312 L 0,312 Z"/>
  <path d="M 426,311 L 459,311 L 459,312 L 426,312 Z"/>
  <path d="M 0,312 L 26,312 L 26,313 L 0,313 Z"/>
  <path d="M 426,312 L 459,312 L 459,313 L 426,313 Z"/>
  <path d="M 0,313 L 26,313 L 26,314 L 0,314 Z"/>
  <path d="M 426,313 L 459,313 L 459,314 L 426,314 Z"/>
  <path d="M 0,314 L 26,314 L 26,315 L 0,315 Z"/>
  <path d="M 426,314 L 459,314 L 459,315 L 426,315 Z"/>
  <path d="M 0,315 L 26,315 L 26,316 L 0,316 Z"/>
  <path d="M 426,315 L 459,315 L 459,316 L 426,316 Z"/>
  <path d="M 0,316 L 26,316 L 26,317 L 0,317 Z"/>
  <path d="M 426,316 L 459,316 L 459,317 L 426,317 Z"/>
  <path d="M 0,317 L 26,317 L 26,318 L 0,318 Z"/>
  <path d="M 426,317 L 459,317 L 459,318 L 426,318 Z"/>
  <path d="M 0,318 L 26,318 L 26,319 L 0,319 Z"/>
  <path d="M 426,318 L 459,318 L 459,319 L 426,319 Z"/>
  <path d="M 0,319 L 26,319 L 26,320 L 0,320 Z"/>
  <path d="M 426,319 L 459,319 L 459,320 L 426,320 Z"/>
  <path d="M 0,320 L 26,320 L 26,321 L 0,321 Z"/>
  <path d="M 426,320 L 459,320 L 459,321 L 426,321 Z"/>
  <path d="M 0,321 L 26,321 L 26,322 L 0,322 Z"/>
  <path d="M 426,321 L 459,321 L 459,322 L 426,322 Z"/>
  <path d="M 0,322 L 26,322 L 26,323 L 0,323 Z"/>
  <path d="M 426,322 L 459,322 L 459,323 L 426,323 Z"/>
  <path d="M 0,323 L 26,323 L 26,324 L 0,324 Z"/>
  <path d="M 426,323 L 459,323 L 459,324 L 426,324 Z"/>
  <path d="M 0,324 L 26,324 L 26,325 L 0,325 Z"/>
  <path d="M 426,324 L 459,324 L 459,325 L 426,325 Z"/>
  <path d="M 0,325 L 26,325 L 26,326 L 0,326 Z"/>
  <path d="M 426,325 L 459,325 L 459,326 L 426,326 Z"/>
  <path d="M 0,326 L 26,326 L 26,327 L 0,327 Z"/>
  <path d="M 426,326 L 459,326 L 459,327 L 426,327 Z"/>
  <path d="M 0,327 L 26,327 L 26,328 L 0,328 Z"/>
  <path d="M 426,327 L 459,327 L 459,328 L 426,328 Z"/>
  <path d="M 0,328 L 26,328 L 26,329 L 0,329 Z"/>
  <path d="M 426,328 L 459,328 L 459,329 L 426,329 Z"/>
  <path d="M 0,329 L 26,329 L 26,330 L 0,330 Z"/>
  <path d="M 426,329 L 459,329 L 459,330 L 426,330 Z"/>
  <path d="M 0,330 L 26,330 L 26,331 L 0,331 Z"/>
  <path d="M 426,330 L 459,330 L 459,331 L 426,331 Z"/>
  <path d="M 0,331 L 26,331 L 26,332 L 0,332 Z"/>
  <path d="M 426,331 L 459,331 L 459,332 L 426,332 Z"/>
  <path d="M 0,332 L 26,332 L 26,333 L 0,333 Z"/>
  <path d="M 426,332 L 459,332 L 459,333 L 426,333 Z"/>
  <path d="M 0,333 L 26,333 L 26,334 L 0,334 Z"/>
  <path d="M 426,333 L 459,333 L 459,334 L 426,334 Z"/>
  <path d="M 0,334 L 26,334 L 26,335 L 0,335 Z"/>
  <path d="M 426,334 L 459,334 L 459,335 L 426,335 Z"/>
  <path d="M 0,335 L 26,335 L 26,336 L 0,336 Z"/>
  <path d="M 426,335 L 459,335 L 459,336 L 426,336 Z"/>
  <path d="M 0,336 L 26,336 L 26,337 L 0,337 Z"/>
  <path d="M 426,336 L 459,336 L 459,337 L 426,337 Z"/>
  <path d="M 0,337 L 26,337 L 26,338 L 0,338 Z"/>
  <path d="M 426,337 L 459,337 L 459,338 L 426,338 Z"/>
  <path d="M 0,338 L 26,338 L 26,339 L 0,339 Z"/>
  <path d="M 426,338 L 459,338 L 459,339 L 426,339 Z"/>
  <path d="M 0,339 L 26,339 L 26,340 L 0,340 Z"/>
  <path d="M 426,339 L 459,339 L 459,340 L 426,340 Z"/>
  <path d="M 0,340 L 26,340 L 26,341 L 0,341 Z"/>
  <path d="M 426,340 L 459,340 L 459,341 L 426,341 Z"/>
  <path d="M 0,341 L 26,341 L 26,342 L 0,342 Z"/>
  <path d="M 426,341 L 459,341 L 459,342 L 426,342 Z"/>
  <path d="M 0,342 L 26,342 L 26,343 L 0,343 Z"/>
  <path d="M 426,342 L 459,342 L 459,343 L 426,343 Z"/>
  <path d="M 0,343 L 26,343 L 26,344 L 0,344 Z"/>
  <path d="M 426,343 L 459,343 L 459,344 L 426,344 Z"/>
  <path d="M 0,344 L 26,344 L 26,345 L 0,345 Z"/>
  <path d="M 426,344 L 459,344 L 459,345 L 426,345 Z"/>
  <path d="M 0,345 L 26,345 L 26,346 L 0,346 Z"/>
  <path d="M 426,345 L 459,345 L 459,346 L 426,346 Z"/>
  <path d="M 0,346 L 26,346 L 26,347 L 0,347 Z"/>
  <path d="M 426,346 L 459,346 L 459,347 L 426,347 Z"/>
  <path d="M 0,347 L 26,347 L 26,348 L 0,348 Z"/>
  <path d="M 426,347 L 459,347 L 459,348 L 426,348 Z"/>
  <path d="M 0,348 L 26,348 L 26,349 L 0,349 Z"/>
  <path d="M 426,348 L 459,348 L 459,349 L 426,349 Z"/>
  <path d="M 0,349 L 26,349 L 26,350 L 0,350 Z"/>
  <path d="M 426,349 L 459,349 L 459,350 L 426,350 Z"/>
  <path d="M 0,350 L 26,350 L 26,351 L 0,351 Z"/>
  <path d="M 426,350 L 459,350 L 459,351 L 426,351 Z"/>
  <path d="M 0,351 L 26,351 L 26,352 L 0,352 Z"/>
  <path d="M 426,351 L 459,351 L 459,352 L 426,352 Z"/>
  <path d="M 0,352 L 26,352 L 26,353 L 0,353 Z"/>
  <path d="M 426,352 L 459,352 L 459,353 L 426,353 Z"/>
  <path d="M 0,353 L 26,353 L 26,354 L 0,354 Z"/>
  <path d="M 426,353 L 459,353 L 459,354 L 426,354 Z"/>
  <path d="M 0,354 L 26,354 L 26,355 L 0,355 Z"/>
  <path d="M 426,354 L 459,354 L 459,355 L 426,355 Z"/>
  <path d="M 0,355 L 26,355 L 26,356 L 0,356 Z"/>
  <path d="M 426,355 L 459,355 L 459,356 L 426,356 Z"/>
  <path d="M 0,356 L 26,356 L 26,357 L 0,357 Z"/>
  <path d="M 426,356 L 459,356 L 459,357 L 426,357 Z"/>
  <path d="M 0,357 L 26,357 L 26,358 L 0,358 Z"/>
  <path d="M 426,357 L 459,357 L 459,358 L 426,358 Z"/>
  <path d="M 0,358 L 26,358 L 26,359 L 0,359 Z"/>
  <path d="M 426,358 L 459,358 L 459,359 L 426,359 Z"/>
  <path d="M 0,359 L 26,359 L 26,360 L 0,360 Z"/>
  <path d="M 426,359 L 459,359 L 459,360 L 426,360 Z"/>
  <path d="M 0,360 L 26,360 L 26,361 L 0,361 Z"/>
  <path d="M 426,360 L 459,360 L 459,361 L 426,361 Z"/>
  <path d="M 0,361 L 459,361 L 459,362 L 0,362 Z"/>
  <path d="M 0,362 L 459,362 L 459,363 L 0,363 Z"/>
  <path d="M 0,363 L 459,363 L 459,364 L 0,364 Z"/>
  <path d="M 0,364 L 459,364 L 459,365 L 0,365 Z"/>
  <path d="M 0,365 L 459,365 L 459,366 L 0,366 Z"/>
  <path d="M 0,366 L 459,366 L 459,367 L 0,367 Z"/>
  <path d="M 0,367 L 459,367 L 459,368 L 0,368 Z"/>
  <path d="M 0,368 L 459,368 L 459,369 L 0,369 Z"/>
  <path d="M 0,369 L 459,369 L 459,370 L 0,370 Z"/>
  <path d="M 0,370 L 459,370 L 459,371 L 0,371 Z"/>
  <path d="M 0,371 L 459,371 L 459,372 L 0,372 Z"/>
  <path d="M 0,372 L 459,372 L 459,373 L 0,373 Z"/>
  <path d="M 0,373 L 459,373 L 459,374 L 0,374 Z"/>
  <path d="M 0,374 L 459,374 L 459,375 L 0,375 Z"/>
  <path d="M 0,375 L 459,375 L 459,376 L 0,376 Z"/>
  <path d="M 0,376 L 459,376 L 459,377 L 0,377 Z"/>
  <path d="M 0,377 L 459,377 L 459,378 L 0,378 Z"/>
  <path d="M 0,378 L 459,378 L 459,379 L 0,379 Z"/>
  <path d="M 0,379 L 459,379 L 459,380 L 0,380 Z"/>
  <path d="M 0,380 L 459,380 L 459,381 L 0,381 Z"/>
  <path d="M 0,381 L 459,381 L 459,382 L 0,382 Z"/>
  <path d="M 0,382 L 459,382 L 459,383 L 0,383 Z"/>
  <path d="M 0,383 L 459,383 L 459,384 L 0,384 Z"/>
  <path d="M 0,384 L 459,384 L 459,385 L 0,385 Z"/>
  <path d="M 0,385 L 459,385 L 459,386 L 0,386 Z"/>
  <path d="M 0,386 L 459,386 L 459,387 L 0,387 Z"/>
  <path d="M 0,387 L 459,387 L 459,388 L 0,388 Z"/>
  <path d="M 0,388 L 459,388 L 459,389 L 0,389 Z"/>
  <path d="M 0,389 L 459,389 L 459,390 L 0,390 Z"/>
  <path d="M 0,390 L 459,390 L 459,391 L 0,391 Z"/>
  <path d="M 0,391 L 459,391 L 459,392 L 0,392 Z"/>
  </g>
</svg>
