<?xml version="1.0" encoding="UTF-8" standalone="no"?>
<svg xmlns="http://www.w3.org/2000/svg" version="1.1"
     width="4.7812in" height="4.0833in" viewBox="0 0 459 392">
  <rect x="0" y="0" width="459" height="392" fill="none"/>
  <g fill="#5B1F7A" stroke="none">
  <path d="M 218,116 L 220,116 L 220,117 L 218,117 Z"/>
  <path d="M 218,117 L 220,117 L 220,118 L 218,118 Z"/>
  <path d="M 218,118 L 220,118 L 220,119 L 218,119 Z"/>
  <path d="M 254,118 L 255,118 L 255,119 L 254,119 Z"/>
  <path d="M 218,119 L 220,119 L 220,120 L 218,120 Z"/>
  <path d="M 254,119 L 255,119 L 255,120 L 254,120 Z"/>
  <path d="M 187,120 L 196,120 L 196,121 L 187,121 Z"/>
  <path d="M 206,120 L 220,120 L 220,121 L 206,121 Z"/>
  <path d="M 230,120 L 245,120 L 245,121 L 230,121 Z"/>
  <path d="M 254,120 L 256,120 L 256,121 L 254,121 Z"/>
  <path d="M 187,121 L 197,121 L 197,122 L 187,122 Z"/>
  <path d="M 206,121 L 220,121 L 220,122 L 206,122 Z"/>
  <path d="M 229,121 L 245,121 L 245,122 L 229,122 Z"/>
  <path d="M 254,121 L 256,121 L 256,122 L 254,122 Z"/>
  <path d="M 206,122 L 207,122 L 207,123 L 206,123 Z"/>
  <path d="M 229,122 L 231,122 L 231,123 L 229,123 Z"/>
  <path d="M 254,122 L 256,122 L 256,123 L 254,123 Z"/>
  <path d="M 206,123 L 207,123 L 207,124 L 206,124 Z"/>
  <path d="M 229,123 L 231,123 L 231,124 L 229,124 Z"/>
  <path d="M 254,123 L 256,123 L 256,124 L 254,124 Z"/>
  <path d="M 206,124 L 207,124 L 207,125 L 206,125 Z"/>
  <path d="M 229,124 L 231,124 L 231,125 L 229,125 Z"/>
  <path d="M 254,124 L 256,124 L 256,125 L 254,125 Z"/>
  <path d="M 206,125 L 207,125 L 207,126 L 206,126 Z"/>
  <path d="M 229,125 L 231,125 L 231,126 L 229,126 Z"/>
  <path d="M 254,125 L 256,125 L 256,126 L 254,126 Z"/>
  <path d="M 206,126 L 207,126 L 207,127 L 206,127 Z"/>
  <path d="M 229,126 L 231,126 L 231,127 L 229,127 Z"/>
  <path d="M 254,126 L 256,126 L 256,127 L 254,127 Z"/>
  <path d="M 206,127 L 207,127 L 207,128 L 206,128 Z"/>
  <path d="M 229,127 L 231,127 L 231,128 L 229,128 Z"/>
  <path d="M 254,127 L 256,127 L 256,128 L 254,128 Z"/>
  <path d="M 206,128 L 207,128 L 207,129 L 206,129 Z"/>
  <path d="M 229,128 L 231,128 L 231,129 L 229,129 Z"/>
  <path d="M 254,128 L 256,128 L 256,129 L 254,129 Z"/>
  <path d="M 206,129 L 207,129 L 207,130 L 206,130 Z"/>
  <path d="M 229,129 L 231,129 L 231,130 L 229,130 Z"/>
  <path d="M 254,129 L 256,129 L 256,130 L 254,130 Z"/>
  <path d="M 206,130 L 207,130 L 207,131 L 206,131 Z"/>
  <path d="M 229,130 L 231,130 L 231,131 L 229,131 Z"/>
  <path d="M 254,130 L 256,130 L 256,131 L 254,131 Z"/>
  <path d="M 206,131 L 207,131 L 207,132 L 206,132 Z"/>
  <path d="M 229,131 L 231,131 L 231,132 L 229,132 Z"/>
  <path d="M 254,131 L 256,131 L 256,132 L 254,132 Z"/>
  <path d="M 206,132 L 207,132 L 207,133 L 206,133 Z"/>
  <path d="M 229,132 L 231,132 L 231,133 L 229,133 Z"/>
  <path d="M 254,132 L 256,132 L 256,133 L 254,133 Z"/>
  <path d="M 206,133 L 207,133 L 207,134 L 206,134 Z"/>
  <path d="M 229,133 L 231,133 L 231,134 L 229,134 Z"/>
  <path d="M 254,133 L 256,133 L 256,134 L 254,134 Z"/>
  <path d="M 206,134 L 207,134 L 207,135 L 206,135 Z"/>
  <path d="M 229,134 L 231,134 L 231,135 L 229,135 Z"/>
  <path d="M 254,134 L 256,134 L 256,135 L 254,135 Z"/>
  <path d="M 206,135 L 207,135 L 207,136 L 206,136 Z"/>
  <path d="M 229,135 L 231,135 L 231,136 L 229,136 Z"/>
  <path d="M 254,135 L 256,135 L 256,136 L 254,136 Z"/>
  <path d="M 206,136 L 207,136 L 207,137 L 206,137 Z"/>
  <path d="M 254,136 L 256,136 L 256,137 L 254,137 Z"/>
  <path d="M 206,137 L 207,137 L 207,138 L 206,138 Z"/>
  <path d="M 254,137 L 256,137 L 256,138 L 254,138 Z"/>
  <path d="M 206,138 L 207,138 L 207,139 L 206,139 Z"/>
  <path d="M 254,138 L 256,138 L 256,139 L 254,139 Z"/>
  <path d="M 206,139 L 207,139 L 207,140 L 206,140 Z"/>
  <path d="M 253,139 L 255,139 L 255,140 L 253,140 Z"/>
  <path d="M 206,140 L 207,140 L 207,141 L 206,141 Z"/>
  <path d="M 253,140 L 255,140 L 255,141 L 253,141 Z"/>
  <path d="M 206,141 L 207,141 L 207,142 L 206,142 Z"/>
  <path d="M 251,141 L 255,141 L 255,142 L 251,142 Z"/>
  <path d="M 206,142 L 207,142 L 207,143 L 206,143 Z"/>
  <path d="M 248,142 L 254,142 L 254,143 L 248,143 Z"/>
  <path d="M 199,143 L 207,143 L 207,144 L 199,144 Z"/>
  <path d="M 225,143 L 252,143 L 252,144 L 225,144 Z"/>
  <path d="M 92,161 L 93,161 L 93,162 L 92,162 Z"/>
  <path d="M 192,161 L 193,161 L 193,162 L 192,162 Z"/>
  <path d="M 207,161 L 209,161 L 209,162 L 207,162 Z"/>
  <path d="M 273,161 L 275,161 L 275,162 L 273,162 Z"/>
  <path d="M 323,161 L 325,161 L 325,162 L 323,162 Z"/>
  <path d="M 339,161 L 340,161 L 340,162 L 339,162 Z"/>
  <path d="M 373,161 L 375,161 L 375,162 L 373,162 Z"/>
  <path d="M 92,162 L 93,162 L 93,163 L 92,163 Z"/>
  <path d="M 192,162 L 193,162 L 193,163 L 192,163 Z"/>
  <path d="M 207,162 L 209,162 L 209,163 L 207,163 Z"/>
  <path d="M 273,162 L 275,162 L 275,163 L 273,163 Z"/>
  <path d="M 323,162 L 325,162 L 325,163 L 323,163 Z"/>
  <path d="M 339,162 L 340,162 L 340,163 L 339,163 Z"/>
  <path d="M 373,162 L 375,162 L 375,163 L 373,163 Z"/>
  <path d="M 92,163 L 93,163 L 93,164 L 92,164 Z"/>
  <path d="M 192,163 L 193,163 L 193,164 L 192,164 Z"/>
  <path d="M 207,163 L 209,163 L 209,164 L 207,164 Z"/>
  <path d="M 273,163 L 275,163 L 275,164 L 273,164 Z"/>
  <path d="M 323,163 L 325,163 L 325,164 L 323,164 Z"/>
  <path d="M 339,163 L 340,163 L 340,164 L 339,164 Z"/>
  <path d="M 373,163 L 375,163 L 375,164 L 373,164 Z"/>
  <path d="M 92,164 L 93,164 L 93,165 L 92,165 Z"/>
  <path d="M 141,164 L 142,164 L 142,165 L 141,165 Z"/>
  <path d="M 192,164 L 193,164 L 193,165 L 192,165 Z"/>
  <path d="M 207,164 L 209,164 L 209,165 L 207,165 Z"/>
  <path d="M 257,164 L 258,164 L 258,165 L 257,165 Z"/>
  <path d="M 273,164 L 275,164 L 275,165 L 273,165 Z"/>
  <path d="M 323,164 L 325,164 L 325,165 L 323,165 Z"/>
  <path d="M 339,164 L 340,164 L 340,165 L 339,165 Z"/>
  <path d="M 373,164 L 375,164 L 375,165 L 373,165 Z"/>
  <path d="M 92,165 L 93,165 L 93,166 L 92,166 Z"/>
  <path d="M 141,165 L 143,165 L 143,166 L 141,166 Z"/>
  <path d="M 192,165 L 193,165 L 193,166 L 192,166 Z"/>
  <path d="M 207,165 L 209,165 L 209,166 L 207,166 Z"/>
  <path d="M 257,165 L 258,165 L 258,166 L 257,166 Z"/>
  <path d="M 273,165 L 275,165 L 275,166 L 273,166 Z"/>
  <path d="M 323,165 L 325,165 L 325,166 L 323,166 Z"/>
  <path d="M 339,165 L 340,165 L 340,166 L 339,166 Z"/>
  <path d="M 373,165 L 375,165 L 375,166 L 373,166 Z"/>
  <path d="M 92,166 L 93,166 L 93,167 L 92,167 Z"/>
  <path d="M 142,166 L 143,166 L 143,167 L 142,167 Z"/>
  <path d="M 192,166 L 193,166 L 193,167 L 192,167 Z"/>
  <path d="M 207,166 L 209,166 L 209,167 L 207,167 Z"/>
  <path d="M 257,166 L 259,166 L 259,167 L 257,167 Z"/>
  <path d="M 273,166 L 275,166 L 275,167 L 273,167 Z"/>
  <path d="M 323,166 L 325,166 L 325,167 L 323,167 Z"/>
  <path d="M 339,166 L 340,166 L 340,167 L 339,167 Z"/>
  <path d="M 373,166 L 375,166 L 375,167 L 373,167 Z"/>
  <path d="M 92,167 L 93,167 L 93,168 L 92,168 Z"/>
  <path d="M 142,167 L 143,167 L 143,168 L 142,168 Z"/>
  <path d="M 192,167 L 193,167 L 193,168 L 192,168 Z"/>
  <path d="M 207,167 L 209,167 L 209,168 L 207,168 Z"/>
  <path d="M 257,167 L 259,167 L 259,168 L 257,168 Z"/>
  <path d="M 273,167 L 275,167 L 275,168 L 273,168 Z"/>
  <path d="M 323,167 L 325,167 L 325,168 L 323,168 Z"/>
  <path d="M 339,167 L 340,167 L 340,168 L 339,168 Z"/>
  <path d="M 373,167 L 375,167 L 375,168 L 373,168 Z"/>
  <path d="M 92,168 L 93,168 L 93,169 L 92,169 Z"/>
  <path d="M 142,168 L 143,168 L 143,169 L 142,169 Z"/>
  <path d="M 191,168 L 193,168 L 193,169 L 191,169 Z"/>
  <path d="M 207,168 L 209,168 L 209,169 L 207,169 Z"/>
  <path d="M 257,168 L 259,168 L 259,169 L 257,169 Z"/>
  <path d="M 273,168 L 275,168 L 275,169 L 273,169 Z"/>
  <path d="M 323,168 L 325,168 L 325,169 L 323,169 Z"/>
  <path d="M 339,168 L 340,168 L 340,169 L 339,169 Z"/>
  <path d="M 373,168 L 375,168 L 375,169 L 373,169 Z"/>
  <path d="M 92,169 L 93,169 L 93,170 L 92,170 Z"/>
  <path d="M 107,169 L 129,169 L 129,170 L 107,170 Z"/>
  <path d="M 142,169 L 143,169 L 143,170 L 142,170 Z"/>
  <path d="M 157,169 L 193,169 L 193,170 L 157,170 Z"/>
  <path d="M 207,169 L 209,169 L 209,170 L 207,170 Z"/>
  <path d="M 223,169 L 245,169 L 245,170 L 223,170 Z"/>
  <path d="M 257,169 L 259,169 L 259,170 L 257,170 Z"/>
  <path d="M 273,169 L 275,169 L 275,170 L 273,170 Z"/>
  <path d="M 278,169 L 293,169 L 293,170 L 278,170 Z"/>
  <path d="M 306,169 L 325,169 L 325,170 L 306,170 Z"/>
  <path d="M 339,169 L 340,169 L 340,170 L 339,170 Z"/>
  <path d="M 373,169 L 375,169 L 375,170 L 373,170 Z"/>
  <path d="M 92,170 L 93,170 L 93,171 L 92,171 Z"/>
  <path d="M 107,170 L 109,170 L 109,171 L 107,171 Z"/>
  <path d="M 142,170 L 143,170 L 143,171 L 142,171 Z"/>
  <path d="M 157,170 L 159,170 L 159,171 L 157,171 Z"/>
  <path d="M 207,170 L 209,170 L 209,171 L 207,171 Z"/>
  <path d="M 223,170 L 225,170 L 225,171 L 223,171 Z"/>
  <path d="M 257,170 L 259,170 L 259,171 L 257,171 Z"/>
  <path d="M 273,170 L 275,170 L 275,171 L 273,171 Z"/>
  <path d="M 306,170 L 307,170 L 307,171 L 306,171 Z"/>
  <path d="M 339,170 L 340,170 L 340,171 L 339,171 Z"/>
  <path d="M 373,170 L 375,170 L 375,171 L 373,171 Z"/>
  <path d="M 92,171 L 93,171 L 93,172 L 92,172 Z"/>
  <path d="M 107,171 L 109,171 L 109,172 L 107,172 Z"/>
  <path d="M 142,171 L 143,171 L 143,172 L 142,172 Z"/>
  <path d="M 157,171 L 159,171 L 159,172 L 157,172 Z"/>
  <path d="M 207,171 L 209,171 L 209,172 L 207,172 Z"/>
  <path d="M 223,171 L 225,171 L 225,172 L 223,172 Z"/>
  <path d="M 257,171 L 259,171 L 259,172 L 257,172 Z"/>
  <path d="M 273,171 L 275,171 L 275,172 L 273,172 Z"/>
  <path d="M 306,171 L 307,171 L 307,172 L 306,172 Z"/>
  <path d="M 339,171 L 340,171 L 340,172 L 339,172 Z"/>
  <path d="M 373,171 L 375,171 L 375,172 L 373,172 Z"/>
  <path d="M 92,172 L 93,172 L 93,173 L 92,173 Z"/>
  <path d="M 107,172 L 109,172 L 109,173 L 107,173 Z"/>
  <path d="M 142,172 L 143,172 L 143,173 L 142,173 Z"/>
  <path d="M 157,172 L 159,172 L 159,173 L 157,173 Z"/>
  <path d="M 207,172 L 209,172 L 209,173 L 207,173 Z"/>
  <path d="M 223,172 L 225,172 L 225,173 L 223,173 Z"/>
  <path d="M 257,172 L 259,172 L 259,173 L 257,173 Z"/>
  <path d="M 273,172 L 275,172 L 275,173 L 273,173 Z"/>
  <path d="M 306,172 L 307,172 L 307,173 L 306,173 Z"/>
  <path d="M 339,172 L 340,172 L 340,173 L 339,173 Z"/>
  <path d="M 373,172 L 375,172 L 375,173 L 373,173 Z"/>
  <path d="M 92,173 L 93,173 L 93,174 L 92,174 Z"/>
  <path d="M 107,173 L 109,173 L 109,174 L 107,174 Z"/>
  <path d="M 142,173 L 143,173 L 143,174 L 142,174 Z"/>
  <path d="M 207,173 L 209,173 L 209,174 L 207,174 Z"/>
  <path d="M 223,173 L 225,173 L 225,174 L 223,174 Z"/>
  <path d="M 257,173 L 259,173 L 259,174 L 257,174 Z"/>
  <path d="M 273,173 L 275,173 L 275,174 L 273,174 Z"/>
  <path d="M 306,173 L 307,173 L 307,174 L 306,174 Z"/>
  <path d="M 339,173 L 340,173 L 340,174 L 339,174 Z"/>
  <path d="M 373,173 L 375,173 L 375,174 L 373,174 Z"/>
  <path d="M 92,174 L 93,174 L 93,175 L 92,175 Z"/>
  <path d="M 107,174 L 109,174 L 109,175 L 107,175 Z"/>
  <path d="M 142,174 L 143,174 L 143,175 L 142,175 Z"/>
  <path d="M 207,174 L 209,174 L 209,175 L 207,175 Z"/>
  <path d="M 223,174 L 225,174 L 225,175 L 223,175 Z"/>
  <path d="M 257,174 L 259,174 L 259,175 L 257,175 Z"/>
  <path d="M 273,174 L 275,174 L 275,175 L 273,175 Z"/>
  <path d="M 306,174 L 307,174 L 307,175 L 306,175 Z"/>
  <path d="M 339,174 L 340,174 L 340,175 L 339,175 Z"/>
  <path d="M 373,174 L 375,174 L 375,175 L 373,175 Z"/>
  <path d="M 92,175 L 93,175 L 93,176 L 92,176 Z"/>
  <path d="M 107,175 L 109,175 L 109,176 L 107,176 Z"/>
  <path d="M 142,175 L 143,175 L 143,176 L 142,176 Z"/>
  <path d="M 188,175 L 189,175 L 189,176 L 188,176 Z"/>
  <path d="M 207,175 L 209,175 L 209,176 L 207,176 Z"/>
  <path d="M 223,175 L 225,175 L 225,176 L 223,176 Z"/>
  <path d="M 257,175 L 259,175 L 259,176 L 257,176 Z"/>
  <path d="M 273,175 L 275,175 L 275,176 L 273,176 Z"/>
  <path d="M 306,175 L 307,175 L 307,176 L 306,176 Z"/>
  <path d="M 339,175 L 340,175 L 340,176 L 339,176 Z"/>
  <path d="M 373,175 L 375,175 L 375,176 L 373,176 Z"/>
  <path d="M 92,176 L 93,176 L 93,177 L 92,177 Z"/>
  <path d="M 107,176 L 109,176 L 109,177 L 107,177 Z"/>
  <path d="M 142,176 L 143,176 L 143,177 L 142,177 Z"/>
  <path d="M 188,176 L 189,176 L 189,177 L 188,177 Z"/>
  <path d="M 207,176 L 209,176 L 209,177 L 207,177 Z"/>
  <path d="M 223,176 L 225,176 L 225,177 L 223,177 Z"/>
  <path d="M 257,176 L 259,176 L 259,177 L 257,177 Z"/>
  <path d="M 273,176 L 275,176 L 275,177 L 273,177 Z"/>
  <path d="M 306,176 L 307,176 L 307,177 L 306,177 Z"/>
  <path d="M 339,176 L 340,176 L 340,177 L 339,177 Z"/>
  <path d="M 373,176 L 375,176 L 375,177 L 373,177 Z"/>
  <path d="M 92,177 L 93,177 L 93,178 L 92,178 Z"/>
  <path d="M 107,177 L 109,177 L 109,178 L 107,178 Z"/>
  <path d="M 142,177 L 143,177 L 143,178 L 142,178 Z"/>
  <path d="M 188,177 L 189,177 L 189,178 L 188,178 Z"/>
  <path d="M 207,177 L 209,177 L 209,178 L 207,178 Z"/>
  <path d="M 223,177 L 225,177 L 225,178 L 223,178 Z"/>
  <path d="M 257,177 L 259,177 L 259,178 L 257,178 Z"/>
  <path d="M 273,177 L 275,177 L 275,178 L 273,178 Z"/>
  <path d="M 306,177 L 307,177 L 307,178 L 306,178 Z"/>
  <path d="M 339,177 L 340,177 L 340,178 L 339,178 Z"/>
  <path d="M 373,177 L 375,177 L 375,178 L 373,178 Z"/>
  <path d="M 92,178 L 93,178 L 93,179 L 92,179 Z"/>
  <path d="M 107,178 L 109,178 L 109,179 L 107,179 Z"/>
  <path d="M 142,178 L 143,178 L 143,179 L 142,179 Z"/>
  <path d="M 188,178 L 189,178 L 189,179 L 188,179 Z"/>
  <path d="M 207,178 L 209,178 L 209,179 L 207,179 Z"/>
  <path d="M 223,178 L 225,178 L 225,179 L 223,179 Z"/>
  <path d="M 257,178 L 259,178 L 259,179 L 257,179 Z"/>
  <path d="M 273,178 L 275,178 L 275,179 L 273,179 Z"/>
  <path d="M 306,178 L 307,178 L 307,179 L 306,179 Z"/>
  <path d="M 339,178 L 340,178 L 340,179 L 339,179 Z"/>
  <path d="M 373,178 L 375,178 L 375,179 L 373,179 Z"/>
  <path d="M 92,179 L 93,179 L 93,180 L 92,180 Z"/>
  <path d="M 107,179 L 109,179 L 109,180 L 107,180 Z"/>
  <path d="M 142,179 L 143,179 L 143,180 L 142,180 Z"/>
  <path d="M 188,179 L 189,179 L 189,180 L 188,180 Z"/>
  <path d="M 207,179 L 209,179 L 209,180 L 207,180 Z"/>
  <path d="M 223,179 L 225,179 L 225,180 L 223,180 Z"/>
  <path d="M 257,179 L 259,179 L 259,180 L 257,180 Z"/>
  <path d="M 273,179 L 275,179 L 275,180 L 273,180 Z"/>
  <path d="M 306,179 L 307,179 L 307,180 L 306,180 Z"/>
  <path d="M 339,179 L 340,179 L 340,180 L 339,180 Z"/>
  <path d="M 373,179 L 375,179 L 375,180 L 373,180 Z"/>
  <path d="M 92,180 L 93,180 L 93,181 L 92,181 Z"/>
  <path d="M 107,180 L 109,180 L 109,181 L 107,181 Z"/>
  <path d="M 142,180 L 143,180 L 143,181 L 142,181 Z"/>
  <path d="M 188,180 L 189,180 L 189,181 L 188,181 Z"/>
  <path d="M 207,180 L 209,180 L 209,181 L 207,181 Z"/>
  <path d="M 223,180 L 225,180 L 225,181 L 223,181 Z"/>
  <path d="M 257,180 L 259,180 L 259,181 L 257,181 Z"/>
  <path d="M 273,180 L 275,180 L 275,181 L 273,181 Z"/>
  <path d="M 306,180 L 307,180 L 307,181 L 306,181 Z"/>
  <path d="M 339,180 L 340,180 L 340,181 L 339,181 Z"/>
  <path d="M 373,180 L 375,180 L 375,181 L 373,181 Z"/>
  <path d="M 92,181 L 93,181 L 93,182 L 92,182 Z"/>
  <path d="M 107,181 L 109,181 L 109,182 L 107,182 Z"/>
  <path d="M 142,181 L 143,181 L 143,182 L 142,182 Z"/>
  <path d="M 188,181 L 189,181 L 189,182 L 188,182 Z"/>
  <path d="M 207,181 L 209,181 L 209,182 L 207,182 Z"/>
  <path d="M 223,181 L 225,181 L 225,182 L 223,182 Z"/>
  <path d="M 257,181 L 259,181 L 259,182 L 257,182 Z"/>
  <path d="M 273,181 L 275,181 L 275,182 L 273,182 Z"/>
  <path d="M 306,181 L 307,181 L 307,182 L 306,182 Z"/>
  <path d="M 373,181 L 375,181 L 375,182 L 373,182 Z"/>
  <path d="M 92,182 L 93,182 L 93,183 L 92,183 Z"/>
  <path d="M 107,182 L 109,182 L 109,183 L 107,183 Z"/>
  <path d="M 142,182 L 143,182 L 143,183 L 142,183 Z"/>
  <path d="M 157,182 L 189,182 L 189,183 L 157,183 Z"/>
  <path d="M 207,182 L 209,182 L 209,183 L 207,183 Z"/>
  <path d="M 223,182 L 225,182 L 225,183 L 223,183 Z"/>
  <path d="M 257,182 L 259,182 L 259,183 L 257,183 Z"/>
  <path d="M 273,182 L 275,182 L 275,183 L 273,183 Z"/>
  <path d="M 306,182 L 307,182 L 307,183 L 306,183 Z"/>
  <path d="M 373,182 L 375,182 L 375,183 L 373,183 Z"/>
  <path d="M 92,183 L 93,183 L 93,184 L 92,184 Z"/>
  <path d="M 107,183 L 109,183 L 109,184 L 107,184 Z"/>
  <path d="M 142,183 L 143,183 L 143,184 L 142,184 Z"/>
  <path d="M 157,183 L 159,183 L 159,184 L 157,184 Z"/>
  <path d="M 207,183 L 209,183 L 209,184 L 207,184 Z"/>
  <path d="M 223,183 L 225,183 L 225,184 L 223,184 Z"/>
  <path d="M 257,183 L 259,183 L 259,184 L 257,184 Z"/>
  <path d="M 273,183 L 275,183 L 275,184 L 273,184 Z"/>
  <path d="M 306,183 L 307,183 L 307,184 L 306,184 Z"/>
  <path d="M 373,183 L 375,183 L 375,184 L 373,184 Z"/>
  <path d="M 92,184 L 93,184 L 93,185 L 92,185 Z"/>
  <path d="M 107,184 L 109,184 L 109,185 L 107,185 Z"/>
  <path d="M 142,184 L 143,184 L 143,185 L 142,185 Z"/>
  <path d="M 157,184 L 159,184 L 159,185 L 157,185 Z"/>
  <path d="M 207,184 L 209,184 L 209,185 L 207,185 Z"/>
  <path d="M 223,184 L 225,184 L 225,185 L 223,185 Z"/>
  <path d="M 257,184 L 259,184 L 259,185 L 257,185 Z"/>
  <path d="M 273,184 L 275,184 L 275,185 L 273,185 Z"/>
  <path d="M 306,184 L 307,184 L 307,185 L 306,185 Z"/>
  <path d="M 373,184 L 375,184 L 375,185 L 373,185 Z"/>
  <path d="M 92,185 L 93,185 L 93,186 L 92,186 Z"/>
  <path d="M 107,185 L 109,185 L 109,186 L 107,186 Z"/>
  <path d="M 142,185 L 143,185 L 143,186 L 142,186 Z"/>
  <path d="M 157,185 L 159,185 L 159,186 L 157,186 Z"/>
  <path d="M 207,185 L 209,185 L 209,186 L 207,186 Z"/>
  <path d="M 223,185 L 225,185 L 225,186 L 223,186 Z"/>
  <path d="M 257,185 L 259,185 L 259,186 L 257,186 Z"/>
  <path d="M 273,185 L 275,185 L 275,186 L 273,186 Z"/>
  <path d="M 306,185 L 307,185 L 307,186 L 306,186 Z"/>
  <path d="M 372,185 L 374,185 L 374,186 L 372,186 Z"/>
  <path d="M 92,186 L 93,186 L 93,187 L 92,187 Z"/>
  <path d="M 107,186 L 109,186 L 109,187 L 107,187 Z"/>
  <path d="M 142,186 L 143,186 L 143,187 L 142,187 Z"/>
  <path d="M 157,186 L 159,186 L 159,187 L 157,187 Z"/>
  <path d="M 207,186 L 209,186 L 209,187 L 207,187 Z"/>
  <path d="M 223,186 L 225,186 L 225,187 L 223,187 Z"/>
  <path d="M 257,186 L 259,186 L 259,187 L 257,187 Z"/>
  <path d="M 273,186 L 275,186 L 275,187 L 273,187 Z"/>
  <path d="M 306,186 L 307,186 L 307,187 L 306,187 Z"/>
  <path d="M 371,186 L 374,186 L 374,187 L 371,187 Z"/>
  <path d="M 92,187 L 93,187 L 93,188 L 92,188 Z"/>
  <path d="M 107,187 L 109,187 L 109,188 L 107,188 Z"/>
  <path d="M 142,187 L 143,187 L 143,188 L 142,188 Z"/>
  <path d="M 157,187 L 159,187 L 159,188 L 157,188 Z"/>
  <path d="M 207,187 L 209,187 L 209,188 L 207,188 Z"/>
  <path d="M 223,187 L 225,187 L 225,188 L 223,188 Z"/>
  <path d="M 257,187 L 259,187 L 259,188 L 257,188 Z"/>
  <path d="M 273,187 L 275,187 L 275,188 L 273,188 Z"/>
  <path d="M 306,187 L 307,187 L 307,188 L 306,188 Z"/>
  <path d="M 371,187 L 373,187 L 373,188 L 371,188 Z"/>
  <path d="M 92,188 L 93,188 L 93,189 L 92,189 Z"/>
  <path d="M 107,188 L 109,188 L 109,189 L 107,189 Z"/>
  <path d="M 142,188 L 143,188 L 143,189 L 142,189 Z"/>
  <path d="M 157,188 L 159,188 L 159,189 L 157,189 Z"/>
  <path d="M 207,188 L 209,188 L 209,189 L 207,189 Z"/>
  <path d="M 223,188 L 225,188 L 225,189 L 223,189 Z"/>
  <path d="M 257,188 L 259,188 L 259,189 L 257,189 Z"/>
  <path d="M 273,188 L 275,188 L 275,189 L 273,189 Z"/>
  <path d="M 306,188 L 307,188 L 307,189 L 306,189 Z"/>
  <path d="M 369,188 L 373,188 L 373,189 L 369,189 Z"/>
  <path d="M 92,189 L 93,189 L 93,190 L 92,190 Z"/>
  <path d="M 107,189 L 109,189 L 109,190 L 107,190 Z"/>
  <path d="M 142,189 L 143,189 L 143,190 L 142,190 Z"/>
  <path d="M 157,189 L 159,189 L 159,190 L 157,190 Z"/>
  <path d="M 207,189 L 209,189 L 209,190 L 207,190 Z"/>
  <path d="M 223,189 L 225,189 L 225,190 L 223,190 Z"/>
  <path d="M 257,189 L 259,189 L 259,190 L 257,190 Z"/>
  <path d="M 273,189 L 275,189 L 275,190 L 273,190 Z"/>
  <path d="M 306,189 L 307,189 L 307,190 L 306,190 Z"/>
  <path d="M 332,189 L 337,189 L 337,190 L 332,190 Z"/>
  <path d="M 366,189 L 372,189 L 372,190 L 366,190 Z"/>
  <path d="M 92,190 L 93,190 L 93,191 L 92,191 Z"/>
  <path d="M 107,190 L 109,190 L 109,191 L 107,191 Z"/>
  <path d="M 142,190 L 143,190 L 143,191 L 142,191 Z"/>
  <path d="M 157,190 L 159,190 L 159,191 L 157,191 Z"/>
  <path d="M 207,190 L 209,190 L 209,191 L 207,191 Z"/>
  <path d="M 223,190 L 225,190 L 225,191 L 223,191 Z"/>
  <path d="M 257,190 L 259,190 L 259,191 L 257,191 Z"/>
  <path d="M 273,190 L 275,190 L 275,191 L 273,191 Z"/>
  <path d="M 306,190 L 307,190 L 307,191 L 306,191 Z"/>
  <path d="M 333,190 L 344,190 L 344,191 L 333,191 Z"/>
  <path d="M 356,190 L 370,190 L 370,191 L 356,191 Z"/>
  <path d="M 92,191 L 93,191 L 93,192 L 92,192 Z"/>
  <path d="M 107,191 L 109,191 L 109,192 L 107,192 Z"/>
  <path d="M 142,191 L 143,191 L 143,192 L 142,192 Z"/>
  <path d="M 157,191 L 159,191 L 159,192 L 157,192 Z"/>
  <path d="M 207,191 L 209,191 L 209,192 L 207,192 Z"/>
  <path d="M 223,191 L 225,191 L 225,192 L 223,192 Z"/>
  <path d="M 257,191 L 259,191 L 259,192 L 257,192 Z"/>
  <path d="M 273,191 L 275,191 L 275,192 L 273,192 Z"/>
  <path d="M 306,191 L 307,191 L 307,192 L 306,192 Z"/>
  <path d="M 356,191 L 358,191 L 358,192 L 356,192 Z"/>
  <path d="M 92,192 L 93,192 L 93,193 L 92,193 Z"/>
  <path d="M 107,192 L 109,192 L 109,193 L 107,193 Z"/>
  <path d="M 142,192 L 143,192 L 143,193 L 142,193 Z"/>
  <path d="M 157,192 L 159,192 L 159,193 L 157,193 Z"/>
  <path d="M 207,192 L 209,192 L 209,193 L 207,193 Z"/>
  <path d="M 223,192 L 225,192 L 225,193 L 223,193 Z"/>
  <path d="M 257,192 L 259,192 L 259,193 L 257,193 Z"/>
  <path d="M 273,192 L 275,192 L 275,193 L 273,193 Z"/>
  <path d="M 306,192 L 307,192 L 307,193 L 306,193 Z"/>
  <path d="M 356,192 L 358,192 L 358,193 L 356,193 Z"/>
  <path d="M 92,193 L 93,193 L 93,194 L 92,194 Z"/>
  <path d="M 107,193 L 109,193 L 109,194 L 107,194 Z"/>
  <path d="M 142,193 L 143,193 L 143,194 L 142,194 Z"/>
  <path d="M 157,193 L 159,193 L 159,194 L 157,194 Z"/>
  <path d="M 207,193 L 209,193 L 209,194 L 207,194 Z"/>
  <path d="M 223,193 L 225,193 L 225,194 L 223,194 Z"/>
  <path d="M 257,193 L 259,193 L 259,194 L 257,194 Z"/>
  <path d="M 273,193 L 275,193 L 275,194 L 273,194 Z"/>
  <path d="M 306,193 L 307,193 L 307,194 L 306,194 Z"/>
  <path d="M 356,193 L 358,193 L 358,194 L 356,194 Z"/>
  <path d="M 92,194 L 93,194 L 93,195 L 92,195 Z"/>
  <path d="M 107,194 L 109,194 L 109,195 L 107,195 Z"/>
  <path d="M 142,194 L 143,194 L 143,195 L 142,195 Z"/>
  <path d="M 157,194 L 159,194 L 159,195 L 157,195 Z"/>
  <path d="M 207,194 L 209,194 L 209,195 L 207,195 Z"/>
  <path d="M 223,194 L 225,194 L 225,195 L 223,195 Z"/>
  <path d="M 257,194 L 259,194 L 259,195 L 257,195 Z"/>
  <path d="M 273,194 L 275,194 L 275,195 L 273,195 Z"/>
  <path d="M 306,194 L 307,194 L 307,195 L 306,195 Z"/>
  <path d="M 356,194 L 358,194 L 358,195 L 356,195 Z"/>
  <path d="M 92,195 L 93,195 L 93,196 L 92,196 Z"/>
  <path d="M 107,195 L 109,195 L 109,196 L 107,196 Z"/>
  <path d="M 142,195 L 143,195 L 143,196 L 142,196 Z"/>
  <path d="M 157,195 L 159,195 L 159,196 L 157,196 Z"/>
  <path d="M 207,195 L 209,195 L 209,196 L 207,196 Z"/>
  <path d="M 223,195 L 225,195 L 225,196 L 223,196 Z"/>
  <path d="M 257,195 L 259,195 L 259,196 L 257,196 Z"/>
  <path d="M 273,195 L 275,195 L 275,196 L 273,196 Z"/>
  <path d="M 306,195 L 307,195 L 307,196 L 306,196 Z"/>
  <path d="M 356,195 L 358,195 L 358,196 L 356,196 Z"/>
  <path d="M 92,196 L 93,196 L 93,197 L 92,197 Z"/>
  <path d="M 107,196 L 109,196 L 109,197 L 107,197 Z"/>
  <path d="M 142,196 L 143,196 L 143,197 L 142,197 Z"/>
  <path d="M 157,196 L 159,196 L 159,197 L 157,197 Z"/>
  <path d="M 207,196 L 209,196 L 209,197 L 207,197 Z"/>
  <path d="M 223,196 L 225,196 L 225,197 L 223,197 Z"/>
  <path d="M 257,196 L 259,196 L 259,197 L 257,197 Z"/>
  <path d="M 273,196 L 275,196 L 275,197 L 273,197 Z"/>
  <path d="M 306,196 L 307,196 L 307,197 L 306,197 Z"/>
  <path d="M 356,196 L 358,196 L 358,197 L 356,197 Z"/>
  <path d="M 92,197 L 93,197 L 93,198 L 92,198 Z"/>
  <path d="M 107,197 L 109,197 L 109,198 L 107,198 Z"/>
  <path d="M 142,197 L 143,197 L 143,198 L 142,198 Z"/>
  <path d="M 157,197 L 159,197 L 159,198 L 157,198 Z"/>
  <path d="M 207,197 L 209,197 L 209,198 L 207,198 Z"/>
  <path d="M 223,197 L 225,197 L 225,198 L 223,198 Z"/>
  <path d="M 257,197 L 259,197 L 259,198 L 257,198 Z"/>
  <path d="M 273,197 L 275,197 L 275,198 L 273,198 Z"/>
  <path d="M 306,197 L 307,197 L 307,198 L 306,198 Z"/>
  <path d="M 356,197 L 358,197 L 358,198 L 356,198 Z"/>
  <path d="M 92,198 L 93,198 L 93,199 L 92,199 Z"/>
  <path d="M 107,198 L 109,198 L 109,199 L 107,199 Z"/>
  <path d="M 142,198 L 143,198 L 143,199 L 142,199 Z"/>
  <path d="M 157,198 L 159,198 L 159,199 L 157,199 Z"/>
  <path d="M 207,198 L 209,198 L 209,199 L 207,199 Z"/>
  <path d="M 223,198 L 225,198 L 225,199 L 223,199 Z"/>
  <path d="M 257,198 L 259,198 L 259,199 L 257,199 Z"/>
  <path d="M 273,198 L 275,198 L 275,199 L 273,199 Z"/>
  <path d="M 306,198 L 307,198 L 307,199 L 306,199 Z"/>
  <path d="M 356,198 L 358,198 L 358,199 L 356,199 Z"/>
  <path d="M 92,199 L 93,199 L 93,200 L 92,200 Z"/>
  <path d="M 107,199 L 109,199 L 109,200 L 107,200 Z"/>
  <path d="M 142,199 L 143,199 L 143,200 L 142,200 Z"/>
  <path d="M 157,199 L 159,199 L 159,200 L 157,200 Z"/>
  <path d="M 207,199 L 209,199 L 209,200 L 207,200 Z"/>
  <path d="M 223,199 L 225,199 L 225,200 L 223,200 Z"/>
  <path d="M 257,199 L 259,199 L 259,200 L 257,200 Z"/>
  <path d="M 273,199 L 275,199 L 275,200 L 273,200 Z"/>
  <path d="M 306,199 L 307,199 L 307,200 L 306,200 Z"/>
  <path d="M 356,199 L 357,199 L 357,200 L 356,200 Z"/>
  <path d="M 88,200 L 93,200 L 93,201 L 88,201 Z"/>
  <path d="M 104,200 L 109,200 L 109,201 L 104,201 Z"/>
  <path d="M 138,200 L 143,200 L 143,201 L 138,201 Z"/>
  <path d="M 153,200 L 159,200 L 159,201 L 153,201 Z"/>
  <path d="M 204,200 L 209,200 L 209,201 L 204,201 Z"/>
  <path d="M 219,200 L 225,200 L 225,201 L 219,201 Z"/>
  <path d="M 254,200 L 259,200 L 259,201 L 254,201 Z"/>
  <path d="M 269,200 L 275,200 L 275,201 L 269,201 Z"/>
  <path d="M 302,200 L 307,200 L 307,201 L 302,201 Z"/>
  <path d="M 352,200 L 358,200 L 358,201 L 352,201 Z"/>
  <path d="M 83,201 L 92,201 L 92,202 L 83,202 Z"/>
  <path d="M 98,201 L 107,201 L 107,202 L 98,202 Z"/>
  <path d="M 133,201 L 142,201 L 142,202 L 133,202 Z"/>
  <path d="M 148,201 L 157,201 L 157,202 L 148,202 Z"/>
  <path d="M 198,201 L 208,201 L 208,202 L 198,202 Z"/>
  <path d="M 214,201 L 223,201 L 223,202 L 214,202 Z"/>
  <path d="M 248,201 L 258,201 L 258,202 L 248,202 Z"/>
  <path d="M 264,201 L 273,201 L 273,202 L 264,202 Z"/>
  <path d="M 297,201 L 306,201 L 306,202 L 297,202 Z"/>
  <path d="M 347,201 L 356,201 L 356,202 L 347,202 Z"/>
  <path d="M 81,202 L 87,202 L 87,203 L 81,203 Z"/>
  <path d="M 97,202 L 102,202 L 102,203 L 97,203 Z"/>
  <path d="M 131,202 L 137,202 L 137,203 L 131,203 Z"/>
  <path d="M 147,202 L 152,202 L 152,203 L 147,203 Z"/>
  <path d="M 197,202 L 202,202 L 202,203 L 197,203 Z"/>
  <path d="M 213,202 L 218,202 L 218,203 L 213,203 Z"/>
  <path d="M 247,202 L 252,202 L 252,203 L 247,203 Z"/>
  <path d="M 263,202 L 268,202 L 268,203 L 263,203 Z"/>
  <path d="M 295,202 L 301,202 L 301,203 L 295,203 Z"/>
  <path d="M 346,202 L 351,202 L 351,203 L 346,203 Z"/>
  <path d="M 207,213 L 219,213 L 219,214 L 207,214 Z"/>
  <path d="M 248,213 L 260,213 L 260,214 L 248,214 Z"/>
  <path d="M 207,214 L 231,214 L 231,215 L 207,215 Z"/>
  <path d="M 248,214 L 272,214 L 272,215 L 248,215 Z"/>
  <path d="M 173,215 L 200,215 L 200,216 L 173,216 Z"/>
  <path d="M 207,215 L 241,215 L 241,216 L 207,216 Z"/>
  <path d="M 248,215 L 282,215 L 282,216 L 248,216 Z"/>
  <path d="M 170,216 L 202,216 L 202,217 L 170,217 Z"/>
  <path d="M 207,216 L 243,216 L 243,217 L 207,217 Z"/>
  <path d="M 248,216 L 284,216 L 284,217 L 248,217 Z"/>
  <path d="M 169,217 L 203,217 L 203,218 L 169,218 Z"/>
  <path d="M 207,217 L 244,217 L 244,218 L 207,218 Z"/>
  <path d="M 248,217 L 285,217 L 285,218 L 248,218 Z"/>
  <path d="M 168,218 L 204,218 L 204,219 L 168,219 Z"/>
  <path d="M 207,218 L 245,218 L 245,219 L 207,219 Z"/>
  <path d="M 248,218 L 285,218 L 285,219 L 248,219 Z"/>
  <path d="M 167,219 L 204,219 L 204,220 L 167,220 Z"/>
  <path d="M 207,219 L 245,219 L 245,220 L 207,220 Z"/>
  <path d="M 248,219 L 286,219 L 286,220 L 248,220 Z"/>
  <path d="M 167,220 L 204,220 L 204,221 L 167,221 Z"/>
  <path d="M 207,220 L 245,220 L 245,221 L 207,221 Z"/>
  <path d="M 248,220 L 286,220 L 286,221 L 248,221 Z"/>
  <path d="M 167,221 L 204,221 L 204,222 L 167,222 Z"/>
  <path d="M 207,221 L 245,221 L 245,222 L 207,222 Z"/>
  <path d="M 248,221 L 286,221 L 286,222 L 248,222 Z"/>
  <path d="M 167,222 L 177,222 L 177,223 L 167,223 Z"/>
  <path d="M 194,222 L 204,222 L 204,223 L 194,223 Z"/>
  <path d="M 207,222 L 217,222 L 217,223 L 207,223 Z"/>
  <path d="M 235,222 L 245,222 L 245,223 L 235,223 Z"/>
  <path d="M 248,222 L 258,222 L 258,223 L 248,223 Z"/>
  <path d="M 276,222 L 286,222 L 286,223 L 276,223 Z"/>
  <path d="M 167,223 L 176,223 L 176,224 L 167,224 Z"/>
  <path d="M 195,223 L 204,223 L 204,224 L 195,224 Z"/>
  <path d="M 207,223 L 217,223 L 217,224 L 207,224 Z"/>
  <path d="M 235,223 L 245,223 L 245,224 L 235,224 Z"/>
  <path d="M 248,223 L 258,223 L 258,224 L 248,224 Z"/>
  <path d="M 276,223 L 286,223 L 286,224 L 276,224 Z"/>
  <path d="M 167,224 L 176,224 L 176,225 L 167,225 Z"/>
  <path d="M 195,224 L 204,224 L 204,225 L 195,225 Z"/>
  <path d="M 207,224 L 217,224 L 217,225 L 207,225 Z"/>
  <path d="M 235,224 L 245,224 L 245,225 L 235,225 Z"/>
  <path d="M 248,224 L 258,224 L 258,225 L 248,225 Z"/>
  <path d="M 276,224 L 286,224 L 286,225 L 276,225 Z"/>
  <path d="M 167,225 L 176,225 L 176,226 L 167,226 Z"/>
  <path d="M 195,225 L 204,225 L 204,226 L 195,226 Z"/>
  <path d="M 207,225 L 217,225 L 217,226 L 207,226 Z"/>
  <path d="M 235,225 L 245,225 L 245,226 L 235,226 Z"/>
  <path d="M 248,225 L 258,225 L 258,226 L 248,226 Z"/>
  <path d="M 276,225 L 286,225 L 286,226 L 276,226 Z"/>
  <path d="M 167,226 L 204,226 L 204,227 L 167,227 Z"/>
  <path d="M 207,226 L 217,226 L 217,227 L 207,227 Z"/>
  <path d="M 235,226 L 245,226 L 245,227 L 235,227 Z"/>
  <path d="M 248,226 L 258,226 L 258,227 L 248,227 Z"/>
  <path d="M 276,226 L 286,226 L 286,227 L 276,227 Z"/>
  <path d="M 167,227 L 204,227 L 204,228 L 167,228 Z"/>
  <path d="M 207,227 L 217,227 L 217,228 L 207,228 Z"/>
  <path d="M 235,227 L 245,227 L 245,228 L 235,228 Z"/>
  <path d="M 248,227 L 258,227 L 258,228 L 248,228 Z"/>
  <path d="M 276,227 L 286,227 L 286,228 L 276,228 Z"/>
  <path d="M 167,228 L 204,228 L 204,229 L 167,229 Z"/>
  <path d="M 207,228 L 217,228 L 217,229 L 207,229 Z"/>
  <path d="M 235,228 L 245,228 L 245,229 L 235,229 Z"/>
  <path d="M 248,228 L 258,228 L 258,229 L 248,229 Z"/>
  <path d="M 276,228 L 286,228 L 286,229 L 276,229 Z"/>
  <path d="M 167,229 L 204,229 L 204,230 L 167,230 Z"/>
  <path d="M 207,229 L 217,229 L 217,230 L 207,230 Z"/>
  <path d="M 235,229 L 245,229 L 245,230 L 235,230 Z"/>
  <path d="M 248,229 L 258,229 L 258,230 L 248,230 Z"/>
  <path d="M 276,229 L 286,229 L 286,230 L 276,230 Z"/>
  <path d="M 293,229 L 333,229 L 333,230 L 293,230 Z"/>
  <path d="M 120,230 L 160,230 L 160,231 L 120,231 Z"/>
  <path d="M 167,230 L 204,230 L 204,231 L 167,231 Z"/>
  <path d="M 207,230 L 217,230 L 217,231 L 207,231 Z"/>
  <path d="M 235,230 L 245,230 L 245,231 L 235,231 Z"/>
  <path d="M 248,230 L 258,230 L 258,231 L 248,231 Z"/>
  <path d="M 276,230 L 286,230 L 286,231 L 276,231 Z"/>
  <path d="M 293,230 L 333,230 L 333,231 L 293,231 Z"/>
  <path d="M 120,231 L 160,231 L 160,232 L 120,232 Z"/>
  <path d="M 167,231 L 204,231 L 204,232 L 167,232 Z"/>
  <path d="M 207,231 L 217,231 L 217,232 L 207,232 Z"/>
  <path d="M 235,231 L 245,231 L 245,232 L 235,232 Z"/>
  <path d="M 248,231 L 258,231 L 258,232 L 248,232 Z"/>
  <path d="M 276,231 L 286,231 L 286,232 L 276,232 Z"/>
  <path d="M 293,231 L 333,231 L 333,232 L 293,232 Z"/>
  <path d="M 120,232 L 160,232 L 160,233 L 120,233 Z"/>
  <path d="M 167,232 L 204,232 L 204,233 L 167,233 Z"/>
  <path d="M 207,232 L 217,232 L 217,233 L 207,233 Z"/>
  <path d="M 235,232 L 245,232 L 245,233 L 235,233 Z"/>
  <path d="M 248,232 L 258,232 L 258,233 L 248,233 Z"/>
  <path d="M 276,232 L 286,232 L 286,233 L 276,233 Z"/>
  <path d="M 293,232 L 333,232 L 333,233 L 293,233 Z"/>
  <path d="M 120,233 L 160,233 L 160,234 L 120,234 Z"/>
  <path d="M 167,233 L 177,233 L 177,234 L 167,234 Z"/>
  <path d="M 194,233 L 204,233 L 204,234 L 194,234 Z"/>
  <path d="M 207,233 L 217,233 L 217,234 L 207,234 Z"/>
  <path d="M 235,233 L 245,233 L 245,234 L 235,234 Z"/>
  <path d="M 248,233 L 258,233 L 258,234 L 248,234 Z"/>
  <path d="M 276,233 L 286,233 L 286,234 L 276,234 Z"/>
  <path d="M 293,233 L 333,233 L 333,234 L 293,234 Z"/>
  <path d="M 120,234 L 160,234 L 160,235 L 120,235 Z"/>
  <path d="M 167,234 L 176,234 L 176,235 L 167,235 Z"/>
  <path d="M 195,234 L 204,234 L 204,235 L 195,235 Z"/>
  <path d="M 207,234 L 217,234 L 217,235 L 207,235 Z"/>
  <path d="M 235,234 L 245,234 L 245,235 L 235,235 Z"/>
  <path d="M 248,234 L 258,234 L 258,235 L 248,235 Z"/>
  <path d="M 276,234 L 286,234 L 286,235 L 276,235 Z"/>
  <path d="M 293,234 L 333,234 L 333,235 L 293,235 Z"/>
  <path d="M 120,235 L 160,235 L 160,236 L 120,236 Z"/>
  <path d="M 167,235 L 176,235 L 176,236 L 167,236 Z"/>
  <path d="M 195,235 L 204,235 L 204,236 L 195,236 Z"/>
  <path d="M 207,235 L 217,235 L 217,236 L 207,236 Z"/>
  <path d="M 235,235 L 245,235 L 245,236 L 235,236 Z"/>
  <path d="M 248,235 L 258,235 L 258,236 L 248,236 Z"/>
  <path d="M 276,235 L 286,235 L 286,236 L 276,236 Z"/>
  <path d="M 293,235 L 333,235 L 333,236 L 293,236 Z"/>
  <path d="M 120,236 L 160,236 L 160,237 L 120,237 Z"/>
  <path d="M 167,236 L 176,236 L 176,237 L 167,237 Z"/>
  <path d="M 195,236 L 204,236 L 204,237 L 195,237 Z"/>
  <path d="M 207,236 L 217,236 L 217,237 L 207,237 Z"/>
  <path d="M 235,236 L 245,236 L 245,237 L 235,237 Z"/>
  <path d="M 248,236 L 258,236 L 258,237 L 248,237 Z"/>
  <path d="M 276,236 L 286,236 L 286,237 L 276,237 Z"/>
  <path d="M 293,236 L 333,236 L 333,237 L 293,237 Z"/>
  <path d="M 120,237 L 160,237 L 160,238 L 120,238 Z"/>
  <path d="M 167,237 L 176,237 L 176,238 L 167,238 Z"/>
  <path d="M 195,237 L 204,237 L 204,238 L 195,238 Z"/>
  <path d="M 207,237 L 217,237 L 217,238 L 207,238 Z"/>
  <path d="M 235,237 L 245,237 L 245,238 L 235,238 Z"/>
  <path d="M 248,237 L 258,237 L 258,238 L 248,238 Z"/>
  <path d="M 276,237 L 286,237 L 286,238 L 276,238 Z"/>
  <path d="M 293,237 L 333,237 L 333,238 L 293,238 Z"/>
  <path d="M 120,238 L 160,238 L 160,239 L 120,239 Z"/>
  <path d="M 167,238 L 176,238 L 176,239 L 167,239 Z"/>
  <path d="M 195,238 L 204,238 L 204,239 L 195,239 Z"/>
  <path d="M 207,238 L 217,238 L 217,239 L 207,239 Z"/>
  <path d="M 235,238 L 245,238 L 245,239 L 235,239 Z"/>
  <path d="M 248,238 L 258,238 L 258,239 L 248,239 Z"/>
  <path d="M 276,238 L 286,238 L 286,239 L 276,239 Z"/>
  <path d="M 293,238 L 333,238 L 333,239 L 293,239 Z"/>
  <path d="M 120,239 L 160,239 L 160,240 L 120,240 Z"/>
  <path d="M 167,239 L 176,239 L 176,240 L 167,240 Z"/>
  <path d="M 195,239 L 204,239 L 204,240 L 195,240 Z"/>
  <path d="M 207,239 L 217,239 L 217,240 L 207,240 Z"/>
  <path d="M 235,239 L 245,239 L 245,240 L 235,240 Z"/>
  <path d="M 248,239 L 258,239 L 258,240 L 248,240 Z"/>
  <path d="M 276,239 L 286,239 L 286,240 L 276,240 Z"/>
  <path d="M 293,239 L 333,239 L 333,240 L 293,240 Z"/>
  <path d="M 120,240 L 160,240 L 160,241 L 120,241 Z"/>
  <path d="M 167,240 L 176,240 L 176,241 L 167,241 Z"/>
  <path d="M 195,240 L 204,240 L 204,241 L 195,241 Z"/>
  <path d="M 207,240 L 217,240 L 217,241 L 207,241 Z"/>
  <path d="M 235,240 L 245,240 L 245,241 L 235,241 Z"/>
  <path d="M 248,240 L 258,240 L 258,241 L 248,241 Z"/>
  <path d="M 276,240 L 286,240 L 286,241 L 276,241 Z"/>
  <path d="M 293,240 L 333,240 L 333,241 L 293,241 Z"/>
  <path d="M 120,241 L 160,241 L 160,242 L 120,242 Z"/>
  <path d="M 167,241 L 176,241 L 176,242 L 167,242 Z"/>
  <path d="M 195,241 L 204,241 L 204,242 L 195,242 Z"/>
  <path d="M 207,241 L 217,241 L 217,242 L 207,242 Z"/>
  <path d="M 235,241 L 245,241 L 245,242 L 235,242 Z"/>
  <path d="M 248,241 L 286,241 L 286,242 L 248,242 Z"/>
  <path d="M 293,241 L 333,241 L 333,242 L 293,242 Z"/>
  <path d="M 120,242 L 160,242 L 160,243 L 120,243 Z"/>
  <path d="M 167,242 L 176,242 L 176,243 L 167,243 Z"/>
  <path d="M 195,242 L 204,242 L 204,243 L 195,243 Z"/>
  <path d="M 207,242 L 217,242 L 217,243 L 207,243 Z"/>
  <path d="M 235,242 L 245,242 L 245,243 L 235,243 Z"/>
  <path d="M 248,242 L 286,242 L 286,243 L 248,243 Z"/>
  <path d="M 293,242 L 333,242 L 333,243 L 293,243 Z"/>
  <path d="M 120,243 L 160,243 L 160,244 L 120,244 Z"/>
  <path d="M 167,243 L 176,243 L 176,244 L 167,244 Z"/>
  <path d="M 195,243 L 204,243 L 204,244 L 195,244 Z"/>
  <path d="M 207,243 L 217,243 L 217,244 L 207,244 Z"/>
  <path d="M 235,243 L 245,243 L 245,244 L 235,244 Z"/>
  <path d="M 248,243 L 285,243 L 285,244 L 248,244 Z"/>
  <path d="M 293,243 L 333,243 L 333,244 L 293,244 Z"/>
  <path d="M 120,244 L 160,244 L 160,245 L 120,245 Z"/>
  <path d="M 167,244 L 176,244 L 176,245 L 167,245 Z"/>
  <path d="M 195,244 L 204,244 L 204,245 L 195,245 Z"/>
  <path d="M 207,244 L 217,244 L 217,245 L 207,245 Z"/>
  <path d="M 235,244 L 245,244 L 245,245 L 235,245 Z"/>
  <path d="M 248,244 L 285,244 L 285,245 L 248,245 Z"/>
  <path d="M 293,244 L 333,244 L 333,245 L 293,245 Z"/>
  <path d="M 120,245 L 160,245 L 160,246 L 120,246 Z"/>
  <path d="M 167,245 L 176,245 L 176,246 L 167,246 Z"/>
  <path d="M 195,245 L 204,245 L 204,246 L 195,246 Z"/>
  <path d="M 207,245 L 217,245 L 217,246 L 207,246 Z"/>
  <path d="M 235,245 L 245,245 L 245,246 L 235,246 Z"/>
  <path d="M 248,245 L 284,245 L 284,246 L 248,246 Z"/>
  <path d="M 293,245 L 333,245 L 333,246 L 293,246 Z"/>
  <path d="M 120,246 L 160,246 L 160,247 L 120,247 Z"/>
  <path d="M 167,246 L 176,246 L 176,247 L 167,247 Z"/>
  <path d="M 195,246 L 204,246 L 204,247 L 195,247 Z"/>
  <path d="M 207,246 L 217,246 L 217,247 L 207,247 Z"/>
  <path d="M 235,246 L 245,246 L 245,247 L 235,247 Z"/>
  <path d="M 248,246 L 282,246 L 282,247 L 248,247 Z"/>
  <path d="M 293,246 L 333,246 L 333,247 L 293,247 Z"/>
  <path d="M 120,247 L 160,247 L 160,248 L 120,248 Z"/>
  <path d="M 167,247 L 176,247 L 176,248 L 167,248 Z"/>
  <path d="M 195,247 L 204,247 L 204,248 L 195,248 Z"/>
  <path d="M 208,247 L 217,247 L 217,248 L 208,248 Z"/>
  <path d="M 236,247 L 245,247 L 245,248 L 236,248 Z"/>
  <path d="M 249,247 L 279,247 L 279,248 L 249,248 Z"/>
  <path d="M 276,254 L 288,254 L 288,255 L 276,255 Z"/>
  <path d="M 50,255 L 65,255 L 65,256 L 50,256 Z"/>
  <path d="M 163,255 L 168,255 L 168,256 L 163,256 Z"/>
  <path d="M 202,255 L 206,255 L 206,256 L 202,256 Z"/>
  <path d="M 276,255 L 300,255 L 300,256 L 276,256 Z"/>
  <path d="M 332,255 L 347,255 L 347,256 L 332,256 Z"/>
  <path d="M 389,255 L 394,255 L 394,256 L 389,256 Z"/>
  <path d="M 50,256 L 84,256 L 84,257 L 50,257 Z"/>
  <path d="M 163,256 L 174,256 L 174,257 L 163,257 Z"/>
  <path d="M 202,256 L 212,256 L 212,257 L 202,257 Z"/>
  <path d="M 276,256 L 313,256 L 313,257 L 276,257 Z"/>
  <path d="M 332,256 L 366,256 L 366,257 L 332,257 Z"/>
  <path d="M 389,256 L 400,256 L 400,257 L 389,257 Z"/>
  <path d="M 50,257 L 97,257 L 97,258 L 50,258 Z"/>
  <path d="M 115,257 L 159,257 L 159,258 L 115,258 Z"/>
  <path d="M 163,257 L 177,257 L 177,258 L 163,258 Z"/>
  <path d="M 202,257 L 215,257 L 215,258 L 202,258 Z"/>
  <path d="M 228,257 L 266,257 L 266,258 L 228,258 Z"/>
  <path d="M 276,257 L 322,257 L 322,258 L 276,258 Z"/>
  <path d="M 332,257 L 379,257 L 379,258 L 332,258 Z"/>
  <path d="M 389,257 L 402,257 L 402,258 L 389,258 Z"/>
  <path d="M 50,258 L 99,258 L 99,259 L 50,259 Z"/>
  <path d="M 112,258 L 159,258 L 159,259 L 112,259 Z"/>
  <path d="M 163,258 L 177,258 L 177,259 L 163,259 Z"/>
  <path d="M 202,258 L 215,258 L 215,259 L 202,259 Z"/>
  <path d="M 225,258 L 268,258 L 268,259 L 225,259 Z"/>
  <path d="M 276,258 L 324,258 L 324,259 L 276,259 Z"/>
  <path d="M 332,258 L 381,258 L 381,259 L 332,259 Z"/>
  <path d="M 389,258 L 402,258 L 402,259 L 389,259 Z"/>
  <path d="M 50,259 L 100,259 L 100,260 L 50,260 Z"/>
  <path d="M 111,259 L 159,259 L 159,260 L 111,260 Z"/>
  <path d="M 163,259 L 177,259 L 177,260 L 163,260 Z"/>
  <path d="M 202,259 L 215,259 L 215,260 L 202,260 Z"/>
  <path d="M 223,259 L 269,259 L 269,260 L 223,260 Z"/>
  <path d="M 276,259 L 326,259 L 326,260 L 276,260 Z"/>
  <path d="M 332,259 L 382,259 L 382,260 L 332,260 Z"/>
  <path d="M 389,259 L 402,259 L 402,260 L 389,260 Z"/>
  <path d="M 50,260 L 101,260 L 101,261 L 50,261 Z"/>
  <path d="M 109,260 L 159,260 L 159,261 L 109,261 Z"/>
  <path d="M 163,260 L 177,260 L 177,261 L 163,261 Z"/>
  <path d="M 202,260 L 215,260 L 215,261 L 202,261 Z"/>
  <path d="M 222,260 L 270,260 L 270,261 L 222,261 Z"/>
  <path d="M 276,260 L 326,260 L 326,261 L 276,261 Z"/>
  <path d="M 332,260 L 383,260 L 383,261 L 332,261 Z"/>
  <path d="M 389,260 L 402,260 L 402,261 L 389,261 Z"/>
  <path d="M 50,261 L 102,261 L 102,262 L 50,262 Z"/>
  <path d="M 108,261 L 159,261 L 159,262 L 108,262 Z"/>
  <path d="M 163,261 L 177,261 L 177,262 L 163,262 Z"/>
  <path d="M 202,261 L 215,261 L 215,262 L 202,262 Z"/>
  <path d="M 221,261 L 271,261 L 271,262 L 221,262 Z"/>
  <path d="M 276,261 L 327,261 L 327,262 L 276,262 Z"/>
  <path d="M 332,261 L 383,261 L 383,262 L 332,262 Z"/>
  <path d="M 389,261 L 402,261 L 402,262 L 389,262 Z"/>
  <path d="M 50,262 L 102,262 L 102,263 L 50,263 Z"/>
  <path d="M 108,262 L 159,262 L 159,263 L 108,263 Z"/>
  <path d="M 163,262 L 177,262 L 177,263 L 163,263 Z"/>
  <path d="M 202,262 L 215,262 L 215,263 L 202,263 Z"/>
  <path d="M 220,262 L 271,262 L 271,263 L 220,263 Z"/>
  <path d="M 276,262 L 328,262 L 328,263 L 276,263 Z"/>
  <path d="M 332,262 L 384,262 L 384,263 L 332,263 Z"/>
  <path d="M 389,262 L 402,262 L 402,263 L 389,263 Z"/>
  <path d="M 50,263 L 102,263 L 102,264 L 50,264 Z"/>
  <path d="M 107,263 L 159,263 L 159,264 L 107,264 Z"/>
  <path d="M 163,263 L 177,263 L 177,264 L 163,264 Z"/>
  <path d="M 202,263 L 215,263 L 215,264 L 202,264 Z"/>
  <path d="M 220,263 L 271,263 L 271,264 L 220,264 Z"/>
  <path d="M 276,263 L 328,263 L 328,264 L 276,264 Z"/>
  <path d="M 332,263 L 384,263 L 384,264 L 332,264 Z"/>
  <path d="M 389,263 L 402,263 L 402,264 L 389,264 Z"/>
  <path d="M 50,264 L 103,264 L 103,265 L 50,265 Z"/>
  <path d="M 107,264 L 159,264 L 159,265 L 107,265 Z"/>
  <path d="M 163,264 L 177,264 L 177,265 L 163,265 Z"/>
  <path d="M 202,264 L 215,264 L 215,265 L 202,265 Z"/>
  <path d="M 220,264 L 272,264 L 272,265 L 220,265 Z"/>
  <path d="M 276,264 L 328,264 L 328,265 L 276,265 Z"/>
  <path d="M 332,264 L 384,264 L 384,265 L 332,265 Z"/>
  <path d="M 389,264 L 402,264 L 402,265 L 389,265 Z"/>
  <path d="M 50,265 L 64,265 L 64,266 L 50,266 Z"/>
  <path d="M 89,265 L 103,265 L 103,266 L 89,266 Z"/>
  <path d="M 107,265 L 159,265 L 159,266 L 107,266 Z"/>
  <path d="M 163,265 L 177,265 L 177,266 L 163,266 Z"/>
  <path d="M 202,265 L 215,265 L 215,266 L 202,266 Z"/>
  <path d="M 220,265 L 272,265 L 272,266 L 220,266 Z"/>
  <path d="M 276,265 L 328,265 L 328,266 L 276,266 Z"/>
  <path d="M 332,265 L 384,265 L 384,266 L 332,266 Z"/>
  <path d="M 389,265 L 402,265 L 402,266 L 389,266 Z"/>
  <path d="M 50,266 L 64,266 L 64,267 L 50,267 Z"/>
  <path d="M 89,266 L 103,266 L 103,267 L 89,267 Z"/>
  <path d="M 107,266 L 159,266 L 159,267 L 107,267 Z"/>
  <path d="M 163,266 L 177,266 L 177,267 L 163,267 Z"/>
  <path d="M 202,266 L 215,266 L 215,267 L 202,267 Z"/>
  <path d="M 219,266 L 272,266 L 272,267 L 219,267 Z"/>
  <path d="M 276,266 L 328,266 L 328,267 L 276,267 Z"/>
  <path d="M 332,266 L 384,266 L 384,267 L 332,267 Z"/>
  <path d="M 389,266 L 402,266 L 402,267 L 389,267 Z"/>
  <path d="M 50,267 L 64,267 L 64,268 L 50,268 Z"/>
  <path d="M 89,267 L 103,267 L 103,268 L 89,268 Z"/>
  <path d="M 107,267 L 120,267 L 120,268 L 107,268 Z"/>
  <path d="M 163,267 L 177,267 L 177,268 L 163,268 Z"/>
  <path d="M 202,267 L 215,267 L 215,268 L 202,268 Z"/>
  <path d="M 219,267 L 233,267 L 233,268 L 219,268 Z"/>
  <path d="M 258,267 L 272,267 L 272,268 L 258,268 Z"/>
  <path d="M 276,267 L 289,267 L 289,268 L 276,268 Z"/>
  <path d="M 314,267 L 328,267 L 328,268 L 314,268 Z"/>
  <path d="M 332,267 L 346,267 L 346,268 L 332,268 Z"/>
  <path d="M 371,267 L 384,267 L 384,268 L 371,268 Z"/>
  <path d="M 389,267 L 402,267 L 402,268 L 389,268 Z"/>
  <path d="M 50,268 L 64,268 L 64,269 L 50,269 Z"/>
  <path d="M 89,268 L 103,268 L 103,269 L 89,269 Z"/>
  <path d="M 107,268 L 120,268 L 120,269 L 107,269 Z"/>
  <path d="M 163,268 L 177,268 L 177,269 L 163,269 Z"/>
  <path d="M 202,268 L 215,268 L 215,269 L 202,269 Z"/>
  <path d="M 219,268 L 233,268 L 233,269 L 219,269 Z"/>
  <path d="M 258,268 L 272,268 L 272,269 L 258,269 Z"/>
  <path d="M 276,268 L 289,268 L 289,269 L 276,269 Z"/>
  <path d="M 314,268 L 328,268 L 328,269 L 314,269 Z"/>
  <path d="M 332,268 L 346,268 L 346,269 L 332,269 Z"/>
  <path d="M 371,268 L 384,268 L 384,269 L 371,269 Z"/>
  <path d="M 389,268 L 402,268 L 402,269 L 389,269 Z"/>
  <path d="M 50,269 L 64,269 L 64,270 L 50,270 Z"/>
  <path d="M 88,269 L 102,269 L 102,270 L 88,270 Z"/>
  <path d="M 107,269 L 120,269 L 120,270 L 107,270 Z"/>
  <path d="M 163,269 L 177,269 L 177,270 L 163,270 Z"/>
  <path d="M 202,269 L 215,269 L 215,270 L 202,270 Z"/>
  <path d="M 219,269 L 233,269 L 233,270 L 219,270 Z"/>
  <path d="M 258,269 L 272,269 L 272,270 L 258,270 Z"/>
  <path d="M 276,269 L 289,269 L 289,270 L 276,270 Z"/>
  <path d="M 315,269 L 328,269 L 328,270 L 315,270 Z"/>
  <path d="M 332,269 L 346,269 L 346,270 L 332,270 Z"/>
  <path d="M 371,269 L 384,269 L 384,270 L 371,270 Z"/>
  <path d="M 389,269 L 402,269 L 402,270 L 389,270 Z"/>
  <path d="M 50,270 L 102,270 L 102,271 L 50,271 Z"/>
  <path d="M 107,270 L 120,270 L 120,271 L 107,271 Z"/>
  <path d="M 163,270 L 177,270 L 177,271 L 163,271 Z"/>
  <path d="M 202,270 L 215,270 L 215,271 L 202,271 Z"/>
  <path d="M 219,270 L 233,270 L 233,271 L 219,271 Z"/>
  <path d="M 258,270 L 272,270 L 272,271 L 258,271 Z"/>
  <path d="M 276,270 L 289,270 L 289,271 L 276,271 Z"/>
  <path d="M 315,270 L 328,270 L 328,271 L 315,271 Z"/>
  <path d="M 332,270 L 346,270 L 346,271 L 332,271 Z"/>
  <path d="M 371,270 L 384,270 L 384,271 L 371,271 Z"/>
  <path d="M 389,270 L 402,270 L 402,271 L 389,271 Z"/>
  <path d="M 50,271 L 102,271 L 102,272 L 50,272 Z"/>
  <path d="M 107,271 L 120,271 L 120,272 L 107,272 Z"/>
  <path d="M 163,271 L 177,271 L 177,272 L 163,272 Z"/>
  <path d="M 202,271 L 215,271 L 215,272 L 202,272 Z"/>
  <path d="M 219,271 L 233,271 L 233,272 L 219,272 Z"/>
  <path d="M 258,271 L 272,271 L 272,272 L 258,272 Z"/>
  <path d="M 276,271 L 289,271 L 289,272 L 276,272 Z"/>
  <path d="M 315,271 L 328,271 L 328,272 L 315,272 Z"/>
  <path d="M 332,271 L 346,271 L 346,272 L 332,272 Z"/>
  <path d="M 371,271 L 384,271 L 384,272 L 371,272 Z"/>
  <path d="M 389,271 L 402,271 L 402,272 L 389,272 Z"/>
  <path d="M 50,272 L 102,272 L 102,273 L 50,273 Z"/>
  <path d="M 107,272 L 120,272 L 120,273 L 107,273 Z"/>
  <path d="M 163,272 L 177,272 L 177,273 L 163,273 Z"/>
  <path d="M 202,272 L 215,272 L 215,273 L 202,273 Z"/>
  <path d="M 219,272 L 233,272 L 233,273 L 219,273 Z"/>
  <path d="M 258,272 L 272,272 L 272,273 L 258,273 Z"/>
  <path d="M 276,272 L 289,272 L 289,273 L 276,273 Z"/>
  <path d="M 315,272 L 328,272 L 328,273 L 315,273 Z"/>
  <path d="M 332,272 L 346,272 L 346,273 L 332,273 Z"/>
  <path d="M 371,272 L 384,272 L 384,273 L 371,273 Z"/>
  <path d="M 389,272 L 402,272 L 402,273 L 389,273 Z"/>
  <path d="M 50,273 L 101,273 L 101,274 L 50,274 Z"/>
  <path d="M 107,273 L 120,273 L 120,274 L 107,274 Z"/>
  <path d="M 163,273 L 177,273 L 177,274 L 163,274 Z"/>
  <path d="M 202,273 L 215,273 L 215,274 L 202,274 Z"/>
  <path d="M 219,273 L 233,273 L 233,274 L 219,274 Z"/>
  <path d="M 258,273 L 272,273 L 272,274 L 258,274 Z"/>
  <path d="M 276,273 L 289,273 L 289,274 L 276,274 Z"/>
  <path d="M 315,273 L 328,273 L 328,274 L 315,274 Z"/>
  <path d="M 332,273 L 346,273 L 346,274 L 332,274 Z"/>
  <path d="M 371,273 L 384,273 L 384,274 L 371,274 Z"/>
  <path d="M 389,273 L 402,273 L 402,274 L 389,274 Z"/>
  <path d="M 50,274 L 101,274 L 101,275 L 50,275 Z"/>
  <path d="M 107,274 L 121,274 L 121,275 L 107,275 Z"/>
  <path d="M 163,274 L 177,274 L 177,275 L 163,275 Z"/>
  <path d="M 202,274 L 215,274 L 215,275 L 202,275 Z"/>
  <path d="M 219,274 L 233,274 L 233,275 L 219,275 Z"/>
  <path d="M 258,274 L 272,274 L 272,275 L 258,275 Z"/>
  <path d="M 276,274 L 289,274 L 289,275 L 276,275 Z"/>
  <path d="M 315,274 L 328,274 L 328,275 L 315,275 Z"/>
  <path d="M 332,274 L 346,274 L 346,275 L 332,275 Z"/>
  <path d="M 371,274 L 384,274 L 384,275 L 371,275 Z"/>
  <path d="M 389,274 L 402,274 L 402,275 L 389,275 Z"/>
  <path d="M 50,275 L 100,275 L 100,276 L 50,276 Z"/>
  <path d="M 107,275 L 155,275 L 155,276 L 107,276 Z"/>
  <path d="M 163,275 L 177,275 L 177,276 L 163,276 Z"/>
  <path d="M 202,275 L 215,275 L 215,276 L 202,276 Z"/>
  <path d="M 219,275 L 233,275 L 233,276 L 219,276 Z"/>
  <path d="M 258,275 L 272,275 L 272,276 L 258,276 Z"/>
  <path d="M 276,275 L 289,275 L 289,276 L 276,276 Z"/>
  <path d="M 315,275 L 328,275 L 328,276 L 315,276 Z"/>
  <path d="M 332,275 L 346,275 L 346,276 L 332,276 Z"/>
  <path d="M 371,275 L 384,275 L 384,276 L 371,276 Z"/>
  <path d="M 389,275 L 402,275 L 402,276 L 389,276 Z"/>
  <path d="M 50,276 L 99,276 L 99,277 L 50,277 Z"/>
  <path d="M 107,276 L 155,276 L 155,277 L 107,277 Z"/>
  <path d="M 163,276 L 215,276 L 215,277 L 163,277 Z"/>
  <path d="M 219,276 L 233,276 L 233,277 L 219,277 Z"/>
  <path d="M 258,276 L 272,276 L 272,277 L 258,277 Z"/>
  <path d="M 276,276 L 289,276 L 289,277 L 276,277 Z"/>
  <path d="M 315,276 L 328,276 L 328,277 L 315,277 Z"/>
  <path d="M 332,276 L 346,276 L 346,277 L 332,277 Z"/>
  <path d="M 371,276 L 384,276 L 384,277 L 371,277 Z"/>
  <path d="M 389,276 L 402,276 L 402,277 L 389,277 Z"/>
  <path d="M 50,277 L 98,277 L 98,278 L 50,278 Z"/>
  <path d="M 107,277 L 155,277 L 155,278 L 107,278 Z"/>
  <path d="M 163,277 L 215,277 L 215,278 L 163,278 Z"/>
  <path d="M 219,277 L 233,277 L 233,278 L 219,278 Z"/>
  <path d="M 258,277 L 272,277 L 272,278 L 258,278 Z"/>
  <path d="M 276,277 L 289,277 L 289,278 L 276,278 Z"/>
  <path d="M 315,277 L 328,277 L 328,278 L 315,278 Z"/>
  <path d="M 332,277 L 346,277 L 346,278 L 332,278 Z"/>
  <path d="M 371,277 L 384,277 L 384,278 L 371,278 Z"/>
  <path d="M 389,277 L 402,277 L 402,278 L 389,278 Z"/>
  <path d="M 50,278 L 100,278 L 100,279 L 50,279 Z"/>
  <path d="M 107,278 L 155,278 L 155,279 L 107,279 Z"/>
  <path d="M 163,278 L 215,278 L 215,279 L 163,279 Z"/>
  <path d="M 220,278 L 233,278 L 233,279 L 220,279 Z"/>
  <path d="M 258,278 L 272,278 L 272,279 L 258,279 Z"/>
  <path d="M 276,278 L 289,278 L 289,279 L 276,279 Z"/>
  <path d="M 315,278 L 328,278 L 328,279 L 315,279 Z"/>
  <path d="M 332,278 L 346,278 L 346,279 L 332,279 Z"/>
  <path d="M 371,278 L 384,278 L 384,279 L 371,279 Z"/>
  <path d="M 389,278 L 402,278 L 402,279 L 389,279 Z"/>
  <path d="M 50,279 L 101,279 L 101,280 L 50,280 Z"/>
  <path d="M 107,279 L 155,279 L 155,280 L 107,280 Z"/>
  <path d="M 163,279 L 215,279 L 215,280 L 163,280 Z"/>
  <path d="M 220,279 L 233,279 L 233,280 L 220,280 Z"/>
  <path d="M 258,279 L 272,279 L 272,280 L 258,280 Z"/>
  <path d="M 276,279 L 289,279 L 289,280 L 276,280 Z"/>
  <path d="M 315,279 L 328,279 L 328,280 L 315,280 Z"/>
  <path d="M 332,279 L 346,279 L 346,280 L 332,280 Z"/>
  <path d="M 371,279 L 384,279 L 384,280 L 371,280 Z"/>
  <path d="M 389,279 L 402,279 L 402,280 L 389,280 Z"/>
  <path d="M 50,280 L 101,280 L 101,281 L 50,281 Z"/>
  <path d="M 107,280 L 155,280 L 155,281 L 107,281 Z"/>
  <path d="M 164,280 L 215,280 L 215,281 L 164,281 Z"/>
  <path d="M 219,280 L 233,280 L 233,281 L 219,281 Z"/>
  <path d="M 258,280 L 272,280 L 272,281 L 258,281 Z"/>
  <path d="M 276,280 L 289,280 L 289,281 L 276,281 Z"/>
  <path d="M 315,280 L 328,280 L 328,281 L 315,281 Z"/>
  <path d="M 332,280 L 346,280 L 346,281 L 332,281 Z"/>
  <path d="M 371,280 L 384,280 L 384,281 L 371,281 Z"/>
  <path d="M 389,280 L 401,280 L 401,281 L 389,281 Z"/>
  <path d="M 50,281 L 102,281 L 102,282 L 50,282 Z"/>
  <path d="M 107,281 L 155,281 L 155,282 L 107,282 Z"/>
  <path d="M 164,281 L 214,281 L 214,282 L 164,282 Z"/>
  <path d="M 219,281 L 233,281 L 233,282 L 219,282 Z"/>
  <path d="M 258,281 L 272,281 L 272,282 L 258,282 Z"/>
  <path d="M 276,281 L 289,281 L 289,282 L 276,282 Z"/>
  <path d="M 315,281 L 328,281 L 328,282 L 315,282 Z"/>
  <path d="M 332,281 L 346,281 L 346,282 L 332,282 Z"/>
  <path d="M 371,281 L 384,281 L 384,282 L 371,282 Z"/>
  <path d="M 389,281 L 401,281 L 401,282 L 389,282 Z"/>
  <path d="M 50,282 L 102,282 L 102,283 L 50,283 Z"/>
  <path d="M 107,282 L 155,282 L 155,283 L 107,283 Z"/>
  <path d="M 165,282 L 214,282 L 214,283 L 165,283 Z"/>
  <path d="M 219,282 L 233,282 L 233,283 L 219,283 Z"/>
  <path d="M 258,282 L 272,282 L 272,283 L 258,283 Z"/>
  <path d="M 276,282 L 289,282 L 289,283 L 276,283 Z"/>
  <path d="M 315,282 L 328,282 L 328,283 L 315,283 Z"/>
  <path d="M 332,282 L 346,282 L 346,283 L 332,283 Z"/>
  <path d="M 371,282 L 384,282 L 384,283 L 371,283 Z"/>
  <path d="M 389,282 L 401,282 L 401,283 L 389,283 Z"/>
  <path d="M 50,283 L 64,283 L 64,284 L 50,284 Z"/>
  <path d="M 86,283 L 102,283 L 102,284 L 86,284 Z"/>
  <path d="M 107,283 L 155,283 L 155,284 L 107,284 Z"/>
  <path d="M 166,283 L 213,283 L 213,284 L 166,284 Z"/>
  <path d="M 219,283 L 233,283 L 233,284 L 219,284 Z"/>
  <path d="M 258,283 L 272,283 L 272,284 L 258,284 Z"/>
  <path d="M 276,283 L 289,283 L 289,284 L 276,284 Z"/>
  <path d="M 315,283 L 328,283 L 328,284 L 315,284 Z"/>
  <path d="M 332,283 L 346,283 L 346,284 L 332,284 Z"/>
  <path d="M 371,283 L 384,283 L 384,284 L 371,284 Z"/>
  <path d="M 389,283 L 401,283 L 401,284 L 389,284 Z"/>
  <path d="M 50,284 L 64,284 L 64,285 L 50,285 Z"/>
  <path d="M 88,284 L 102,284 L 102,285 L 88,285 Z"/>
  <path d="M 107,284 L 121,284 L 121,285 L 107,285 Z"/>
  <path d="M 167,284 L 211,284 L 211,285 L 167,285 Z"/>
  <path d="M 220,284 L 233,284 L 233,285 L 220,285 Z"/>
  <path d="M 258,284 L 272,284 L 272,285 L 258,285 Z"/>
  <path d="M 276,284 L 289,284 L 289,285 L 276,285 Z"/>
  <path d="M 315,284 L 328,284 L 328,285 L 315,285 Z"/>
  <path d="M 332,284 L 346,284 L 346,285 L 332,285 Z"/>
  <path d="M 371,284 L 384,284 L 384,285 L 371,285 Z"/>
  <path d="M 389,284 L 401,284 L 401,285 L 389,285 Z"/>
  <path d="M 50,285 L 64,285 L 64,286 L 50,286 Z"/>
  <path d="M 88,285 L 103,285 L 103,286 L 88,286 Z"/>
  <path d="M 107,285 L 120,285 L 120,286 L 107,286 Z"/>
  <path d="M 169,285 L 209,285 L 209,286 L 169,286 Z"/>
  <path d="M 219,285 L 233,285 L 233,286 L 219,286 Z"/>
  <path d="M 258,285 L 272,285 L 272,286 L 258,286 Z"/>
  <path d="M 276,285 L 289,285 L 289,286 L 276,286 Z"/>
  <path d="M 315,285 L 328,285 L 328,286 L 315,286 Z"/>
  <path d="M 332,285 L 346,285 L 346,286 L 332,286 Z"/>
  <path d="M 371,285 L 384,285 L 384,286 L 371,286 Z"/>
  <path d="M 389,285 L 401,285 L 401,286 L 389,286 Z"/>
  <path d="M 50,286 L 64,286 L 64,287 L 50,287 Z"/>
  <path d="M 89,286 L 103,286 L 103,287 L 89,287 Z"/>
  <path d="M 107,286 L 120,286 L 120,287 L 107,287 Z"/>
  <path d="M 182,286 L 196,286 L 196,287 L 182,287 Z"/>
  <path d="M 219,286 L 233,286 L 233,287 L 219,287 Z"/>
  <path d="M 258,286 L 272,286 L 272,287 L 258,287 Z"/>
  <path d="M 276,286 L 289,286 L 289,287 L 276,287 Z"/>
  <path d="M 315,286 L 328,286 L 328,287 L 315,287 Z"/>
  <path d="M 332,286 L 346,286 L 346,287 L 332,287 Z"/>
  <path d="M 371,286 L 384,286 L 384,287 L 371,287 Z"/>
  <path d="M 50,287 L 64,287 L 64,288 L 50,288 Z"/>
  <path d="M 89,287 L 102,287 L 102,288 L 89,288 Z"/>
  <path d="M 107,287 L 120,287 L 120,288 L 107,288 Z"/>
  <path d="M 182,287 L 196,287 L 196,288 L 182,288 Z"/>
  <path d="M 219,287 L 233,287 L 233,288 L 219,288 Z"/>
  <path d="M 258,287 L 272,287 L 272,288 L 258,288 Z"/>
  <path d="M 276,287 L 289,287 L 289,288 L 276,288 Z"/>
  <path d="M 314,287 L 328,287 L 328,288 L 314,288 Z"/>
  <path d="M 332,287 L 346,287 L 346,288 L 332,288 Z"/>
  <path d="M 371,287 L 384,287 L 384,288 L 371,288 Z"/>
  <path d="M 50,288 L 64,288 L 64,289 L 50,289 Z"/>
  <path d="M 89,288 L 102,288 L 102,289 L 89,289 Z"/>
  <path d="M 107,288 L 120,288 L 120,289 L 107,289 Z"/>
  <path d="M 182,288 L 196,288 L 196,289 L 182,289 Z"/>
  <path d="M 219,288 L 233,288 L 233,289 L 219,289 Z"/>
  <path d="M 258,288 L 272,288 L 272,289 L 258,289 Z"/>
  <path d="M 276,288 L 289,288 L 289,289 L 276,289 Z"/>
  <path d="M 315,288 L 328,288 L 328,289 L 315,289 Z"/>
  <path d="M 332,288 L 346,288 L 346,289 L 332,289 Z"/>
  <path d="M 371,288 L 384,288 L 384,289 L 371,289 Z"/>
  <path d="M 50,289 L 64,289 L 64,290 L 50,290 Z"/>
  <path d="M 89,289 L 103,289 L 103,290 L 89,290 Z"/>
  <path d="M 107,289 L 120,289 L 120,290 L 107,290 Z"/>
  <path d="M 183,289 L 196,289 L 196,290 L 183,290 Z"/>
  <path d="M 219,289 L 233,289 L 233,290 L 219,290 Z"/>
  <path d="M 258,289 L 272,289 L 272,290 L 258,290 Z"/>
  <path d="M 276,289 L 289,289 L 289,290 L 276,290 Z"/>
  <path d="M 315,289 L 328,289 L 328,290 L 315,290 Z"/>
  <path d="M 332,289 L 346,289 L 346,290 L 332,290 Z"/>
  <path d="M 371,289 L 384,289 L 384,290 L 371,290 Z"/>
  <path d="M 50,290 L 64,290 L 64,291 L 50,291 Z"/>
  <path d="M 89,290 L 102,290 L 102,291 L 89,291 Z"/>
  <path d="M 107,290 L 120,290 L 120,291 L 107,291 Z"/>
  <path d="M 183,290 L 196,290 L 196,291 L 183,291 Z"/>
  <path d="M 219,290 L 233,290 L 233,291 L 219,291 Z"/>
  <path d="M 258,290 L 272,290 L 272,291 L 258,291 Z"/>
  <path d="M 276,290 L 289,290 L 289,291 L 276,291 Z"/>
  <path d="M 315,290 L 328,290 L 328,291 L 315,291 Z"/>
  <path d="M 332,290 L 346,290 L 346,291 L 332,291 Z"/>
  <path d="M 371,290 L 384,290 L 384,291 L 371,291 Z"/>
  <path d="M 50,291 L 64,291 L 64,292 L 50,292 Z"/>
  <path d="M 89,291 L 102,291 L 102,292 L 89,292 Z"/>
  <path d="M 107,291 L 120,291 L 120,292 L 107,292 Z"/>
  <path d="M 183,291 L 196,291 L 196,292 L 183,292 Z"/>
  <path d="M 219,291 L 233,291 L 233,292 L 219,292 Z"/>
  <path d="M 258,291 L 272,291 L 272,292 L 258,292 Z"/>
  <path d="M 276,291 L 289,291 L 289,292 L 276,292 Z"/>
  <path d="M 315,291 L 328,291 L 328,292 L 315,292 Z"/>
  <path d="M 332,291 L 346,291 L 346,292 L 332,292 Z"/>
  <path d="M 371,291 L 384,291 L 384,292 L 371,292 Z"/>
  <path d="M 50,292 L 64,292 L 64,293 L 50,293 Z"/>
  <path d="M 89,292 L 102,292 L 102,293 L 89,293 Z"/>
  <path d="M 107,292 L 122,292 L 122,293 L 107,293 Z"/>
  <path d="M 183,292 L 196,292 L 196,293 L 183,293 Z"/>
  <path d="M 219,292 L 235,292 L 235,293 L 219,293 Z"/>
  <path d="M 258,292 L 272,292 L 272,293 L 258,293 Z"/>
  <path d="M 276,292 L 289,292 L 289,293 L 276,293 Z"/>
  <path d="M 315,292 L 328,292 L 328,293 L 315,293 Z"/>
  <path d="M 332,292 L 369,292 L 369,293 L 332,293 Z"/>
  <path d="M 370,292 L 384,292 L 384,293 L 370,293 Z"/>
  <path d="M 50,293 L 64,293 L 64,294 L 50,294 Z"/>
  <path d="M 89,293 L 103,293 L 103,294 L 89,294 Z"/>
  <path d="M 107,293 L 159,293 L 159,294 L 107,294 Z"/>
  <path d="M 183,293 L 196,293 L 196,294 L 183,294 Z"/>
  <path d="M 219,293 L 272,293 L 272,294 L 219,294 Z"/>
  <path d="M 276,293 L 289,293 L 289,294 L 276,294 Z"/>
  <path d="M 315,293 L 328,293 L 328,294 L 315,294 Z"/>
  <path d="M 332,293 L 384,293 L 384,294 L 332,294 Z"/>
  <path d="M 390,293 L 401,293 L 401,294 L 390,294 Z"/>
  <path d="M 50,294 L 102,294 L 102,295 L 50,295 Z"/>
  <path d="M 107,294 L 159,294 L 159,295 L 107,295 Z"/>
  <path d="M 182,294 L 196,294 L 196,295 L 182,295 Z"/>
  <path d="M 220,294 L 272,294 L 272,295 L 220,295 Z"/>
  <path d="M 276,294 L 289,294 L 289,295 L 276,295 Z"/>
  <path d="M 315,294 L 328,294 L 328,295 L 315,295 Z"/>
  <path d="M 332,294 L 384,294 L 384,295 L 332,295 Z"/>
  <path d="M 390,294 L 401,294 L 401,295 L 390,295 Z"/>
  <path d="M 50,295 L 102,295 L 102,296 L 50,296 Z"/>
  <path d="M 107,295 L 159,295 L 159,296 L 107,296 Z"/>
  <path d="M 182,295 L 196,295 L 196,296 L 182,296 Z"/>
  <path d="M 220,295 L 271,295 L 271,296 L 220,296 Z"/>
  <path d="M 276,295 L 289,295 L 289,296 L 276,296 Z"/>
  <path d="M 315,295 L 328,295 L 328,296 L 315,296 Z"/>
  <path d="M 332,295 L 384,295 L 384,296 L 332,296 Z"/>
  <path d="M 390,295 L 401,295 L 401,296 L 390,296 Z"/>
  <path d="M 50,296 L 102,296 L 102,297 L 50,297 Z"/>
  <path d="M 107,296 L 159,296 L 159,297 L 107,297 Z"/>
  <path d="M 182,296 L 196,296 L 196,297 L 182,297 Z"/>
  <path d="M 220,296 L 271,296 L 271,297 L 220,297 Z"/>
  <path d="M 276,296 L 289,296 L 289,297 L 276,297 Z"/>
  <path d="M 315,296 L 328,296 L 328,297 L 315,297 Z"/>
  <path d="M 332,296 L 384,296 L 384,297 L 332,297 Z"/>
  <path d="M 390,296 L 401,296 L 401,297 L 390,297 Z"/>
  <path d="M 50,297 L 101,297 L 101,298 L 50,298 Z"/>
  <path d="M 108,297 L 159,297 L 159,298 L 108,298 Z"/>
  <path d="M 183,297 L 196,297 L 196,298 L 183,298 Z"/>
  <path d="M 220,297 L 270,297 L 270,298 L 220,298 Z"/>
  <path d="M 276,297 L 289,297 L 289,298 L 276,298 Z"/>
  <path d="M 315,297 L 328,297 L 328,298 L 315,298 Z"/>
  <path d="M 332,297 L 383,297 L 383,298 L 332,298 Z"/>
  <path d="M 390,297 L 401,297 L 401,298 L 390,298 Z"/>
  <path d="M 50,298 L 100,298 L 100,299 L 50,299 Z"/>
  <path d="M 108,298 L 159,298 L 159,299 L 108,299 Z"/>
  <path d="M 182,298 L 196,298 L 196,299 L 182,299 Z"/>
  <path d="M 221,298 L 269,298 L 269,299 L 221,299 Z"/>
  <path d="M 276,298 L 289,298 L 289,299 L 276,299 Z"/>
  <path d="M 315,298 L 328,298 L 328,299 L 315,299 Z"/>
  <path d="M 332,298 L 382,298 L 382,299 L 332,299 Z"/>
  <path d="M 390,298 L 401,298 L 401,299 L 390,299 Z"/>
  <path d="M 50,299 L 99,299 L 99,300 L 50,300 Z"/>
  <path d="M 109,299 L 159,299 L 159,300 L 109,300 Z"/>
  <path d="M 182,299 L 196,299 L 196,300 L 182,300 Z"/>
  <path d="M 222,299 L 268,299 L 268,300 L 222,300 Z"/>
  <path d="M 276,299 L 289,299 L 289,300 L 276,300 Z"/>
  <path d="M 314,299 L 328,299 L 328,300 L 314,300 Z"/>
  <path d="M 332,299 L 381,299 L 381,300 L 332,300 Z"/>
  <path d="M 390,299 L 401,299 L 401,300 L 390,300 Z"/>
  <path d="M 50,300 L 97,300 L 97,301 L 50,301 Z"/>
  <path d="M 110,300 L 159,300 L 159,301 L 110,301 Z"/>
  <path d="M 183,300 L 196,300 L 196,301 L 183,301 Z"/>
  <path d="M 223,300 L 266,300 L 266,301 L 223,301 Z"/>
  <path d="M 276,300 L 289,300 L 289,301 L 276,301 Z"/>
  <path d="M 315,300 L 328,300 L 328,301 L 315,301 Z"/>
  <path d="M 332,300 L 379,300 L 379,301 L 332,301 Z"/>
  <path d="M 390,300 L 401,300 L 401,301 L 390,301 Z"/>
  <path d="M 50,301 L 94,301 L 94,302 L 50,302 Z"/>
  <path d="M 112,301 L 159,301 L 159,302 L 112,302 Z"/>
  <path d="M 183,301 L 196,301 L 196,302 L 183,302 Z"/>
  <path d="M 225,301 L 264,301 L 264,302 L 225,302 Z"/>
  <path d="M 276,301 L 289,301 L 289,302 L 276,302 Z"/>
  <path d="M 315,301 L 328,301 L 328,302 L 315,302 Z"/>
  <path d="M 332,301 L 376,301 L 376,302 L 332,302 Z"/>
  <path d="M 50,302 L 82,302 L 82,303 L 50,303 Z"/>
  <path d="M 182,302 L 193,302 L 193,303 L 182,303 Z"/>
  <path d="M 276,302 L 287,302 L 287,303 L 276,303 Z"/>
  <path d="M 314,302 L 325,302 L 325,303 L 314,303 Z"/>
  <path d="M 332,302 L 364,302 L 364,303 L 332,303 Z"/>
  <path d="M 50,303 L 65,303 L 65,304 L 50,304 Z"/>
  <path d="M 182,303 L 187,303 L 187,304 L 182,304 Z"/>
  <path d="M 276,303 L 281,303 L 281,304 L 276,304 Z"/>
  <path d="M 314,303 L 319,303 L 319,304 L 314,304 Z"/>
  <path d="M 332,303 L 347,303 L 347,304 L 332,304 Z"/>
  </g>
</svg>
