<?xml version="1.0" encoding="UTF-8" standalone="no"?>
<svg xmlns="http://www.w3.org/2000/svg" version="1.1"
     width="4.7812in" height="4.0833in" viewBox="0 0 459 392">
  <rect x="0" y="0" width="459" height="392" fill="none"/>
  <g fill="#D42B2B" stroke="none">
  <path d="M 293,217 L 294,217 L 294,218 L 293,218 Z"/>
  <path d="M 300,217 L 306,217 L 306,218 L 300,218 Z"/>
  <path d="M 147,218 L 153,218 L 153,219 L 147,219 Z"/>
  <path d="M 159,218 L 160,218 L 160,219 L 159,219 Z"/>
  <path d="M 293,218 L 294,218 L 294,219 L 293,219 Z"/>
  <path d="M 300,218 L 307,218 L 307,219 L 300,219 Z"/>
  <path d="M 314,218 L 316,218 L 316,219 L 314,219 Z"/>
  <path d="M 137,219 L 139,219 L 139,220 L 137,220 Z"/>
  <path d="M 146,219 L 152,219 L 152,220 L 146,220 Z"/>
  <path d="M 158,219 L 160,219 L 160,220 L 158,220 Z"/>
  <path d="M 293,219 L 295,219 L 295,220 L 293,220 Z"/>
  <path d="M 301,219 L 308,219 L 308,220 L 301,220 Z"/>
  <path d="M 315,219 L 321,219 L 321,220 L 315,220 Z"/>
  <path d="M 132,220 L 138,220 L 138,221 L 132,221 Z"/>
  <path d="M 145,220 L 152,220 L 152,221 L 145,221 Z"/>
  <path d="M 158,220 L 160,220 L 160,221 L 158,221 Z"/>
  <path d="M 293,220 L 296,220 L 296,221 L 293,221 Z"/>
  <path d="M 302,220 L 309,220 L 309,221 L 302,221 Z"/>
  <path d="M 316,220 L 322,220 L 322,221 L 316,221 Z"/>
  <path d="M 329,220 L 333,220 L 333,221 L 329,221 Z"/>
  <path d="M 120,221 L 124,221 L 124,222 L 120,222 Z"/>
  <path d="M 131,221 L 137,221 L 137,222 L 131,222 Z"/>
  <path d="M 144,221 L 151,221 L 151,222 L 144,222 Z"/>
  <path d="M 157,221 L 160,221 L 160,222 L 157,222 Z"/>
  <path d="M 293,221 L 297,221 L 297,222 L 293,222 Z"/>
  <path d="M 303,221 L 309,221 L 309,222 L 303,222 Z"/>
  <path d="M 317,221 L 323,221 L 323,222 L 317,222 Z"/>
  <path d="M 330,221 L 333,221 L 333,222 L 330,222 Z"/>
  <path d="M 120,222 L 123,222 L 123,223 L 120,223 Z"/>
  <path d="M 130,222 L 136,222 L 136,223 L 130,223 Z"/>
  <path d="M 143,222 L 150,222 L 150,223 L 143,223 Z"/>
  <path d="M 156,222 L 160,222 L 160,223 L 156,223 Z"/>
  <path d="M 293,222 L 297,222 L 297,223 L 293,223 Z"/>
  <path d="M 303,222 L 310,222 L 310,223 L 303,223 Z"/>
  <path d="M 318,222 L 324,222 L 324,223 L 318,223 Z"/>
  <path d="M 330,222 L 333,222 L 333,223 L 330,223 Z"/>
  <path d="M 120,223 L 123,223 L 123,224 L 120,224 Z"/>
  <path d="M 129,223 L 135,223 L 135,224 L 129,224 Z"/>
  <path d="M 143,223 L 149,223 L 149,224 L 143,224 Z"/>
  <path d="M 155,223 L 160,223 L 160,224 L 155,224 Z"/>
  <path d="M 293,223 L 298,223 L 298,224 L 293,224 Z"/>
  <path d="M 304,223 L 311,223 L 311,224 L 304,224 Z"/>
  <path d="M 318,223 L 325,223 L 325,224 L 318,224 Z"/>
  <path d="M 331,223 L 333,223 L 333,224 L 331,224 Z"/>
  <path d="M 120,224 L 122,224 L 122,225 L 120,225 Z"/>
  <path d="M 128,224 L 134,224 L 134,225 L 128,225 Z"/>
  <path d="M 142,224 L 149,224 L 149,225 L 142,225 Z"/>
  <path d="M 155,224 L 160,224 L 160,225 L 155,225 Z"/>
  <path d="M 293,224 L 299,224 L 299,225 L 293,225 Z"/>
  <path d="M 305,224 L 312,224 L 312,225 L 305,225 Z"/>
  <path d="M 319,224 L 326,224 L 326,225 L 319,225 Z"/>
  <path d="M 332,224 L 333,224 L 333,225 L 332,225 Z"/>
  <path d="M 120,225 L 121,225 L 121,226 L 120,226 Z"/>
  <path d="M 127,225 L 133,225 L 133,226 L 127,226 Z"/>
  <path d="M 141,225 L 148,225 L 148,226 L 141,226 Z"/>
  <path d="M 154,225 L 160,225 L 160,226 L 154,226 Z"/>
  <path d="M 293,225 L 300,225 L 300,226 L 293,226 Z"/>
  <path d="M 306,225 L 312,225 L 312,226 L 306,226 Z"/>
  <path d="M 320,225 L 326,225 L 326,226 L 320,226 Z"/>
  <path d="M 126,226 L 133,226 L 133,227 L 126,227 Z"/>
  <path d="M 141,226 L 147,226 L 147,227 L 141,227 Z"/>
  <path d="M 153,226 L 160,226 L 160,227 L 153,227 Z"/>
  </g>
</svg>
