<?xml version="1.0" encoding="UTF-8" standalone="no"?>
<svg xmlns="http://www.w3.org/2000/svg" version="1.1"
     width="20.75in" height="14.625in" viewBox="0 0 1494 1053">
  <title>02_Yellow_Woodstock</title>
  <g fill="#FFB900" stroke="none">
  <path d="M 810,100 L 811,100 L 811,101 L 810,101 Z"/>
  <path d="M 809,101 L 812,101 L 812,102 L 809,102 Z"/>
  <path d="M 810,102 L 813,102 L 813,103 L 810,103 Z"/>
  <path d="M 811,103 L 814,103 L 814,104 L 811,104 Z"/>
  <path d="M 811,104 L 815,104 L 815,105 L 811,105 Z"/>
  <path d="M 810,105 L 816,105 L 816,106 L 810,106 Z"/>
  <path d="M 809,106 L 816,106 L 816,107 L 809,107 Z"/>
  <path d="M 809,107 L 817,107 L 817,108 L 809,108 Z"/>
  <path d="M 808,108 L 817,108 L 817,109 L 808,109 Z"/>
  <path d="M 807,109 L 818,109 L 818,110 L 807,110 Z"/>
  <path d="M 807,110 L 818,110 L 818,111 L 807,111 Z"/>
  <path d="M 806,111 L 819,111 L 819,112 L 806,112 Z"/>
  <path d="M 806,112 L 820,112 L 820,113 L 806,113 Z"/>
  <path d="M 805,113 L 821,113 L 821,114 L 805,114 Z"/>
  <path d="M 789,114 L 791,114 L 791,115 L 789,115 Z"/>
  <path d="M 805,114 L 824,114 L 824,115 L 805,115 Z"/>
  <path d="M 788,115 L 792,115 L 792,116 L 788,116 Z"/>
  <path d="M 804,115 L 825,115 L 825,116 L 804,116 Z"/>
  <path d="M 786,116 L 793,116 L 793,117 L 786,117 Z"/>
  <path d="M 803,116 L 826,116 L 826,117 L 803,117 Z"/>
  <path d="M 784,117 L 792,117 L 792,118 L 784,118 Z"/>
  <path d="M 803,117 L 828,117 L 828,118 L 803,118 Z"/>
  <path d="M 781,118 L 792,118 L 792,119 L 781,119 Z"/>
  <path d="M 802,118 L 823,118 L 823,119 L 802,119 Z"/>
  <path d="M 825,118 L 830,118 L 830,119 L 825,119 Z"/>
  <path d="M 776,119 L 791,119 L 791,120 L 776,120 Z"/>
  <path d="M 802,119 L 824,119 L 824,120 L 802,120 Z"/>
  <path d="M 826,119 L 831,119 L 831,120 L 826,120 Z"/>
  <path d="M 774,120 L 791,120 L 791,121 L 774,121 Z"/>
  <path d="M 801,120 L 825,120 L 825,121 L 801,121 Z"/>
  <path d="M 827,120 L 832,120 L 832,121 L 827,121 Z"/>
  <path d="M 767,121 L 791,121 L 791,122 L 767,122 Z"/>
  <path d="M 801,121 L 827,121 L 827,122 L 801,122 Z"/>
  <path d="M 829,121 L 835,121 L 835,122 L 829,122 Z"/>
  <path d="M 755,122 L 790,122 L 790,123 L 755,123 Z"/>
  <path d="M 800,122 L 828,122 L 828,123 L 800,123 Z"/>
  <path d="M 830,122 L 841,122 L 841,123 L 830,123 Z"/>
  <path d="M 747,123 L 790,123 L 790,124 L 747,124 Z"/>
  <path d="M 800,123 L 830,123 L 830,124 L 800,124 Z"/>
  <path d="M 832,123 L 846,123 L 846,124 L 832,124 Z"/>
  <path d="M 743,124 L 775,124 L 775,125 L 743,125 Z"/>
  <path d="M 776,124 L 789,124 L 789,125 L 776,125 Z"/>
  <path d="M 799,124 L 847,124 L 847,125 L 799,125 Z"/>
  <path d="M 742,125 L 746,125 L 746,126 L 742,126 Z"/>
  <path d="M 751,125 L 759,125 L 759,126 L 751,126 Z"/>
  <path d="M 773,125 L 789,125 L 789,126 L 773,126 Z"/>
  <path d="M 799,125 L 848,125 L 848,126 L 799,126 Z"/>
  <path d="M 765,126 L 788,126 L 788,127 L 765,127 Z"/>
  <path d="M 798,126 L 849,126 L 849,127 L 798,127 Z"/>
  <path d="M 753,127 L 788,127 L 788,128 L 753,128 Z"/>
  <path d="M 798,127 L 848,127 L 848,128 L 798,128 Z"/>
  <path d="M 746,128 L 787,128 L 787,129 L 746,129 Z"/>
  <path d="M 798,128 L 846,128 L 846,129 L 798,129 Z"/>
  <path d="M 743,129 L 787,129 L 787,130 L 743,130 Z"/>
  <path d="M 797,129 L 845,129 L 845,130 L 797,130 Z"/>
  <path d="M 855,129 L 859,129 L 859,130 L 855,130 Z"/>
  <path d="M 743,130 L 787,130 L 787,131 L 743,131 Z"/>
  <path d="M 797,130 L 844,130 L 844,131 L 797,131 Z"/>
  <path d="M 854,130 L 860,130 L 860,131 L 854,131 Z"/>
  <path d="M 742,131 L 786,131 L 786,132 L 742,132 Z"/>
  <path d="M 797,131 L 843,131 L 843,132 L 797,132 Z"/>
  <path d="M 853,131 L 861,131 L 861,132 L 853,132 Z"/>
  <path d="M 742,132 L 786,132 L 786,133 L 742,133 Z"/>
  <path d="M 797,132 L 842,132 L 842,133 L 797,133 Z"/>
  <path d="M 852,132 L 862,132 L 862,133 L 852,133 Z"/>
  <path d="M 742,133 L 785,133 L 785,134 L 742,134 Z"/>
  <path d="M 796,133 L 841,133 L 841,134 L 796,134 Z"/>
  <path d="M 851,133 L 863,133 L 863,134 L 851,134 Z"/>
  <path d="M 743,134 L 785,134 L 785,135 L 743,135 Z"/>
  <path d="M 796,134 L 839,134 L 839,135 L 796,135 Z"/>
  <path d="M 849,134 L 864,134 L 864,135 L 849,135 Z"/>
  <path d="M 743,135 L 784,135 L 784,136 L 743,136 Z"/>
  <path d="M 796,135 L 838,135 L 838,136 L 796,136 Z"/>
  <path d="M 848,135 L 861,135 L 861,136 L 848,136 Z"/>
  <path d="M 744,136 L 784,136 L 784,137 L 744,137 Z"/>
  <path d="M 795,136 L 837,136 L 837,137 L 795,137 Z"/>
  <path d="M 847,136 L 859,136 L 859,137 L 847,137 Z"/>
  <path d="M 744,137 L 783,137 L 783,138 L 744,138 Z"/>
  <path d="M 795,137 L 836,137 L 836,138 L 795,138 Z"/>
  <path d="M 846,137 L 857,137 L 857,138 L 846,138 Z"/>
  <path d="M 744,138 L 783,138 L 783,139 L 744,139 Z"/>
  <path d="M 794,138 L 835,138 L 835,139 L 794,139 Z"/>
  <path d="M 845,138 L 856,138 L 856,139 L 845,139 Z"/>
  <path d="M 745,139 L 783,139 L 783,140 L 745,140 Z"/>
  <path d="M 794,139 L 834,139 L 834,140 L 794,140 Z"/>
  <path d="M 844,139 L 854,139 L 854,140 L 844,140 Z"/>
  <path d="M 745,140 L 782,140 L 782,141 L 745,141 Z"/>
  <path d="M 793,140 L 833,140 L 833,141 L 793,141 Z"/>
  <path d="M 843,140 L 853,140 L 853,141 L 843,141 Z"/>
  <path d="M 745,141 L 782,141 L 782,142 L 745,142 Z"/>
  <path d="M 793,141 L 831,141 L 831,142 L 793,142 Z"/>
  <path d="M 842,141 L 852,141 L 852,142 L 842,142 Z"/>
  <path d="M 746,142 L 782,142 L 782,143 L 746,143 Z"/>
  <path d="M 792,142 L 830,142 L 830,143 L 792,143 Z"/>
  <path d="M 841,142 L 851,142 L 851,143 L 841,143 Z"/>
  <path d="M 746,143 L 782,143 L 782,144 L 746,144 Z"/>
  <path d="M 792,143 L 828,143 L 828,144 L 792,144 Z"/>
  <path d="M 840,143 L 850,143 L 850,144 L 840,144 Z"/>
  <path d="M 746,144 L 781,144 L 781,145 L 746,145 Z"/>
  <path d="M 792,144 L 827,144 L 827,145 L 792,145 Z"/>
  <path d="M 839,144 L 849,144 L 849,145 L 839,145 Z"/>
  <path d="M 746,145 L 781,145 L 781,146 L 746,146 Z"/>
  <path d="M 792,145 L 826,145 L 826,146 L 792,146 Z"/>
  <path d="M 838,145 L 848,145 L 848,146 L 838,146 Z"/>
  <path d="M 747,146 L 781,146 L 781,147 L 747,147 Z"/>
  <path d="M 791,146 L 824,146 L 824,147 L 791,147 Z"/>
  <path d="M 837,146 L 847,146 L 847,147 L 837,147 Z"/>
  <path d="M 747,147 L 781,147 L 781,148 L 747,148 Z"/>
  <path d="M 791,147 L 823,147 L 823,148 L 791,148 Z"/>
  <path d="M 836,147 L 846,147 L 846,148 L 836,148 Z"/>
  <path d="M 747,148 L 780,148 L 780,149 L 747,149 Z"/>
  <path d="M 791,148 L 821,148 L 821,149 L 791,149 Z"/>
  <path d="M 835,148 L 845,148 L 845,149 L 835,149 Z"/>
  <path d="M 747,149 L 780,149 L 780,150 L 747,150 Z"/>
  <path d="M 790,149 L 819,149 L 819,150 L 790,150 Z"/>
  <path d="M 833,149 L 845,149 L 845,150 L 833,150 Z"/>
  <path d="M 748,150 L 780,150 L 780,151 L 748,151 Z"/>
  <path d="M 790,150 L 817,150 L 817,151 L 790,151 Z"/>
  <path d="M 832,150 L 844,150 L 844,151 L 832,151 Z"/>
  <path d="M 748,151 L 779,151 L 779,152 L 748,152 Z"/>
  <path d="M 790,151 L 816,151 L 816,152 L 790,152 Z"/>
  <path d="M 831,151 L 844,151 L 844,152 L 831,152 Z"/>
  <path d="M 748,152 L 779,152 L 779,153 L 748,153 Z"/>
  <path d="M 790,152 L 814,152 L 814,153 L 790,153 Z"/>
  <path d="M 829,152 L 843,152 L 843,153 L 829,153 Z"/>
  <path d="M 749,153 L 779,153 L 779,154 L 749,154 Z"/>
  <path d="M 789,153 L 812,153 L 812,154 L 789,154 Z"/>
  <path d="M 828,153 L 842,153 L 842,154 L 828,154 Z"/>
  <path d="M 749,154 L 779,154 L 779,155 L 749,155 Z"/>
  <path d="M 789,154 L 810,154 L 810,155 L 789,155 Z"/>
  <path d="M 826,154 L 842,154 L 842,155 L 826,155 Z"/>
  <path d="M 749,155 L 778,155 L 778,156 L 749,156 Z"/>
  <path d="M 790,155 L 806,155 L 806,156 L 790,156 Z"/>
  <path d="M 825,155 L 842,155 L 842,156 L 825,156 Z"/>
  <path d="M 749,156 L 778,156 L 778,157 L 749,157 Z"/>
  <path d="M 790,156 L 805,156 L 805,157 L 790,157 Z"/>
  <path d="M 823,156 L 841,156 L 841,157 L 823,157 Z"/>
  <path d="M 750,157 L 778,157 L 778,158 L 750,158 Z"/>
  <path d="M 790,157 L 804,157 L 804,158 L 790,158 Z"/>
  <path d="M 821,157 L 841,157 L 841,158 L 821,158 Z"/>
  <path d="M 750,158 L 778,158 L 778,159 L 750,159 Z"/>
  <path d="M 790,158 L 804,158 L 804,159 L 790,159 Z"/>
  <path d="M 819,158 L 841,158 L 841,159 L 819,159 Z"/>
  <path d="M 750,159 L 777,159 L 777,160 L 750,160 Z"/>
  <path d="M 789,159 L 804,159 L 804,160 L 789,160 Z"/>
  <path d="M 817,159 L 841,159 L 841,160 L 817,160 Z"/>
  <path d="M 750,160 L 777,160 L 777,161 L 750,161 Z"/>
  <path d="M 789,160 L 804,160 L 804,161 L 789,161 Z"/>
  <path d="M 816,160 L 840,160 L 840,161 L 816,161 Z"/>
  <path d="M 751,161 L 776,161 L 776,162 L 751,162 Z"/>
  <path d="M 789,161 L 805,161 L 805,162 L 789,162 Z"/>
  <path d="M 814,161 L 840,161 L 840,162 L 814,162 Z"/>
  <path d="M 751,162 L 775,162 L 775,163 L 751,163 Z"/>
  <path d="M 788,162 L 806,162 L 806,163 L 788,163 Z"/>
  <path d="M 812,162 L 840,162 L 840,163 L 812,163 Z"/>
  <path d="M 751,163 L 775,163 L 775,164 L 751,164 Z"/>
  <path d="M 787,163 L 840,163 L 840,164 L 787,164 Z"/>
  <path d="M 751,164 L 774,164 L 774,165 L 751,165 Z"/>
  <path d="M 787,164 L 840,164 L 840,165 L 787,165 Z"/>
  <path d="M 751,165 L 774,165 L 774,166 L 751,166 Z"/>
  <path d="M 786,165 L 840,165 L 840,166 L 786,166 Z"/>
  <path d="M 752,166 L 774,166 L 774,167 L 752,167 Z"/>
  <path d="M 785,166 L 840,166 L 840,167 L 785,167 Z"/>
  <path d="M 752,167 L 774,167 L 774,168 L 752,168 Z"/>
  <path d="M 785,167 L 840,167 L 840,168 L 785,168 Z"/>
  <path d="M 752,168 L 774,168 L 774,169 L 752,169 Z"/>
  <path d="M 784,168 L 840,168 L 840,169 L 784,169 Z"/>
  <path d="M 752,169 L 774,169 L 774,170 L 752,170 Z"/>
  <path d="M 783,169 L 841,169 L 841,170 L 783,170 Z"/>
  <path d="M 753,170 L 775,170 L 775,171 L 753,171 Z"/>
  <path d="M 781,170 L 842,170 L 842,171 L 781,171 Z"/>
  <path d="M 753,171 L 778,171 L 778,172 L 753,172 Z"/>
  <path d="M 779,171 L 843,171 L 843,172 L 779,172 Z"/>
  <path d="M 753,172 L 843,172 L 843,173 L 753,173 Z"/>
  <path d="M 754,173 L 844,173 L 844,174 L 754,174 Z"/>
  <path d="M 754,174 L 844,174 L 844,175 L 754,175 Z"/>
  <path d="M 755,175 L 844,175 L 844,176 L 755,176 Z"/>
  <path d="M 755,176 L 845,176 L 845,177 L 755,177 Z"/>
  <path d="M 756,177 L 846,177 L 846,178 L 756,178 Z"/>
  <path d="M 757,178 L 848,178 L 848,179 L 757,179 Z"/>
  <path d="M 758,179 L 850,179 L 850,180 L 758,180 Z"/>
  <path d="M 759,180 L 851,180 L 851,181 L 759,181 Z"/>
  <path d="M 760,181 L 852,181 L 852,182 L 760,182 Z"/>
  <path d="M 762,182 L 854,182 L 854,183 L 762,183 Z"/>
  <path d="M 763,183 L 855,183 L 855,184 L 763,184 Z"/>
  <path d="M 764,184 L 856,184 L 856,185 L 764,185 Z"/>
  <path d="M 765,185 L 857,185 L 857,186 L 765,186 Z"/>
  <path d="M 765,186 L 859,186 L 859,187 L 765,187 Z"/>
  <path d="M 765,187 L 861,187 L 861,188 L 765,188 Z"/>
  <path d="M 746,188 L 747,188 L 747,189 L 746,189 Z"/>
  <path d="M 765,188 L 862,188 L 862,189 L 765,189 Z"/>
  <path d="M 745,189 L 749,189 L 749,190 L 745,190 Z"/>
  <path d="M 765,189 L 862,189 L 862,190 L 765,190 Z"/>
  <path d="M 744,190 L 751,190 L 751,191 L 744,191 Z"/>
  <path d="M 764,190 L 863,190 L 863,191 L 764,191 Z"/>
  <path d="M 745,191 L 752,191 L 752,192 L 745,192 Z"/>
  <path d="M 763,191 L 865,191 L 865,192 L 763,192 Z"/>
  <path d="M 746,192 L 751,192 L 751,193 L 746,193 Z"/>
  <path d="M 762,192 L 872,192 L 872,193 L 762,193 Z"/>
  <path d="M 747,193 L 749,193 L 749,194 L 747,194 Z"/>
  <path d="M 761,193 L 874,193 L 874,194 L 761,194 Z"/>
  <path d="M 759,194 L 875,194 L 875,195 L 759,195 Z"/>
  <path d="M 758,195 L 877,195 L 877,196 L 758,196 Z"/>
  <path d="M 881,195 L 886,195 L 886,196 L 881,196 Z"/>
  <path d="M 757,196 L 888,196 L 888,197 L 757,197 Z"/>
  <path d="M 755,197 L 891,197 L 891,198 L 755,198 Z"/>
  <path d="M 754,198 L 895,198 L 895,199 L 754,199 Z"/>
  <path d="M 752,199 L 814,199 L 814,200 L 752,200 Z"/>
  <path d="M 822,199 L 897,199 L 897,200 L 822,200 Z"/>
  <path d="M 750,200 L 813,200 L 813,201 L 750,201 Z"/>
  <path d="M 826,200 L 852,200 L 852,201 L 826,201 Z"/>
  <path d="M 855,200 L 899,200 L 899,201 L 855,201 Z"/>
  <path d="M 749,201 L 810,201 L 810,202 L 749,202 Z"/>
  <path d="M 828,201 L 847,201 L 847,202 L 828,202 Z"/>
  <path d="M 861,201 L 901,201 L 901,202 L 861,202 Z"/>
  <path d="M 747,202 L 807,202 L 807,203 L 747,203 Z"/>
  <path d="M 829,202 L 842,202 L 842,203 L 829,203 Z"/>
  <path d="M 864,202 L 902,202 L 902,203 L 864,203 Z"/>
  <path d="M 746,203 L 805,203 L 805,204 L 746,204 Z"/>
  <path d="M 831,203 L 841,203 L 841,204 L 831,204 Z"/>
  <path d="M 866,203 L 904,203 L 904,204 L 866,204 Z"/>
  <path d="M 745,204 L 803,204 L 803,205 L 745,205 Z"/>
  <path d="M 832,204 L 840,204 L 840,205 L 832,205 Z"/>
  <path d="M 868,204 L 905,204 L 905,205 L 868,205 Z"/>
  <path d="M 743,205 L 802,205 L 802,206 L 743,206 Z"/>
  <path d="M 833,205 L 840,205 L 840,206 L 833,206 Z"/>
  <path d="M 868,205 L 906,205 L 906,206 L 868,206 Z"/>
  <path d="M 741,206 L 800,206 L 800,207 L 741,207 Z"/>
  <path d="M 833,206 L 840,206 L 840,207 L 833,207 Z"/>
  <path d="M 869,206 L 908,206 L 908,207 L 869,207 Z"/>
  <path d="M 740,207 L 800,207 L 800,208 L 740,208 Z"/>
  <path d="M 833,207 L 840,207 L 840,208 L 833,208 Z"/>
  <path d="M 869,207 L 909,207 L 909,208 L 869,208 Z"/>
  <path d="M 738,208 L 799,208 L 799,209 L 738,209 Z"/>
  <path d="M 813,208 L 817,208 L 817,209 L 813,209 Z"/>
  <path d="M 833,208 L 841,208 L 841,209 L 833,209 Z"/>
  <path d="M 849,208 L 856,208 L 856,209 L 849,209 Z"/>
  <path d="M 870,208 L 910,208 L 910,209 L 870,209 Z"/>
  <path d="M 735,209 L 798,209 L 798,210 L 735,210 Z"/>
  <path d="M 810,209 L 818,209 L 818,210 L 810,210 Z"/>
  <path d="M 832,209 L 859,209 L 859,210 L 832,210 Z"/>
  <path d="M 870,209 L 911,209 L 911,210 L 870,210 Z"/>
  <path d="M 733,210 L 798,210 L 798,211 L 733,211 Z"/>
  <path d="M 808,210 L 820,210 L 820,211 L 808,211 Z"/>
  <path d="M 832,210 L 861,210 L 861,211 L 832,211 Z"/>
  <path d="M 870,210 L 912,210 L 912,211 L 870,211 Z"/>
  <path d="M 730,211 L 798,211 L 798,212 L 730,212 Z"/>
  <path d="M 806,211 L 821,211 L 821,212 L 806,212 Z"/>
  <path d="M 831,211 L 861,211 L 861,212 L 831,212 Z"/>
  <path d="M 870,211 L 913,211 L 913,212 L 870,212 Z"/>
  <path d="M 727,212 L 798,212 L 798,213 L 727,213 Z"/>
  <path d="M 804,212 L 823,212 L 823,213 L 804,213 Z"/>
  <path d="M 829,212 L 861,212 L 861,213 L 829,213 Z"/>
  <path d="M 869,212 L 913,212 L 913,213 L 869,213 Z"/>
  <path d="M 724,213 L 800,213 L 800,214 L 724,214 Z"/>
  <path d="M 803,213 L 861,213 L 861,214 L 803,214 Z"/>
  <path d="M 869,213 L 914,213 L 914,214 L 869,214 Z"/>
  <path d="M 720,214 L 861,214 L 861,215 L 720,215 Z"/>
  <path d="M 868,214 L 914,214 L 914,215 L 868,215 Z"/>
  <path d="M 718,215 L 862,215 L 862,216 L 718,216 Z"/>
  <path d="M 866,215 L 915,215 L 915,216 L 866,216 Z"/>
  <path d="M 716,216 L 915,216 L 915,217 L 716,217 Z"/>
  <path d="M 714,217 L 915,217 L 915,218 L 714,218 Z"/>
  <path d="M 714,218 L 916,218 L 916,219 L 714,219 Z"/>
  <path d="M 715,219 L 916,219 L 916,220 L 715,220 Z"/>
  <path d="M 716,220 L 916,220 L 916,221 L 716,221 Z"/>
  <path d="M 717,221 L 724,221 L 724,222 L 717,222 Z"/>
  <path d="M 725,221 L 916,221 L 916,222 L 725,222 Z"/>
  <path d="M 718,222 L 724,222 L 724,223 L 718,223 Z"/>
  <path d="M 726,222 L 916,222 L 916,223 L 726,223 Z"/>
  <path d="M 721,223 L 725,223 L 725,224 L 721,224 Z"/>
  <path d="M 727,223 L 916,223 L 916,224 L 727,224 Z"/>
  <path d="M 722,224 L 726,224 L 726,225 L 722,225 Z"/>
  <path d="M 728,224 L 916,224 L 916,225 L 728,225 Z"/>
  <path d="M 723,225 L 726,225 L 726,226 L 723,226 Z"/>
  <path d="M 728,225 L 915,225 L 915,226 L 728,226 Z"/>
  <path d="M 724,226 L 726,226 L 726,227 L 724,227 Z"/>
  <path d="M 729,226 L 915,226 L 915,227 L 729,227 Z"/>
  <path d="M 724,227 L 727,227 L 727,228 L 724,228 Z"/>
  <path d="M 729,227 L 915,227 L 915,228 L 729,228 Z"/>
  <path d="M 724,228 L 727,228 L 727,229 L 724,229 Z"/>
  <path d="M 729,228 L 754,228 L 754,229 L 729,229 Z"/>
  <path d="M 756,228 L 914,228 L 914,229 L 756,229 Z"/>
  <path d="M 725,229 L 728,229 L 728,230 L 725,230 Z"/>
  <path d="M 730,229 L 752,229 L 752,230 L 730,230 Z"/>
  <path d="M 757,229 L 914,229 L 914,230 L 757,230 Z"/>
  <path d="M 725,230 L 728,230 L 728,231 L 725,231 Z"/>
  <path d="M 730,230 L 751,230 L 751,231 L 730,231 Z"/>
  <path d="M 758,230 L 914,230 L 914,231 L 758,231 Z"/>
  <path d="M 726,231 L 728,231 L 728,232 L 726,232 Z"/>
  <path d="M 731,231 L 750,231 L 750,232 L 731,232 Z"/>
  <path d="M 758,231 L 913,231 L 913,232 L 758,232 Z"/>
  <path d="M 726,232 L 729,232 L 729,233 L 726,233 Z"/>
  <path d="M 731,232 L 749,232 L 749,233 L 731,233 Z"/>
  <path d="M 758,232 L 913,232 L 913,233 L 758,233 Z"/>
  <path d="M 726,233 L 729,233 L 729,234 L 726,234 Z"/>
  <path d="M 731,233 L 748,233 L 748,234 L 731,234 Z"/>
  <path d="M 758,233 L 912,233 L 912,234 L 758,234 Z"/>
  <path d="M 727,234 L 729,234 L 729,235 L 727,235 Z"/>
  <path d="M 732,234 L 747,234 L 747,235 L 732,235 Z"/>
  <path d="M 758,234 L 912,234 L 912,235 L 758,235 Z"/>
  <path d="M 727,235 L 730,235 L 730,236 L 727,236 Z"/>
  <path d="M 732,235 L 746,235 L 746,236 L 732,236 Z"/>
  <path d="M 757,235 L 911,235 L 911,236 L 757,236 Z"/>
  <path d="M 727,236 L 730,236 L 730,237 L 727,237 Z"/>
  <path d="M 732,236 L 745,236 L 745,237 L 732,237 Z"/>
  <path d="M 757,236 L 910,236 L 910,237 L 757,237 Z"/>
  <path d="M 728,237 L 731,237 L 731,238 L 728,238 Z"/>
  <path d="M 732,237 L 744,237 L 744,238 L 732,238 Z"/>
  <path d="M 756,237 L 909,237 L 909,238 L 756,238 Z"/>
  <path d="M 728,238 L 731,238 L 731,239 L 728,239 Z"/>
  <path d="M 733,238 L 743,238 L 743,239 L 733,239 Z"/>
  <path d="M 756,238 L 908,238 L 908,239 L 756,239 Z"/>
  <path d="M 727,239 L 742,239 L 742,240 L 727,240 Z"/>
  <path d="M 755,239 L 810,239 L 810,240 L 755,240 Z"/>
  <path d="M 811,239 L 907,239 L 907,240 L 811,240 Z"/>
  <path d="M 728,240 L 741,240 L 741,241 L 728,241 Z"/>
  <path d="M 754,240 L 808,240 L 808,241 L 754,241 Z"/>
  <path d="M 815,240 L 906,240 L 906,241 L 815,241 Z"/>
  <path d="M 728,241 L 740,241 L 740,242 L 728,242 Z"/>
  <path d="M 753,241 L 807,241 L 807,242 L 753,242 Z"/>
  <path d="M 816,241 L 905,241 L 905,242 L 816,242 Z"/>
  <path d="M 729,242 L 739,242 L 739,243 L 729,243 Z"/>
  <path d="M 753,242 L 807,242 L 807,243 L 753,243 Z"/>
  <path d="M 817,242 L 905,242 L 905,243 L 817,243 Z"/>
  <path d="M 729,243 L 738,243 L 738,244 L 729,244 Z"/>
  <path d="M 752,243 L 807,243 L 807,244 L 752,244 Z"/>
  <path d="M 818,243 L 904,243 L 904,244 L 818,244 Z"/>
  <path d="M 730,244 L 737,244 L 737,245 L 730,245 Z"/>
  <path d="M 751,244 L 807,244 L 807,245 L 751,245 Z"/>
  <path d="M 819,244 L 903,244 L 903,245 L 819,245 Z"/>
  <path d="M 730,245 L 736,245 L 736,246 L 730,246 Z"/>
  <path d="M 751,245 L 807,245 L 807,246 L 751,246 Z"/>
  <path d="M 821,245 L 901,245 L 901,246 L 821,246 Z"/>
  <path d="M 731,246 L 735,246 L 735,247 L 731,247 Z"/>
  <path d="M 750,246 L 808,246 L 808,247 L 750,247 Z"/>
  <path d="M 823,246 L 900,246 L 900,247 L 823,247 Z"/>
  <path d="M 732,247 L 734,247 L 734,248 L 732,248 Z"/>
  <path d="M 749,247 L 810,247 L 810,248 L 749,248 Z"/>
  <path d="M 824,247 L 879,247 L 879,248 L 824,248 Z"/>
  <path d="M 882,247 L 898,247 L 898,248 L 882,248 Z"/>
  <path d="M 748,248 L 811,248 L 811,249 L 748,249 Z"/>
  <path d="M 826,248 L 876,248 L 876,249 L 826,249 Z"/>
  <path d="M 884,248 L 896,248 L 896,249 L 884,249 Z"/>
  <path d="M 746,249 L 812,249 L 812,250 L 746,250 Z"/>
  <path d="M 828,249 L 874,249 L 874,250 L 828,250 Z"/>
  <path d="M 884,249 L 893,249 L 893,250 L 884,250 Z"/>
  <path d="M 745,250 L 814,250 L 814,251 L 745,251 Z"/>
  <path d="M 829,250 L 872,250 L 872,251 L 829,251 Z"/>
  <path d="M 884,250 L 890,250 L 890,251 L 884,251 Z"/>
  <path d="M 744,251 L 815,251 L 815,252 L 744,252 Z"/>
  <path d="M 831,251 L 870,251 L 870,252 L 831,252 Z"/>
  <path d="M 743,252 L 777,252 L 777,253 L 743,253 Z"/>
  <path d="M 780,252 L 817,252 L 817,253 L 780,253 Z"/>
  <path d="M 834,252 L 868,252 L 868,253 L 834,253 Z"/>
  <path d="M 741,253 L 775,253 L 775,254 L 741,254 Z"/>
  <path d="M 781,253 L 818,253 L 818,254 L 781,254 Z"/>
  <path d="M 836,253 L 862,253 L 862,254 L 836,254 Z"/>
  <path d="M 742,254 L 775,254 L 775,255 L 742,255 Z"/>
  <path d="M 781,254 L 819,254 L 819,255 L 781,255 Z"/>
  <path d="M 839,254 L 859,254 L 859,255 L 839,255 Z"/>
  <path d="M 743,255 L 774,255 L 774,256 L 743,256 Z"/>
  <path d="M 782,255 L 821,255 L 821,256 L 782,256 Z"/>
  <path d="M 844,255 L 856,255 L 856,256 L 844,256 Z"/>
  <path d="M 744,256 L 773,256 L 773,257 L 744,257 Z"/>
  <path d="M 782,256 L 823,256 L 823,257 L 782,257 Z"/>
  <path d="M 746,257 L 773,257 L 773,258 L 746,258 Z"/>
  <path d="M 782,257 L 825,257 L 825,258 L 782,258 Z"/>
  <path d="M 746,258 L 772,258 L 772,259 L 746,259 Z"/>
  <path d="M 782,258 L 827,258 L 827,259 L 782,259 Z"/>
  <path d="M 746,259 L 771,259 L 771,260 L 746,260 Z"/>
  <path d="M 781,259 L 829,259 L 829,260 L 781,260 Z"/>
  <path d="M 747,260 L 752,260 L 752,261 L 747,261 Z"/>
  <path d="M 753,260 L 771,260 L 771,261 L 753,261 Z"/>
  <path d="M 781,260 L 830,260 L 830,261 L 781,261 Z"/>
  <path d="M 748,261 L 752,261 L 752,262 L 748,262 Z"/>
  <path d="M 753,261 L 770,261 L 770,262 L 753,262 Z"/>
  <path d="M 780,261 L 796,261 L 796,262 L 780,262 Z"/>
  <path d="M 810,261 L 835,261 L 835,262 L 810,262 Z"/>
  <path d="M 749,262 L 752,262 L 752,263 L 749,263 Z"/>
  <path d="M 754,262 L 769,262 L 769,263 L 754,263 Z"/>
  <path d="M 780,262 L 792,262 L 792,263 L 780,263 Z"/>
  <path d="M 814,262 L 839,262 L 839,263 L 814,263 Z"/>
  <path d="M 749,263 L 752,263 L 752,264 L 749,264 Z"/>
  <path d="M 754,263 L 769,263 L 769,264 L 754,264 Z"/>
  <path d="M 779,263 L 789,263 L 789,264 L 779,264 Z"/>
  <path d="M 815,263 L 842,263 L 842,264 L 815,264 Z"/>
  <path d="M 749,264 L 752,264 L 752,265 L 749,265 Z"/>
  <path d="M 754,264 L 768,264 L 768,265 L 754,265 Z"/>
  <path d="M 779,264 L 788,264 L 788,265 L 779,265 Z"/>
  <path d="M 816,264 L 843,264 L 843,265 L 816,265 Z"/>
  <path d="M 750,265 L 752,265 L 752,266 L 750,266 Z"/>
  <path d="M 754,265 L 767,265 L 767,266 L 754,266 Z"/>
  <path d="M 778,265 L 786,265 L 786,266 L 778,266 Z"/>
  <path d="M 818,265 L 844,265 L 844,266 L 818,266 Z"/>
  <path d="M 751,266 L 752,266 L 752,267 L 751,267 Z"/>
  <path d="M 755,266 L 766,266 L 766,267 L 755,267 Z"/>
  <path d="M 777,266 L 785,266 L 785,267 L 777,267 Z"/>
  <path d="M 819,266 L 845,266 L 845,267 L 819,267 Z"/>
  <path d="M 755,267 L 765,267 L 765,268 L 755,268 Z"/>
  <path d="M 777,267 L 784,267 L 784,268 L 777,268 Z"/>
  <path d="M 819,267 L 844,267 L 844,268 L 819,268 Z"/>
  <path d="M 755,268 L 764,268 L 764,269 L 755,269 Z"/>
  <path d="M 776,268 L 784,268 L 784,269 L 776,269 Z"/>
  <path d="M 820,268 L 844,268 L 844,269 L 820,269 Z"/>
  <path d="M 755,269 L 763,269 L 763,270 L 755,270 Z"/>
  <path d="M 776,269 L 784,269 L 784,270 L 776,270 Z"/>
  <path d="M 820,269 L 843,269 L 843,270 L 820,270 Z"/>
  <path d="M 755,270 L 762,270 L 762,271 L 755,271 Z"/>
  <path d="M 775,270 L 783,270 L 783,271 L 775,271 Z"/>
  <path d="M 820,270 L 842,270 L 842,271 L 820,271 Z"/>
  <path d="M 756,271 L 761,271 L 761,272 L 756,272 Z"/>
  <path d="M 774,271 L 784,271 L 784,272 L 774,272 Z"/>
  <path d="M 821,271 L 842,271 L 842,272 L 821,272 Z"/>
  <path d="M 757,272 L 759,272 L 759,273 L 757,273 Z"/>
  <path d="M 775,272 L 781,272 L 781,273 L 775,273 Z"/>
  <path d="M 822,272 L 841,272 L 841,273 L 822,273 Z"/>
  <path d="M 776,273 L 778,273 L 778,274 L 776,274 Z"/>
  <path d="M 823,273 L 841,273 L 841,274 L 823,274 Z"/>
  <path d="M 824,274 L 841,274 L 841,275 L 824,275 Z"/>
  <path d="M 825,275 L 840,275 L 840,276 L 825,276 Z"/>
  <path d="M 825,276 L 839,276 L 839,277 L 825,277 Z"/>
  <path d="M 825,277 L 839,277 L 839,278 L 825,278 Z"/>
  <path d="M 826,278 L 839,278 L 839,279 L 826,279 Z"/>
  <path d="M 826,279 L 839,279 L 839,280 L 826,280 Z"/>
  <path d="M 826,280 L 839,280 L 839,281 L 826,281 Z"/>
  <path d="M 827,281 L 839,281 L 839,282 L 827,282 Z"/>
  <path d="M 827,282 L 840,282 L 840,283 L 827,283 Z"/>
  <path d="M 827,283 L 841,283 L 841,284 L 827,284 Z"/>
  <path d="M 827,284 L 841,284 L 841,285 L 827,285 Z"/>
  <path d="M 827,285 L 841,285 L 841,286 L 827,286 Z"/>
  <path d="M 827,286 L 840,286 L 840,287 L 827,287 Z"/>
  <path d="M 827,287 L 840,287 L 840,288 L 827,288 Z"/>
  <path d="M 827,288 L 840,288 L 840,289 L 827,289 Z"/>
  <path d="M 827,289 L 840,289 L 840,290 L 827,290 Z"/>
  <path d="M 827,290 L 840,290 L 840,291 L 827,291 Z"/>
  <path d="M 827,291 L 840,291 L 840,292 L 827,292 Z"/>
  <path d="M 826,292 L 840,292 L 840,293 L 826,293 Z"/>
  <path d="M 826,293 L 841,293 L 841,294 L 826,294 Z"/>
  <path d="M 826,294 L 842,294 L 842,295 L 826,295 Z"/>
  <path d="M 826,295 L 843,295 L 843,296 L 826,296 Z"/>
  <path d="M 826,296 L 844,296 L 844,297 L 826,297 Z"/>
  <path d="M 826,297 L 844,297 L 844,298 L 826,298 Z"/>
  <path d="M 826,298 L 844,298 L 844,299 L 826,299 Z"/>
  <path d="M 826,299 L 844,299 L 844,300 L 826,300 Z"/>
  <path d="M 826,300 L 844,300 L 844,301 L 826,301 Z"/>
  <path d="M 826,301 L 844,301 L 844,302 L 826,302 Z"/>
  <path d="M 826,302 L 845,302 L 845,303 L 826,303 Z"/>
  <path d="M 825,303 L 845,303 L 845,304 L 825,304 Z"/>
  <path d="M 825,304 L 846,304 L 846,305 L 825,305 Z"/>
  <path d="M 825,305 L 847,305 L 847,306 L 825,306 Z"/>
  <path d="M 825,306 L 848,306 L 848,307 L 825,307 Z"/>
  <path d="M 824,307 L 848,307 L 848,308 L 824,308 Z"/>
  <path d="M 824,308 L 831,308 L 831,309 L 824,309 Z"/>
  <path d="M 837,308 L 849,308 L 849,309 L 837,309 Z"/>
  <path d="M 824,309 L 830,309 L 830,310 L 824,310 Z"/>
  <path d="M 838,309 L 848,309 L 848,310 L 838,310 Z"/>
  <path d="M 823,310 L 828,310 L 828,311 L 823,311 Z"/>
  <path d="M 839,310 L 848,310 L 848,311 L 839,311 Z"/>
  <path d="M 823,311 L 827,311 L 827,312 L 823,312 Z"/>
  <path d="M 840,311 L 847,311 L 847,312 L 840,312 Z"/>
  <path d="M 822,312 L 826,312 L 826,313 L 822,313 Z"/>
  <path d="M 841,312 L 847,312 L 847,313 L 841,313 Z"/>
  <path d="M 821,313 L 825,313 L 825,314 L 821,314 Z"/>
  <path d="M 841,313 L 846,313 L 846,314 L 841,314 Z"/>
  <path d="M 821,314 L 824,314 L 824,315 L 821,315 Z"/>
  <path d="M 842,314 L 846,314 L 846,315 L 842,315 Z"/>
  <path d="M 821,315 L 824,315 L 824,316 L 821,316 Z"/>
  <path d="M 842,315 L 846,315 L 846,316 L 842,316 Z"/>
  <path d="M 821,316 L 823,316 L 823,317 L 821,317 Z"/>
  <path d="M 842,316 L 846,316 L 846,317 L 842,317 Z"/>
  <path d="M 821,317 L 823,317 L 823,318 L 821,318 Z"/>
  <path d="M 843,317 L 846,317 L 846,318 L 843,318 Z"/>
  <path d="M 820,318 L 823,318 L 823,319 L 820,319 Z"/>
  <path d="M 832,318 L 834,318 L 834,319 L 832,319 Z"/>
  <path d="M 843,318 L 846,318 L 846,319 L 843,319 Z"/>
  <path d="M 854,318 L 858,318 L 858,319 L 854,319 Z"/>
  <path d="M 820,319 L 823,319 L 823,320 L 820,320 Z"/>
  <path d="M 831,319 L 834,319 L 834,320 L 831,320 Z"/>
  <path d="M 843,319 L 846,319 L 846,320 L 843,320 Z"/>
  <path d="M 852,319 L 859,319 L 859,320 L 852,320 Z"/>
  <path d="M 819,320 L 823,320 L 823,321 L 819,321 Z"/>
  <path d="M 831,320 L 835,320 L 835,321 L 831,321 Z"/>
  <path d="M 843,320 L 846,320 L 846,321 L 843,321 Z"/>
  <path d="M 852,320 L 860,320 L 860,321 L 852,321 Z"/>
  <path d="M 818,321 L 824,321 L 824,322 L 818,322 Z"/>
  <path d="M 831,321 L 835,321 L 835,322 L 831,322 Z"/>
  <path d="M 843,321 L 845,321 L 845,322 L 843,322 Z"/>
  <path d="M 851,321 L 861,321 L 861,322 L 851,322 Z"/>
  <path d="M 818,322 L 824,322 L 824,323 L 818,323 Z"/>
  <path d="M 831,322 L 836,322 L 836,323 L 831,323 Z"/>
  <path d="M 843,322 L 845,322 L 845,323 L 843,323 Z"/>
  <path d="M 851,322 L 862,322 L 862,323 L 851,323 Z"/>
  <path d="M 819,323 L 824,323 L 824,324 L 819,324 Z"/>
  <path d="M 830,323 L 836,323 L 836,324 L 830,324 Z"/>
  <path d="M 843,323 L 845,323 L 845,324 L 843,324 Z"/>
  <path d="M 850,323 L 862,323 L 862,324 L 850,324 Z"/>
  <path d="M 819,324 L 824,324 L 824,325 L 819,325 Z"/>
  <path d="M 830,324 L 836,324 L 836,325 L 830,325 Z"/>
  <path d="M 850,324 L 862,324 L 862,325 L 850,325 Z"/>
  <path d="M 872,324 L 874,324 L 874,325 L 872,325 Z"/>
  <path d="M 818,325 L 824,325 L 824,326 L 818,326 Z"/>
  <path d="M 830,325 L 836,325 L 836,326 L 830,326 Z"/>
  <path d="M 850,325 L 862,325 L 862,326 L 850,326 Z"/>
  <path d="M 872,325 L 875,325 L 875,326 L 872,326 Z"/>
  <path d="M 818,326 L 824,326 L 824,327 L 818,327 Z"/>
  <path d="M 830,326 L 836,326 L 836,327 L 830,327 Z"/>
  <path d="M 850,326 L 862,326 L 862,327 L 850,327 Z"/>
  <path d="M 871,326 L 876,326 L 876,327 L 871,327 Z"/>
  <path d="M 817,327 L 823,327 L 823,328 L 817,328 Z"/>
  <path d="M 830,327 L 836,327 L 836,328 L 830,328 Z"/>
  <path d="M 849,327 L 862,327 L 862,328 L 849,328 Z"/>
  <path d="M 870,327 L 876,327 L 876,328 L 870,328 Z"/>
  <path d="M 886,327 L 888,327 L 888,328 L 886,328 Z"/>
  <path d="M 817,328 L 823,328 L 823,329 L 817,329 Z"/>
  <path d="M 830,328 L 836,328 L 836,329 L 830,329 Z"/>
  <path d="M 849,328 L 862,328 L 862,329 L 849,329 Z"/>
  <path d="M 870,328 L 877,328 L 877,329 L 870,329 Z"/>
  <path d="M 885,328 L 889,328 L 889,329 L 885,329 Z"/>
  <path d="M 816,329 L 823,329 L 823,330 L 816,330 Z"/>
  <path d="M 830,329 L 836,329 L 836,330 L 830,330 Z"/>
  <path d="M 849,329 L 862,329 L 862,330 L 849,330 Z"/>
  <path d="M 870,329 L 877,329 L 877,330 L 870,330 Z"/>
  <path d="M 885,329 L 889,329 L 889,330 L 885,330 Z"/>
  <path d="M 815,330 L 823,330 L 823,331 L 815,331 Z"/>
  <path d="M 830,330 L 837,330 L 837,331 L 830,331 Z"/>
  <path d="M 849,330 L 862,330 L 862,331 L 849,331 Z"/>
  <path d="M 870,330 L 877,330 L 877,331 L 870,331 Z"/>
  <path d="M 885,330 L 890,330 L 890,331 L 885,331 Z"/>
  <path d="M 815,331 L 823,331 L 823,332 L 815,332 Z"/>
  <path d="M 830,331 L 837,331 L 837,332 L 830,332 Z"/>
  <path d="M 849,331 L 863,331 L 863,332 L 849,332 Z"/>
  <path d="M 870,331 L 877,331 L 877,332 L 870,332 Z"/>
  <path d="M 885,331 L 890,331 L 890,332 L 885,332 Z"/>
  <path d="M 813,332 L 823,332 L 823,333 L 813,333 Z"/>
  <path d="M 829,332 L 837,332 L 837,333 L 829,333 Z"/>
  <path d="M 849,332 L 863,332 L 863,333 L 849,333 Z"/>
  <path d="M 870,332 L 877,332 L 877,333 L 870,333 Z"/>
  <path d="M 885,332 L 890,332 L 890,333 L 885,333 Z"/>
  <path d="M 812,333 L 822,333 L 822,334 L 812,334 Z"/>
  <path d="M 829,333 L 838,333 L 838,334 L 829,334 Z"/>
  <path d="M 850,333 L 863,333 L 863,334 L 850,334 Z"/>
  <path d="M 870,333 L 877,333 L 877,334 L 870,334 Z"/>
  <path d="M 885,333 L 890,333 L 890,334 L 885,334 Z"/>
  <path d="M 812,334 L 822,334 L 822,335 L 812,335 Z"/>
  <path d="M 829,334 L 838,334 L 838,335 L 829,335 Z"/>
  <path d="M 850,334 L 863,334 L 863,335 L 850,335 Z"/>
  <path d="M 870,334 L 877,334 L 877,335 L 870,335 Z"/>
  <path d="M 885,334 L 890,334 L 890,335 L 885,335 Z"/>
  <path d="M 811,335 L 822,335 L 822,336 L 811,336 Z"/>
  <path d="M 829,335 L 838,335 L 838,336 L 829,336 Z"/>
  <path d="M 850,335 L 862,335 L 862,336 L 850,336 Z"/>
  <path d="M 870,335 L 877,335 L 877,336 L 870,336 Z"/>
  <path d="M 885,335 L 890,335 L 890,336 L 885,336 Z"/>
  <path d="M 810,336 L 821,336 L 821,337 L 810,337 Z"/>
  <path d="M 828,336 L 839,336 L 839,337 L 828,337 Z"/>
  <path d="M 851,336 L 862,336 L 862,337 L 851,337 Z"/>
  <path d="M 870,336 L 877,336 L 877,337 L 870,337 Z"/>
  <path d="M 886,336 L 891,336 L 891,337 L 886,337 Z"/>
  <path d="M 810,337 L 821,337 L 821,338 L 810,338 Z"/>
  <path d="M 828,337 L 839,337 L 839,338 L 828,338 Z"/>
  <path d="M 851,337 L 862,337 L 862,338 L 851,338 Z"/>
  <path d="M 870,337 L 877,337 L 877,338 L 870,338 Z"/>
  <path d="M 886,337 L 891,337 L 891,338 L 886,338 Z"/>
  <path d="M 810,338 L 821,338 L 821,339 L 810,339 Z"/>
  <path d="M 828,338 L 840,338 L 840,339 L 828,339 Z"/>
  <path d="M 851,338 L 862,338 L 862,339 L 851,339 Z"/>
  <path d="M 870,338 L 877,338 L 877,339 L 870,339 Z"/>
  <path d="M 886,338 L 891,338 L 891,339 L 886,339 Z"/>
  <path d="M 809,339 L 821,339 L 821,340 L 809,340 Z"/>
  <path d="M 828,339 L 840,339 L 840,340 L 828,340 Z"/>
  <path d="M 852,339 L 862,339 L 862,340 L 852,340 Z"/>
  <path d="M 870,339 L 877,339 L 877,340 L 870,340 Z"/>
  <path d="M 886,339 L 891,339 L 891,340 L 886,340 Z"/>
  <path d="M 809,340 L 821,340 L 821,341 L 809,341 Z"/>
  <path d="M 828,340 L 840,340 L 840,341 L 828,341 Z"/>
  <path d="M 852,340 L 862,340 L 862,341 L 852,341 Z"/>
  <path d="M 870,340 L 877,340 L 877,341 L 870,341 Z"/>
  <path d="M 886,340 L 891,340 L 891,341 L 886,341 Z"/>
  <path d="M 809,341 L 821,341 L 821,342 L 809,342 Z"/>
  <path d="M 828,341 L 841,341 L 841,342 L 828,342 Z"/>
  <path d="M 852,341 L 862,341 L 862,342 L 852,342 Z"/>
  <path d="M 870,341 L 877,341 L 877,342 L 870,342 Z"/>
  <path d="M 886,341 L 891,341 L 891,342 L 886,342 Z"/>
  <path d="M 809,342 L 821,342 L 821,343 L 809,343 Z"/>
  <path d="M 828,342 L 841,342 L 841,343 L 828,343 Z"/>
  <path d="M 853,342 L 862,342 L 862,343 L 853,343 Z"/>
  <path d="M 869,342 L 877,342 L 877,343 L 869,343 Z"/>
  <path d="M 886,342 L 891,342 L 891,343 L 886,343 Z"/>
  <path d="M 809,343 L 821,343 L 821,344 L 809,344 Z"/>
  <path d="M 828,343 L 842,343 L 842,344 L 828,344 Z"/>
  <path d="M 853,343 L 861,343 L 861,344 L 853,344 Z"/>
  <path d="M 869,343 L 876,343 L 876,344 L 869,344 Z"/>
  <path d="M 886,343 L 891,343 L 891,344 L 886,344 Z"/>
  <path d="M 809,344 L 821,344 L 821,345 L 809,345 Z"/>
  <path d="M 828,344 L 842,344 L 842,345 L 828,345 Z"/>
  <path d="M 853,344 L 861,344 L 861,345 L 853,345 Z"/>
  <path d="M 869,344 L 876,344 L 876,345 L 869,345 Z"/>
  <path d="M 885,344 L 890,344 L 890,345 L 885,345 Z"/>
  <path d="M 809,345 L 821,345 L 821,346 L 809,346 Z"/>
  <path d="M 828,345 L 842,345 L 842,346 L 828,346 Z"/>
  <path d="M 853,345 L 861,345 L 861,346 L 853,346 Z"/>
  <path d="M 870,345 L 876,345 L 876,346 L 870,346 Z"/>
  <path d="M 885,345 L 890,345 L 890,346 L 885,346 Z"/>
  <path d="M 809,346 L 821,346 L 821,347 L 809,347 Z"/>
  <path d="M 828,346 L 843,346 L 843,347 L 828,347 Z"/>
  <path d="M 853,346 L 861,346 L 861,347 L 853,347 Z"/>
  <path d="M 870,346 L 876,346 L 876,347 L 870,347 Z"/>
  <path d="M 885,346 L 890,346 L 890,347 L 885,347 Z"/>
  <path d="M 808,347 L 822,347 L 822,348 L 808,348 Z"/>
  <path d="M 829,347 L 843,347 L 843,348 L 829,348 Z"/>
  <path d="M 853,347 L 861,347 L 861,348 L 853,348 Z"/>
  <path d="M 870,347 L 876,347 L 876,348 L 870,348 Z"/>
  <path d="M 885,347 L 890,347 L 890,348 L 885,348 Z"/>
  <path d="M 808,348 L 822,348 L 822,349 L 808,349 Z"/>
  <path d="M 829,348 L 844,348 L 844,349 L 829,349 Z"/>
  <path d="M 853,348 L 860,348 L 860,349 L 853,349 Z"/>
  <path d="M 870,348 L 876,348 L 876,349 L 870,349 Z"/>
  <path d="M 885,348 L 889,348 L 889,349 L 885,349 Z"/>
  <path d="M 808,349 L 822,349 L 822,350 L 808,350 Z"/>
  <path d="M 830,349 L 844,349 L 844,350 L 830,350 Z"/>
  <path d="M 853,349 L 860,349 L 860,350 L 853,350 Z"/>
  <path d="M 870,349 L 875,349 L 875,350 L 870,350 Z"/>
  <path d="M 885,349 L 889,349 L 889,350 L 885,350 Z"/>
  <path d="M 753,350 L 762,350 L 762,351 L 753,351 Z"/>
  <path d="M 807,350 L 822,350 L 822,351 L 807,351 Z"/>
  <path d="M 830,350 L 843,350 L 843,351 L 830,351 Z"/>
  <path d="M 854,350 L 860,350 L 860,351 L 854,351 Z"/>
  <path d="M 870,350 L 875,350 L 875,351 L 870,351 Z"/>
  <path d="M 884,350 L 889,350 L 889,351 L 884,351 Z"/>
  <path d="M 752,351 L 763,351 L 763,352 L 752,352 Z"/>
  <path d="M 807,351 L 822,351 L 822,352 L 807,352 Z"/>
  <path d="M 830,351 L 843,351 L 843,352 L 830,352 Z"/>
  <path d="M 854,351 L 860,351 L 860,352 L 854,352 Z"/>
  <path d="M 870,351 L 875,351 L 875,352 L 870,352 Z"/>
  <path d="M 884,351 L 889,351 L 889,352 L 884,352 Z"/>
  <path d="M 750,352 L 765,352 L 765,353 L 750,353 Z"/>
  <path d="M 807,352 L 823,352 L 823,353 L 807,353 Z"/>
  <path d="M 831,352 L 843,352 L 843,353 L 831,353 Z"/>
  <path d="M 854,352 L 860,352 L 860,353 L 854,353 Z"/>
  <path d="M 870,352 L 875,352 L 875,353 L 870,353 Z"/>
  <path d="M 884,352 L 889,352 L 889,353 L 884,353 Z"/>
  <path d="M 743,353 L 766,353 L 766,354 L 743,354 Z"/>
  <path d="M 807,353 L 823,353 L 823,354 L 807,354 Z"/>
  <path d="M 831,353 L 843,353 L 843,354 L 831,354 Z"/>
  <path d="M 854,353 L 860,353 L 860,354 L 854,354 Z"/>
  <path d="M 870,353 L 875,353 L 875,354 L 870,354 Z"/>
  <path d="M 884,353 L 889,353 L 889,354 L 884,354 Z"/>
  <path d="M 741,354 L 767,354 L 767,355 L 741,355 Z"/>
  <path d="M 807,354 L 824,354 L 824,355 L 807,355 Z"/>
  <path d="M 832,354 L 843,354 L 843,355 L 832,355 Z"/>
  <path d="M 854,354 L 860,354 L 860,355 L 854,355 Z"/>
  <path d="M 870,354 L 875,354 L 875,355 L 870,355 Z"/>
  <path d="M 883,354 L 889,354 L 889,355 L 883,355 Z"/>
  <path d="M 740,355 L 769,355 L 769,356 L 740,356 Z"/>
  <path d="M 808,355 L 824,355 L 824,356 L 808,356 Z"/>
  <path d="M 833,355 L 843,355 L 843,356 L 833,356 Z"/>
  <path d="M 855,355 L 859,355 L 859,356 L 855,356 Z"/>
  <path d="M 870,355 L 875,355 L 875,356 L 870,356 Z"/>
  <path d="M 883,355 L 888,355 L 888,356 L 883,356 Z"/>
  <path d="M 739,356 L 771,356 L 771,357 L 739,357 Z"/>
  <path d="M 808,356 L 824,356 L 824,357 L 808,357 Z"/>
  <path d="M 834,356 L 843,356 L 843,357 L 834,357 Z"/>
  <path d="M 855,356 L 859,356 L 859,357 L 855,357 Z"/>
  <path d="M 870,356 L 875,356 L 875,357 L 870,357 Z"/>
  <path d="M 883,356 L 888,356 L 888,357 L 883,357 Z"/>
  <path d="M 738,357 L 772,357 L 772,358 L 738,358 Z"/>
  <path d="M 808,357 L 825,357 L 825,358 L 808,358 Z"/>
  <path d="M 835,357 L 843,357 L 843,358 L 835,358 Z"/>
  <path d="M 855,357 L 859,357 L 859,358 L 855,358 Z"/>
  <path d="M 869,357 L 875,357 L 875,358 L 869,358 Z"/>
  <path d="M 883,357 L 887,357 L 887,358 L 883,358 Z"/>
  <path d="M 737,358 L 773,358 L 773,359 L 737,359 Z"/>
  <path d="M 809,358 L 826,358 L 826,359 L 809,359 Z"/>
  <path d="M 836,358 L 844,358 L 844,359 L 836,359 Z"/>
  <path d="M 855,358 L 859,358 L 859,359 L 855,359 Z"/>
  <path d="M 869,358 L 875,358 L 875,359 L 869,359 Z"/>
  <path d="M 883,358 L 886,358 L 886,359 L 883,359 Z"/>
  <path d="M 737,359 L 774,359 L 774,360 L 737,360 Z"/>
  <path d="M 809,359 L 826,359 L 826,360 L 809,360 Z"/>
  <path d="M 837,359 L 844,359 L 844,360 L 837,360 Z"/>
  <path d="M 855,359 L 859,359 L 859,360 L 855,360 Z"/>
  <path d="M 869,359 L 874,359 L 874,360 L 869,360 Z"/>
  <path d="M 882,359 L 886,359 L 886,360 L 882,360 Z"/>
  <path d="M 736,360 L 775,360 L 775,361 L 736,361 Z"/>
  <path d="M 810,360 L 827,360 L 827,361 L 810,361 Z"/>
  <path d="M 838,360 L 844,360 L 844,361 L 838,361 Z"/>
  <path d="M 855,360 L 859,360 L 859,361 L 855,361 Z"/>
  <path d="M 869,360 L 874,360 L 874,361 L 869,361 Z"/>
  <path d="M 882,360 L 885,360 L 885,361 L 882,361 Z"/>
  <path d="M 736,361 L 778,361 L 778,362 L 736,362 Z"/>
  <path d="M 810,361 L 828,361 L 828,362 L 810,362 Z"/>
  <path d="M 838,361 L 843,361 L 843,362 L 838,362 Z"/>
  <path d="M 855,361 L 859,361 L 859,362 L 855,362 Z"/>
  <path d="M 869,361 L 873,361 L 873,362 L 869,362 Z"/>
  <path d="M 881,361 L 884,361 L 884,362 L 881,362 Z"/>
  <path d="M 735,362 L 779,362 L 779,363 L 735,363 Z"/>
  <path d="M 810,362 L 830,362 L 830,363 L 810,363 Z"/>
  <path d="M 839,362 L 843,362 L 843,363 L 839,363 Z"/>
  <path d="M 854,362 L 860,362 L 860,363 L 854,363 Z"/>
  <path d="M 869,362 L 873,362 L 873,363 L 869,363 Z"/>
  <path d="M 881,362 L 883,362 L 883,363 L 881,363 Z"/>
  <path d="M 735,363 L 780,363 L 780,364 L 735,364 Z"/>
  <path d="M 810,363 L 830,363 L 830,364 L 810,364 Z"/>
  <path d="M 840,363 L 843,363 L 843,364 L 840,364 Z"/>
  <path d="M 854,363 L 860,363 L 860,364 L 854,364 Z"/>
  <path d="M 869,363 L 872,363 L 872,364 L 869,364 Z"/>
  <path d="M 735,364 L 781,364 L 781,365 L 735,365 Z"/>
  <path d="M 811,364 L 823,364 L 823,365 L 811,365 Z"/>
  <path d="M 841,364 L 842,364 L 842,365 L 841,365 Z"/>
  <path d="M 853,364 L 860,364 L 860,365 L 853,365 Z"/>
  <path d="M 869,364 L 872,364 L 872,365 L 869,365 Z"/>
  <path d="M 734,365 L 783,365 L 783,366 L 734,366 Z"/>
  <path d="M 812,365 L 816,365 L 816,366 L 812,366 Z"/>
  <path d="M 853,365 L 859,365 L 859,366 L 853,366 Z"/>
  <path d="M 869,365 L 871,365 L 871,366 L 869,366 Z"/>
  <path d="M 734,366 L 785,366 L 785,367 L 734,367 Z"/>
  <path d="M 853,366 L 859,366 L 859,367 L 853,367 Z"/>
  <path d="M 868,366 L 871,366 L 871,367 L 868,367 Z"/>
  <path d="M 734,367 L 796,367 L 796,368 L 734,368 Z"/>
  <path d="M 798,367 L 800,367 L 800,368 L 798,368 Z"/>
  <path d="M 853,367 L 859,367 L 859,368 L 853,368 Z"/>
  <path d="M 868,367 L 870,367 L 870,368 L 868,368 Z"/>
  <path d="M 733,368 L 801,368 L 801,369 L 733,369 Z"/>
  <path d="M 853,368 L 859,368 L 859,369 L 853,369 Z"/>
  <path d="M 868,368 L 870,368 L 870,369 L 868,369 Z"/>
  <path d="M 733,369 L 801,369 L 801,370 L 733,370 Z"/>
  <path d="M 853,369 L 858,369 L 858,370 L 853,370 Z"/>
  <path d="M 867,369 L 870,369 L 870,370 L 867,370 Z"/>
  <path d="M 733,370 L 800,370 L 800,371 L 733,371 Z"/>
  <path d="M 853,370 L 858,370 L 858,371 L 853,371 Z"/>
  <path d="M 867,370 L 869,370 L 869,371 L 867,371 Z"/>
  <path d="M 734,371 L 798,371 L 798,372 L 734,372 Z"/>
  <path d="M 852,371 L 858,371 L 858,372 L 852,372 Z"/>
  <path d="M 734,372 L 796,372 L 796,373 L 734,373 Z"/>
  <path d="M 851,372 L 857,372 L 857,373 L 851,373 Z"/>
  <path d="M 734,373 L 794,373 L 794,374 L 734,374 Z"/>
  <path d="M 850,373 L 856,373 L 856,374 L 850,374 Z"/>
  <path d="M 734,374 L 792,374 L 792,375 L 734,375 Z"/>
  <path d="M 850,374 L 856,374 L 856,375 L 850,375 Z"/>
  <path d="M 734,375 L 790,375 L 790,376 L 734,376 Z"/>
  <path d="M 849,375 L 855,375 L 855,376 L 849,376 Z"/>
  <path d="M 734,376 L 788,376 L 788,377 L 734,377 Z"/>
  <path d="M 848,376 L 855,376 L 855,377 L 848,377 Z"/>
  <path d="M 734,377 L 787,377 L 787,378 L 734,378 Z"/>
  <path d="M 849,377 L 855,377 L 855,378 L 849,378 Z"/>
  <path d="M 734,378 L 783,378 L 783,379 L 734,379 Z"/>
  <path d="M 850,378 L 851,378 L 851,379 L 850,379 Z"/>
  <path d="M 852,378 L 855,378 L 855,379 L 852,379 Z"/>
  <path d="M 735,379 L 781,379 L 781,380 L 735,380 Z"/>
  <path d="M 855,379 L 856,379 L 856,380 L 855,380 Z"/>
  <path d="M 735,380 L 780,380 L 780,381 L 735,381 Z"/>
  <path d="M 736,381 L 779,381 L 779,382 L 736,382 Z"/>
  <path d="M 736,382 L 778,382 L 778,383 L 736,383 Z"/>
  <path d="M 736,383 L 777,383 L 777,384 L 736,384 Z"/>
  <path d="M 737,384 L 776,384 L 776,385 L 737,385 Z"/>
  <path d="M 737,385 L 776,385 L 776,386 L 737,386 Z"/>
  <path d="M 737,386 L 775,386 L 775,387 L 737,387 Z"/>
  <path d="M 737,387 L 773,387 L 773,388 L 737,388 Z"/>
  <path d="M 738,388 L 772,388 L 772,389 L 738,389 Z"/>
  <path d="M 739,389 L 771,389 L 771,390 L 739,390 Z"/>
  <path d="M 740,390 L 770,390 L 770,391 L 740,391 Z"/>
  <path d="M 741,391 L 769,391 L 769,392 L 741,392 Z"/>
  <path d="M 741,392 L 768,392 L 768,393 L 741,393 Z"/>
  <path d="M 742,393 L 767,393 L 767,394 L 742,394 Z"/>
  <path d="M 742,394 L 766,394 L 766,395 L 742,395 Z"/>
  <path d="M 742,395 L 765,395 L 765,396 L 742,396 Z"/>
  <path d="M 742,396 L 765,396 L 765,397 L 742,397 Z"/>
  <path d="M 742,397 L 764,397 L 764,398 L 742,398 Z"/>
  <path d="M 742,398 L 764,398 L 764,399 L 742,399 Z"/>
  <path d="M 742,399 L 763,399 L 763,400 L 742,400 Z"/>
  <path d="M 742,400 L 763,400 L 763,401 L 742,401 Z"/>
  <path d="M 742,401 L 762,401 L 762,402 L 742,402 Z"/>
  <path d="M 742,402 L 762,402 L 762,403 L 742,403 Z"/>
  <path d="M 743,403 L 750,403 L 750,404 L 743,404 Z"/>
  <path d="M 754,403 L 761,403 L 761,404 L 754,404 Z"/>
  <path d="M 743,404 L 748,404 L 748,405 L 743,405 Z"/>
  <path d="M 757,404 L 760,404 L 760,405 L 757,405 Z"/>
  <path d="M 743,405 L 746,405 L 746,406 L 743,406 Z"/>
  </g>
</svg>
