<?xml version="1.0" encoding="UTF-8" standalone="no"?>
<svg xmlns="http://www.w3.org/2000/svg" version="1.1"
     width="20.75in" height="14.625in" viewBox="0 0 1494 1053">
  <title>03_White_Fill</title>
  <g fill="#FFFFFF" stroke="none">
  <path d="M 1133,63 L 1140,63 L 1140,64 L 1133,64 Z"/>
  <path d="M 1120,64 L 1144,64 L 1144,65 L 1120,65 Z"/>
  <path d="M 1118,65 L 1147,65 L 1147,66 L 1118,66 Z"/>
  <path d="M 1115,66 L 1149,66 L 1149,67 L 1115,67 Z"/>
  <path d="M 1113,67 L 1152,67 L 1152,68 L 1113,68 Z"/>
  <path d="M 1110,68 L 1154,68 L 1154,69 L 1110,69 Z"/>
  <path d="M 1108,69 L 1157,69 L 1157,70 L 1108,70 Z"/>
  <path d="M 1302,69 L 1320,69 L 1320,70 L 1302,70 Z"/>
  <path d="M 1105,70 L 1160,70 L 1160,71 L 1105,71 Z"/>
  <path d="M 1296,70 L 1323,70 L 1323,71 L 1296,71 Z"/>
  <path d="M 1104,71 L 1161,71 L 1161,72 L 1104,72 Z"/>
  <path d="M 1292,71 L 1326,71 L 1326,72 L 1292,72 Z"/>
  <path d="M 1102,72 L 1163,72 L 1163,73 L 1102,73 Z"/>
  <path d="M 1289,72 L 1329,72 L 1329,73 L 1289,73 Z"/>
  <path d="M 1100,73 L 1164,73 L 1164,74 L 1100,74 Z"/>
  <path d="M 1286,73 L 1331,73 L 1331,74 L 1286,74 Z"/>
  <path d="M 1099,74 L 1166,74 L 1166,75 L 1099,75 Z"/>
  <path d="M 1282,74 L 1333,74 L 1333,75 L 1282,75 Z"/>
  <path d="M 1097,75 L 1167,75 L 1167,76 L 1097,76 Z"/>
  <path d="M 1279,75 L 1335,75 L 1335,76 L 1279,76 Z"/>
  <path d="M 1095,76 L 1168,76 L 1168,77 L 1095,77 Z"/>
  <path d="M 1275,76 L 1336,76 L 1336,77 L 1275,77 Z"/>
  <path d="M 1093,77 L 1169,77 L 1169,78 L 1093,78 Z"/>
  <path d="M 1273,77 L 1338,77 L 1338,78 L 1273,78 Z"/>
  <path d="M 1092,78 L 1170,78 L 1170,79 L 1092,79 Z"/>
  <path d="M 1270,78 L 1339,78 L 1339,79 L 1270,79 Z"/>
  <path d="M 1090,79 L 1171,79 L 1171,80 L 1090,80 Z"/>
  <path d="M 1267,79 L 1341,79 L 1341,80 L 1267,80 Z"/>
  <path d="M 1089,80 L 1171,80 L 1171,81 L 1089,81 Z"/>
  <path d="M 1263,80 L 1343,80 L 1343,81 L 1263,81 Z"/>
  <path d="M 1088,81 L 1172,81 L 1172,82 L 1088,82 Z"/>
  <path d="M 1260,81 L 1344,81 L 1344,82 L 1260,82 Z"/>
  <path d="M 1087,82 L 1172,82 L 1172,83 L 1087,83 Z"/>
  <path d="M 1257,82 L 1346,82 L 1346,83 L 1257,83 Z"/>
  <path d="M 1086,83 L 1172,83 L 1172,84 L 1086,84 Z"/>
  <path d="M 1254,83 L 1348,83 L 1348,84 L 1254,84 Z"/>
  <path d="M 1085,84 L 1172,84 L 1172,85 L 1085,85 Z"/>
  <path d="M 1251,84 L 1350,84 L 1350,85 L 1251,85 Z"/>
  <path d="M 1084,85 L 1172,85 L 1172,86 L 1084,86 Z"/>
  <path d="M 1247,85 L 1351,85 L 1351,86 L 1247,86 Z"/>
  <path d="M 1083,86 L 1172,86 L 1172,87 L 1083,87 Z"/>
  <path d="M 1243,86 L 1353,86 L 1353,87 L 1243,87 Z"/>
  <path d="M 1082,87 L 1172,87 L 1172,88 L 1082,88 Z"/>
  <path d="M 1240,87 L 1355,87 L 1355,88 L 1240,88 Z"/>
  <path d="M 1081,88 L 1171,88 L 1171,89 L 1081,89 Z"/>
  <path d="M 1237,88 L 1356,88 L 1356,89 L 1237,89 Z"/>
  <path d="M 1080,89 L 1171,89 L 1171,90 L 1080,90 Z"/>
  <path d="M 1232,89 L 1358,89 L 1358,90 L 1232,90 Z"/>
  <path d="M 1080,90 L 1171,90 L 1171,91 L 1080,91 Z"/>
  <path d="M 1228,90 L 1359,90 L 1359,91 L 1228,91 Z"/>
  <path d="M 1079,91 L 1171,91 L 1171,92 L 1079,92 Z"/>
  <path d="M 1225,91 L 1360,91 L 1360,92 L 1225,92 Z"/>
  <path d="M 1078,92 L 1171,92 L 1171,93 L 1078,93 Z"/>
  <path d="M 1222,92 L 1362,92 L 1362,93 L 1222,93 Z"/>
  <path d="M 1077,93 L 1171,93 L 1171,94 L 1077,94 Z"/>
  <path d="M 1218,93 L 1363,93 L 1363,94 L 1218,94 Z"/>
  <path d="M 1077,94 L 1171,94 L 1171,95 L 1077,95 Z"/>
  <path d="M 1214,94 L 1365,94 L 1365,95 L 1214,95 Z"/>
  <path d="M 1076,95 L 1172,95 L 1172,96 L 1076,96 Z"/>
  <path d="M 1211,95 L 1366,95 L 1366,96 L 1211,96 Z"/>
  <path d="M 1075,96 L 1173,96 L 1173,97 L 1075,97 Z"/>
  <path d="M 1208,96 L 1366,96 L 1366,97 L 1208,97 Z"/>
  <path d="M 1074,97 L 1174,97 L 1174,98 L 1074,98 Z"/>
  <path d="M 1206,97 L 1366,97 L 1366,98 L 1206,98 Z"/>
  <path d="M 1073,98 L 1175,98 L 1175,99 L 1073,99 Z"/>
  <path d="M 1204,98 L 1367,98 L 1367,99 L 1204,99 Z"/>
  <path d="M 1072,99 L 1177,99 L 1177,100 L 1072,100 Z"/>
  <path d="M 1203,99 L 1368,99 L 1368,100 L 1203,100 Z"/>
  <path d="M 1376,99 L 1377,99 L 1377,100 L 1376,100 Z"/>
  <path d="M 1072,100 L 1180,100 L 1180,101 L 1072,101 Z"/>
  <path d="M 1203,100 L 1369,100 L 1369,101 L 1203,101 Z"/>
  <path d="M 1374,100 L 1380,100 L 1380,101 L 1374,101 Z"/>
  <path d="M 1071,101 L 1184,101 L 1184,102 L 1071,102 Z"/>
  <path d="M 1204,101 L 1383,101 L 1383,102 L 1204,102 Z"/>
  <path d="M 1069,102 L 1187,102 L 1187,103 L 1069,103 Z"/>
  <path d="M 1204,102 L 1386,102 L 1386,103 L 1204,103 Z"/>
  <path d="M 1068,103 L 1191,103 L 1191,104 L 1068,104 Z"/>
  <path d="M 1205,103 L 1388,103 L 1388,104 L 1205,104 Z"/>
  <path d="M 1067,104 L 1193,104 L 1193,105 L 1067,105 Z"/>
  <path d="M 1206,104 L 1390,104 L 1390,105 L 1206,105 Z"/>
  <path d="M 1066,105 L 1195,105 L 1195,106 L 1066,106 Z"/>
  <path d="M 1208,105 L 1390,105 L 1390,106 L 1208,106 Z"/>
  <path d="M 1065,106 L 1196,106 L 1196,107 L 1065,107 Z"/>
  <path d="M 1209,106 L 1391,106 L 1391,107 L 1209,107 Z"/>
  <path d="M 1064,107 L 1197,107 L 1197,108 L 1064,108 Z"/>
  <path d="M 1211,107 L 1391,107 L 1391,108 L 1211,108 Z"/>
  <path d="M 1062,108 L 1198,108 L 1198,109 L 1062,109 Z"/>
  <path d="M 1214,108 L 1392,108 L 1392,109 L 1214,109 Z"/>
  <path d="M 1061,109 L 1198,109 L 1198,110 L 1061,110 Z"/>
  <path d="M 1216,109 L 1393,109 L 1393,110 L 1216,110 Z"/>
  <path d="M 1059,110 L 1199,110 L 1199,111 L 1059,111 Z"/>
  <path d="M 1217,110 L 1393,110 L 1393,111 L 1217,111 Z"/>
  <path d="M 1058,111 L 1200,111 L 1200,112 L 1058,112 Z"/>
  <path d="M 1217,111 L 1394,111 L 1394,112 L 1217,112 Z"/>
  <path d="M 1056,112 L 1201,112 L 1201,113 L 1056,113 Z"/>
  <path d="M 1218,112 L 1394,112 L 1394,113 L 1218,113 Z"/>
  <path d="M 1055,113 L 1203,113 L 1203,114 L 1055,114 Z"/>
  <path d="M 1218,113 L 1395,113 L 1395,114 L 1218,114 Z"/>
  <path d="M 1053,114 L 1204,114 L 1204,115 L 1053,115 Z"/>
  <path d="M 1217,114 L 1395,114 L 1395,115 L 1217,115 Z"/>
  <path d="M 1052,115 L 1206,115 L 1206,116 L 1052,116 Z"/>
  <path d="M 1217,115 L 1396,115 L 1396,116 L 1217,116 Z"/>
  <path d="M 1050,116 L 1207,116 L 1207,117 L 1050,117 Z"/>
  <path d="M 1216,116 L 1396,116 L 1396,117 L 1216,117 Z"/>
  <path d="M 1049,117 L 1210,117 L 1210,118 L 1049,118 Z"/>
  <path d="M 1214,117 L 1397,117 L 1397,118 L 1214,118 Z"/>
  <path d="M 1047,118 L 1397,118 L 1397,119 L 1047,119 Z"/>
  <path d="M 1046,119 L 1398,119 L 1398,120 L 1046,120 Z"/>
  <path d="M 1045,120 L 1398,120 L 1398,121 L 1045,121 Z"/>
  <path d="M 1044,121 L 1398,121 L 1398,122 L 1044,122 Z"/>
  <path d="M 1043,122 L 1398,122 L 1398,123 L 1043,123 Z"/>
  <path d="M 1042,123 L 1398,123 L 1398,124 L 1042,124 Z"/>
  <path d="M 1042,124 L 1398,124 L 1398,125 L 1042,125 Z"/>
  <path d="M 1041,125 L 1398,125 L 1398,126 L 1041,126 Z"/>
  <path d="M 1041,126 L 1398,126 L 1398,127 L 1041,127 Z"/>
  <path d="M 1040,127 L 1398,127 L 1398,128 L 1040,128 Z"/>
  <path d="M 1040,128 L 1398,128 L 1398,129 L 1040,129 Z"/>
  <path d="M 1040,129 L 1399,129 L 1399,130 L 1040,130 Z"/>
  <path d="M 1040,130 L 1399,130 L 1399,131 L 1040,131 Z"/>
  <path d="M 1040,131 L 1399,131 L 1399,132 L 1040,132 Z"/>
  <path d="M 1040,132 L 1399,132 L 1399,133 L 1040,133 Z"/>
  <path d="M 1041,133 L 1400,133 L 1400,134 L 1041,134 Z"/>
  <path d="M 1041,134 L 1130,134 L 1130,135 L 1041,135 Z"/>
  <path d="M 1140,134 L 1400,134 L 1400,135 L 1140,135 Z"/>
  <path d="M 1042,135 L 1124,135 L 1124,136 L 1042,136 Z"/>
  <path d="M 1144,135 L 1400,135 L 1400,136 L 1144,136 Z"/>
  <path d="M 1042,136 L 1121,136 L 1121,137 L 1042,137 Z"/>
  <path d="M 1147,136 L 1400,136 L 1400,137 L 1147,137 Z"/>
  <path d="M 1043,137 L 1118,137 L 1118,138 L 1043,138 Z"/>
  <path d="M 1150,137 L 1400,137 L 1400,138 L 1150,138 Z"/>
  <path d="M 1044,138 L 1114,138 L 1114,139 L 1044,139 Z"/>
  <path d="M 1151,138 L 1400,138 L 1400,139 L 1151,139 Z"/>
  <path d="M 1045,139 L 1111,139 L 1111,140 L 1045,140 Z"/>
  <path d="M 1153,139 L 1400,139 L 1400,140 L 1153,140 Z"/>
  <path d="M 1046,140 L 1107,140 L 1107,141 L 1046,141 Z"/>
  <path d="M 1154,140 L 1399,140 L 1399,141 L 1154,141 Z"/>
  <path d="M 1048,141 L 1102,141 L 1102,142 L 1048,142 Z"/>
  <path d="M 1155,141 L 1399,141 L 1399,142 L 1155,142 Z"/>
  <path d="M 1049,142 L 1099,142 L 1099,143 L 1049,143 Z"/>
  <path d="M 1156,142 L 1398,142 L 1398,143 L 1156,143 Z"/>
  <path d="M 1052,143 L 1097,143 L 1097,144 L 1052,144 Z"/>
  <path d="M 1156,143 L 1398,143 L 1398,144 L 1156,144 Z"/>
  <path d="M 1054,144 L 1094,144 L 1094,145 L 1054,145 Z"/>
  <path d="M 1157,144 L 1397,144 L 1397,145 L 1157,145 Z"/>
  <path d="M 1058,145 L 1091,145 L 1091,146 L 1058,146 Z"/>
  <path d="M 1157,145 L 1397,145 L 1397,146 L 1157,146 Z"/>
  <path d="M 1062,146 L 1089,146 L 1089,147 L 1062,147 Z"/>
  <path d="M 1157,146 L 1397,146 L 1397,147 L 1157,147 Z"/>
  <path d="M 1065,147 L 1087,147 L 1087,148 L 1065,148 Z"/>
  <path d="M 1157,147 L 1285,147 L 1285,148 L 1157,148 Z"/>
  <path d="M 1295,147 L 1396,147 L 1396,148 L 1295,148 Z"/>
  <path d="M 1071,148 L 1084,148 L 1084,149 L 1071,149 Z"/>
  <path d="M 1158,148 L 1283,148 L 1283,149 L 1158,149 Z"/>
  <path d="M 1298,148 L 1396,148 L 1396,149 L 1298,149 Z"/>
  <path d="M 1076,149 L 1081,149 L 1081,150 L 1076,150 Z"/>
  <path d="M 1158,149 L 1282,149 L 1282,150 L 1158,150 Z"/>
  <path d="M 1299,149 L 1396,149 L 1396,150 L 1299,150 Z"/>
  <path d="M 1158,150 L 1282,150 L 1282,151 L 1158,151 Z"/>
  <path d="M 1301,150 L 1396,150 L 1396,151 L 1301,151 Z"/>
  <path d="M 1158,151 L 1282,151 L 1282,152 L 1158,152 Z"/>
  <path d="M 1302,151 L 1396,151 L 1396,152 L 1302,152 Z"/>
  <path d="M 1158,152 L 1283,152 L 1283,153 L 1158,153 Z"/>
  <path d="M 1303,152 L 1396,152 L 1396,153 L 1303,153 Z"/>
  <path d="M 1158,153 L 1284,153 L 1284,154 L 1158,154 Z"/>
  <path d="M 1303,153 L 1395,153 L 1395,154 L 1303,154 Z"/>
  <path d="M 1157,154 L 1286,154 L 1286,155 L 1157,155 Z"/>
  <path d="M 1304,154 L 1394,154 L 1394,155 L 1304,155 Z"/>
  <path d="M 1157,155 L 1287,155 L 1287,156 L 1157,156 Z"/>
  <path d="M 1305,155 L 1393,155 L 1393,156 L 1305,156 Z"/>
  <path d="M 1157,156 L 1289,156 L 1289,157 L 1157,157 Z"/>
  <path d="M 1305,156 L 1391,156 L 1391,157 L 1305,157 Z"/>
  <path d="M 1157,157 L 1290,157 L 1290,158 L 1157,158 Z"/>
  <path d="M 1306,157 L 1390,157 L 1390,158 L 1306,158 Z"/>
  <path d="M 1156,158 L 1290,158 L 1290,159 L 1156,159 Z"/>
  <path d="M 1306,158 L 1388,158 L 1388,159 L 1306,159 Z"/>
  <path d="M 1156,159 L 1290,159 L 1290,160 L 1156,160 Z"/>
  <path d="M 1306,159 L 1386,159 L 1386,160 L 1306,160 Z"/>
  <path d="M 1155,160 L 1291,160 L 1291,161 L 1155,161 Z"/>
  <path d="M 1307,160 L 1383,160 L 1383,161 L 1307,161 Z"/>
  <path d="M 1154,161 L 1291,161 L 1291,162 L 1154,162 Z"/>
  <path d="M 1307,161 L 1381,161 L 1381,162 L 1307,162 Z"/>
  <path d="M 1153,162 L 1291,162 L 1291,163 L 1153,163 Z"/>
  <path d="M 1307,162 L 1379,162 L 1379,163 L 1307,163 Z"/>
  <path d="M 1152,163 L 1291,163 L 1291,164 L 1152,164 Z"/>
  <path d="M 1307,163 L 1378,163 L 1378,164 L 1307,164 Z"/>
  <path d="M 1151,164 L 1291,164 L 1291,165 L 1151,165 Z"/>
  <path d="M 1307,164 L 1377,164 L 1377,165 L 1307,165 Z"/>
  <path d="M 1149,165 L 1291,165 L 1291,166 L 1149,166 Z"/>
  <path d="M 1307,165 L 1375,165 L 1375,166 L 1307,166 Z"/>
  <path d="M 1148,166 L 1291,166 L 1291,167 L 1148,167 Z"/>
  <path d="M 1307,166 L 1374,166 L 1374,167 L 1307,167 Z"/>
  <path d="M 1147,167 L 1291,167 L 1291,168 L 1147,168 Z"/>
  <path d="M 1307,167 L 1372,167 L 1372,168 L 1307,168 Z"/>
  <path d="M 1148,168 L 1290,168 L 1290,169 L 1148,169 Z"/>
  <path d="M 1306,168 L 1370,168 L 1370,169 L 1306,169 Z"/>
  <path d="M 1149,169 L 1290,169 L 1290,170 L 1149,170 Z"/>
  <path d="M 1306,169 L 1367,169 L 1367,170 L 1306,170 Z"/>
  <path d="M 1150,170 L 1289,170 L 1289,171 L 1150,171 Z"/>
  <path d="M 1306,170 L 1364,170 L 1364,171 L 1306,171 Z"/>
  <path d="M 1151,171 L 1289,171 L 1289,172 L 1151,172 Z"/>
  <path d="M 1305,171 L 1360,171 L 1360,172 L 1305,172 Z"/>
  <path d="M 491,172 L 511,172 L 511,173 L 491,173 Z"/>
  <path d="M 1151,172 L 1288,172 L 1288,173 L 1151,173 Z"/>
  <path d="M 1305,172 L 1354,172 L 1354,173 L 1305,173 Z"/>
  <path d="M 484,173 L 515,173 L 515,174 L 484,174 Z"/>
  <path d="M 1152,173 L 1287,173 L 1287,174 L 1152,174 Z"/>
  <path d="M 1304,173 L 1337,173 L 1337,174 L 1304,174 Z"/>
  <path d="M 475,174 L 520,174 L 520,175 L 475,175 Z"/>
  <path d="M 524,174 L 530,174 L 530,175 L 524,175 Z"/>
  <path d="M 1153,174 L 1285,174 L 1285,175 L 1153,175 Z"/>
  <path d="M 1304,174 L 1332,174 L 1332,175 L 1304,175 Z"/>
  <path d="M 472,175 L 534,175 L 534,176 L 472,176 Z"/>
  <path d="M 1153,175 L 1284,175 L 1284,176 L 1153,176 Z"/>
  <path d="M 1303,175 L 1327,175 L 1327,176 L 1303,176 Z"/>
  <path d="M 470,176 L 537,176 L 537,177 L 470,177 Z"/>
  <path d="M 1154,176 L 1281,176 L 1281,177 L 1154,177 Z"/>
  <path d="M 1303,176 L 1322,176 L 1322,177 L 1303,177 Z"/>
  <path d="M 467,177 L 540,177 L 540,178 L 467,178 Z"/>
  <path d="M 1155,177 L 1279,177 L 1279,178 L 1155,178 Z"/>
  <path d="M 1305,177 L 1318,177 L 1318,178 L 1305,178 Z"/>
  <path d="M 465,178 L 542,178 L 542,179 L 465,179 Z"/>
  <path d="M 1156,178 L 1276,178 L 1276,179 L 1156,179 Z"/>
  <path d="M 1310,178 L 1314,178 L 1314,179 L 1310,179 Z"/>
  <path d="M 457,179 L 459,179 L 459,180 L 457,180 Z"/>
  <path d="M 463,179 L 546,179 L 546,180 L 463,180 Z"/>
  <path d="M 1157,179 L 1274,179 L 1274,180 L 1157,180 Z"/>
  <path d="M 454,180 L 549,180 L 549,181 L 454,181 Z"/>
  <path d="M 1157,180 L 1273,180 L 1273,181 L 1157,181 Z"/>
  <path d="M 452,181 L 551,181 L 551,182 L 452,182 Z"/>
  <path d="M 1158,181 L 1272,181 L 1272,182 L 1158,182 Z"/>
  <path d="M 450,182 L 553,182 L 553,183 L 450,183 Z"/>
  <path d="M 1159,182 L 1270,182 L 1270,183 L 1159,183 Z"/>
  <path d="M 449,183 L 555,183 L 555,184 L 449,184 Z"/>
  <path d="M 1159,183 L 1269,183 L 1269,184 L 1159,184 Z"/>
  <path d="M 447,184 L 557,184 L 557,185 L 447,185 Z"/>
  <path d="M 1160,184 L 1267,184 L 1267,185 L 1160,185 Z"/>
  <path d="M 135,185 L 140,185 L 140,186 L 135,186 Z"/>
  <path d="M 445,185 L 559,185 L 559,186 L 445,186 Z"/>
  <path d="M 1160,185 L 1266,185 L 1266,186 L 1160,186 Z"/>
  <path d="M 133,186 L 142,186 L 142,187 L 133,187 Z"/>
  <path d="M 443,186 L 560,186 L 560,187 L 443,187 Z"/>
  <path d="M 1161,186 L 1265,186 L 1265,187 L 1161,187 Z"/>
  <path d="M 131,187 L 143,187 L 143,188 L 131,188 Z"/>
  <path d="M 440,187 L 562,187 L 562,188 L 440,188 Z"/>
  <path d="M 1162,187 L 1263,187 L 1263,188 L 1162,188 Z"/>
  <path d="M 130,188 L 145,188 L 145,189 L 130,189 Z"/>
  <path d="M 438,188 L 563,188 L 563,189 L 438,189 Z"/>
  <path d="M 1162,188 L 1262,188 L 1262,189 L 1162,189 Z"/>
  <path d="M 128,189 L 146,189 L 146,190 L 128,190 Z"/>
  <path d="M 436,189 L 564,189 L 564,190 L 436,190 Z"/>
  <path d="M 1163,189 L 1261,189 L 1261,190 L 1163,190 Z"/>
  <path d="M 127,190 L 148,190 L 148,191 L 127,191 Z"/>
  <path d="M 434,190 L 565,190 L 565,191 L 434,191 Z"/>
  <path d="M 1163,190 L 1261,190 L 1261,191 L 1163,191 Z"/>
  <path d="M 125,191 L 150,191 L 150,192 L 125,192 Z"/>
  <path d="M 432,191 L 566,191 L 566,192 L 432,192 Z"/>
  <path d="M 1163,191 L 1260,191 L 1260,192 L 1163,192 Z"/>
  <path d="M 123,192 L 152,192 L 152,193 L 123,193 Z"/>
  <path d="M 429,192 L 568,192 L 568,193 L 429,193 Z"/>
  <path d="M 1164,192 L 1260,192 L 1260,193 L 1164,193 Z"/>
  <path d="M 121,193 L 154,193 L 154,194 L 121,194 Z"/>
  <path d="M 203,193 L 213,193 L 213,194 L 203,194 Z"/>
  <path d="M 427,193 L 570,193 L 570,194 L 427,194 Z"/>
  <path d="M 1164,193 L 1259,193 L 1259,194 L 1164,194 Z"/>
  <path d="M 120,194 L 155,194 L 155,195 L 120,195 Z"/>
  <path d="M 199,194 L 217,194 L 217,195 L 199,195 Z"/>
  <path d="M 426,194 L 573,194 L 573,195 L 426,195 Z"/>
  <path d="M 1165,194 L 1259,194 L 1259,195 L 1165,195 Z"/>
  <path d="M 118,195 L 157,195 L 157,196 L 118,196 Z"/>
  <path d="M 197,195 L 222,195 L 222,196 L 197,196 Z"/>
  <path d="M 425,195 L 574,195 L 574,196 L 425,196 Z"/>
  <path d="M 1165,195 L 1259,195 L 1259,196 L 1165,196 Z"/>
  <path d="M 116,196 L 159,196 L 159,197 L 116,197 Z"/>
  <path d="M 195,196 L 226,196 L 226,197 L 195,197 Z"/>
  <path d="M 424,196 L 575,196 L 575,197 L 424,197 Z"/>
  <path d="M 1166,196 L 1259,196 L 1259,197 L 1166,197 Z"/>
  <path d="M 114,197 L 161,197 L 161,198 L 114,198 Z"/>
  <path d="M 193,197 L 230,197 L 230,198 L 193,198 Z"/>
  <path d="M 423,197 L 576,197 L 576,198 L 423,198 Z"/>
  <path d="M 1167,197 L 1232,197 L 1232,198 L 1167,198 Z"/>
  <path d="M 1246,197 L 1259,197 L 1259,198 L 1246,198 Z"/>
  <path d="M 112,198 L 162,198 L 162,199 L 112,199 Z"/>
  <path d="M 191,198 L 232,198 L 232,199 L 191,199 Z"/>
  <path d="M 422,198 L 577,198 L 577,199 L 422,199 Z"/>
  <path d="M 1168,198 L 1219,198 L 1219,199 L 1168,199 Z"/>
  <path d="M 1250,198 L 1259,198 L 1259,199 L 1250,199 Z"/>
  <path d="M 110,199 L 164,199 L 164,200 L 110,200 Z"/>
  <path d="M 189,199 L 234,199 L 234,200 L 189,200 Z"/>
  <path d="M 421,199 L 578,199 L 578,200 L 421,200 Z"/>
  <path d="M 1169,199 L 1214,199 L 1214,200 L 1169,200 Z"/>
  <path d="M 1255,199 L 1256,199 L 1256,200 L 1255,200 Z"/>
  <path d="M 107,200 L 165,200 L 165,201 L 107,201 Z"/>
  <path d="M 188,200 L 236,200 L 236,201 L 188,201 Z"/>
  <path d="M 419,200 L 579,200 L 579,201 L 419,201 Z"/>
  <path d="M 1170,200 L 1208,200 L 1208,201 L 1170,201 Z"/>
  <path d="M 104,201 L 167,201 L 167,202 L 104,202 Z"/>
  <path d="M 186,201 L 238,201 L 238,202 L 186,202 Z"/>
  <path d="M 418,201 L 579,201 L 579,202 L 418,202 Z"/>
  <path d="M 1172,201 L 1203,201 L 1203,202 L 1172,202 Z"/>
  <path d="M 101,202 L 168,202 L 168,203 L 101,203 Z"/>
  <path d="M 184,202 L 239,202 L 239,203 L 184,203 Z"/>
  <path d="M 418,202 L 580,202 L 580,203 L 418,203 Z"/>
  <path d="M 1175,202 L 1196,202 L 1196,203 L 1175,203 Z"/>
  <path d="M 99,203 L 169,203 L 169,204 L 99,204 Z"/>
  <path d="M 182,203 L 241,203 L 241,204 L 182,204 Z"/>
  <path d="M 266,203 L 273,203 L 273,204 L 266,204 Z"/>
  <path d="M 417,203 L 581,203 L 581,204 L 417,204 Z"/>
  <path d="M 1181,203 L 1189,203 L 1189,204 L 1181,204 Z"/>
  <path d="M 93,204 L 170,204 L 170,205 L 93,205 Z"/>
  <path d="M 181,204 L 243,204 L 243,205 L 181,205 Z"/>
  <path d="M 263,204 L 275,204 L 275,205 L 263,205 Z"/>
  <path d="M 416,204 L 581,204 L 581,205 L 416,205 Z"/>
  <path d="M 80,205 L 171,205 L 171,206 L 80,206 Z"/>
  <path d="M 178,205 L 244,205 L 244,206 L 178,206 Z"/>
  <path d="M 260,205 L 278,205 L 278,206 L 260,206 Z"/>
  <path d="M 416,205 L 582,205 L 582,206 L 416,206 Z"/>
  <path d="M 79,206 L 245,206 L 245,207 L 79,207 Z"/>
  <path d="M 259,206 L 281,206 L 281,207 L 259,207 Z"/>
  <path d="M 416,206 L 583,206 L 583,207 L 416,207 Z"/>
  <path d="M 77,207 L 246,207 L 246,208 L 77,208 Z"/>
  <path d="M 257,207 L 283,207 L 283,208 L 257,208 Z"/>
  <path d="M 415,207 L 583,207 L 583,208 L 415,208 Z"/>
  <path d="M 75,208 L 246,208 L 246,209 L 75,209 Z"/>
  <path d="M 257,208 L 284,208 L 284,209 L 257,209 Z"/>
  <path d="M 414,208 L 584,208 L 584,209 L 414,209 Z"/>
  <path d="M 74,209 L 246,209 L 246,210 L 74,210 Z"/>
  <path d="M 256,209 L 285,209 L 285,210 L 256,210 Z"/>
  <path d="M 413,209 L 586,209 L 586,210 L 413,210 Z"/>
  <path d="M 73,210 L 246,210 L 246,211 L 73,211 Z"/>
  <path d="M 256,210 L 286,210 L 286,211 L 256,211 Z"/>
  <path d="M 411,210 L 587,210 L 587,211 L 411,211 Z"/>
  <path d="M 72,211 L 245,211 L 245,212 L 72,212 Z"/>
  <path d="M 255,211 L 287,211 L 287,212 L 255,212 Z"/>
  <path d="M 410,211 L 588,211 L 588,212 L 410,212 Z"/>
  <path d="M 71,212 L 245,212 L 245,213 L 71,213 Z"/>
  <path d="M 255,212 L 288,212 L 288,213 L 255,213 Z"/>
  <path d="M 409,212 L 589,212 L 589,213 L 409,213 Z"/>
  <path d="M 70,213 L 244,213 L 244,214 L 70,214 Z"/>
  <path d="M 254,213 L 289,213 L 289,214 L 254,214 Z"/>
  <path d="M 408,213 L 590,213 L 590,214 L 408,214 Z"/>
  <path d="M 69,214 L 244,214 L 244,215 L 69,215 Z"/>
  <path d="M 253,214 L 289,214 L 289,215 L 253,215 Z"/>
  <path d="M 407,214 L 591,214 L 591,215 L 407,215 Z"/>
  <path d="M 68,215 L 244,215 L 244,216 L 68,216 Z"/>
  <path d="M 253,215 L 290,215 L 290,216 L 253,216 Z"/>
  <path d="M 406,215 L 592,215 L 592,216 L 406,216 Z"/>
  <path d="M 67,216 L 244,216 L 244,217 L 67,217 Z"/>
  <path d="M 252,216 L 290,216 L 290,217 L 252,217 Z"/>
  <path d="M 406,216 L 593,216 L 593,217 L 406,217 Z"/>
  <path d="M 67,217 L 245,217 L 245,218 L 67,218 Z"/>
  <path d="M 250,217 L 291,217 L 291,218 L 250,218 Z"/>
  <path d="M 405,217 L 594,217 L 594,218 L 405,218 Z"/>
  <path d="M 67,218 L 246,218 L 246,219 L 67,219 Z"/>
  <path d="M 249,218 L 291,218 L 291,219 L 249,219 Z"/>
  <path d="M 404,218 L 595,218 L 595,219 L 404,219 Z"/>
  <path d="M 66,219 L 291,219 L 291,220 L 66,220 Z"/>
  <path d="M 404,219 L 596,219 L 596,220 L 404,220 Z"/>
  <path d="M 66,220 L 292,220 L 292,221 L 66,221 Z"/>
  <path d="M 403,220 L 596,220 L 596,221 L 403,221 Z"/>
  <path d="M 65,221 L 292,221 L 292,222 L 65,222 Z"/>
  <path d="M 403,221 L 597,221 L 597,222 L 403,222 Z"/>
  <path d="M 65,222 L 292,222 L 292,223 L 65,223 Z"/>
  <path d="M 402,222 L 597,222 L 597,223 L 402,223 Z"/>
  <path d="M 65,223 L 292,223 L 292,224 L 65,224 Z"/>
  <path d="M 402,223 L 597,223 L 597,224 L 402,224 Z"/>
  <path d="M 65,224 L 292,224 L 292,225 L 65,225 Z"/>
  <path d="M 402,224 L 597,224 L 597,225 L 402,225 Z"/>
  <path d="M 65,225 L 292,225 L 292,226 L 65,226 Z"/>
  <path d="M 401,225 L 598,225 L 598,226 L 401,226 Z"/>
  <path d="M 66,226 L 292,226 L 292,227 L 66,227 Z"/>
  <path d="M 401,226 L 599,226 L 599,227 L 401,227 Z"/>
  <path d="M 66,227 L 292,227 L 292,228 L 66,228 Z"/>
  <path d="M 400,227 L 599,227 L 599,228 L 400,228 Z"/>
  <path d="M 67,228 L 291,228 L 291,229 L 67,229 Z"/>
  <path d="M 399,228 L 600,228 L 600,229 L 399,229 Z"/>
  <path d="M 67,229 L 291,229 L 291,230 L 67,230 Z"/>
  <path d="M 398,229 L 601,229 L 601,230 L 398,230 Z"/>
  <path d="M 68,230 L 291,230 L 291,231 L 68,231 Z"/>
  <path d="M 397,230 L 602,230 L 602,231 L 397,231 Z"/>
  <path d="M 69,231 L 291,231 L 291,232 L 69,232 Z"/>
  <path d="M 396,231 L 603,231 L 603,232 L 396,232 Z"/>
  <path d="M 70,232 L 291,232 L 291,233 L 70,233 Z"/>
  <path d="M 395,232 L 604,232 L 604,233 L 395,233 Z"/>
  <path d="M 71,233 L 291,233 L 291,234 L 71,234 Z"/>
  <path d="M 394,233 L 605,233 L 605,234 L 394,234 Z"/>
  <path d="M 72,234 L 291,234 L 291,235 L 72,235 Z"/>
  <path d="M 394,234 L 605,234 L 605,235 L 394,235 Z"/>
  <path d="M 74,235 L 103,235 L 103,236 L 74,236 Z"/>
  <path d="M 117,235 L 292,235 L 292,236 L 117,236 Z"/>
  <path d="M 393,235 L 606,235 L 606,236 L 393,236 Z"/>
  <path d="M 76,236 L 98,236 L 98,237 L 76,237 Z"/>
  <path d="M 128,236 L 292,236 L 292,237 L 128,237 Z"/>
  <path d="M 393,236 L 607,236 L 607,237 L 393,237 Z"/>
  <path d="M 77,237 L 94,237 L 94,238 L 77,238 Z"/>
  <path d="M 132,237 L 292,237 L 292,238 L 132,238 Z"/>
  <path d="M 393,237 L 607,237 L 607,238 L 393,238 Z"/>
  <path d="M 80,238 L 88,238 L 88,239 L 80,239 Z"/>
  <path d="M 135,238 L 233,238 L 233,239 L 135,239 Z"/>
  <path d="M 242,238 L 292,238 L 292,239 L 242,239 Z"/>
  <path d="M 393,238 L 608,238 L 608,239 L 393,239 Z"/>
  <path d="M 138,239 L 230,239 L 230,240 L 138,240 Z"/>
  <path d="M 243,239 L 292,239 L 292,240 L 243,240 Z"/>
  <path d="M 393,239 L 608,239 L 608,240 L 393,240 Z"/>
  <path d="M 140,240 L 228,240 L 228,241 L 140,241 Z"/>
  <path d="M 244,240 L 292,240 L 292,241 L 244,241 Z"/>
  <path d="M 393,240 L 609,240 L 609,241 L 393,241 Z"/>
  <path d="M 142,241 L 226,241 L 226,242 L 142,242 Z"/>
  <path d="M 245,241 L 292,241 L 292,242 L 245,242 Z"/>
  <path d="M 392,241 L 609,241 L 609,242 L 392,242 Z"/>
  <path d="M 143,242 L 225,242 L 225,243 L 143,243 Z"/>
  <path d="M 245,242 L 292,242 L 292,243 L 245,243 Z"/>
  <path d="M 392,242 L 610,242 L 610,243 L 392,243 Z"/>
  <path d="M 143,243 L 224,243 L 224,244 L 143,244 Z"/>
  <path d="M 246,243 L 292,243 L 292,244 L 246,244 Z"/>
  <path d="M 391,243 L 610,243 L 610,244 L 391,244 Z"/>
  <path d="M 144,244 L 222,244 L 222,245 L 144,245 Z"/>
  <path d="M 246,244 L 292,244 L 292,245 L 246,245 Z"/>
  <path d="M 390,244 L 610,244 L 610,245 L 390,245 Z"/>
  <path d="M 144,245 L 221,245 L 221,246 L 144,246 Z"/>
  <path d="M 246,245 L 292,245 L 292,246 L 246,246 Z"/>
  <path d="M 390,245 L 611,245 L 611,246 L 390,246 Z"/>
  <path d="M 144,246 L 221,246 L 221,247 L 144,247 Z"/>
  <path d="M 246,246 L 292,246 L 292,247 L 246,247 Z"/>
  <path d="M 389,246 L 611,246 L 611,247 L 389,247 Z"/>
  <path d="M 144,247 L 220,247 L 220,248 L 144,248 Z"/>
  <path d="M 245,247 L 292,247 L 292,248 L 245,248 Z"/>
  <path d="M 388,247 L 611,247 L 611,248 L 388,248 Z"/>
  <path d="M 144,248 L 219,248 L 219,249 L 144,249 Z"/>
  <path d="M 245,248 L 282,248 L 282,249 L 245,249 Z"/>
  <path d="M 388,248 L 611,248 L 611,249 L 388,249 Z"/>
  <path d="M 143,249 L 219,249 L 219,250 L 143,250 Z"/>
  <path d="M 244,249 L 279,249 L 279,250 L 244,250 Z"/>
  <path d="M 387,249 L 612,249 L 612,250 L 387,250 Z"/>
  <path d="M 143,250 L 218,250 L 218,251 L 143,251 Z"/>
  <path d="M 244,250 L 278,250 L 278,251 L 244,251 Z"/>
  <path d="M 387,250 L 612,250 L 612,251 L 387,251 Z"/>
  <path d="M 143,251 L 218,251 L 218,252 L 143,252 Z"/>
  <path d="M 243,251 L 276,251 L 276,252 L 243,252 Z"/>
  <path d="M 387,251 L 613,251 L 613,252 L 387,252 Z"/>
  <path d="M 142,252 L 217,252 L 217,253 L 142,253 Z"/>
  <path d="M 243,252 L 275,252 L 275,253 L 243,253 Z"/>
  <path d="M 386,252 L 614,252 L 614,253 L 386,253 Z"/>
  <path d="M 141,253 L 216,253 L 216,254 L 141,254 Z"/>
  <path d="M 243,253 L 273,253 L 273,254 L 243,254 Z"/>
  <path d="M 386,253 L 614,253 L 614,254 L 386,254 Z"/>
  <path d="M 141,254 L 216,254 L 216,255 L 141,255 Z"/>
  <path d="M 243,254 L 272,254 L 272,255 L 243,255 Z"/>
  <path d="M 386,254 L 615,254 L 615,255 L 386,255 Z"/>
  <path d="M 141,255 L 215,255 L 215,256 L 141,256 Z"/>
  <path d="M 244,255 L 270,255 L 270,256 L 244,256 Z"/>
  <path d="M 386,255 L 616,255 L 616,256 L 386,256 Z"/>
  <path d="M 142,256 L 215,256 L 215,257 L 142,257 Z"/>
  <path d="M 245,256 L 269,256 L 269,257 L 245,257 Z"/>
  <path d="M 385,256 L 617,256 L 617,257 L 385,257 Z"/>
  <path d="M 142,257 L 214,257 L 214,258 L 142,258 Z"/>
  <path d="M 247,257 L 268,257 L 268,258 L 247,258 Z"/>
  <path d="M 385,257 L 617,257 L 617,258 L 385,258 Z"/>
  <path d="M 142,258 L 213,258 L 213,259 L 142,259 Z"/>
  <path d="M 249,258 L 267,258 L 267,259 L 249,259 Z"/>
  <path d="M 384,258 L 617,258 L 617,259 L 384,259 Z"/>
  <path d="M 142,259 L 213,259 L 213,260 L 142,260 Z"/>
  <path d="M 254,259 L 266,259 L 266,260 L 254,260 Z"/>
  <path d="M 384,259 L 618,259 L 618,260 L 384,260 Z"/>
  <path d="M 142,260 L 212,260 L 212,261 L 142,261 Z"/>
  <path d="M 256,260 L 265,260 L 265,261 L 256,261 Z"/>
  <path d="M 383,260 L 618,260 L 618,261 L 383,261 Z"/>
  <path d="M 143,261 L 212,261 L 212,262 L 143,262 Z"/>
  <path d="M 258,261 L 264,261 L 264,262 L 258,262 Z"/>
  <path d="M 383,261 L 618,261 L 618,262 L 383,262 Z"/>
  <path d="M 143,262 L 211,262 L 211,263 L 143,263 Z"/>
  <path d="M 260,262 L 263,262 L 263,263 L 260,263 Z"/>
  <path d="M 382,262 L 618,262 L 618,263 L 382,263 Z"/>
  <path d="M 143,263 L 210,263 L 210,264 L 143,264 Z"/>
  <path d="M 382,263 L 618,263 L 618,264 L 382,264 Z"/>
  <path d="M 142,264 L 210,264 L 210,265 L 142,265 Z"/>
  <path d="M 382,264 L 618,264 L 618,265 L 382,265 Z"/>
  <path d="M 142,265 L 209,265 L 209,266 L 142,266 Z"/>
  <path d="M 381,265 L 618,265 L 618,266 L 381,266 Z"/>
  <path d="M 141,266 L 209,266 L 209,267 L 141,267 Z"/>
  <path d="M 381,266 L 618,266 L 618,267 L 381,267 Z"/>
  <path d="M 141,267 L 208,267 L 208,268 L 141,268 Z"/>
  <path d="M 381,267 L 619,267 L 619,268 L 381,268 Z"/>
  <path d="M 140,268 L 207,268 L 207,269 L 140,269 Z"/>
  <path d="M 381,268 L 619,268 L 619,269 L 381,269 Z"/>
  <path d="M 139,269 L 207,269 L 207,270 L 139,270 Z"/>
  <path d="M 381,269 L 619,269 L 619,270 L 381,270 Z"/>
  <path d="M 138,270 L 206,270 L 206,271 L 138,271 Z"/>
  <path d="M 380,270 L 620,270 L 620,271 L 380,271 Z"/>
  <path d="M 137,271 L 205,271 L 205,272 L 137,272 Z"/>
  <path d="M 380,271 L 621,271 L 621,272 L 380,272 Z"/>
  <path d="M 136,272 L 205,272 L 205,273 L 136,273 Z"/>
  <path d="M 380,272 L 621,272 L 621,273 L 380,273 Z"/>
  <path d="M 135,273 L 204,273 L 204,274 L 135,274 Z"/>
  <path d="M 380,273 L 622,273 L 622,274 L 380,274 Z"/>
  <path d="M 134,274 L 203,274 L 203,275 L 134,275 Z"/>
  <path d="M 380,274 L 622,274 L 622,275 L 380,275 Z"/>
  <path d="M 132,275 L 203,275 L 203,276 L 132,276 Z"/>
  <path d="M 380,275 L 623,275 L 623,276 L 380,276 Z"/>
  <path d="M 131,276 L 202,276 L 202,277 L 131,277 Z"/>
  <path d="M 380,276 L 623,276 L 623,277 L 380,277 Z"/>
  <path d="M 129,277 L 202,277 L 202,278 L 129,278 Z"/>
  <path d="M 380,277 L 624,277 L 624,278 L 380,278 Z"/>
  <path d="M 128,278 L 201,278 L 201,279 L 128,279 Z"/>
  <path d="M 380,278 L 624,278 L 624,279 L 380,279 Z"/>
  <path d="M 129,279 L 200,279 L 200,280 L 129,280 Z"/>
  <path d="M 380,279 L 624,279 L 624,280 L 380,280 Z"/>
  <path d="M 144,280 L 199,280 L 199,281 L 144,281 Z"/>
  <path d="M 379,280 L 624,280 L 624,281 L 379,281 Z"/>
  <path d="M 157,281 L 162,281 L 162,282 L 157,282 Z"/>
  <path d="M 170,281 L 199,281 L 199,282 L 170,282 Z"/>
  <path d="M 379,281 L 625,281 L 625,282 L 379,282 Z"/>
  <path d="M 175,282 L 191,282 L 191,283 L 175,283 Z"/>
  <path d="M 192,282 L 198,282 L 198,283 L 192,283 Z"/>
  <path d="M 379,282 L 625,282 L 625,283 L 379,283 Z"/>
  <path d="M 179,283 L 188,283 L 188,284 L 179,284 Z"/>
  <path d="M 194,283 L 197,283 L 197,284 L 194,284 Z"/>
  <path d="M 379,283 L 625,283 L 625,284 L 379,284 Z"/>
  <path d="M 185,284 L 187,284 L 187,285 L 185,285 Z"/>
  <path d="M 378,284 L 625,284 L 625,285 L 378,285 Z"/>
  <path d="M 378,285 L 626,285 L 626,286 L 378,286 Z"/>
  <path d="M 378,286 L 626,286 L 626,287 L 378,287 Z"/>
  <path d="M 378,287 L 626,287 L 626,288 L 378,288 Z"/>
  <path d="M 378,288 L 626,288 L 626,289 L 378,289 Z"/>
  <path d="M 377,289 L 625,289 L 625,290 L 377,290 Z"/>
  <path d="M 377,290 L 625,290 L 625,291 L 377,291 Z"/>
  <path d="M 377,291 L 625,291 L 625,292 L 377,292 Z"/>
  <path d="M 377,292 L 625,292 L 625,293 L 377,293 Z"/>
  <path d="M 377,293 L 626,293 L 626,294 L 377,294 Z"/>
  <path d="M 377,294 L 626,294 L 626,295 L 377,295 Z"/>
  <path d="M 377,295 L 627,295 L 627,296 L 377,296 Z"/>
  <path d="M 377,296 L 627,296 L 627,297 L 377,297 Z"/>
  <path d="M 376,297 L 628,297 L 628,298 L 376,298 Z"/>
  <path d="M 376,298 L 628,298 L 628,299 L 376,299 Z"/>
  <path d="M 376,299 L 629,299 L 629,300 L 376,300 Z"/>
  <path d="M 376,300 L 629,300 L 629,301 L 376,301 Z"/>
  <path d="M 376,301 L 630,301 L 630,302 L 376,302 Z"/>
  <path d="M 376,302 L 630,302 L 630,303 L 376,303 Z"/>
  <path d="M 376,303 L 630,303 L 630,304 L 376,304 Z"/>
  <path d="M 376,304 L 630,304 L 630,305 L 376,305 Z"/>
  <path d="M 376,305 L 631,305 L 631,306 L 376,306 Z"/>
  <path d="M 376,306 L 631,306 L 631,307 L 376,307 Z"/>
  <path d="M 376,307 L 631,307 L 631,308 L 376,308 Z"/>
  <path d="M 376,308 L 631,308 L 631,309 L 376,309 Z"/>
  <path d="M 376,309 L 631,309 L 631,310 L 376,310 Z"/>
  <path d="M 376,310 L 632,310 L 632,311 L 376,311 Z"/>
  <path d="M 376,311 L 632,311 L 632,312 L 376,312 Z"/>
  <path d="M 376,312 L 632,312 L 632,313 L 376,313 Z"/>
  <path d="M 376,313 L 632,313 L 632,314 L 376,314 Z"/>
  <path d="M 377,314 L 632,314 L 632,315 L 377,315 Z"/>
  <path d="M 377,315 L 632,315 L 632,316 L 377,316 Z"/>
  <path d="M 377,316 L 632,316 L 632,317 L 377,317 Z"/>
  <path d="M 377,317 L 632,317 L 632,318 L 377,318 Z"/>
  <path d="M 377,318 L 632,318 L 632,319 L 377,319 Z"/>
  <path d="M 377,319 L 632,319 L 632,320 L 377,320 Z"/>
  <path d="M 377,320 L 632,320 L 632,321 L 377,321 Z"/>
  <path d="M 377,321 L 632,321 L 632,322 L 377,322 Z"/>
  <path d="M 377,322 L 633,322 L 633,323 L 377,323 Z"/>
  <path d="M 377,323 L 633,323 L 633,324 L 377,324 Z"/>
  <path d="M 1037,323 L 1045,323 L 1045,324 L 1037,324 Z"/>
  <path d="M 376,324 L 634,324 L 634,325 L 376,325 Z"/>
  <path d="M 1033,324 L 1047,324 L 1047,325 L 1033,325 Z"/>
  <path d="M 376,325 L 634,325 L 634,326 L 376,326 Z"/>
  <path d="M 1031,325 L 1050,325 L 1050,326 L 1031,326 Z"/>
  <path d="M 376,326 L 635,326 L 635,327 L 376,327 Z"/>
  <path d="M 1029,326 L 1053,326 L 1053,327 L 1029,327 Z"/>
  <path d="M 376,327 L 635,327 L 635,328 L 376,328 Z"/>
  <path d="M 1028,327 L 1056,327 L 1056,328 L 1028,328 Z"/>
  <path d="M 375,328 L 635,328 L 635,329 L 375,329 Z"/>
  <path d="M 1027,328 L 1058,328 L 1058,329 L 1027,329 Z"/>
  <path d="M 375,329 L 635,329 L 635,330 L 375,330 Z"/>
  <path d="M 1025,329 L 1059,329 L 1059,330 L 1025,330 Z"/>
  <path d="M 375,330 L 635,330 L 635,331 L 375,331 Z"/>
  <path d="M 1024,330 L 1060,330 L 1060,331 L 1024,331 Z"/>
  <path d="M 375,331 L 635,331 L 635,332 L 375,332 Z"/>
  <path d="M 1023,331 L 1062,331 L 1062,332 L 1023,332 Z"/>
  <path d="M 375,332 L 635,332 L 635,333 L 375,333 Z"/>
  <path d="M 1022,332 L 1063,332 L 1063,333 L 1022,333 Z"/>
  <path d="M 376,333 L 635,333 L 635,334 L 376,334 Z"/>
  <path d="M 1022,333 L 1064,333 L 1064,334 L 1022,334 Z"/>
  <path d="M 376,334 L 635,334 L 635,335 L 376,335 Z"/>
  <path d="M 1021,334 L 1065,334 L 1065,335 L 1021,335 Z"/>
  <path d="M 376,335 L 635,335 L 635,336 L 376,336 Z"/>
  <path d="M 1020,335 L 1066,335 L 1066,336 L 1020,336 Z"/>
  <path d="M 376,336 L 635,336 L 635,337 L 376,337 Z"/>
  <path d="M 1020,336 L 1067,336 L 1067,337 L 1020,337 Z"/>
  <path d="M 376,337 L 636,337 L 636,338 L 376,338 Z"/>
  <path d="M 1019,337 L 1068,337 L 1068,338 L 1019,338 Z"/>
  <path d="M 376,338 L 636,338 L 636,339 L 376,339 Z"/>
  <path d="M 1019,338 L 1069,338 L 1069,339 L 1019,339 Z"/>
  <path d="M 376,339 L 636,339 L 636,340 L 376,340 Z"/>
  <path d="M 1019,339 L 1070,339 L 1070,340 L 1019,340 Z"/>
  <path d="M 376,340 L 636,340 L 636,341 L 376,341 Z"/>
  <path d="M 1018,340 L 1071,340 L 1071,341 L 1018,341 Z"/>
  <path d="M 375,341 L 637,341 L 637,342 L 375,342 Z"/>
  <path d="M 1018,341 L 1072,341 L 1072,342 L 1018,342 Z"/>
  <path d="M 375,342 L 637,342 L 637,343 L 375,343 Z"/>
  <path d="M 1017,342 L 1073,342 L 1073,343 L 1017,343 Z"/>
  <path d="M 375,343 L 637,343 L 637,344 L 375,344 Z"/>
  <path d="M 1017,343 L 1074,343 L 1074,344 L 1017,344 Z"/>
  <path d="M 376,344 L 637,344 L 637,345 L 376,345 Z"/>
  <path d="M 1016,344 L 1075,344 L 1075,345 L 1016,345 Z"/>
  <path d="M 376,345 L 638,345 L 638,346 L 376,346 Z"/>
  <path d="M 1016,345 L 1075,345 L 1075,346 L 1016,346 Z"/>
  <path d="M 376,346 L 638,346 L 638,347 L 376,347 Z"/>
  <path d="M 1015,346 L 1076,346 L 1076,347 L 1015,347 Z"/>
  <path d="M 377,347 L 638,347 L 638,348 L 377,348 Z"/>
  <path d="M 1015,347 L 1077,347 L 1077,348 L 1015,348 Z"/>
  <path d="M 377,348 L 638,348 L 638,349 L 377,349 Z"/>
  <path d="M 1014,348 L 1077,348 L 1077,349 L 1014,349 Z"/>
  <path d="M 377,349 L 639,349 L 639,350 L 377,350 Z"/>
  <path d="M 1014,349 L 1078,349 L 1078,350 L 1014,350 Z"/>
  <path d="M 377,350 L 639,350 L 639,351 L 377,351 Z"/>
  <path d="M 1014,350 L 1078,350 L 1078,351 L 1014,351 Z"/>
  <path d="M 377,351 L 639,351 L 639,352 L 377,352 Z"/>
  <path d="M 1014,351 L 1079,351 L 1079,352 L 1014,352 Z"/>
  <path d="M 377,352 L 639,352 L 639,353 L 377,353 Z"/>
  <path d="M 1013,352 L 1079,352 L 1079,353 L 1013,353 Z"/>
  <path d="M 377,353 L 639,353 L 639,354 L 377,354 Z"/>
  <path d="M 1014,353 L 1075,353 L 1075,354 L 1014,354 Z"/>
  <path d="M 377,354 L 640,354 L 640,355 L 377,355 Z"/>
  <path d="M 1014,354 L 1067,354 L 1067,355 L 1014,355 Z"/>
  <path d="M 376,355 L 640,355 L 640,356 L 376,356 Z"/>
  <path d="M 1014,355 L 1062,355 L 1062,356 L 1014,356 Z"/>
  <path d="M 376,356 L 640,356 L 640,357 L 376,357 Z"/>
  <path d="M 1014,356 L 1059,356 L 1059,357 L 1014,357 Z"/>
  <path d="M 376,357 L 640,357 L 640,358 L 376,358 Z"/>
  <path d="M 1014,357 L 1057,357 L 1057,358 L 1014,358 Z"/>
  <path d="M 376,358 L 640,358 L 640,359 L 376,359 Z"/>
  <path d="M 1014,358 L 1055,358 L 1055,359 L 1014,359 Z"/>
  <path d="M 375,359 L 641,359 L 641,360 L 375,360 Z"/>
  <path d="M 1014,359 L 1052,359 L 1052,360 L 1014,360 Z"/>
  <path d="M 375,360 L 641,360 L 641,361 L 375,361 Z"/>
  <path d="M 1014,360 L 1050,360 L 1050,361 L 1014,361 Z"/>
  <path d="M 375,361 L 641,361 L 641,362 L 375,362 Z"/>
  <path d="M 1014,361 L 1049,361 L 1049,362 L 1014,362 Z"/>
  <path d="M 1083,361 L 1086,361 L 1086,362 L 1083,362 Z"/>
  <path d="M 375,362 L 641,362 L 641,363 L 375,363 Z"/>
  <path d="M 1013,362 L 1045,362 L 1045,363 L 1013,363 Z"/>
  <path d="M 1082,362 L 1087,362 L 1087,363 L 1082,363 Z"/>
  <path d="M 375,363 L 641,363 L 641,364 L 375,364 Z"/>
  <path d="M 1013,363 L 1042,363 L 1042,364 L 1013,364 Z"/>
  <path d="M 1081,363 L 1088,363 L 1088,364 L 1081,364 Z"/>
  <path d="M 375,364 L 642,364 L 642,365 L 375,365 Z"/>
  <path d="M 1013,364 L 1040,364 L 1040,365 L 1013,365 Z"/>
  <path d="M 1081,364 L 1088,364 L 1088,365 L 1081,365 Z"/>
  <path d="M 375,365 L 641,365 L 641,366 L 375,366 Z"/>
  <path d="M 1012,365 L 1038,365 L 1038,366 L 1012,366 Z"/>
  <path d="M 1062,365 L 1069,365 L 1069,366 L 1062,366 Z"/>
  <path d="M 1079,365 L 1089,365 L 1089,366 L 1079,366 Z"/>
  <path d="M 375,366 L 641,366 L 641,367 L 375,367 Z"/>
  <path d="M 1012,366 L 1037,366 L 1037,367 L 1012,367 Z"/>
  <path d="M 1059,366 L 1073,366 L 1073,367 L 1059,367 Z"/>
  <path d="M 1078,366 L 1090,366 L 1090,367 L 1078,367 Z"/>
  <path d="M 375,367 L 641,367 L 641,368 L 375,368 Z"/>
  <path d="M 1011,367 L 1036,367 L 1036,368 L 1011,368 Z"/>
  <path d="M 1057,367 L 1091,367 L 1091,368 L 1057,368 Z"/>
  <path d="M 376,368 L 641,368 L 641,369 L 376,369 Z"/>
  <path d="M 1011,368 L 1036,368 L 1036,369 L 1011,369 Z"/>
  <path d="M 1054,368 L 1091,368 L 1091,369 L 1054,369 Z"/>
  <path d="M 376,369 L 641,369 L 641,370 L 376,370 Z"/>
  <path d="M 1011,369 L 1035,369 L 1035,370 L 1011,370 Z"/>
  <path d="M 1051,369 L 1092,369 L 1092,370 L 1051,370 Z"/>
  <path d="M 376,370 L 641,370 L 641,371 L 376,371 Z"/>
  <path d="M 1010,370 L 1035,370 L 1035,371 L 1010,371 Z"/>
  <path d="M 1049,370 L 1093,370 L 1093,371 L 1049,371 Z"/>
  <path d="M 377,371 L 641,371 L 641,372 L 377,372 Z"/>
  <path d="M 1010,371 L 1035,371 L 1035,372 L 1010,372 Z"/>
  <path d="M 1048,371 L 1093,371 L 1093,372 L 1048,372 Z"/>
  <path d="M 377,372 L 642,372 L 642,373 L 377,373 Z"/>
  <path d="M 851,372 L 855,372 L 855,373 L 851,373 Z"/>
  <path d="M 1010,372 L 1035,372 L 1035,373 L 1010,373 Z"/>
  <path d="M 1046,372 L 1094,372 L 1094,373 L 1046,373 Z"/>
  <path d="M 377,373 L 642,373 L 642,374 L 377,374 Z"/>
  <path d="M 818,373 L 822,373 L 822,374 L 818,374 Z"/>
  <path d="M 850,373 L 856,373 L 856,374 L 850,374 Z"/>
  <path d="M 1009,373 L 1035,373 L 1035,374 L 1009,374 Z"/>
  <path d="M 1045,373 L 1094,373 L 1094,374 L 1045,374 Z"/>
  <path d="M 377,374 L 642,374 L 642,375 L 377,375 Z"/>
  <path d="M 814,374 L 831,374 L 831,375 L 814,375 Z"/>
  <path d="M 850,374 L 856,374 L 856,375 L 850,375 Z"/>
  <path d="M 1009,374 L 1036,374 L 1036,375 L 1009,375 Z"/>
  <path d="M 1044,374 L 1095,374 L 1095,375 L 1044,375 Z"/>
  <path d="M 377,375 L 643,375 L 643,376 L 377,376 Z"/>
  <path d="M 812,375 L 832,375 L 832,376 L 812,376 Z"/>
  <path d="M 849,375 L 855,375 L 855,376 L 849,376 Z"/>
  <path d="M 1009,375 L 1038,375 L 1038,376 L 1009,376 Z"/>
  <path d="M 1041,375 L 1095,375 L 1095,376 L 1041,376 Z"/>
  <path d="M 377,376 L 643,376 L 643,377 L 377,377 Z"/>
  <path d="M 811,376 L 832,376 L 832,377 L 811,377 Z"/>
  <path d="M 848,376 L 855,376 L 855,377 L 848,377 Z"/>
  <path d="M 1009,376 L 1096,376 L 1096,377 L 1009,377 Z"/>
  <path d="M 376,377 L 644,377 L 644,378 L 376,378 Z"/>
  <path d="M 810,377 L 833,377 L 833,378 L 810,378 Z"/>
  <path d="M 846,377 L 855,377 L 855,378 L 846,378 Z"/>
  <path d="M 1009,377 L 1096,377 L 1096,378 L 1009,378 Z"/>
  <path d="M 376,378 L 644,378 L 644,379 L 376,379 Z"/>
  <path d="M 809,378 L 833,378 L 833,379 L 809,379 Z"/>
  <path d="M 845,378 L 855,378 L 855,379 L 845,379 Z"/>
  <path d="M 869,378 L 871,378 L 871,379 L 869,379 Z"/>
  <path d="M 1008,378 L 1097,378 L 1097,379 L 1008,379 Z"/>
  <path d="M 376,379 L 645,379 L 645,380 L 376,380 Z"/>
  <path d="M 798,379 L 799,379 L 799,380 L 798,380 Z"/>
  <path d="M 808,379 L 834,379 L 834,380 L 808,380 Z"/>
  <path d="M 840,379 L 856,379 L 856,380 L 840,380 Z"/>
  <path d="M 867,379 L 877,379 L 877,380 L 867,380 Z"/>
  <path d="M 1008,379 L 1097,379 L 1097,380 L 1008,380 Z"/>
  <path d="M 376,380 L 645,380 L 645,381 L 376,381 Z"/>
  <path d="M 796,380 L 801,380 L 801,381 L 796,381 Z"/>
  <path d="M 802,380 L 835,380 L 835,381 L 802,381 Z"/>
  <path d="M 839,380 L 858,380 L 858,381 L 839,381 Z"/>
  <path d="M 865,380 L 879,380 L 879,381 L 865,381 Z"/>
  <path d="M 1008,380 L 1097,380 L 1097,381 L 1008,381 Z"/>
  <path d="M 376,381 L 646,381 L 646,382 L 376,382 Z"/>
  <path d="M 794,381 L 860,381 L 860,382 L 794,382 Z"/>
  <path d="M 863,381 L 879,381 L 879,382 L 863,382 Z"/>
  <path d="M 1008,381 L 1097,381 L 1097,382 L 1008,382 Z"/>
  <path d="M 376,382 L 646,382 L 646,383 L 376,383 Z"/>
  <path d="M 793,382 L 880,382 L 880,383 L 793,383 Z"/>
  <path d="M 1008,382 L 1097,382 L 1097,383 L 1008,383 Z"/>
  <path d="M 376,383 L 646,383 L 646,384 L 376,384 Z"/>
  <path d="M 791,383 L 880,383 L 880,384 L 791,384 Z"/>
  <path d="M 1008,383 L 1097,383 L 1097,384 L 1008,384 Z"/>
  <path d="M 376,384 L 647,384 L 647,385 L 376,385 Z"/>
  <path d="M 790,384 L 882,384 L 882,385 L 790,385 Z"/>
  <path d="M 1008,384 L 1097,384 L 1097,385 L 1008,385 Z"/>
  <path d="M 376,385 L 647,385 L 647,386 L 376,386 Z"/>
  <path d="M 786,385 L 883,385 L 883,386 L 786,386 Z"/>
  <path d="M 1008,385 L 1097,385 L 1097,386 L 1008,386 Z"/>
  <path d="M 376,386 L 647,386 L 647,387 L 376,387 Z"/>
  <path d="M 785,386 L 885,386 L 885,387 L 785,387 Z"/>
  <path d="M 1008,386 L 1097,386 L 1097,387 L 1008,387 Z"/>
  <path d="M 376,387 L 647,387 L 647,388 L 376,388 Z"/>
  <path d="M 784,387 L 888,387 L 888,388 L 784,388 Z"/>
  <path d="M 1008,387 L 1097,387 L 1097,388 L 1008,388 Z"/>
  <path d="M 376,388 L 648,388 L 648,389 L 376,389 Z"/>
  <path d="M 783,388 L 890,388 L 890,389 L 783,389 Z"/>
  <path d="M 1008,388 L 1097,388 L 1097,389 L 1008,389 Z"/>
  <path d="M 376,389 L 648,389 L 648,390 L 376,390 Z"/>
  <path d="M 782,389 L 891,389 L 891,390 L 782,390 Z"/>
  <path d="M 1008,389 L 1096,389 L 1096,390 L 1008,390 Z"/>
  <path d="M 377,390 L 648,390 L 648,391 L 377,391 Z"/>
  <path d="M 781,390 L 892,390 L 892,391 L 781,391 Z"/>
  <path d="M 1008,390 L 1094,390 L 1094,391 L 1008,391 Z"/>
  <path d="M 377,391 L 648,391 L 648,392 L 377,392 Z"/>
  <path d="M 780,391 L 892,391 L 892,392 L 780,392 Z"/>
  <path d="M 1008,391 L 1092,391 L 1092,392 L 1008,392 Z"/>
  <path d="M 377,392 L 648,392 L 648,393 L 377,393 Z"/>
  <path d="M 780,392 L 893,392 L 893,393 L 780,393 Z"/>
  <path d="M 1008,392 L 1089,392 L 1089,393 L 1008,393 Z"/>
  <path d="M 377,393 L 648,393 L 648,394 L 377,394 Z"/>
  <path d="M 779,393 L 894,393 L 894,394 L 779,394 Z"/>
  <path d="M 1008,393 L 1085,393 L 1085,394 L 1008,394 Z"/>
  <path d="M 377,394 L 648,394 L 648,395 L 377,395 Z"/>
  <path d="M 778,394 L 896,394 L 896,395 L 778,395 Z"/>
  <path d="M 1008,394 L 1082,394 L 1082,395 L 1008,395 Z"/>
  <path d="M 1097,394 L 1100,394 L 1100,395 L 1097,395 Z"/>
  <path d="M 377,395 L 648,395 L 648,396 L 377,396 Z"/>
  <path d="M 777,395 L 898,395 L 898,396 L 777,396 Z"/>
  <path d="M 1008,395 L 1068,395 L 1068,396 L 1008,396 Z"/>
  <path d="M 1070,395 L 1078,395 L 1078,396 L 1070,396 Z"/>
  <path d="M 1095,395 L 1101,395 L 1101,396 L 1095,396 Z"/>
  <path d="M 377,396 L 649,396 L 649,397 L 377,397 Z"/>
  <path d="M 777,396 L 900,396 L 900,397 L 777,397 Z"/>
  <path d="M 1008,396 L 1064,396 L 1064,397 L 1008,397 Z"/>
  <path d="M 1096,396 L 1102,396 L 1102,397 L 1096,397 Z"/>
  <path d="M 376,397 L 649,397 L 649,398 L 376,398 Z"/>
  <path d="M 776,397 L 901,397 L 901,398 L 776,398 Z"/>
  <path d="M 1009,397 L 1062,397 L 1062,398 L 1009,398 Z"/>
  <path d="M 1096,397 L 1103,397 L 1103,398 L 1096,398 Z"/>
  <path d="M 376,398 L 649,398 L 649,399 L 376,399 Z"/>
  <path d="M 775,398 L 902,398 L 902,399 L 775,399 Z"/>
  <path d="M 1009,398 L 1061,398 L 1061,399 L 1009,399 Z"/>
  <path d="M 1096,398 L 1103,398 L 1103,399 L 1096,399 Z"/>
  <path d="M 376,399 L 650,399 L 650,400 L 376,400 Z"/>
  <path d="M 774,399 L 903,399 L 903,400 L 774,400 Z"/>
  <path d="M 1009,399 L 1060,399 L 1060,400 L 1009,400 Z"/>
  <path d="M 1096,399 L 1103,399 L 1103,400 L 1096,400 Z"/>
  <path d="M 375,400 L 650,400 L 650,401 L 375,401 Z"/>
  <path d="M 773,400 L 904,400 L 904,401 L 773,401 Z"/>
  <path d="M 1009,400 L 1059,400 L 1059,401 L 1009,401 Z"/>
  <path d="M 1095,400 L 1103,400 L 1103,401 L 1095,401 Z"/>
  <path d="M 375,401 L 651,401 L 651,402 L 375,402 Z"/>
  <path d="M 772,401 L 905,401 L 905,402 L 772,402 Z"/>
  <path d="M 1009,401 L 1058,401 L 1058,402 L 1009,402 Z"/>
  <path d="M 1095,401 L 1103,401 L 1103,402 L 1095,402 Z"/>
  <path d="M 375,402 L 652,402 L 652,403 L 375,403 Z"/>
  <path d="M 771,402 L 905,402 L 905,403 L 771,403 Z"/>
  <path d="M 1009,402 L 1058,402 L 1058,403 L 1009,403 Z"/>
  <path d="M 1094,402 L 1103,402 L 1103,403 L 1094,403 Z"/>
  <path d="M 374,403 L 652,403 L 652,404 L 374,404 Z"/>
  <path d="M 770,403 L 906,403 L 906,404 L 770,404 Z"/>
  <path d="M 1009,403 L 1058,403 L 1058,404 L 1009,404 Z"/>
  <path d="M 1092,403 L 1103,403 L 1103,404 L 1092,404 Z"/>
  <path d="M 374,404 L 653,404 L 653,405 L 374,405 Z"/>
  <path d="M 769,404 L 907,404 L 907,405 L 769,405 Z"/>
  <path d="M 1008,404 L 1058,404 L 1058,405 L 1008,405 Z"/>
  <path d="M 1091,404 L 1103,404 L 1103,405 L 1091,405 Z"/>
  <path d="M 374,405 L 653,405 L 653,406 L 374,406 Z"/>
  <path d="M 769,405 L 907,405 L 907,406 L 769,406 Z"/>
  <path d="M 1008,405 L 1059,405 L 1059,406 L 1008,406 Z"/>
  <path d="M 1088,405 L 1103,405 L 1103,406 L 1088,406 Z"/>
  <path d="M 374,406 L 653,406 L 653,407 L 374,407 Z"/>
  <path d="M 768,406 L 908,406 L 908,407 L 768,407 Z"/>
  <path d="M 1008,406 L 1060,406 L 1060,407 L 1008,407 Z"/>
  <path d="M 1070,406 L 1079,406 L 1079,407 L 1070,407 Z"/>
  <path d="M 1086,406 L 1104,406 L 1104,407 L 1086,407 Z"/>
  <path d="M 374,407 L 653,407 L 653,408 L 374,408 Z"/>
  <path d="M 768,407 L 909,407 L 909,408 L 768,408 Z"/>
  <path d="M 1008,407 L 1061,407 L 1061,408 L 1008,408 Z"/>
  <path d="M 1066,407 L 1105,407 L 1105,408 L 1066,408 Z"/>
  <path d="M 374,408 L 653,408 L 653,409 L 374,409 Z"/>
  <path d="M 767,408 L 910,408 L 910,409 L 767,409 Z"/>
  <path d="M 1008,408 L 1105,408 L 1105,409 L 1008,409 Z"/>
  <path d="M 374,409 L 653,409 L 653,410 L 374,410 Z"/>
  <path d="M 766,409 L 911,409 L 911,410 L 766,410 Z"/>
  <path d="M 1008,409 L 1106,409 L 1106,410 L 1008,410 Z"/>
  <path d="M 374,410 L 653,410 L 653,411 L 374,411 Z"/>
  <path d="M 766,410 L 912,410 L 912,411 L 766,411 Z"/>
  <path d="M 1009,410 L 1106,410 L 1106,411 L 1009,411 Z"/>
  <path d="M 374,411 L 654,411 L 654,412 L 374,412 Z"/>
  <path d="M 766,411 L 914,411 L 914,412 L 766,412 Z"/>
  <path d="M 1009,411 L 1106,411 L 1106,412 L 1009,412 Z"/>
  <path d="M 375,412 L 654,412 L 654,413 L 375,413 Z"/>
  <path d="M 765,412 L 915,412 L 915,413 L 765,413 Z"/>
  <path d="M 1009,412 L 1106,412 L 1106,413 L 1009,413 Z"/>
  <path d="M 375,413 L 655,413 L 655,414 L 375,414 Z"/>
  <path d="M 765,413 L 916,413 L 916,414 L 765,414 Z"/>
  <path d="M 1010,413 L 1106,413 L 1106,414 L 1010,414 Z"/>
  <path d="M 375,414 L 655,414 L 655,415 L 375,415 Z"/>
  <path d="M 751,414 L 755,414 L 755,415 L 751,415 Z"/>
  <path d="M 764,414 L 916,414 L 916,415 L 764,415 Z"/>
  <path d="M 1010,414 L 1106,414 L 1106,415 L 1010,415 Z"/>
  <path d="M 376,415 L 656,415 L 656,416 L 376,416 Z"/>
  <path d="M 748,415 L 756,415 L 756,416 L 748,416 Z"/>
  <path d="M 763,415 L 917,415 L 917,416 L 763,416 Z"/>
  <path d="M 1010,415 L 1106,415 L 1106,416 L 1010,416 Z"/>
  <path d="M 376,416 L 657,416 L 657,417 L 376,417 Z"/>
  <path d="M 747,416 L 756,416 L 756,417 L 747,417 Z"/>
  <path d="M 762,416 L 917,416 L 917,417 L 762,417 Z"/>
  <path d="M 1011,416 L 1106,416 L 1106,417 L 1011,417 Z"/>
  <path d="M 376,417 L 658,417 L 658,418 L 376,418 Z"/>
  <path d="M 738,417 L 741,417 L 741,418 L 738,418 Z"/>
  <path d="M 745,417 L 758,417 L 758,418 L 745,418 Z"/>
  <path d="M 759,417 L 918,417 L 918,418 L 759,418 Z"/>
  <path d="M 1011,417 L 1106,417 L 1106,418 L 1011,418 Z"/>
  <path d="M 376,418 L 659,418 L 659,419 L 376,419 Z"/>
  <path d="M 737,418 L 918,418 L 918,419 L 737,419 Z"/>
  <path d="M 1012,418 L 1106,418 L 1106,419 L 1012,419 Z"/>
  <path d="M 376,419 L 660,419 L 660,420 L 376,420 Z"/>
  <path d="M 736,419 L 918,419 L 918,420 L 736,420 Z"/>
  <path d="M 1012,419 L 1106,419 L 1106,420 L 1012,420 Z"/>
  <path d="M 376,420 L 409,420 L 409,421 L 376,421 Z"/>
  <path d="M 414,420 L 661,420 L 661,421 L 414,421 Z"/>
  <path d="M 735,420 L 918,420 L 918,421 L 735,421 Z"/>
  <path d="M 1012,420 L 1107,420 L 1107,421 L 1012,421 Z"/>
  <path d="M 376,421 L 407,421 L 407,422 L 376,422 Z"/>
  <path d="M 417,421 L 661,421 L 661,422 L 417,422 Z"/>
  <path d="M 734,421 L 919,421 L 919,422 L 734,422 Z"/>
  <path d="M 1012,421 L 1107,421 L 1107,422 L 1012,422 Z"/>
  <path d="M 376,422 L 406,422 L 406,423 L 376,423 Z"/>
  <path d="M 421,422 L 662,422 L 662,423 L 421,423 Z"/>
  <path d="M 733,422 L 919,422 L 919,423 L 733,423 Z"/>
  <path d="M 1012,422 L 1108,422 L 1108,423 L 1012,423 Z"/>
  <path d="M 376,423 L 405,423 L 405,424 L 376,424 Z"/>
  <path d="M 424,423 L 662,423 L 662,424 L 424,424 Z"/>
  <path d="M 732,423 L 920,423 L 920,424 L 732,424 Z"/>
  <path d="M 1013,423 L 1109,423 L 1109,424 L 1013,424 Z"/>
  <path d="M 376,424 L 405,424 L 405,425 L 376,425 Z"/>
  <path d="M 429,424 L 662,424 L 662,425 L 429,425 Z"/>
  <path d="M 732,424 L 921,424 L 921,425 L 732,425 Z"/>
  <path d="M 1013,424 L 1109,424 L 1109,425 L 1013,425 Z"/>
  <path d="M 376,425 L 404,425 L 404,426 L 376,426 Z"/>
  <path d="M 432,425 L 662,425 L 662,426 L 432,426 Z"/>
  <path d="M 731,425 L 922,425 L 922,426 L 731,426 Z"/>
  <path d="M 1013,425 L 1110,425 L 1110,426 L 1013,426 Z"/>
  <path d="M 375,426 L 404,426 L 404,427 L 375,427 Z"/>
  <path d="M 434,426 L 663,426 L 663,427 L 434,427 Z"/>
  <path d="M 731,426 L 923,426 L 923,427 L 731,427 Z"/>
  <path d="M 1013,426 L 1110,426 L 1110,427 L 1013,427 Z"/>
  <path d="M 375,427 L 404,427 L 404,428 L 375,428 Z"/>
  <path d="M 436,427 L 663,427 L 663,428 L 436,428 Z"/>
  <path d="M 730,427 L 924,427 L 924,428 L 730,428 Z"/>
  <path d="M 1014,427 L 1111,427 L 1111,428 L 1014,428 Z"/>
  <path d="M 375,428 L 404,428 L 404,429 L 375,429 Z"/>
  <path d="M 438,428 L 663,428 L 663,429 L 438,429 Z"/>
  <path d="M 730,428 L 924,428 L 924,429 L 730,429 Z"/>
  <path d="M 1014,428 L 1111,428 L 1111,429 L 1014,429 Z"/>
  <path d="M 374,429 L 405,429 L 405,430 L 374,430 Z"/>
  <path d="M 440,429 L 663,429 L 663,430 L 440,430 Z"/>
  <path d="M 729,429 L 925,429 L 925,430 L 729,430 Z"/>
  <path d="M 1015,429 L 1112,429 L 1112,430 L 1015,430 Z"/>
  <path d="M 374,430 L 405,430 L 405,431 L 374,431 Z"/>
  <path d="M 444,430 L 664,430 L 664,431 L 444,431 Z"/>
  <path d="M 727,430 L 925,430 L 925,431 L 727,431 Z"/>
  <path d="M 1016,430 L 1112,430 L 1112,431 L 1016,431 Z"/>
  <path d="M 373,431 L 405,431 L 405,432 L 373,432 Z"/>
  <path d="M 446,431 L 664,431 L 664,432 L 446,432 Z"/>
  <path d="M 725,431 L 925,431 L 925,432 L 725,432 Z"/>
  <path d="M 1017,431 L 1112,431 L 1112,432 L 1017,432 Z"/>
  <path d="M 373,432 L 406,432 L 406,433 L 373,433 Z"/>
  <path d="M 448,432 L 665,432 L 665,433 L 448,433 Z"/>
  <path d="M 724,432 L 926,432 L 926,433 L 724,433 Z"/>
  <path d="M 1017,432 L 1113,432 L 1113,433 L 1017,433 Z"/>
  <path d="M 373,433 L 407,433 L 407,434 L 373,434 Z"/>
  <path d="M 450,433 L 666,433 L 666,434 L 450,434 Z"/>
  <path d="M 723,433 L 926,433 L 926,434 L 723,434 Z"/>
  <path d="M 1018,433 L 1113,433 L 1113,434 L 1018,434 Z"/>
  <path d="M 372,434 L 408,434 L 408,435 L 372,435 Z"/>
  <path d="M 453,434 L 667,434 L 667,435 L 453,435 Z"/>
  <path d="M 722,434 L 926,434 L 926,435 L 722,435 Z"/>
  <path d="M 1018,434 L 1113,434 L 1113,435 L 1018,435 Z"/>
  <path d="M 372,435 L 409,435 L 409,436 L 372,436 Z"/>
  <path d="M 456,435 L 668,435 L 668,436 L 456,436 Z"/>
  <path d="M 722,435 L 926,435 L 926,436 L 722,436 Z"/>
  <path d="M 1018,435 L 1113,435 L 1113,436 L 1018,436 Z"/>
  <path d="M 372,436 L 411,436 L 411,437 L 372,437 Z"/>
  <path d="M 458,436 L 669,436 L 669,437 L 458,437 Z"/>
  <path d="M 721,436 L 926,436 L 926,437 L 721,437 Z"/>
  <path d="M 1018,436 L 1114,436 L 1114,437 L 1018,437 Z"/>
  <path d="M 372,437 L 412,437 L 412,438 L 372,438 Z"/>
  <path d="M 460,437 L 670,437 L 670,438 L 460,438 Z"/>
  <path d="M 721,437 L 926,437 L 926,438 L 721,438 Z"/>
  <path d="M 1018,437 L 1114,437 L 1114,438 L 1018,438 Z"/>
  <path d="M 372,438 L 415,438 L 415,439 L 372,439 Z"/>
  <path d="M 462,438 L 671,438 L 671,439 L 462,439 Z"/>
  <path d="M 721,438 L 926,438 L 926,439 L 721,439 Z"/>
  <path d="M 1018,438 L 1114,438 L 1114,439 L 1018,439 Z"/>
  <path d="M 372,439 L 418,439 L 418,440 L 372,440 Z"/>
  <path d="M 464,439 L 674,439 L 674,440 L 464,440 Z"/>
  <path d="M 721,439 L 927,439 L 927,440 L 721,440 Z"/>
  <path d="M 1018,439 L 1114,439 L 1114,440 L 1018,440 Z"/>
  <path d="M 372,440 L 420,440 L 420,441 L 372,441 Z"/>
  <path d="M 467,440 L 676,440 L 676,441 L 467,441 Z"/>
  <path d="M 720,440 L 928,440 L 928,441 L 720,441 Z"/>
  <path d="M 1019,440 L 1114,440 L 1114,441 L 1019,441 Z"/>
  <path d="M 372,441 L 422,441 L 422,442 L 372,442 Z"/>
  <path d="M 469,441 L 677,441 L 677,442 L 469,442 Z"/>
  <path d="M 719,441 L 928,441 L 928,442 L 719,442 Z"/>
  <path d="M 1019,441 L 1114,441 L 1114,442 L 1019,442 Z"/>
  <path d="M 371,442 L 425,442 L 425,443 L 371,443 Z"/>
  <path d="M 472,442 L 679,442 L 679,443 L 472,443 Z"/>
  <path d="M 719,442 L 929,442 L 929,443 L 719,443 Z"/>
  <path d="M 1019,442 L 1114,442 L 1114,443 L 1019,443 Z"/>
  <path d="M 371,443 L 429,443 L 429,444 L 371,444 Z"/>
  <path d="M 475,443 L 681,443 L 681,444 L 475,444 Z"/>
  <path d="M 718,443 L 930,443 L 930,444 L 718,444 Z"/>
  <path d="M 1020,443 L 1114,443 L 1114,444 L 1020,444 Z"/>
  <path d="M 371,444 L 430,444 L 430,445 L 371,445 Z"/>
  <path d="M 477,444 L 683,444 L 683,445 L 477,445 Z"/>
  <path d="M 717,444 L 931,444 L 931,445 L 717,445 Z"/>
  <path d="M 1020,444 L 1114,444 L 1114,445 L 1020,445 Z"/>
  <path d="M 370,445 L 432,445 L 432,446 L 370,446 Z"/>
  <path d="M 478,445 L 684,445 L 684,446 L 478,446 Z"/>
  <path d="M 715,445 L 931,445 L 931,446 L 715,446 Z"/>
  <path d="M 1020,445 L 1114,445 L 1114,446 L 1020,446 Z"/>
  <path d="M 370,446 L 434,446 L 434,447 L 370,447 Z"/>
  <path d="M 479,446 L 686,446 L 686,447 L 479,447 Z"/>
  <path d="M 714,446 L 932,446 L 932,447 L 714,447 Z"/>
  <path d="M 1021,446 L 1114,446 L 1114,447 L 1021,447 Z"/>
  <path d="M 369,447 L 436,447 L 436,448 L 369,448 Z"/>
  <path d="M 480,447 L 688,447 L 688,448 L 480,448 Z"/>
  <path d="M 712,447 L 932,447 L 932,448 L 712,448 Z"/>
  <path d="M 1022,447 L 1114,447 L 1114,448 L 1022,448 Z"/>
  <path d="M 369,448 L 438,448 L 438,449 L 369,449 Z"/>
  <path d="M 480,448 L 689,448 L 689,449 L 480,449 Z"/>
  <path d="M 710,448 L 932,448 L 932,449 L 710,449 Z"/>
  <path d="M 1022,448 L 1114,448 L 1114,449 L 1022,449 Z"/>
  <path d="M 368,449 L 439,449 L 439,450 L 368,450 Z"/>
  <path d="M 480,449 L 690,449 L 690,450 L 480,450 Z"/>
  <path d="M 709,449 L 932,449 L 932,450 L 709,450 Z"/>
  <path d="M 1023,449 L 1115,449 L 1115,450 L 1023,450 Z"/>
  <path d="M 368,450 L 441,450 L 441,451 L 368,451 Z"/>
  <path d="M 480,450 L 690,450 L 690,451 L 480,451 Z"/>
  <path d="M 708,450 L 932,450 L 932,451 L 708,451 Z"/>
  <path d="M 1024,450 L 1115,450 L 1115,451 L 1024,451 Z"/>
  <path d="M 368,451 L 443,451 L 443,452 L 368,452 Z"/>
  <path d="M 480,451 L 691,451 L 691,452 L 480,452 Z"/>
  <path d="M 708,451 L 932,451 L 932,452 L 708,452 Z"/>
  <path d="M 1025,451 L 1115,451 L 1115,452 L 1025,452 Z"/>
  <path d="M 368,452 L 445,452 L 445,453 L 368,453 Z"/>
  <path d="M 480,452 L 691,452 L 691,453 L 480,453 Z"/>
  <path d="M 707,452 L 932,452 L 932,453 L 707,453 Z"/>
  <path d="M 1026,452 L 1116,452 L 1116,453 L 1026,453 Z"/>
  <path d="M 368,453 L 446,453 L 446,454 L 368,454 Z"/>
  <path d="M 480,453 L 691,453 L 691,454 L 480,454 Z"/>
  <path d="M 707,453 L 932,453 L 932,454 L 707,454 Z"/>
  <path d="M 1026,453 L 1117,453 L 1117,454 L 1026,454 Z"/>
  <path d="M 368,454 L 448,454 L 448,455 L 368,455 Z"/>
  <path d="M 479,454 L 690,454 L 690,455 L 479,455 Z"/>
  <path d="M 706,454 L 932,454 L 932,455 L 706,455 Z"/>
  <path d="M 1027,454 L 1117,454 L 1117,455 L 1027,455 Z"/>
  <path d="M 368,455 L 454,455 L 454,456 L 368,456 Z"/>
  <path d="M 478,455 L 690,455 L 690,456 L 478,456 Z"/>
  <path d="M 706,455 L 933,455 L 933,456 L 706,456 Z"/>
  <path d="M 1028,455 L 1118,455 L 1118,456 L 1028,456 Z"/>
  <path d="M 368,456 L 458,456 L 458,457 L 368,457 Z"/>
  <path d="M 477,456 L 690,456 L 690,457 L 477,457 Z"/>
  <path d="M 706,456 L 933,456 L 933,457 L 706,457 Z"/>
  <path d="M 1028,456 L 1118,456 L 1118,457 L 1028,457 Z"/>
  <path d="M 367,457 L 463,457 L 463,458 L 367,458 Z"/>
  <path d="M 475,457 L 689,457 L 689,458 L 475,458 Z"/>
  <path d="M 706,457 L 933,457 L 933,458 L 706,458 Z"/>
  <path d="M 1029,457 L 1118,457 L 1118,458 L 1029,458 Z"/>
  <path d="M 367,458 L 689,458 L 689,459 L 367,459 Z"/>
  <path d="M 707,458 L 933,458 L 933,459 L 707,459 Z"/>
  <path d="M 1030,458 L 1119,458 L 1119,459 L 1030,459 Z"/>
  <path d="M 366,459 L 689,459 L 689,460 L 366,460 Z"/>
  <path d="M 707,459 L 934,459 L 934,460 L 707,460 Z"/>
  <path d="M 1031,459 L 1119,459 L 1119,460 L 1031,460 Z"/>
  <path d="M 366,460 L 688,460 L 688,461 L 366,461 Z"/>
  <path d="M 707,460 L 934,460 L 934,461 L 707,461 Z"/>
  <path d="M 1031,460 L 1119,460 L 1119,461 L 1031,461 Z"/>
  <path d="M 365,461 L 688,461 L 688,462 L 365,462 Z"/>
  <path d="M 707,461 L 935,461 L 935,462 L 707,462 Z"/>
  <path d="M 1032,461 L 1119,461 L 1119,462 L 1032,462 Z"/>
  <path d="M 364,462 L 687,462 L 687,463 L 364,463 Z"/>
  <path d="M 707,462 L 936,462 L 936,463 L 707,463 Z"/>
  <path d="M 1032,462 L 1119,462 L 1119,463 L 1032,463 Z"/>
  <path d="M 363,463 L 687,463 L 687,464 L 363,464 Z"/>
  <path d="M 707,463 L 936,463 L 936,464 L 707,464 Z"/>
  <path d="M 1032,463 L 1119,463 L 1119,464 L 1032,464 Z"/>
  <path d="M 363,464 L 687,464 L 687,465 L 363,465 Z"/>
  <path d="M 707,464 L 937,464 L 937,465 L 707,465 Z"/>
  <path d="M 1033,464 L 1119,464 L 1119,465 L 1033,465 Z"/>
  <path d="M 363,465 L 686,465 L 686,466 L 363,466 Z"/>
  <path d="M 706,465 L 937,465 L 937,466 L 706,466 Z"/>
  <path d="M 1034,465 L 1119,465 L 1119,466 L 1034,466 Z"/>
  <path d="M 362,466 L 686,466 L 686,467 L 362,467 Z"/>
  <path d="M 706,466 L 938,466 L 938,467 L 706,467 Z"/>
  <path d="M 1034,466 L 1119,466 L 1119,467 L 1034,467 Z"/>
  <path d="M 362,467 L 686,467 L 686,468 L 362,468 Z"/>
  <path d="M 706,467 L 938,467 L 938,468 L 706,468 Z"/>
  <path d="M 1035,467 L 1120,467 L 1120,468 L 1035,468 Z"/>
  <path d="M 362,468 L 686,468 L 686,469 L 362,469 Z"/>
  <path d="M 706,468 L 938,468 L 938,469 L 706,469 Z"/>
  <path d="M 1036,468 L 1120,468 L 1120,469 L 1036,469 Z"/>
  <path d="M 362,469 L 686,469 L 686,470 L 362,470 Z"/>
  <path d="M 705,469 L 937,469 L 937,470 L 705,470 Z"/>
  <path d="M 1037,469 L 1120,469 L 1120,470 L 1037,470 Z"/>
  <path d="M 362,470 L 686,470 L 686,471 L 362,471 Z"/>
  <path d="M 705,470 L 937,470 L 937,471 L 705,471 Z"/>
  <path d="M 1038,470 L 1121,470 L 1121,471 L 1038,471 Z"/>
  <path d="M 362,471 L 686,471 L 686,472 L 362,472 Z"/>
  <path d="M 705,471 L 937,471 L 937,472 L 705,472 Z"/>
  <path d="M 1038,471 L 1122,471 L 1122,472 L 1038,472 Z"/>
  <path d="M 362,472 L 687,472 L 687,473 L 362,473 Z"/>
  <path d="M 705,472 L 937,472 L 937,473 L 705,473 Z"/>
  <path d="M 1039,472 L 1122,472 L 1122,473 L 1039,473 Z"/>
  <path d="M 361,473 L 687,473 L 687,474 L 361,474 Z"/>
  <path d="M 705,473 L 938,473 L 938,474 L 705,474 Z"/>
  <path d="M 1040,473 L 1122,473 L 1122,474 L 1040,474 Z"/>
  <path d="M 361,474 L 687,474 L 687,475 L 361,475 Z"/>
  <path d="M 705,474 L 938,474 L 938,475 L 705,475 Z"/>
  <path d="M 1040,474 L 1123,474 L 1123,475 L 1040,475 Z"/>
  <path d="M 361,475 L 687,475 L 687,476 L 361,476 Z"/>
  <path d="M 705,475 L 939,475 L 939,476 L 705,476 Z"/>
  <path d="M 1041,475 L 1123,475 L 1123,476 L 1041,476 Z"/>
  <path d="M 360,476 L 688,476 L 688,477 L 360,477 Z"/>
  <path d="M 705,476 L 939,476 L 939,477 L 705,477 Z"/>
  <path d="M 1041,476 L 1123,476 L 1123,477 L 1041,477 Z"/>
  <path d="M 359,477 L 688,477 L 688,478 L 359,478 Z"/>
  <path d="M 705,477 L 941,477 L 941,478 L 705,478 Z"/>
  <path d="M 1042,477 L 1123,477 L 1123,478 L 1042,478 Z"/>
  <path d="M 359,478 L 688,478 L 688,479 L 359,479 Z"/>
  <path d="M 705,478 L 942,478 L 942,479 L 705,479 Z"/>
  <path d="M 1042,478 L 1123,478 L 1123,479 L 1042,479 Z"/>
  <path d="M 358,479 L 689,479 L 689,480 L 358,480 Z"/>
  <path d="M 705,479 L 942,479 L 942,480 L 705,480 Z"/>
  <path d="M 1043,479 L 1124,479 L 1124,480 L 1043,480 Z"/>
  <path d="M 357,480 L 689,480 L 689,481 L 357,481 Z"/>
  <path d="M 705,480 L 944,480 L 944,481 L 705,481 Z"/>
  <path d="M 1043,480 L 1124,480 L 1124,481 L 1043,481 Z"/>
  <path d="M 357,481 L 689,481 L 689,482 L 357,482 Z"/>
  <path d="M 706,481 L 945,481 L 945,482 L 706,482 Z"/>
  <path d="M 1043,481 L 1124,481 L 1124,482 L 1043,482 Z"/>
  <path d="M 356,482 L 689,482 L 689,483 L 356,483 Z"/>
  <path d="M 706,482 L 946,482 L 946,483 L 706,483 Z"/>
  <path d="M 1043,482 L 1124,482 L 1124,483 L 1043,483 Z"/>
  <path d="M 356,483 L 689,483 L 689,484 L 356,484 Z"/>
  <path d="M 706,483 L 948,483 L 948,484 L 706,484 Z"/>
  <path d="M 954,483 L 967,483 L 967,484 L 954,484 Z"/>
  <path d="M 1043,483 L 1124,483 L 1124,484 L 1043,484 Z"/>
  <path d="M 355,484 L 690,484 L 690,485 L 355,485 Z"/>
  <path d="M 706,484 L 970,484 L 970,485 L 706,485 Z"/>
  <path d="M 1043,484 L 1124,484 L 1124,485 L 1043,485 Z"/>
  <path d="M 355,485 L 690,485 L 690,486 L 355,486 Z"/>
  <path d="M 706,485 L 973,485 L 973,486 L 706,486 Z"/>
  <path d="M 1043,485 L 1125,485 L 1125,486 L 1043,486 Z"/>
  <path d="M 355,486 L 690,486 L 690,487 L 355,487 Z"/>
  <path d="M 706,486 L 991,486 L 991,487 L 706,487 Z"/>
  <path d="M 1043,486 L 1125,486 L 1125,487 L 1043,487 Z"/>
  <path d="M 355,487 L 690,487 L 690,488 L 355,488 Z"/>
  <path d="M 706,487 L 995,487 L 995,488 L 706,488 Z"/>
  <path d="M 1043,487 L 1125,487 L 1125,488 L 1043,488 Z"/>
  <path d="M 355,488 L 690,488 L 690,489 L 355,489 Z"/>
  <path d="M 707,488 L 796,488 L 796,489 L 707,489 Z"/>
  <path d="M 805,488 L 824,488 L 824,489 L 805,489 Z"/>
  <path d="M 832,488 L 845,488 L 845,489 L 832,489 Z"/>
  <path d="M 852,488 L 859,488 L 859,489 L 852,489 Z"/>
  <path d="M 866,488 L 998,488 L 998,489 L 866,489 Z"/>
  <path d="M 1042,488 L 1126,488 L 1126,489 L 1042,489 Z"/>
  <path d="M 355,489 L 690,489 L 690,490 L 355,490 Z"/>
  <path d="M 707,489 L 792,489 L 792,490 L 707,490 Z"/>
  <path d="M 809,489 L 818,489 L 818,490 L 809,490 Z"/>
  <path d="M 871,489 L 1002,489 L 1002,490 L 871,490 Z"/>
  <path d="M 1042,489 L 1126,489 L 1126,490 L 1042,490 Z"/>
  <path d="M 355,490 L 690,490 L 690,491 L 355,491 Z"/>
  <path d="M 707,490 L 789,490 L 789,491 L 707,491 Z"/>
  <path d="M 874,490 L 1005,490 L 1005,491 L 874,491 Z"/>
  <path d="M 1041,490 L 1127,490 L 1127,491 L 1041,491 Z"/>
  <path d="M 355,491 L 689,491 L 689,492 L 355,492 Z"/>
  <path d="M 707,491 L 767,491 L 767,492 L 707,492 Z"/>
  <path d="M 778,491 L 783,491 L 783,492 L 778,492 Z"/>
  <path d="M 876,491 L 1006,491 L 1006,492 L 876,492 Z"/>
  <path d="M 1039,491 L 1127,491 L 1127,492 L 1039,492 Z"/>
  <path d="M 355,492 L 689,492 L 689,493 L 355,493 Z"/>
  <path d="M 707,492 L 765,492 L 765,493 L 707,493 Z"/>
  <path d="M 877,492 L 1009,492 L 1009,493 L 877,493 Z"/>
  <path d="M 1038,492 L 1128,492 L 1128,493 L 1038,493 Z"/>
  <path d="M 355,493 L 689,493 L 689,494 L 355,494 Z"/>
  <path d="M 706,493 L 763,493 L 763,494 L 706,494 Z"/>
  <path d="M 879,493 L 1023,493 L 1023,494 L 879,494 Z"/>
  <path d="M 1035,493 L 1129,493 L 1129,494 L 1035,494 Z"/>
  <path d="M 354,494 L 689,494 L 689,495 L 354,495 Z"/>
  <path d="M 706,494 L 761,494 L 761,495 L 706,495 Z"/>
  <path d="M 881,494 L 1129,494 L 1129,495 L 881,495 Z"/>
  <path d="M 354,495 L 688,495 L 688,496 L 354,496 Z"/>
  <path d="M 706,495 L 760,495 L 760,496 L 706,496 Z"/>
  <path d="M 882,495 L 1130,495 L 1130,496 L 882,496 Z"/>
  <path d="M 354,496 L 688,496 L 688,497 L 354,497 Z"/>
  <path d="M 706,496 L 759,496 L 759,497 L 706,497 Z"/>
  <path d="M 883,496 L 1130,496 L 1130,497 L 883,497 Z"/>
  <path d="M 353,497 L 688,497 L 688,498 L 353,498 Z"/>
  <path d="M 706,497 L 759,497 L 759,498 L 706,498 Z"/>
  <path d="M 884,497 L 1131,497 L 1131,498 L 884,498 Z"/>
  <path d="M 353,498 L 688,498 L 688,499 L 353,499 Z"/>
  <path d="M 706,498 L 759,498 L 759,499 L 706,499 Z"/>
  <path d="M 884,498 L 1131,498 L 1131,499 L 884,499 Z"/>
  <path d="M 352,499 L 687,499 L 687,500 L 352,500 Z"/>
  <path d="M 706,499 L 759,499 L 759,500 L 706,500 Z"/>
  <path d="M 885,499 L 1131,499 L 1131,500 L 885,500 Z"/>
  <path d="M 352,500 L 687,500 L 687,501 L 352,501 Z"/>
  <path d="M 705,500 L 759,500 L 759,501 L 705,501 Z"/>
  <path d="M 886,500 L 1131,500 L 1131,501 L 886,501 Z"/>
  <path d="M 352,501 L 687,501 L 687,502 L 352,502 Z"/>
  <path d="M 705,501 L 759,501 L 759,502 L 705,502 Z"/>
  <path d="M 794,501 L 797,501 L 797,502 L 794,502 Z"/>
  <path d="M 887,501 L 1131,501 L 1131,502 L 887,502 Z"/>
  <path d="M 352,502 L 686,502 L 686,503 L 352,503 Z"/>
  <path d="M 705,502 L 760,502 L 760,503 L 705,503 Z"/>
  <path d="M 788,502 L 801,502 L 801,503 L 788,503 Z"/>
  <path d="M 849,502 L 856,502 L 856,503 L 849,503 Z"/>
  <path d="M 888,502 L 1131,502 L 1131,503 L 888,503 Z"/>
  <path d="M 352,503 L 686,503 L 686,504 L 352,504 Z"/>
  <path d="M 705,503 L 762,503 L 762,504 L 705,504 Z"/>
  <path d="M 784,503 L 804,503 L 804,504 L 784,504 Z"/>
  <path d="M 816,503 L 832,503 L 832,504 L 816,504 Z"/>
  <path d="M 844,503 L 859,503 L 859,504 L 844,504 Z"/>
  <path d="M 889,503 L 1131,503 L 1131,504 L 889,504 Z"/>
  <path d="M 352,504 L 686,504 L 686,505 L 352,505 Z"/>
  <path d="M 705,504 L 836,504 L 836,505 L 705,505 Z"/>
  <path d="M 840,504 L 862,504 L 862,505 L 840,505 Z"/>
  <path d="M 890,504 L 1131,504 L 1131,505 L 890,505 Z"/>
  <path d="M 352,505 L 686,505 L 686,506 L 352,506 Z"/>
  <path d="M 705,505 L 865,505 L 865,506 L 705,506 Z"/>
  <path d="M 891,505 L 1132,505 L 1132,506 L 891,506 Z"/>
  <path d="M 352,506 L 686,506 L 686,507 L 352,507 Z"/>
  <path d="M 705,506 L 867,506 L 867,507 L 705,507 Z"/>
  <path d="M 892,506 L 1132,506 L 1132,507 L 892,507 Z"/>
  <path d="M 352,507 L 686,507 L 686,508 L 352,508 Z"/>
  <path d="M 704,507 L 868,507 L 868,508 L 704,508 Z"/>
  <path d="M 893,507 L 1133,507 L 1133,508 L 893,508 Z"/>
  <path d="M 352,508 L 686,508 L 686,509 L 352,509 Z"/>
  <path d="M 704,508 L 869,508 L 869,509 L 704,509 Z"/>
  <path d="M 894,508 L 1134,508 L 1134,509 L 894,509 Z"/>
  <path d="M 352,509 L 685,509 L 685,510 L 352,510 Z"/>
  <path d="M 704,509 L 870,509 L 870,510 L 704,510 Z"/>
  <path d="M 896,509 L 1134,509 L 1134,510 L 896,510 Z"/>
  <path d="M 352,510 L 685,510 L 685,511 L 352,511 Z"/>
  <path d="M 704,510 L 871,510 L 871,511 L 704,511 Z"/>
  <path d="M 897,510 L 1135,510 L 1135,511 L 897,511 Z"/>
  <path d="M 352,511 L 685,511 L 685,512 L 352,512 Z"/>
  <path d="M 704,511 L 872,511 L 872,512 L 704,512 Z"/>
  <path d="M 898,511 L 1136,511 L 1136,512 L 898,512 Z"/>
  <path d="M 352,512 L 685,512 L 685,513 L 352,513 Z"/>
  <path d="M 703,512 L 874,512 L 874,513 L 703,513 Z"/>
  <path d="M 899,512 L 1136,512 L 1136,513 L 899,513 Z"/>
  <path d="M 352,513 L 685,513 L 685,514 L 352,514 Z"/>
  <path d="M 703,513 L 877,513 L 877,514 L 703,514 Z"/>
  <path d="M 900,513 L 1137,513 L 1137,514 L 900,514 Z"/>
  <path d="M 352,514 L 684,514 L 684,515 L 352,515 Z"/>
  <path d="M 703,514 L 878,514 L 878,515 L 703,515 Z"/>
  <path d="M 900,514 L 1137,514 L 1137,515 L 900,515 Z"/>
  <path d="M 351,515 L 684,515 L 684,516 L 351,516 Z"/>
  <path d="M 703,515 L 879,515 L 879,516 L 703,516 Z"/>
  <path d="M 901,515 L 1137,515 L 1137,516 L 901,516 Z"/>
  <path d="M 351,516 L 683,516 L 683,517 L 351,517 Z"/>
  <path d="M 703,516 L 880,516 L 880,517 L 703,517 Z"/>
  <path d="M 902,516 L 1138,516 L 1138,517 L 902,517 Z"/>
  <path d="M 351,517 L 682,517 L 682,518 L 351,518 Z"/>
  <path d="M 703,517 L 881,517 L 881,518 L 703,518 Z"/>
  <path d="M 902,517 L 1138,517 L 1138,518 L 902,518 Z"/>
  <path d="M 351,518 L 681,518 L 681,519 L 351,519 Z"/>
  <path d="M 703,518 L 882,518 L 882,519 L 703,519 Z"/>
  <path d="M 902,518 L 1138,518 L 1138,519 L 902,519 Z"/>
  <path d="M 351,519 L 681,519 L 681,520 L 351,520 Z"/>
  <path d="M 703,519 L 883,519 L 883,520 L 703,520 Z"/>
  <path d="M 903,519 L 1138,519 L 1138,520 L 903,520 Z"/>
  <path d="M 351,520 L 680,520 L 680,521 L 351,521 Z"/>
  <path d="M 704,520 L 883,520 L 883,521 L 704,521 Z"/>
  <path d="M 903,520 L 1138,520 L 1138,521 L 903,521 Z"/>
  <path d="M 351,521 L 680,521 L 680,522 L 351,522 Z"/>
  <path d="M 704,521 L 884,521 L 884,522 L 704,522 Z"/>
  <path d="M 904,521 L 1138,521 L 1138,522 L 904,522 Z"/>
  <path d="M 351,522 L 680,522 L 680,523 L 351,523 Z"/>
  <path d="M 704,522 L 885,522 L 885,523 L 704,523 Z"/>
  <path d="M 904,522 L 1139,522 L 1139,523 L 904,523 Z"/>
  <path d="M 351,523 L 679,523 L 679,524 L 351,524 Z"/>
  <path d="M 704,523 L 885,523 L 885,524 L 704,524 Z"/>
  <path d="M 904,523 L 1139,523 L 1139,524 L 904,524 Z"/>
  <path d="M 352,524 L 679,524 L 679,525 L 352,525 Z"/>
  <path d="M 704,524 L 885,524 L 885,525 L 704,525 Z"/>
  <path d="M 905,524 L 1140,524 L 1140,525 L 905,525 Z"/>
  <path d="M 352,525 L 679,525 L 679,526 L 352,526 Z"/>
  <path d="M 704,525 L 886,525 L 886,526 L 704,526 Z"/>
  <path d="M 906,525 L 1140,525 L 1140,526 L 906,526 Z"/>
  <path d="M 352,526 L 679,526 L 679,527 L 352,527 Z"/>
  <path d="M 704,526 L 887,526 L 887,527 L 704,527 Z"/>
  <path d="M 907,526 L 1141,526 L 1141,527 L 907,527 Z"/>
  <path d="M 352,527 L 679,527 L 679,528 L 352,528 Z"/>
  <path d="M 704,527 L 887,527 L 887,528 L 704,528 Z"/>
  <path d="M 908,527 L 1142,527 L 1142,528 L 908,528 Z"/>
  <path d="M 352,528 L 679,528 L 679,529 L 352,529 Z"/>
  <path d="M 704,528 L 888,528 L 888,529 L 704,529 Z"/>
  <path d="M 909,528 L 1142,528 L 1142,529 L 909,529 Z"/>
  <path d="M 352,529 L 680,529 L 680,530 L 352,530 Z"/>
  <path d="M 704,529 L 888,529 L 888,530 L 704,530 Z"/>
  <path d="M 911,529 L 1142,529 L 1142,530 L 911,530 Z"/>
  <path d="M 352,530 L 680,530 L 680,531 L 352,531 Z"/>
  <path d="M 704,530 L 889,530 L 889,531 L 704,531 Z"/>
  <path d="M 911,530 L 1143,530 L 1143,531 L 911,531 Z"/>
  <path d="M 352,531 L 681,531 L 681,532 L 352,532 Z"/>
  <path d="M 703,531 L 890,531 L 890,532 L 703,532 Z"/>
  <path d="M 912,531 L 1143,531 L 1143,532 L 912,532 Z"/>
  <path d="M 353,532 L 681,532 L 681,533 L 353,533 Z"/>
  <path d="M 703,532 L 891,532 L 891,533 L 703,533 Z"/>
  <path d="M 913,532 L 1143,532 L 1143,533 L 913,533 Z"/>
  <path d="M 353,533 L 681,533 L 681,534 L 353,534 Z"/>
  <path d="M 702,533 L 891,533 L 891,534 L 702,534 Z"/>
  <path d="M 914,533 L 1144,533 L 1144,534 L 914,534 Z"/>
  <path d="M 353,534 L 681,534 L 681,535 L 353,535 Z"/>
  <path d="M 702,534 L 891,534 L 891,535 L 702,535 Z"/>
  <path d="M 915,534 L 1144,534 L 1144,535 L 915,535 Z"/>
  <path d="M 353,535 L 681,535 L 681,536 L 353,536 Z"/>
  <path d="M 702,535 L 891,535 L 891,536 L 702,536 Z"/>
  <path d="M 916,535 L 1144,535 L 1144,536 L 916,536 Z"/>
  <path d="M 353,536 L 681,536 L 681,537 L 353,537 Z"/>
  <path d="M 701,536 L 892,536 L 892,537 L 701,537 Z"/>
  <path d="M 917,536 L 1145,536 L 1145,537 L 917,537 Z"/>
  <path d="M 353,537 L 681,537 L 681,538 L 353,538 Z"/>
  <path d="M 701,537 L 892,537 L 892,538 L 701,538 Z"/>
  <path d="M 918,537 L 1145,537 L 1145,538 L 918,538 Z"/>
  <path d="M 353,538 L 680,538 L 680,539 L 353,539 Z"/>
  <path d="M 701,538 L 892,538 L 892,539 L 701,539 Z"/>
  <path d="M 918,538 L 1145,538 L 1145,539 L 918,539 Z"/>
  <path d="M 354,539 L 680,539 L 680,540 L 354,540 Z"/>
  <path d="M 700,539 L 893,539 L 893,540 L 700,540 Z"/>
  <path d="M 919,539 L 1145,539 L 1145,540 L 919,540 Z"/>
  <path d="M 354,540 L 680,540 L 680,541 L 354,541 Z"/>
  <path d="M 700,540 L 894,540 L 894,541 L 700,541 Z"/>
  <path d="M 919,540 L 1144,540 L 1144,541 L 919,541 Z"/>
  <path d="M 354,541 L 679,541 L 679,542 L 354,542 Z"/>
  <path d="M 700,541 L 895,541 L 895,542 L 700,542 Z"/>
  <path d="M 920,541 L 1143,541 L 1143,542 L 920,542 Z"/>
  <path d="M 354,542 L 679,542 L 679,543 L 354,543 Z"/>
  <path d="M 700,542 L 897,542 L 897,543 L 700,543 Z"/>
  <path d="M 920,542 L 1143,542 L 1143,543 L 920,543 Z"/>
  <path d="M 355,543 L 679,543 L 679,544 L 355,544 Z"/>
  <path d="M 700,543 L 898,543 L 898,544 L 700,544 Z"/>
  <path d="M 920,543 L 1142,543 L 1142,544 L 920,544 Z"/>
  <path d="M 355,544 L 678,544 L 678,545 L 355,545 Z"/>
  <path d="M 700,544 L 899,544 L 899,545 L 700,545 Z"/>
  <path d="M 921,544 L 1142,544 L 1142,545 L 921,545 Z"/>
  <path d="M 356,545 L 678,545 L 678,546 L 356,546 Z"/>
  <path d="M 700,545 L 900,545 L 900,546 L 700,546 Z"/>
  <path d="M 921,545 L 1141,545 L 1141,546 L 921,546 Z"/>
  <path d="M 356,546 L 678,546 L 678,547 L 356,547 Z"/>
  <path d="M 700,546 L 901,546 L 901,547 L 700,547 Z"/>
  <path d="M 921,546 L 1141,546 L 1141,547 L 921,547 Z"/>
  <path d="M 357,547 L 678,547 L 678,548 L 357,548 Z"/>
  <path d="M 701,547 L 902,547 L 902,548 L 701,548 Z"/>
  <path d="M 921,547 L 1141,547 L 1141,548 L 921,548 Z"/>
  <path d="M 358,548 L 677,548 L 677,549 L 358,549 Z"/>
  <path d="M 701,548 L 903,548 L 903,549 L 701,549 Z"/>
  <path d="M 922,548 L 1141,548 L 1141,549 L 922,549 Z"/>
  <path d="M 358,549 L 677,549 L 677,550 L 358,550 Z"/>
  <path d="M 701,549 L 904,549 L 904,550 L 701,550 Z"/>
  <path d="M 922,549 L 1141,549 L 1141,550 L 922,550 Z"/>
  <path d="M 359,550 L 677,550 L 677,551 L 359,551 Z"/>
  <path d="M 701,550 L 904,550 L 904,551 L 701,551 Z"/>
  <path d="M 922,550 L 1141,550 L 1141,551 L 922,551 Z"/>
  <path d="M 359,551 L 677,551 L 677,552 L 359,552 Z"/>
  <path d="M 701,551 L 904,551 L 904,552 L 701,552 Z"/>
  <path d="M 922,551 L 1141,551 L 1141,552 L 922,552 Z"/>
  <path d="M 360,552 L 677,552 L 677,553 L 360,553 Z"/>
  <path d="M 701,552 L 905,552 L 905,553 L 701,553 Z"/>
  <path d="M 922,552 L 1142,552 L 1142,553 L 922,553 Z"/>
  <path d="M 360,553 L 677,553 L 677,554 L 360,554 Z"/>
  <path d="M 701,553 L 905,553 L 905,554 L 701,554 Z"/>
  <path d="M 922,553 L 1143,553 L 1143,554 L 922,554 Z"/>
  <path d="M 361,554 L 677,554 L 677,555 L 361,555 Z"/>
  <path d="M 701,554 L 905,554 L 905,555 L 701,555 Z"/>
  <path d="M 922,554 L 1143,554 L 1143,555 L 922,555 Z"/>
  <path d="M 361,555 L 677,555 L 677,556 L 361,556 Z"/>
  <path d="M 700,555 L 905,555 L 905,556 L 700,556 Z"/>
  <path d="M 921,555 L 1143,555 L 1143,556 L 921,556 Z"/>
  <path d="M 362,556 L 677,556 L 677,557 L 362,557 Z"/>
  <path d="M 700,556 L 906,556 L 906,557 L 700,557 Z"/>
  <path d="M 921,556 L 1143,556 L 1143,557 L 921,557 Z"/>
  <path d="M 363,557 L 677,557 L 677,558 L 363,558 Z"/>
  <path d="M 700,557 L 906,557 L 906,558 L 700,558 Z"/>
  <path d="M 921,557 L 1143,557 L 1143,558 L 921,558 Z"/>
  <path d="M 363,558 L 676,558 L 676,559 L 363,559 Z"/>
  <path d="M 700,558 L 906,558 L 906,559 L 700,559 Z"/>
  <path d="M 921,558 L 1143,558 L 1143,559 L 921,559 Z"/>
  <path d="M 364,559 L 676,559 L 676,560 L 364,560 Z"/>
  <path d="M 700,559 L 906,559 L 906,560 L 700,560 Z"/>
  <path d="M 921,559 L 1142,559 L 1142,560 L 921,560 Z"/>
  <path d="M 366,560 L 676,560 L 676,561 L 366,561 Z"/>
  <path d="M 700,560 L 906,560 L 906,561 L 700,561 Z"/>
  <path d="M 921,560 L 1142,560 L 1142,561 L 921,561 Z"/>
  <path d="M 367,561 L 676,561 L 676,562 L 367,562 Z"/>
  <path d="M 700,561 L 905,561 L 905,562 L 700,562 Z"/>
  <path d="M 924,561 L 1141,561 L 1141,562 L 924,562 Z"/>
  <path d="M 368,562 L 676,562 L 676,563 L 368,563 Z"/>
  <path d="M 700,562 L 905,562 L 905,563 L 700,563 Z"/>
  <path d="M 927,562 L 1140,562 L 1140,563 L 927,563 Z"/>
  <path d="M 368,563 L 676,563 L 676,564 L 368,564 Z"/>
  <path d="M 699,563 L 905,563 L 905,564 L 699,564 Z"/>
  <path d="M 930,563 L 1140,563 L 1140,564 L 930,564 Z"/>
  <path d="M 369,564 L 675,564 L 675,565 L 369,565 Z"/>
  <path d="M 699,564 L 905,564 L 905,565 L 699,565 Z"/>
  <path d="M 936,564 L 1139,564 L 1139,565 L 936,565 Z"/>
  <path d="M 370,565 L 675,565 L 675,566 L 370,566 Z"/>
  <path d="M 699,565 L 905,565 L 905,566 L 699,566 Z"/>
  <path d="M 940,565 L 946,565 L 946,566 L 940,566 Z"/>
  <path d="M 953,565 L 1016,565 L 1016,566 L 953,566 Z"/>
  <path d="M 1027,565 L 1138,565 L 1138,566 L 1027,566 Z"/>
  <path d="M 371,566 L 675,566 L 675,567 L 371,567 Z"/>
  <path d="M 699,566 L 906,566 L 906,567 L 699,567 Z"/>
  <path d="M 957,566 L 965,566 L 965,567 L 957,567 Z"/>
  <path d="M 969,566 L 979,566 L 979,567 L 969,567 Z"/>
  <path d="M 994,566 L 1011,566 L 1011,567 L 994,567 Z"/>
  <path d="M 1048,566 L 1135,566 L 1135,567 L 1048,567 Z"/>
  <path d="M 372,567 L 675,567 L 675,568 L 372,568 Z"/>
  <path d="M 699,567 L 906,567 L 906,568 L 699,568 Z"/>
  <path d="M 1053,567 L 1131,567 L 1131,568 L 1053,568 Z"/>
  <path d="M 372,568 L 675,568 L 675,569 L 372,569 Z"/>
  <path d="M 698,568 L 907,568 L 907,569 L 698,569 Z"/>
  <path d="M 1062,568 L 1128,568 L 1128,569 L 1062,569 Z"/>
  <path d="M 373,569 L 674,569 L 674,570 L 373,570 Z"/>
  <path d="M 698,569 L 875,569 L 875,570 L 698,570 Z"/>
  <path d="M 882,569 L 907,569 L 907,570 L 882,570 Z"/>
  <path d="M 1073,569 L 1127,569 L 1127,570 L 1073,570 Z"/>
  <path d="M 374,570 L 674,570 L 674,571 L 374,571 Z"/>
  <path d="M 698,570 L 874,570 L 874,571 L 698,571 Z"/>
  <path d="M 883,570 L 907,570 L 907,571 L 883,571 Z"/>
  <path d="M 1089,570 L 1124,570 L 1124,571 L 1089,571 Z"/>
  <path d="M 375,571 L 674,571 L 674,572 L 375,572 Z"/>
  <path d="M 697,571 L 873,571 L 873,572 L 697,572 Z"/>
  <path d="M 884,571 L 907,571 L 907,572 L 884,572 Z"/>
  <path d="M 1094,571 L 1114,571 L 1114,572 L 1094,572 Z"/>
  <path d="M 376,572 L 674,572 L 674,573 L 376,573 Z"/>
  <path d="M 696,572 L 873,572 L 873,573 L 696,573 Z"/>
  <path d="M 885,572 L 907,572 L 907,573 L 885,573 Z"/>
  <path d="M 378,573 L 674,573 L 674,574 L 378,574 Z"/>
  <path d="M 696,573 L 873,573 L 873,574 L 696,574 Z"/>
  <path d="M 885,573 L 906,573 L 906,574 L 885,574 Z"/>
  <path d="M 379,574 L 674,574 L 674,575 L 379,575 Z"/>
  <path d="M 695,574 L 873,574 L 873,575 L 695,575 Z"/>
  <path d="M 886,574 L 906,574 L 906,575 L 886,575 Z"/>
  <path d="M 381,575 L 674,575 L 674,576 L 381,576 Z"/>
  <path d="M 695,575 L 873,575 L 873,576 L 695,576 Z"/>
  <path d="M 887,575 L 906,575 L 906,576 L 887,576 Z"/>
  <path d="M 382,576 L 610,576 L 610,577 L 382,577 Z"/>
  <path d="M 617,576 L 674,576 L 674,577 L 617,577 Z"/>
  <path d="M 696,576 L 752,576 L 752,577 L 696,577 Z"/>
  <path d="M 761,576 L 873,576 L 873,577 L 761,577 Z"/>
  <path d="M 887,576 L 906,576 L 906,577 L 887,577 Z"/>
  <path d="M 383,577 L 581,577 L 581,578 L 383,578 Z"/>
  <path d="M 593,577 L 604,577 L 604,578 L 593,578 Z"/>
  <path d="M 621,577 L 645,577 L 645,578 L 621,578 Z"/>
  <path d="M 648,577 L 674,577 L 674,578 L 648,578 Z"/>
  <path d="M 696,577 L 728,577 L 728,578 L 696,578 Z"/>
  <path d="M 736,577 L 746,577 L 746,578 L 736,578 Z"/>
  <path d="M 769,577 L 873,577 L 873,578 L 769,578 Z"/>
  <path d="M 887,577 L 906,577 L 906,578 L 887,578 Z"/>
  <path d="M 384,578 L 577,578 L 577,579 L 384,579 Z"/>
  <path d="M 625,578 L 641,578 L 641,579 L 625,579 Z"/>
  <path d="M 652,578 L 674,578 L 674,579 L 652,579 Z"/>
  <path d="M 704,578 L 723,578 L 723,579 L 704,579 Z"/>
  <path d="M 777,578 L 874,578 L 874,579 L 777,579 Z"/>
  <path d="M 888,578 L 905,578 L 905,579 L 888,579 Z"/>
  <path d="M 386,579 L 566,579 L 566,580 L 386,580 Z"/>
  <path d="M 571,579 L 572,579 L 572,580 L 571,580 Z"/>
  <path d="M 630,579 L 636,579 L 636,580 L 630,580 Z"/>
  <path d="M 655,579 L 663,579 L 663,580 L 655,580 Z"/>
  <path d="M 798,579 L 874,579 L 874,580 L 798,580 Z"/>
  <path d="M 888,579 L 905,579 L 905,580 L 888,580 Z"/>
  <path d="M 388,580 L 562,580 L 562,581 L 388,581 Z"/>
  <path d="M 802,580 L 875,580 L 875,581 L 802,581 Z"/>
  <path d="M 889,580 L 905,580 L 905,581 L 889,581 Z"/>
  <path d="M 390,581 L 557,581 L 557,582 L 390,582 Z"/>
  <path d="M 805,581 L 876,581 L 876,582 L 805,582 Z"/>
  <path d="M 889,581 L 904,581 L 904,582 L 889,582 Z"/>
  <path d="M 391,582 L 553,582 L 553,583 L 391,583 Z"/>
  <path d="M 807,582 L 843,582 L 843,583 L 807,583 Z"/>
  <path d="M 846,582 L 876,582 L 876,583 L 846,583 Z"/>
  <path d="M 889,582 L 904,582 L 904,583 L 889,583 Z"/>
  <path d="M 393,583 L 548,583 L 548,584 L 393,584 Z"/>
  <path d="M 809,583 L 842,583 L 842,584 L 809,584 Z"/>
  <path d="M 848,583 L 877,583 L 877,584 L 848,584 Z"/>
  <path d="M 890,583 L 903,583 L 903,584 L 890,584 Z"/>
  <path d="M 395,584 L 535,584 L 535,585 L 395,585 Z"/>
  <path d="M 811,584 L 840,584 L 840,585 L 811,585 Z"/>
  <path d="M 849,584 L 878,584 L 878,585 L 849,585 Z"/>
  <path d="M 890,584 L 902,584 L 902,585 L 890,585 Z"/>
  <path d="M 396,585 L 504,585 L 504,586 L 396,586 Z"/>
  <path d="M 510,585 L 531,585 L 531,586 L 510,586 Z"/>
  <path d="M 814,585 L 839,585 L 839,586 L 814,586 Z"/>
  <path d="M 850,585 L 878,585 L 878,586 L 850,586 Z"/>
  <path d="M 891,585 L 902,585 L 902,586 L 891,586 Z"/>
  <path d="M 398,586 L 503,586 L 503,587 L 398,587 Z"/>
  <path d="M 511,586 L 527,586 L 527,587 L 511,587 Z"/>
  <path d="M 815,586 L 839,586 L 839,587 L 815,587 Z"/>
  <path d="M 851,586 L 879,586 L 879,587 L 851,587 Z"/>
  <path d="M 891,586 L 901,586 L 901,587 L 891,587 Z"/>
  <path d="M 400,587 L 502,587 L 502,588 L 400,588 Z"/>
  <path d="M 512,587 L 522,587 L 522,588 L 512,588 Z"/>
  <path d="M 816,587 L 839,587 L 839,588 L 816,588 Z"/>
  <path d="M 851,587 L 879,587 L 879,588 L 851,588 Z"/>
  <path d="M 892,587 L 901,587 L 901,588 L 892,588 Z"/>
  <path d="M 402,588 L 502,588 L 502,589 L 402,589 Z"/>
  <path d="M 817,588 L 838,588 L 838,589 L 817,589 Z"/>
  <path d="M 851,588 L 880,588 L 880,589 L 851,589 Z"/>
  <path d="M 892,588 L 900,588 L 900,589 L 892,589 Z"/>
  <path d="M 404,589 L 501,589 L 501,590 L 404,590 Z"/>
  <path d="M 818,589 L 838,589 L 838,590 L 818,590 Z"/>
  <path d="M 851,589 L 880,589 L 880,590 L 851,590 Z"/>
  <path d="M 892,589 L 898,589 L 898,590 L 892,590 Z"/>
  <path d="M 408,590 L 501,590 L 501,591 L 408,591 Z"/>
  <path d="M 818,590 L 839,590 L 839,591 L 818,591 Z"/>
  <path d="M 851,590 L 880,590 L 880,591 L 851,591 Z"/>
  <path d="M 893,590 L 897,590 L 897,591 L 893,591 Z"/>
  <path d="M 410,591 L 477,591 L 477,592 L 410,592 Z"/>
  <path d="M 486,591 L 500,591 L 500,592 L 486,592 Z"/>
  <path d="M 819,591 L 839,591 L 839,592 L 819,592 Z"/>
  <path d="M 852,591 L 881,591 L 881,592 L 852,592 Z"/>
  <path d="M 412,592 L 474,592 L 474,593 L 412,593 Z"/>
  <path d="M 488,592 L 500,592 L 500,593 L 488,593 Z"/>
  <path d="M 820,592 L 839,592 L 839,593 L 820,593 Z"/>
  <path d="M 852,592 L 881,592 L 881,593 L 852,593 Z"/>
  <path d="M 417,593 L 471,593 L 471,594 L 417,594 Z"/>
  <path d="M 489,593 L 500,593 L 500,594 L 489,594 Z"/>
  <path d="M 820,593 L 839,593 L 839,594 L 820,594 Z"/>
  <path d="M 852,593 L 882,593 L 882,594 L 852,594 Z"/>
  <path d="M 422,594 L 468,594 L 468,595 L 422,595 Z"/>
  <path d="M 489,594 L 500,594 L 500,595 L 489,595 Z"/>
  <path d="M 820,594 L 840,594 L 840,595 L 820,595 Z"/>
  <path d="M 853,594 L 882,594 L 882,595 L 853,595 Z"/>
  <path d="M 428,595 L 460,595 L 460,596 L 428,596 Z"/>
  <path d="M 489,595 L 500,595 L 500,596 L 489,596 Z"/>
  <path d="M 821,595 L 840,595 L 840,596 L 821,596 Z"/>
  <path d="M 853,595 L 882,595 L 882,596 L 853,596 Z"/>
  <path d="M 434,596 L 443,596 L 443,597 L 434,597 Z"/>
  <path d="M 489,596 L 500,596 L 500,597 L 489,597 Z"/>
  <path d="M 821,596 L 840,596 L 840,597 L 821,597 Z"/>
  <path d="M 853,596 L 882,596 L 882,597 L 853,597 Z"/>
  <path d="M 490,597 L 500,597 L 500,598 L 490,598 Z"/>
  <path d="M 821,597 L 840,597 L 840,598 L 821,598 Z"/>
  <path d="M 854,597 L 883,597 L 883,598 L 854,598 Z"/>
  <path d="M 490,598 L 501,598 L 501,599 L 490,599 Z"/>
  <path d="M 821,598 L 841,598 L 841,599 L 821,599 Z"/>
  <path d="M 854,598 L 883,598 L 883,599 L 854,599 Z"/>
  <path d="M 490,599 L 501,599 L 501,600 L 490,600 Z"/>
  <path d="M 822,599 L 841,599 L 841,600 L 822,600 Z"/>
  <path d="M 854,599 L 883,599 L 883,600 L 854,600 Z"/>
  <path d="M 491,600 L 501,600 L 501,601 L 491,601 Z"/>
  <path d="M 823,600 L 841,600 L 841,601 L 823,601 Z"/>
  <path d="M 854,600 L 883,600 L 883,601 L 854,601 Z"/>
  <path d="M 491,601 L 501,601 L 501,602 L 491,602 Z"/>
  <path d="M 824,601 L 840,601 L 840,602 L 824,602 Z"/>
  <path d="M 854,601 L 883,601 L 883,602 L 854,602 Z"/>
  <path d="M 491,602 L 501,602 L 501,603 L 491,603 Z"/>
  <path d="M 824,602 L 840,602 L 840,603 L 824,603 Z"/>
  <path d="M 854,602 L 883,602 L 883,603 L 854,603 Z"/>
  <path d="M 491,603 L 501,603 L 501,604 L 491,604 Z"/>
  <path d="M 825,603 L 840,603 L 840,604 L 825,604 Z"/>
  <path d="M 854,603 L 883,603 L 883,604 L 854,604 Z"/>
  <path d="M 491,604 L 501,604 L 501,605 L 491,605 Z"/>
  <path d="M 826,604 L 840,604 L 840,605 L 826,605 Z"/>
  <path d="M 854,604 L 883,604 L 883,605 L 854,605 Z"/>
  <path d="M 491,605 L 501,605 L 501,606 L 491,606 Z"/>
  <path d="M 826,605 L 839,605 L 839,606 L 826,606 Z"/>
  <path d="M 853,605 L 883,605 L 883,606 L 853,606 Z"/>
  <path d="M 491,606 L 501,606 L 501,607 L 491,607 Z"/>
  <path d="M 826,606 L 839,606 L 839,607 L 826,607 Z"/>
  <path d="M 853,606 L 882,606 L 882,607 L 853,607 Z"/>
  <path d="M 492,607 L 500,607 L 500,608 L 492,608 Z"/>
  <path d="M 826,607 L 839,607 L 839,608 L 826,608 Z"/>
  <path d="M 853,607 L 882,607 L 882,608 L 853,608 Z"/>
  <path d="M 492,608 L 499,608 L 499,609 L 492,609 Z"/>
  <path d="M 827,608 L 839,608 L 839,609 L 827,609 Z"/>
  <path d="M 852,608 L 881,608 L 881,609 L 852,609 Z"/>
  <path d="M 493,609 L 499,609 L 499,610 L 493,610 Z"/>
  <path d="M 828,609 L 838,609 L 838,610 L 828,610 Z"/>
  <path d="M 852,609 L 880,609 L 880,610 L 852,610 Z"/>
  <path d="M 494,610 L 498,610 L 498,611 L 494,611 Z"/>
  <path d="M 828,610 L 838,610 L 838,611 L 828,611 Z"/>
  <path d="M 852,610 L 879,610 L 879,611 L 852,611 Z"/>
  <path d="M 494,611 L 497,611 L 497,612 L 494,612 Z"/>
  <path d="M 829,611 L 838,611 L 838,612 L 829,612 Z"/>
  <path d="M 851,611 L 878,611 L 878,612 L 851,612 Z"/>
  <path d="M 495,612 L 497,612 L 497,613 L 495,613 Z"/>
  <path d="M 830,612 L 837,612 L 837,613 L 830,613 Z"/>
  <path d="M 851,612 L 877,612 L 877,613 L 851,613 Z"/>
  <path d="M 832,613 L 837,613 L 837,614 L 832,614 Z"/>
  <path d="M 851,613 L 875,613 L 875,614 L 851,614 Z"/>
  <path d="M 834,614 L 836,614 L 836,615 L 834,615 Z"/>
  <path d="M 851,614 L 874,614 L 874,615 L 851,615 Z"/>
  <path d="M 851,615 L 871,615 L 871,616 L 851,616 Z"/>
  <path d="M 850,616 L 864,616 L 864,617 L 850,617 Z"/>
  <path d="M 850,617 L 861,617 L 861,618 L 850,618 Z"/>
  <path d="M 856,618 L 857,618 L 857,619 L 856,619 Z"/>
  </g>
</svg>
