<?xml version="1.0" encoding="UTF-8" standalone="no"?>
<svg xmlns="http://www.w3.org/2000/svg" version="1.1"
     width="20.75in" height="14.625in" viewBox="0 0 1494 1053">
  <title>05_Ear_White</title>
  <g fill="#FFFFFF" stroke="none">
  <path d="M 377,350 L 450,350 L 450,351 L 377,351 Z"/>
  <path d="M 358,351 L 359,351 L 359,352 L 358,352 Z"/>
  <path d="M 377,351 L 450,351 L 450,352 L 377,352 Z"/>
  <path d="M 358,352 L 359,352 L 359,353 L 358,353 Z"/>
  <path d="M 377,352 L 450,352 L 450,353 L 377,353 Z"/>
  <path d="M 377,353 L 450,353 L 450,354 L 377,354 Z"/>
  <path d="M 359,354 L 360,354 L 360,355 L 359,355 Z"/>
  <path d="M 377,354 L 450,354 L 450,355 L 377,355 Z"/>
  <path d="M 359,355 L 360,355 L 360,356 L 359,356 Z"/>
  <path d="M 376,355 L 450,355 L 450,356 L 376,356 Z"/>
  <path d="M 359,356 L 360,356 L 360,357 L 359,357 Z"/>
  <path d="M 376,356 L 450,356 L 450,357 L 376,357 Z"/>
  <path d="M 376,357 L 450,357 L 450,358 L 376,358 Z"/>
  <path d="M 360,358 L 361,358 L 361,359 L 360,359 Z"/>
  <path d="M 376,358 L 450,358 L 450,359 L 376,359 Z"/>
  <path d="M 360,359 L 361,359 L 361,360 L 360,360 Z"/>
  <path d="M 375,359 L 450,359 L 450,360 L 375,360 Z"/>
  <path d="M 360,360 L 361,360 L 361,361 L 360,361 Z"/>
  <path d="M 375,360 L 450,360 L 450,361 L 375,361 Z"/>
  <path d="M 360,361 L 361,361 L 361,362 L 360,362 Z"/>
  <path d="M 375,361 L 450,361 L 450,362 L 375,362 Z"/>
  <path d="M 360,362 L 361,362 L 361,363 L 360,363 Z"/>
  <path d="M 375,362 L 450,362 L 450,363 L 375,363 Z"/>
  <path d="M 360,363 L 361,363 L 361,364 L 360,364 Z"/>
  <path d="M 375,363 L 450,363 L 450,364 L 375,364 Z"/>
  <path d="M 360,364 L 361,364 L 361,365 L 360,365 Z"/>
  <path d="M 375,364 L 450,364 L 450,365 L 375,365 Z"/>
  <path d="M 360,365 L 361,365 L 361,366 L 360,366 Z"/>
  <path d="M 375,365 L 450,365 L 450,366 L 375,366 Z"/>
  <path d="M 360,366 L 361,366 L 361,367 L 360,367 Z"/>
  <path d="M 375,366 L 450,366 L 450,367 L 375,367 Z"/>
  <path d="M 360,367 L 361,367 L 361,368 L 360,368 Z"/>
  <path d="M 375,367 L 450,367 L 450,368 L 375,368 Z"/>
  <path d="M 360,368 L 361,368 L 361,369 L 360,369 Z"/>
  <path d="M 376,368 L 450,368 L 450,369 L 376,369 Z"/>
  <path d="M 360,369 L 361,369 L 361,370 L 360,370 Z"/>
  <path d="M 376,369 L 450,369 L 450,370 L 376,370 Z"/>
  <path d="M 360,370 L 361,370 L 361,371 L 360,371 Z"/>
  <path d="M 376,370 L 450,370 L 450,371 L 376,371 Z"/>
  <path d="M 360,371 L 361,371 L 361,372 L 360,372 Z"/>
  <path d="M 377,371 L 450,371 L 450,372 L 377,372 Z"/>
  <path d="M 359,372 L 360,372 L 360,373 L 359,373 Z"/>
  <path d="M 377,372 L 450,372 L 450,373 L 377,373 Z"/>
  <path d="M 359,373 L 360,373 L 360,374 L 359,374 Z"/>
  <path d="M 377,373 L 450,373 L 450,374 L 377,374 Z"/>
  <path d="M 359,374 L 360,374 L 360,375 L 359,375 Z"/>
  <path d="M 377,374 L 450,374 L 450,375 L 377,375 Z"/>
  <path d="M 359,375 L 360,375 L 360,376 L 359,376 Z"/>
  <path d="M 377,375 L 450,375 L 450,376 L 377,376 Z"/>
  <path d="M 358,376 L 359,376 L 359,377 L 358,377 Z"/>
  <path d="M 377,376 L 450,376 L 450,377 L 377,377 Z"/>
  <path d="M 358,377 L 359,377 L 359,378 L 358,378 Z"/>
  <path d="M 376,377 L 450,377 L 450,378 L 376,378 Z"/>
  <path d="M 358,378 L 359,378 L 359,379 L 358,379 Z"/>
  <path d="M 376,378 L 450,378 L 450,379 L 376,379 Z"/>
  <path d="M 358,379 L 359,379 L 359,380 L 358,380 Z"/>
  <path d="M 376,379 L 450,379 L 450,380 L 376,380 Z"/>
  <path d="M 358,380 L 359,380 L 359,381 L 358,381 Z"/>
  <path d="M 376,380 L 450,380 L 450,381 L 376,381 Z"/>
  <path d="M 358,381 L 359,381 L 359,382 L 358,382 Z"/>
  <path d="M 376,381 L 450,381 L 450,382 L 376,382 Z"/>
  <path d="M 358,382 L 359,382 L 359,383 L 358,383 Z"/>
  <path d="M 376,382 L 450,382 L 450,383 L 376,383 Z"/>
  <path d="M 359,383 L 360,383 L 360,384 L 359,384 Z"/>
  <path d="M 376,383 L 450,383 L 450,384 L 376,384 Z"/>
  <path d="M 359,384 L 360,384 L 360,385 L 359,385 Z"/>
  <path d="M 376,384 L 450,384 L 450,385 L 376,385 Z"/>
  <path d="M 360,385 L 361,385 L 361,386 L 360,386 Z"/>
  <path d="M 376,385 L 450,385 L 450,386 L 376,386 Z"/>
  <path d="M 360,386 L 361,386 L 361,387 L 360,387 Z"/>
  <path d="M 376,386 L 450,386 L 450,387 L 376,387 Z"/>
  <path d="M 360,387 L 361,387 L 361,388 L 360,388 Z"/>
  <path d="M 376,387 L 450,387 L 450,388 L 376,388 Z"/>
  <path d="M 360,388 L 361,388 L 361,389 L 360,389 Z"/>
  <path d="M 376,388 L 450,388 L 450,389 L 376,389 Z"/>
  <path d="M 360,389 L 361,389 L 361,390 L 360,390 Z"/>
  <path d="M 376,389 L 450,389 L 450,390 L 376,390 Z"/>
  <path d="M 360,390 L 361,390 L 361,391 L 360,391 Z"/>
  <path d="M 377,390 L 450,390 L 450,391 L 377,391 Z"/>
  <path d="M 360,391 L 361,391 L 361,392 L 360,392 Z"/>
  <path d="M 377,391 L 450,391 L 450,392 L 377,392 Z"/>
  <path d="M 360,392 L 361,392 L 361,393 L 360,393 Z"/>
  <path d="M 377,392 L 450,392 L 450,393 L 377,393 Z"/>
  <path d="M 360,393 L 361,393 L 361,394 L 360,394 Z"/>
  <path d="M 377,393 L 450,393 L 450,394 L 377,394 Z"/>
  <path d="M 359,394 L 360,394 L 360,395 L 359,395 Z"/>
  <path d="M 377,394 L 450,394 L 450,395 L 377,395 Z"/>
  <path d="M 359,395 L 360,395 L 360,396 L 359,396 Z"/>
  <path d="M 377,395 L 450,395 L 450,396 L 377,396 Z"/>
  <path d="M 377,396 L 450,396 L 450,397 L 377,397 Z"/>
  <path d="M 358,397 L 359,397 L 359,398 L 358,398 Z"/>
  <path d="M 376,397 L 450,397 L 450,398 L 376,398 Z"/>
  <path d="M 358,398 L 359,398 L 359,399 L 358,399 Z"/>
  <path d="M 376,398 L 450,398 L 450,399 L 376,399 Z"/>
  <path d="M 358,399 L 359,399 L 359,400 L 358,400 Z"/>
  <path d="M 376,399 L 450,399 L 450,400 L 376,400 Z"/>
  <path d="M 358,400 L 359,400 L 359,401 L 358,401 Z"/>
  <path d="M 375,400 L 450,400 L 450,401 L 375,401 Z"/>
  <path d="M 358,401 L 359,401 L 359,402 L 358,402 Z"/>
  <path d="M 375,401 L 450,401 L 450,402 L 375,402 Z"/>
  <path d="M 358,402 L 359,402 L 359,403 L 358,403 Z"/>
  <path d="M 375,402 L 450,402 L 450,403 L 375,403 Z"/>
  <path d="M 358,403 L 359,403 L 359,404 L 358,404 Z"/>
  <path d="M 374,403 L 450,403 L 450,404 L 374,404 Z"/>
  <path d="M 358,404 L 359,404 L 359,405 L 358,405 Z"/>
  <path d="M 374,404 L 450,404 L 450,405 L 374,405 Z"/>
  <path d="M 358,405 L 359,405 L 359,406 L 358,406 Z"/>
  <path d="M 374,405 L 450,405 L 450,406 L 374,406 Z"/>
  <path d="M 374,406 L 450,406 L 450,407 L 374,407 Z"/>
  <path d="M 359,407 L 360,407 L 360,408 L 359,408 Z"/>
  <path d="M 374,407 L 450,407 L 450,408 L 374,408 Z"/>
  <path d="M 359,408 L 360,408 L 360,409 L 359,409 Z"/>
  <path d="M 374,408 L 450,408 L 450,409 L 374,409 Z"/>
  <path d="M 360,409 L 361,409 L 361,410 L 360,410 Z"/>
  <path d="M 374,409 L 450,409 L 450,410 L 374,410 Z"/>
  <path d="M 360,410 L 361,410 L 361,411 L 360,411 Z"/>
  <path d="M 374,410 L 450,410 L 450,411 L 374,411 Z"/>
  <path d="M 374,411 L 450,411 L 450,412 L 374,412 Z"/>
  <path d="M 375,412 L 450,412 L 450,413 L 375,413 Z"/>
  <path d="M 375,413 L 450,413 L 450,414 L 375,414 Z"/>
  <path d="M 360,414 L 361,414 L 361,415 L 360,415 Z"/>
  <path d="M 375,414 L 450,414 L 450,415 L 375,415 Z"/>
  <path d="M 360,415 L 361,415 L 361,416 L 360,416 Z"/>
  <path d="M 376,415 L 450,415 L 450,416 L 376,416 Z"/>
  <path d="M 360,416 L 361,416 L 361,417 L 360,417 Z"/>
  <path d="M 376,416 L 450,416 L 450,417 L 376,417 Z"/>
  <path d="M 359,417 L 360,417 L 360,418 L 359,418 Z"/>
  <path d="M 376,417 L 450,417 L 450,418 L 376,418 Z"/>
  <path d="M 359,418 L 360,418 L 360,419 L 359,419 Z"/>
  <path d="M 376,418 L 450,418 L 450,419 L 376,419 Z"/>
  <path d="M 359,419 L 360,419 L 360,420 L 359,420 Z"/>
  <path d="M 376,419 L 450,419 L 450,420 L 376,420 Z"/>
  <path d="M 376,420 L 409,420 L 409,421 L 376,421 Z"/>
  <path d="M 415,420 L 450,420 L 450,421 L 415,421 Z"/>
  <path d="M 376,421 L 407,421 L 407,422 L 376,422 Z"/>
  <path d="M 417,421 L 450,421 L 450,422 L 417,422 Z"/>
  <path d="M 358,422 L 359,422 L 359,423 L 358,423 Z"/>
  <path d="M 376,422 L 406,422 L 406,423 L 376,423 Z"/>
  <path d="M 421,422 L 450,422 L 450,423 L 421,423 Z"/>
  <path d="M 358,423 L 359,423 L 359,424 L 358,424 Z"/>
  <path d="M 376,423 L 405,423 L 405,424 L 376,424 Z"/>
  <path d="M 425,423 L 450,423 L 450,424 L 425,424 Z"/>
  <path d="M 358,424 L 359,424 L 359,425 L 358,425 Z"/>
  <path d="M 376,424 L 405,424 L 405,425 L 376,425 Z"/>
  <path d="M 429,424 L 450,424 L 450,425 L 429,425 Z"/>
  <path d="M 376,425 L 404,425 L 404,426 L 376,426 Z"/>
  <path d="M 432,425 L 450,425 L 450,426 L 432,426 Z"/>
  <path d="M 358,426 L 359,426 L 359,427 L 358,427 Z"/>
  <path d="M 375,426 L 404,426 L 404,427 L 375,427 Z"/>
  <path d="M 434,426 L 450,426 L 450,427 L 434,427 Z"/>
  <path d="M 358,427 L 359,427 L 359,428 L 358,428 Z"/>
  <path d="M 375,427 L 404,427 L 404,428 L 375,428 Z"/>
  <path d="M 436,427 L 450,427 L 450,428 L 436,428 Z"/>
  <path d="M 358,428 L 359,428 L 359,429 L 358,429 Z"/>
  <path d="M 375,428 L 404,428 L 404,429 L 375,429 Z"/>
  <path d="M 438,428 L 450,428 L 450,429 L 438,429 Z"/>
  <path d="M 358,429 L 359,429 L 359,430 L 358,430 Z"/>
  <path d="M 374,429 L 405,429 L 405,430 L 374,430 Z"/>
  <path d="M 440,429 L 450,429 L 450,430 L 440,430 Z"/>
  <path d="M 358,430 L 359,430 L 359,431 L 358,431 Z"/>
  <path d="M 374,430 L 405,430 L 405,431 L 374,431 Z"/>
  <path d="M 444,430 L 450,430 L 450,431 L 444,431 Z"/>
  <path d="M 373,431 L 405,431 L 405,432 L 373,432 Z"/>
  <path d="M 446,431 L 450,431 L 450,432 L 446,432 Z"/>
  <path d="M 357,432 L 358,432 L 358,433 L 357,433 Z"/>
  <path d="M 373,432 L 406,432 L 406,433 L 373,433 Z"/>
  <path d="M 448,432 L 450,432 L 450,433 L 448,433 Z"/>
  <path d="M 357,433 L 358,433 L 358,434 L 357,434 Z"/>
  <path d="M 373,433 L 407,433 L 407,434 L 373,434 Z"/>
  <path d="M 356,434 L 357,434 L 357,435 L 356,435 Z"/>
  <path d="M 372,434 L 408,434 L 408,435 L 372,435 Z"/>
  <path d="M 356,435 L 357,435 L 357,436 L 356,436 Z"/>
  <path d="M 372,435 L 409,435 L 409,436 L 372,436 Z"/>
  <path d="M 355,436 L 356,436 L 356,437 L 355,437 Z"/>
  <path d="M 372,436 L 410,436 L 410,437 L 372,437 Z"/>
  <path d="M 355,437 L 356,437 L 356,438 L 355,438 Z"/>
  <path d="M 372,437 L 412,437 L 412,438 L 372,438 Z"/>
  <path d="M 354,438 L 355,438 L 355,439 L 354,439 Z"/>
  <path d="M 372,438 L 415,438 L 415,439 L 372,439 Z"/>
  <path d="M 354,439 L 355,439 L 355,440 L 354,440 Z"/>
  <path d="M 372,439 L 418,439 L 418,440 L 372,440 Z"/>
  <path d="M 353,440 L 354,440 L 354,441 L 353,441 Z"/>
  <path d="M 372,440 L 420,440 L 420,441 L 372,441 Z"/>
  <path d="M 353,441 L 354,441 L 354,442 L 353,442 Z"/>
  <path d="M 372,441 L 421,441 L 421,442 L 372,442 Z"/>
  <path d="M 353,442 L 354,442 L 354,443 L 353,443 Z"/>
  <path d="M 371,442 L 425,442 L 425,443 L 371,443 Z"/>
  <path d="M 371,443 L 429,443 L 429,444 L 371,444 Z"/>
  <path d="M 352,444 L 353,444 L 353,445 L 352,445 Z"/>
  <path d="M 371,444 L 430,444 L 430,445 L 371,445 Z"/>
  <path d="M 352,445 L 353,445 L 353,446 L 352,446 Z"/>
  <path d="M 370,445 L 432,445 L 432,446 L 370,446 Z"/>
  <path d="M 352,446 L 353,446 L 353,447 L 352,447 Z"/>
  <path d="M 370,446 L 434,446 L 434,447 L 370,447 Z"/>
  <path d="M 352,447 L 353,447 L 353,448 L 352,448 Z"/>
  <path d="M 369,447 L 436,447 L 436,448 L 369,448 Z"/>
  <path d="M 351,448 L 352,448 L 352,449 L 351,449 Z"/>
  <path d="M 369,448 L 437,448 L 437,449 L 369,449 Z"/>
  <path d="M 351,449 L 352,449 L 352,450 L 351,450 Z"/>
  <path d="M 368,449 L 439,449 L 439,450 L 368,450 Z"/>
  <path d="M 350,450 L 351,450 L 351,451 L 350,451 Z"/>
  <path d="M 368,450 L 441,450 L 441,451 L 368,451 Z"/>
  <path d="M 350,451 L 351,451 L 351,452 L 350,452 Z"/>
  <path d="M 368,451 L 443,451 L 443,452 L 368,452 Z"/>
  <path d="M 368,452 L 444,452 L 444,453 L 368,453 Z"/>
  <path d="M 349,453 L 350,453 L 350,454 L 349,454 Z"/>
  <path d="M 368,453 L 446,453 L 446,454 L 368,454 Z"/>
  <path d="M 349,454 L 350,454 L 350,455 L 349,455 Z"/>
  <path d="M 368,454 L 448,454 L 448,455 L 368,455 Z"/>
  <path d="M 368,455 L 450,455 L 450,456 L 368,456 Z"/>
  <path d="M 348,456 L 349,456 L 349,457 L 348,457 Z"/>
  <path d="M 368,456 L 450,456 L 450,457 L 368,457 Z"/>
  <path d="M 348,457 L 349,457 L 349,458 L 348,458 Z"/>
  <path d="M 368,457 L 450,457 L 450,458 L 368,458 Z"/>
  <path d="M 348,458 L 349,458 L 349,459 L 348,459 Z"/>
  <path d="M 367,458 L 450,458 L 450,459 L 367,459 Z"/>
  <path d="M 366,459 L 450,459 L 450,460 L 366,460 Z"/>
  <path d="M 366,460 L 450,460 L 450,461 L 366,461 Z"/>
  <path d="M 347,461 L 348,461 L 348,462 L 347,462 Z"/>
  <path d="M 365,461 L 450,461 L 450,462 L 365,462 Z"/>
  <path d="M 364,462 L 450,462 L 450,463 L 364,463 Z"/>
  <path d="M 346,463 L 347,463 L 347,464 L 346,464 Z"/>
  <path d="M 364,463 L 450,463 L 450,464 L 364,464 Z"/>
  <path d="M 346,464 L 347,464 L 347,465 L 346,465 Z"/>
  <path d="M 363,464 L 450,464 L 450,465 L 363,465 Z"/>
  <path d="M 346,465 L 347,465 L 347,466 L 346,466 Z"/>
  <path d="M 363,465 L 450,465 L 450,466 L 363,466 Z"/>
  <path d="M 345,466 L 346,466 L 346,467 L 345,467 Z"/>
  <path d="M 362,466 L 450,466 L 450,467 L 362,467 Z"/>
  <path d="M 345,467 L 346,467 L 346,468 L 345,468 Z"/>
  <path d="M 362,467 L 450,467 L 450,468 L 362,468 Z"/>
  <path d="M 344,468 L 345,468 L 345,469 L 344,469 Z"/>
  <path d="M 362,468 L 450,468 L 450,469 L 362,469 Z"/>
  <path d="M 362,469 L 450,469 L 450,470 L 362,470 Z"/>
  <path d="M 343,470 L 344,470 L 344,471 L 343,471 Z"/>
  <path d="M 362,470 L 450,470 L 450,471 L 362,471 Z"/>
  <path d="M 342,471 L 343,471 L 343,472 L 342,472 Z"/>
  <path d="M 362,471 L 450,471 L 450,472 L 362,472 Z"/>
  <path d="M 362,472 L 450,472 L 450,473 L 362,473 Z"/>
  <path d="M 341,473 L 342,473 L 342,474 L 341,474 Z"/>
  <path d="M 361,473 L 450,473 L 450,474 L 361,474 Z"/>
  <path d="M 361,474 L 450,474 L 450,475 L 361,475 Z"/>
  <path d="M 340,475 L 341,475 L 341,476 L 340,476 Z"/>
  <path d="M 361,475 L 450,475 L 450,476 L 361,476 Z"/>
  <path d="M 360,476 L 450,476 L 450,477 L 360,477 Z"/>
  <path d="M 339,477 L 340,477 L 340,478 L 339,478 Z"/>
  <path d="M 360,477 L 450,477 L 450,478 L 360,478 Z"/>
  <path d="M 339,478 L 340,478 L 340,479 L 339,479 Z"/>
  <path d="M 359,478 L 450,478 L 450,479 L 359,479 Z"/>
  <path d="M 339,479 L 340,479 L 340,480 L 339,480 Z"/>
  <path d="M 358,479 L 450,479 L 450,480 L 358,480 Z"/>
  <path d="M 339,480 L 340,480 L 340,481 L 339,481 Z"/>
  <path d="M 357,480 L 450,480 L 450,481 L 357,481 Z"/>
  <path d="M 339,481 L 340,481 L 340,482 L 339,482 Z"/>
  <path d="M 357,481 L 450,481 L 450,482 L 357,482 Z"/>
  <path d="M 339,482 L 340,482 L 340,483 L 339,483 Z"/>
  <path d="M 356,482 L 450,482 L 450,483 L 356,483 Z"/>
  <path d="M 339,483 L 340,483 L 340,484 L 339,484 Z"/>
  <path d="M 356,483 L 450,483 L 450,484 L 356,484 Z"/>
  <path d="M 339,484 L 340,484 L 340,485 L 339,485 Z"/>
  <path d="M 355,484 L 450,484 L 450,485 L 355,485 Z"/>
  <path d="M 339,485 L 340,485 L 340,486 L 339,486 Z"/>
  <path d="M 355,485 L 450,485 L 450,486 L 355,486 Z"/>
  <path d="M 339,486 L 340,486 L 340,487 L 339,487 Z"/>
  <path d="M 355,486 L 450,486 L 450,487 L 355,487 Z"/>
  <path d="M 339,487 L 340,487 L 340,488 L 339,488 Z"/>
  <path d="M 355,487 L 450,487 L 450,488 L 355,488 Z"/>
  <path d="M 339,488 L 340,488 L 340,489 L 339,489 Z"/>
  <path d="M 355,488 L 450,488 L 450,489 L 355,489 Z"/>
  <path d="M 339,489 L 340,489 L 340,490 L 339,490 Z"/>
  <path d="M 355,489 L 450,489 L 450,490 L 355,490 Z"/>
  <path d="M 339,490 L 340,490 L 340,491 L 339,491 Z"/>
  <path d="M 355,490 L 450,490 L 450,491 L 355,491 Z"/>
  <path d="M 355,491 L 450,491 L 450,492 L 355,492 Z"/>
  <path d="M 338,492 L 339,492 L 339,493 L 338,493 Z"/>
  <path d="M 355,492 L 450,492 L 450,493 L 355,493 Z"/>
  <path d="M 338,493 L 339,493 L 339,494 L 338,494 Z"/>
  <path d="M 355,493 L 450,493 L 450,494 L 355,494 Z"/>
  <path d="M 354,494 L 450,494 L 450,495 L 354,495 Z"/>
  <path d="M 337,495 L 338,495 L 338,496 L 337,496 Z"/>
  <path d="M 354,495 L 450,495 L 450,496 L 354,496 Z"/>
  <path d="M 354,496 L 450,496 L 450,497 L 354,497 Z"/>
  <path d="M 336,497 L 337,497 L 337,498 L 336,498 Z"/>
  <path d="M 353,497 L 450,497 L 450,498 L 353,498 Z"/>
  <path d="M 336,498 L 337,498 L 337,499 L 336,499 Z"/>
  <path d="M 353,498 L 450,498 L 450,499 L 353,499 Z"/>
  <path d="M 336,499 L 337,499 L 337,500 L 336,500 Z"/>
  <path d="M 353,499 L 450,499 L 450,500 L 353,500 Z"/>
  <path d="M 352,500 L 450,500 L 450,501 L 352,501 Z"/>
  <path d="M 335,501 L 336,501 L 336,502 L 335,502 Z"/>
  <path d="M 352,501 L 450,501 L 450,502 L 352,502 Z"/>
  <path d="M 335,502 L 336,502 L 336,503 L 335,503 Z"/>
  <path d="M 352,502 L 450,502 L 450,503 L 352,503 Z"/>
  <path d="M 335,503 L 336,503 L 336,504 L 335,504 Z"/>
  <path d="M 352,503 L 450,503 L 450,504 L 352,504 Z"/>
  <path d="M 335,504 L 336,504 L 336,505 L 335,505 Z"/>
  <path d="M 352,504 L 450,504 L 450,505 L 352,505 Z"/>
  <path d="M 335,505 L 336,505 L 336,506 L 335,506 Z"/>
  <path d="M 352,505 L 450,505 L 450,506 L 352,506 Z"/>
  <path d="M 335,506 L 336,506 L 336,507 L 335,507 Z"/>
  <path d="M 352,506 L 450,506 L 450,507 L 352,507 Z"/>
  <path d="M 335,507 L 336,507 L 336,508 L 335,508 Z"/>
  <path d="M 352,507 L 450,507 L 450,508 L 352,508 Z"/>
  <path d="M 335,508 L 336,508 L 336,509 L 335,509 Z"/>
  <path d="M 352,508 L 450,508 L 450,509 L 352,509 Z"/>
  <path d="M 335,509 L 336,509 L 336,510 L 335,510 Z"/>
  <path d="M 352,509 L 450,509 L 450,510 L 352,510 Z"/>
  <path d="M 335,510 L 336,510 L 336,511 L 335,511 Z"/>
  <path d="M 352,510 L 450,510 L 450,511 L 352,511 Z"/>
  <path d="M 352,511 L 450,511 L 450,512 L 352,512 Z"/>
  <path d="M 334,512 L 335,512 L 335,513 L 334,513 Z"/>
  <path d="M 352,512 L 450,512 L 450,513 L 352,513 Z"/>
  <path d="M 334,513 L 335,513 L 335,514 L 334,514 Z"/>
  <path d="M 352,513 L 450,513 L 450,514 L 352,514 Z"/>
  <path d="M 333,514 L 334,514 L 334,515 L 333,515 Z"/>
  <path d="M 352,514 L 450,514 L 450,515 L 352,515 Z"/>
  <path d="M 352,515 L 450,515 L 450,516 L 352,516 Z"/>
  <path d="M 332,516 L 333,516 L 333,517 L 332,517 Z"/>
  <path d="M 351,516 L 450,516 L 450,517 L 351,517 Z"/>
  <path d="M 331,517 L 332,517 L 332,518 L 331,518 Z"/>
  <path d="M 351,517 L 450,517 L 450,518 L 351,518 Z"/>
  <path d="M 330,518 L 331,518 L 331,519 L 330,519 Z"/>
  <path d="M 351,518 L 450,518 L 450,519 L 351,519 Z"/>
  <path d="M 330,519 L 331,519 L 331,520 L 330,520 Z"/>
  <path d="M 351,519 L 450,519 L 450,520 L 351,520 Z"/>
  <path d="M 329,520 L 330,520 L 330,521 L 329,521 Z"/>
  <path d="M 351,520 L 450,520 L 450,521 L 351,521 Z"/>
  <path d="M 329,521 L 330,521 L 330,522 L 329,522 Z"/>
  <path d="M 351,521 L 450,521 L 450,522 L 351,522 Z"/>
  <path d="M 329,522 L 330,522 L 330,523 L 329,523 Z"/>
  <path d="M 351,522 L 450,522 L 450,523 L 351,523 Z"/>
  <path d="M 329,523 L 330,523 L 330,524 L 329,524 Z"/>
  <path d="M 351,523 L 450,523 L 450,524 L 351,524 Z"/>
  <path d="M 329,524 L 330,524 L 330,525 L 329,525 Z"/>
  <path d="M 352,524 L 450,524 L 450,525 L 352,525 Z"/>
  <path d="M 329,525 L 330,525 L 330,526 L 329,526 Z"/>
  <path d="M 352,525 L 450,525 L 450,526 L 352,526 Z"/>
  <path d="M 352,526 L 450,526 L 450,527 L 352,527 Z"/>
  <path d="M 330,527 L 331,527 L 331,528 L 330,528 Z"/>
  <path d="M 352,527 L 450,527 L 450,528 L 352,528 Z"/>
  <path d="M 331,528 L 332,528 L 332,529 L 331,529 Z"/>
  <path d="M 352,528 L 450,528 L 450,529 L 352,529 Z"/>
  <path d="M 332,529 L 333,529 L 333,530 L 332,530 Z"/>
  <path d="M 352,529 L 450,529 L 450,530 L 352,530 Z"/>
  <path d="M 333,530 L 334,530 L 334,531 L 333,531 Z"/>
  <path d="M 352,530 L 450,530 L 450,531 L 352,531 Z"/>
  <path d="M 334,531 L 335,531 L 335,532 L 334,532 Z"/>
  <path d="M 352,531 L 450,531 L 450,532 L 352,532 Z"/>
  <path d="M 335,532 L 336,532 L 336,533 L 335,533 Z"/>
  <path d="M 353,532 L 450,532 L 450,533 L 353,533 Z"/>
  <path d="M 336,533 L 337,533 L 337,534 L 336,534 Z"/>
  <path d="M 353,533 L 450,533 L 450,534 L 353,534 Z"/>
  <path d="M 337,534 L 338,534 L 338,535 L 337,535 Z"/>
  <path d="M 353,534 L 450,534 L 450,535 L 353,535 Z"/>
  <path d="M 353,535 L 450,535 L 450,536 L 353,536 Z"/>
  <path d="M 338,536 L 339,536 L 339,537 L 338,537 Z"/>
  <path d="M 353,536 L 450,536 L 450,537 L 353,537 Z"/>
  <path d="M 338,537 L 339,537 L 339,538 L 338,538 Z"/>
  <path d="M 353,537 L 450,537 L 450,538 L 353,538 Z"/>
  <path d="M 353,538 L 450,538 L 450,539 L 353,539 Z"/>
  <path d="M 354,539 L 450,539 L 450,540 L 354,540 Z"/>
  <path d="M 339,540 L 340,540 L 340,541 L 339,541 Z"/>
  <path d="M 354,540 L 450,540 L 450,541 L 354,541 Z"/>
  <path d="M 339,541 L 340,541 L 340,542 L 339,542 Z"/>
  <path d="M 354,541 L 450,541 L 450,542 L 354,542 Z"/>
  <path d="M 339,542 L 340,542 L 340,543 L 339,543 Z"/>
  <path d="M 354,542 L 450,542 L 450,543 L 354,543 Z"/>
  <path d="M 355,543 L 450,543 L 450,544 L 355,544 Z"/>
  <path d="M 355,544 L 450,544 L 450,545 L 355,545 Z"/>
  <path d="M 340,545 L 341,545 L 341,546 L 340,546 Z"/>
  <path d="M 356,545 L 450,545 L 450,546 L 356,546 Z"/>
  <path d="M 340,546 L 341,546 L 341,547 L 340,547 Z"/>
  <path d="M 356,546 L 450,546 L 450,547 L 356,547 Z"/>
  <path d="M 340,547 L 341,547 L 341,548 L 340,548 Z"/>
  <path d="M 357,547 L 450,547 L 450,548 L 357,548 Z"/>
  <path d="M 340,548 L 341,548 L 341,549 L 340,549 Z"/>
  <path d="M 358,548 L 450,548 L 450,549 L 358,549 Z"/>
  <path d="M 340,549 L 341,549 L 341,550 L 340,550 Z"/>
  <path d="M 358,549 L 450,549 L 450,550 L 358,550 Z"/>
  <path d="M 359,550 L 450,550 L 450,551 L 359,551 Z"/>
  <path d="M 359,551 L 450,551 L 450,552 L 359,552 Z"/>
  <path d="M 341,552 L 342,552 L 342,553 L 341,553 Z"/>
  <path d="M 360,552 L 450,552 L 450,553 L 360,553 Z"/>
  <path d="M 341,553 L 342,553 L 342,554 L 341,554 Z"/>
  <path d="M 360,553 L 450,553 L 450,554 L 360,554 Z"/>
  <path d="M 341,554 L 342,554 L 342,555 L 341,555 Z"/>
  <path d="M 361,554 L 450,554 L 450,555 L 361,555 Z"/>
  <path d="M 361,555 L 450,555 L 450,556 L 361,556 Z"/>
  <path d="M 342,556 L 343,556 L 343,557 L 342,557 Z"/>
  <path d="M 362,556 L 450,556 L 450,557 L 362,557 Z"/>
  <path d="M 363,557 L 450,557 L 450,558 L 363,558 Z"/>
  <path d="M 343,558 L 344,558 L 344,559 L 343,559 Z"/>
  <path d="M 364,558 L 450,558 L 450,559 L 364,559 Z"/>
  <path d="M 344,559 L 345,559 L 345,560 L 344,560 Z"/>
  <path d="M 365,559 L 450,559 L 450,560 L 365,560 Z"/>
  <path d="M 344,560 L 345,560 L 345,561 L 344,561 Z"/>
  <path d="M 366,560 L 450,560 L 450,561 L 366,561 Z"/>
  <path d="M 367,561 L 450,561 L 450,562 L 367,562 Z"/>
  <path d="M 345,562 L 346,562 L 346,563 L 345,563 Z"/>
  <path d="M 368,562 L 450,562 L 450,563 L 368,563 Z"/>
  <path d="M 346,563 L 347,563 L 347,564 L 346,564 Z"/>
  <path d="M 369,563 L 450,563 L 450,564 L 369,564 Z"/>
  <path d="M 346,564 L 347,564 L 347,565 L 346,565 Z"/>
  <path d="M 369,564 L 450,564 L 450,565 L 369,565 Z"/>
  <path d="M 347,565 L 348,565 L 348,566 L 347,566 Z"/>
  <path d="M 370,565 L 450,565 L 450,566 L 370,566 Z"/>
  <path d="M 347,566 L 348,566 L 348,567 L 347,567 Z"/>
  <path d="M 371,566 L 450,566 L 450,567 L 371,567 Z"/>
  <path d="M 372,567 L 450,567 L 450,568 L 372,568 Z"/>
  <path d="M 348,568 L 349,568 L 349,569 L 348,569 Z"/>
  <path d="M 372,568 L 450,568 L 450,569 L 372,569 Z"/>
  <path d="M 373,569 L 450,569 L 450,570 L 373,570 Z"/>
  <path d="M 349,570 L 350,570 L 350,571 L 349,571 Z"/>
  <path d="M 374,570 L 450,570 L 450,571 L 374,571 Z"/>
  <path d="M 349,571 L 350,571 L 350,572 L 349,572 Z"/>
  <path d="M 375,571 L 450,571 L 450,572 L 375,572 Z"/>
  <path d="M 350,572 L 351,572 L 351,573 L 350,573 Z"/>
  <path d="M 376,572 L 450,572 L 450,573 L 376,573 Z"/>
  <path d="M 350,573 L 351,573 L 351,574 L 350,574 Z"/>
  <path d="M 378,573 L 450,573 L 450,574 L 378,574 Z"/>
  <path d="M 351,574 L 352,574 L 352,575 L 351,575 Z"/>
  <path d="M 379,574 L 450,574 L 450,575 L 379,575 Z"/>
  <path d="M 352,575 L 353,575 L 353,576 L 352,576 Z"/>
  <path d="M 381,575 L 450,575 L 450,576 L 381,576 Z"/>
  <path d="M 353,576 L 354,576 L 354,577 L 353,577 Z"/>
  <path d="M 382,576 L 450,576 L 450,577 L 382,577 Z"/>
  <path d="M 354,577 L 355,577 L 355,578 L 354,578 Z"/>
  <path d="M 383,577 L 450,577 L 450,578 L 383,578 Z"/>
  <path d="M 355,578 L 356,578 L 356,579 L 355,579 Z"/>
  <path d="M 384,578 L 450,578 L 450,579 L 384,579 Z"/>
  <path d="M 386,579 L 450,579 L 450,580 L 386,580 Z"/>
  <path d="M 357,580 L 358,580 L 358,581 L 357,581 Z"/>
  <path d="M 388,580 L 450,580 L 450,581 L 388,581 Z"/>
  <path d="M 358,581 L 359,581 L 359,582 L 358,582 Z"/>
  <path d="M 390,581 L 450,581 L 450,582 L 390,582 Z"/>
  <path d="M 359,582 L 360,582 L 360,583 L 359,583 Z"/>
  <path d="M 391,582 L 450,582 L 450,583 L 391,583 Z"/>
  <path d="M 361,583 L 362,583 L 362,584 L 361,584 Z"/>
  <path d="M 393,583 L 450,583 L 450,584 L 393,584 Z"/>
  <path d="M 362,584 L 363,584 L 363,585 L 362,585 Z"/>
  <path d="M 395,584 L 450,584 L 450,585 L 395,585 Z"/>
  <path d="M 363,585 L 364,585 L 364,586 L 363,586 Z"/>
  <path d="M 397,585 L 450,585 L 450,586 L 397,586 Z"/>
  <path d="M 364,586 L 365,586 L 365,587 L 364,587 Z"/>
  <path d="M 398,586 L 450,586 L 450,587 L 398,587 Z"/>
  <path d="M 365,587 L 366,587 L 366,588 L 365,588 Z"/>
  <path d="M 400,587 L 450,587 L 450,588 L 400,588 Z"/>
  <path d="M 366,588 L 367,588 L 367,589 L 366,589 Z"/>
  <path d="M 402,588 L 450,588 L 450,589 L 402,589 Z"/>
  <path d="M 367,589 L 368,589 L 368,590 L 367,590 Z"/>
  <path d="M 405,589 L 450,589 L 450,590 L 405,590 Z"/>
  <path d="M 368,590 L 369,590 L 369,591 L 368,591 Z"/>
  <path d="M 408,590 L 450,590 L 450,591 L 408,591 Z"/>
  <path d="M 369,591 L 370,591 L 370,592 L 369,592 Z"/>
  <path d="M 410,591 L 450,591 L 450,592 L 410,592 Z"/>
  <path d="M 371,592 L 372,592 L 372,593 L 371,593 Z"/>
  <path d="M 412,592 L 450,592 L 450,593 L 412,593 Z"/>
  <path d="M 372,593 L 374,593 L 374,594 L 372,594 Z"/>
  <path d="M 417,593 L 450,593 L 450,594 L 417,594 Z"/>
  <path d="M 374,594 L 377,594 L 377,595 L 374,595 Z"/>
  <path d="M 423,594 L 450,594 L 450,595 L 423,595 Z"/>
  <path d="M 377,595 L 379,595 L 379,596 L 377,596 Z"/>
  <path d="M 428,595 L 450,595 L 450,596 L 428,596 Z"/>
  <path d="M 379,596 L 381,596 L 381,597 L 379,597 Z"/>
  <path d="M 434,596 L 443,596 L 443,597 L 434,597 Z"/>
  <path d="M 381,597 L 382,597 L 382,598 L 381,598 Z"/>
  <path d="M 382,598 L 384,598 L 384,599 L 382,599 Z"/>
  <path d="M 384,599 L 385,599 L 385,600 L 384,600 Z"/>
  <path d="M 385,600 L 386,600 L 386,601 L 385,601 Z"/>
  <path d="M 386,601 L 387,601 L 387,602 L 386,602 Z"/>
  <path d="M 387,602 L 390,602 L 390,603 L 387,603 Z"/>
  <path d="M 391,603 L 395,603 L 395,604 L 391,604 Z"/>
  <path d="M 395,604 L 397,604 L 397,605 L 395,605 Z"/>
  <path d="M 397,605 L 399,605 L 399,606 L 397,606 Z"/>
  <path d="M 399,606 L 401,606 L 401,607 L 399,607 Z"/>
  <path d="M 408,606 L 409,606 L 409,607 L 408,607 Z"/>
  <path d="M 401,607 L 407,607 L 407,608 L 401,608 Z"/>
  <path d="M 409,607 L 413,607 L 413,608 L 409,608 Z"/>
  <path d="M 413,608 L 416,608 L 416,609 L 413,609 Z"/>
  <path d="M 416,609 L 419,609 L 419,610 L 416,610 Z"/>
  <path d="M 420,610 L 430,610 L 430,611 L 420,611 Z"/>
  <path d="M 445,610 L 450,610 L 450,611 L 445,611 Z"/>
  <path d="M 430,611 L 435,611 L 435,612 L 430,612 Z"/>
  <path d="M 438,611 L 445,611 L 445,612 L 438,612 Z"/>
  </g>
</svg>
