<?xml version="1.0" encoding="UTF-8"?>
<svg xmlns="http://www.w3.org/2000/svg" version="1.1"
     width="476px" height="209px" viewBox="0 0 476 209">
  <path fill="#2DB831" fill-rule="evenodd"
        d="M 0.00,0.00 L 476.00,0.00 L 476.00,209.00 L 0.00,209.00 Z M 69.02,94.05 C 69.02,79.04 75.41,66.88 83.30,66.88 C 91.19,66.88 97.58,79.04 97.58,94.05 C 97.58,109.06 91.19,121.22 83.30,121.22 C 75.41,121.22 69.02,109.06 69.02,94.05 Z M 108.53,112.86 C 108.53,97.85 114.92,85.69 122.81,85.69 C 130.69,85.69 137.09,97.85 137.09,112.86 C 137.09,127.87 130.69,140.03 122.81,140.03 C 114.92,140.03 108.53,127.87 108.53,112.86 Z M 147.56,131.67 C 147.56,116.66 153.95,104.50 161.84,104.50 C 169.73,104.50 176.12,116.66 176.12,131.67 C 176.12,146.68 169.73,158.84 161.84,158.84 C 153.95,158.84 147.56,146.68 147.56,131.67 Z M 337.44,117.04 C 337.44,104.92 347.26,95.09 359.38,95.09 C 371.50,95.09 381.32,104.92 381.32,117.04 C 381.32,129.16 371.50,138.99 359.38,138.99 C 347.26,138.99 337.44,129.16 337.44,117.04 Z M 307.02,33.44 L 421.26,33.44 L 409.36,71.06 L 295.12,71.06 Z"/>
</svg>
