<?xml version="1.0" encoding="UTF-8" standalone="no"?>
<svg xmlns="http://www.w3.org/2000/svg" version="1.1"
     width="20.75in" height="14.625in" viewBox="0 0 1494 1053">
  <title>04_Ear_Black</title>
  <g fill="#000000" stroke="none">
  <path d="M 358,350 L 377,350 L 377,351 L 358,351 Z"/>
  <path d="M 359,351 L 377,351 L 377,352 L 359,352 Z"/>
  <path d="M 359,352 L 377,352 L 377,353 L 359,353 Z"/>
  <path d="M 359,353 L 377,353 L 377,354 L 359,354 Z"/>
  <path d="M 360,354 L 377,354 L 377,355 L 360,355 Z"/>
  <path d="M 360,355 L 376,355 L 376,356 L 360,356 Z"/>
  <path d="M 360,356 L 376,356 L 376,357 L 360,357 Z"/>
  <path d="M 360,357 L 376,357 L 376,358 L 360,358 Z"/>
  <path d="M 361,358 L 376,358 L 376,359 L 361,359 Z"/>
  <path d="M 361,359 L 375,359 L 375,360 L 361,360 Z"/>
  <path d="M 361,360 L 375,360 L 375,361 L 361,361 Z"/>
  <path d="M 361,361 L 375,361 L 375,362 L 361,362 Z"/>
  <path d="M 361,362 L 375,362 L 375,363 L 361,363 Z"/>
  <path d="M 361,363 L 375,363 L 375,364 L 361,364 Z"/>
  <path d="M 361,364 L 375,364 L 375,365 L 361,365 Z"/>
  <path d="M 361,365 L 375,365 L 375,366 L 361,366 Z"/>
  <path d="M 361,366 L 375,366 L 375,367 L 361,367 Z"/>
  <path d="M 361,367 L 375,367 L 375,368 L 361,368 Z"/>
  <path d="M 361,368 L 376,368 L 376,369 L 361,369 Z"/>
  <path d="M 361,369 L 376,369 L 376,370 L 361,370 Z"/>
  <path d="M 361,370 L 376,370 L 376,371 L 361,371 Z"/>
  <path d="M 361,371 L 377,371 L 377,372 L 361,372 Z"/>
  <path d="M 360,372 L 377,372 L 377,373 L 360,373 Z"/>
  <path d="M 360,373 L 377,373 L 377,374 L 360,374 Z"/>
  <path d="M 360,374 L 377,374 L 377,375 L 360,375 Z"/>
  <path d="M 360,375 L 377,375 L 377,376 L 360,376 Z"/>
  <path d="M 359,376 L 377,376 L 377,377 L 359,377 Z"/>
  <path d="M 359,377 L 376,377 L 376,378 L 359,378 Z"/>
  <path d="M 359,378 L 376,378 L 376,379 L 359,379 Z"/>
  <path d="M 359,379 L 376,379 L 376,380 L 359,380 Z"/>
  <path d="M 359,380 L 376,380 L 376,381 L 359,381 Z"/>
  <path d="M 359,381 L 376,381 L 376,382 L 359,382 Z"/>
  <path d="M 359,382 L 376,382 L 376,383 L 359,383 Z"/>
  <path d="M 360,383 L 376,383 L 376,384 L 360,384 Z"/>
  <path d="M 360,384 L 376,384 L 376,385 L 360,385 Z"/>
  <path d="M 361,385 L 376,385 L 376,386 L 361,386 Z"/>
  <path d="M 361,386 L 376,386 L 376,387 L 361,387 Z"/>
  <path d="M 361,387 L 376,387 L 376,388 L 361,388 Z"/>
  <path d="M 361,388 L 376,388 L 376,389 L 361,389 Z"/>
  <path d="M 361,389 L 376,389 L 376,390 L 361,390 Z"/>
  <path d="M 361,390 L 377,390 L 377,391 L 361,391 Z"/>
  <path d="M 361,391 L 377,391 L 377,392 L 361,392 Z"/>
  <path d="M 361,392 L 377,392 L 377,393 L 361,393 Z"/>
  <path d="M 361,393 L 377,393 L 377,394 L 361,394 Z"/>
  <path d="M 360,394 L 377,394 L 377,395 L 360,395 Z"/>
  <path d="M 360,395 L 377,395 L 377,396 L 360,396 Z"/>
  <path d="M 359,396 L 377,396 L 377,397 L 359,397 Z"/>
  <path d="M 359,397 L 376,397 L 376,398 L 359,398 Z"/>
  <path d="M 359,398 L 376,398 L 376,399 L 359,399 Z"/>
  <path d="M 359,399 L 376,399 L 376,400 L 359,400 Z"/>
  <path d="M 359,400 L 375,400 L 375,401 L 359,401 Z"/>
  <path d="M 359,401 L 375,401 L 375,402 L 359,402 Z"/>
  <path d="M 359,402 L 375,402 L 375,403 L 359,403 Z"/>
  <path d="M 359,403 L 374,403 L 374,404 L 359,404 Z"/>
  <path d="M 359,404 L 374,404 L 374,405 L 359,405 Z"/>
  <path d="M 359,405 L 374,405 L 374,406 L 359,406 Z"/>
  <path d="M 359,406 L 374,406 L 374,407 L 359,407 Z"/>
  <path d="M 360,407 L 374,407 L 374,408 L 360,408 Z"/>
  <path d="M 360,408 L 374,408 L 374,409 L 360,409 Z"/>
  <path d="M 361,409 L 374,409 L 374,410 L 361,410 Z"/>
  <path d="M 361,410 L 374,410 L 374,411 L 361,411 Z"/>
  <path d="M 361,411 L 374,411 L 374,412 L 361,412 Z"/>
  <path d="M 361,412 L 375,412 L 375,413 L 361,413 Z"/>
  <path d="M 361,413 L 375,413 L 375,414 L 361,414 Z"/>
  <path d="M 361,414 L 375,414 L 375,415 L 361,415 Z"/>
  <path d="M 361,415 L 376,415 L 376,416 L 361,416 Z"/>
  <path d="M 361,416 L 376,416 L 376,417 L 361,417 Z"/>
  <path d="M 360,417 L 376,417 L 376,418 L 360,418 Z"/>
  <path d="M 360,418 L 376,418 L 376,419 L 360,419 Z"/>
  <path d="M 360,419 L 376,419 L 376,420 L 360,420 Z"/>
  <path d="M 359,420 L 376,420 L 376,421 L 359,421 Z"/>
  <path d="M 409,420 L 415,420 L 415,421 L 409,421 Z"/>
  <path d="M 359,421 L 376,421 L 376,422 L 359,422 Z"/>
  <path d="M 407,421 L 417,421 L 417,422 L 407,422 Z"/>
  <path d="M 359,422 L 376,422 L 376,423 L 359,423 Z"/>
  <path d="M 406,422 L 421,422 L 421,423 L 406,423 Z"/>
  <path d="M 359,423 L 376,423 L 376,424 L 359,424 Z"/>
  <path d="M 405,423 L 425,423 L 425,424 L 405,424 Z"/>
  <path d="M 359,424 L 376,424 L 376,425 L 359,425 Z"/>
  <path d="M 405,424 L 429,424 L 429,425 L 405,425 Z"/>
  <path d="M 359,425 L 376,425 L 376,426 L 359,426 Z"/>
  <path d="M 404,425 L 432,425 L 432,426 L 404,426 Z"/>
  <path d="M 359,426 L 375,426 L 375,427 L 359,427 Z"/>
  <path d="M 404,426 L 434,426 L 434,427 L 404,427 Z"/>
  <path d="M 359,427 L 375,427 L 375,428 L 359,428 Z"/>
  <path d="M 404,427 L 436,427 L 436,428 L 404,428 Z"/>
  <path d="M 359,428 L 375,428 L 375,429 L 359,429 Z"/>
  <path d="M 404,428 L 438,428 L 438,429 L 404,429 Z"/>
  <path d="M 359,429 L 374,429 L 374,430 L 359,430 Z"/>
  <path d="M 405,429 L 440,429 L 440,430 L 405,430 Z"/>
  <path d="M 359,430 L 374,430 L 374,431 L 359,431 Z"/>
  <path d="M 405,430 L 444,430 L 444,431 L 405,431 Z"/>
  <path d="M 358,431 L 373,431 L 373,432 L 358,432 Z"/>
  <path d="M 405,431 L 446,431 L 446,432 L 405,432 Z"/>
  <path d="M 358,432 L 373,432 L 373,433 L 358,433 Z"/>
  <path d="M 406,432 L 448,432 L 448,433 L 406,433 Z"/>
  <path d="M 358,433 L 373,433 L 373,434 L 358,434 Z"/>
  <path d="M 407,433 L 450,433 L 450,434 L 407,434 Z"/>
  <path d="M 357,434 L 372,434 L 372,435 L 357,435 Z"/>
  <path d="M 408,434 L 450,434 L 450,435 L 408,435 Z"/>
  <path d="M 357,435 L 372,435 L 372,436 L 357,436 Z"/>
  <path d="M 409,435 L 450,435 L 450,436 L 409,436 Z"/>
  <path d="M 356,436 L 372,436 L 372,437 L 356,437 Z"/>
  <path d="M 410,436 L 450,436 L 450,437 L 410,437 Z"/>
  <path d="M 356,437 L 372,437 L 372,438 L 356,438 Z"/>
  <path d="M 412,437 L 450,437 L 450,438 L 412,438 Z"/>
  <path d="M 355,438 L 372,438 L 372,439 L 355,439 Z"/>
  <path d="M 415,438 L 450,438 L 450,439 L 415,439 Z"/>
  <path d="M 355,439 L 372,439 L 372,440 L 355,440 Z"/>
  <path d="M 418,439 L 450,439 L 450,440 L 418,440 Z"/>
  <path d="M 354,440 L 372,440 L 372,441 L 354,441 Z"/>
  <path d="M 420,440 L 450,440 L 450,441 L 420,441 Z"/>
  <path d="M 354,441 L 372,441 L 372,442 L 354,442 Z"/>
  <path d="M 421,441 L 450,441 L 450,442 L 421,442 Z"/>
  <path d="M 354,442 L 371,442 L 371,443 L 354,443 Z"/>
  <path d="M 425,442 L 450,442 L 450,443 L 425,443 Z"/>
  <path d="M 353,443 L 371,443 L 371,444 L 353,444 Z"/>
  <path d="M 429,443 L 450,443 L 450,444 L 429,444 Z"/>
  <path d="M 353,444 L 371,444 L 371,445 L 353,445 Z"/>
  <path d="M 430,444 L 450,444 L 450,445 L 430,445 Z"/>
  <path d="M 353,445 L 370,445 L 370,446 L 353,446 Z"/>
  <path d="M 432,445 L 450,445 L 450,446 L 432,446 Z"/>
  <path d="M 353,446 L 370,446 L 370,447 L 353,447 Z"/>
  <path d="M 434,446 L 450,446 L 450,447 L 434,447 Z"/>
  <path d="M 353,447 L 369,447 L 369,448 L 353,448 Z"/>
  <path d="M 436,447 L 450,447 L 450,448 L 436,448 Z"/>
  <path d="M 352,448 L 369,448 L 369,449 L 352,449 Z"/>
  <path d="M 437,448 L 450,448 L 450,449 L 437,449 Z"/>
  <path d="M 352,449 L 368,449 L 368,450 L 352,450 Z"/>
  <path d="M 439,449 L 450,449 L 450,450 L 439,450 Z"/>
  <path d="M 351,450 L 368,450 L 368,451 L 351,451 Z"/>
  <path d="M 441,450 L 450,450 L 450,451 L 441,451 Z"/>
  <path d="M 351,451 L 368,451 L 368,452 L 351,452 Z"/>
  <path d="M 443,451 L 450,451 L 450,452 L 443,452 Z"/>
  <path d="M 350,452 L 368,452 L 368,453 L 350,453 Z"/>
  <path d="M 444,452 L 450,452 L 450,453 L 444,453 Z"/>
  <path d="M 350,453 L 368,453 L 368,454 L 350,454 Z"/>
  <path d="M 446,453 L 450,453 L 450,454 L 446,454 Z"/>
  <path d="M 350,454 L 368,454 L 368,455 L 350,455 Z"/>
  <path d="M 448,454 L 450,454 L 450,455 L 448,455 Z"/>
  <path d="M 349,455 L 368,455 L 368,456 L 349,456 Z"/>
  <path d="M 349,456 L 368,456 L 368,457 L 349,457 Z"/>
  <path d="M 349,457 L 368,457 L 368,458 L 349,458 Z"/>
  <path d="M 349,458 L 367,458 L 367,459 L 349,459 Z"/>
  <path d="M 348,459 L 366,459 L 366,460 L 348,460 Z"/>
  <path d="M 348,460 L 366,460 L 366,461 L 348,461 Z"/>
  <path d="M 348,461 L 365,461 L 365,462 L 348,462 Z"/>
  <path d="M 347,462 L 364,462 L 364,463 L 347,463 Z"/>
  <path d="M 347,463 L 364,463 L 364,464 L 347,464 Z"/>
  <path d="M 347,464 L 363,464 L 363,465 L 347,465 Z"/>
  <path d="M 347,465 L 363,465 L 363,466 L 347,466 Z"/>
  <path d="M 346,466 L 362,466 L 362,467 L 346,467 Z"/>
  <path d="M 346,467 L 362,467 L 362,468 L 346,468 Z"/>
  <path d="M 345,468 L 362,468 L 362,469 L 345,469 Z"/>
  <path d="M 344,469 L 362,469 L 362,470 L 344,470 Z"/>
  <path d="M 344,470 L 362,470 L 362,471 L 344,471 Z"/>
  <path d="M 343,471 L 362,471 L 362,472 L 343,472 Z"/>
  <path d="M 342,472 L 362,472 L 362,473 L 342,473 Z"/>
  <path d="M 342,473 L 361,473 L 361,474 L 342,474 Z"/>
  <path d="M 341,474 L 361,474 L 361,475 L 341,475 Z"/>
  <path d="M 341,475 L 361,475 L 361,476 L 341,476 Z"/>
  <path d="M 340,476 L 360,476 L 360,477 L 340,477 Z"/>
  <path d="M 340,477 L 360,477 L 360,478 L 340,478 Z"/>
  <path d="M 340,478 L 359,478 L 359,479 L 340,479 Z"/>
  <path d="M 340,479 L 358,479 L 358,480 L 340,480 Z"/>
  <path d="M 340,480 L 357,480 L 357,481 L 340,481 Z"/>
  <path d="M 340,481 L 357,481 L 357,482 L 340,482 Z"/>
  <path d="M 340,482 L 356,482 L 356,483 L 340,483 Z"/>
  <path d="M 340,483 L 356,483 L 356,484 L 340,484 Z"/>
  <path d="M 340,484 L 355,484 L 355,485 L 340,485 Z"/>
  <path d="M 340,485 L 355,485 L 355,486 L 340,486 Z"/>
  <path d="M 340,486 L 355,486 L 355,487 L 340,487 Z"/>
  <path d="M 340,487 L 355,487 L 355,488 L 340,488 Z"/>
  <path d="M 340,488 L 355,488 L 355,489 L 340,489 Z"/>
  <path d="M 340,489 L 355,489 L 355,490 L 340,490 Z"/>
  <path d="M 340,490 L 355,490 L 355,491 L 340,491 Z"/>
  <path d="M 339,491 L 355,491 L 355,492 L 339,492 Z"/>
  <path d="M 339,492 L 355,492 L 355,493 L 339,493 Z"/>
  <path d="M 339,493 L 355,493 L 355,494 L 339,494 Z"/>
  <path d="M 338,494 L 354,494 L 354,495 L 338,495 Z"/>
  <path d="M 338,495 L 354,495 L 354,496 L 338,496 Z"/>
  <path d="M 337,496 L 354,496 L 354,497 L 337,497 Z"/>
  <path d="M 337,497 L 353,497 L 353,498 L 337,498 Z"/>
  <path d="M 337,498 L 353,498 L 353,499 L 337,499 Z"/>
  <path d="M 337,499 L 353,499 L 353,500 L 337,500 Z"/>
  <path d="M 336,500 L 352,500 L 352,501 L 336,501 Z"/>
  <path d="M 336,501 L 352,501 L 352,502 L 336,502 Z"/>
  <path d="M 336,502 L 352,502 L 352,503 L 336,503 Z"/>
  <path d="M 336,503 L 352,503 L 352,504 L 336,504 Z"/>
  <path d="M 336,504 L 352,504 L 352,505 L 336,505 Z"/>
  <path d="M 336,505 L 352,505 L 352,506 L 336,506 Z"/>
  <path d="M 336,506 L 352,506 L 352,507 L 336,507 Z"/>
  <path d="M 336,507 L 352,507 L 352,508 L 336,508 Z"/>
  <path d="M 336,508 L 352,508 L 352,509 L 336,509 Z"/>
  <path d="M 336,509 L 352,509 L 352,510 L 336,510 Z"/>
  <path d="M 336,510 L 352,510 L 352,511 L 336,511 Z"/>
  <path d="M 335,511 L 352,511 L 352,512 L 335,512 Z"/>
  <path d="M 335,512 L 352,512 L 352,513 L 335,513 Z"/>
  <path d="M 335,513 L 352,513 L 352,514 L 335,514 Z"/>
  <path d="M 334,514 L 352,514 L 352,515 L 334,515 Z"/>
  <path d="M 333,515 L 352,515 L 352,516 L 333,516 Z"/>
  <path d="M 333,516 L 351,516 L 351,517 L 333,517 Z"/>
  <path d="M 332,517 L 351,517 L 351,518 L 332,518 Z"/>
  <path d="M 331,518 L 351,518 L 351,519 L 331,519 Z"/>
  <path d="M 331,519 L 351,519 L 351,520 L 331,520 Z"/>
  <path d="M 330,520 L 351,520 L 351,521 L 330,521 Z"/>
  <path d="M 330,521 L 351,521 L 351,522 L 330,522 Z"/>
  <path d="M 330,522 L 351,522 L 351,523 L 330,523 Z"/>
  <path d="M 330,523 L 351,523 L 351,524 L 330,524 Z"/>
  <path d="M 330,524 L 352,524 L 352,525 L 330,525 Z"/>
  <path d="M 330,525 L 352,525 L 352,526 L 330,526 Z"/>
  <path d="M 330,526 L 352,526 L 352,527 L 330,527 Z"/>
  <path d="M 331,527 L 352,527 L 352,528 L 331,528 Z"/>
  <path d="M 332,528 L 352,528 L 352,529 L 332,529 Z"/>
  <path d="M 333,529 L 352,529 L 352,530 L 333,530 Z"/>
  <path d="M 334,530 L 352,530 L 352,531 L 334,531 Z"/>
  <path d="M 335,531 L 352,531 L 352,532 L 335,532 Z"/>
  <path d="M 336,532 L 353,532 L 353,533 L 336,533 Z"/>
  <path d="M 337,533 L 353,533 L 353,534 L 337,534 Z"/>
  <path d="M 338,534 L 353,534 L 353,535 L 338,535 Z"/>
  <path d="M 338,535 L 353,535 L 353,536 L 338,536 Z"/>
  <path d="M 339,536 L 353,536 L 353,537 L 339,537 Z"/>
  <path d="M 339,537 L 353,537 L 353,538 L 339,538 Z"/>
  <path d="M 339,538 L 353,538 L 353,539 L 339,539 Z"/>
  <path d="M 339,539 L 354,539 L 354,540 L 339,540 Z"/>
  <path d="M 340,540 L 354,540 L 354,541 L 340,541 Z"/>
  <path d="M 340,541 L 354,541 L 354,542 L 340,542 Z"/>
  <path d="M 340,542 L 354,542 L 354,543 L 340,543 Z"/>
  <path d="M 340,543 L 355,543 L 355,544 L 340,544 Z"/>
  <path d="M 340,544 L 355,544 L 355,545 L 340,545 Z"/>
  <path d="M 341,545 L 356,545 L 356,546 L 341,546 Z"/>
  <path d="M 341,546 L 356,546 L 356,547 L 341,547 Z"/>
  <path d="M 341,547 L 357,547 L 357,548 L 341,548 Z"/>
  <path d="M 341,548 L 358,548 L 358,549 L 341,549 Z"/>
  <path d="M 341,549 L 358,549 L 358,550 L 341,550 Z"/>
  <path d="M 341,550 L 359,550 L 359,551 L 341,551 Z"/>
  <path d="M 341,551 L 359,551 L 359,552 L 341,552 Z"/>
  <path d="M 342,552 L 360,552 L 360,553 L 342,553 Z"/>
  <path d="M 342,553 L 360,553 L 360,554 L 342,554 Z"/>
  <path d="M 342,554 L 361,554 L 361,555 L 342,555 Z"/>
  <path d="M 342,555 L 361,555 L 361,556 L 342,556 Z"/>
  <path d="M 343,556 L 362,556 L 362,557 L 343,557 Z"/>
  <path d="M 343,557 L 363,557 L 363,558 L 343,558 Z"/>
  <path d="M 344,558 L 364,558 L 364,559 L 344,559 Z"/>
  <path d="M 345,559 L 365,559 L 365,560 L 345,560 Z"/>
  <path d="M 345,560 L 366,560 L 366,561 L 345,561 Z"/>
  <path d="M 345,561 L 367,561 L 367,562 L 345,562 Z"/>
  <path d="M 346,562 L 368,562 L 368,563 L 346,563 Z"/>
  <path d="M 347,563 L 369,563 L 369,564 L 347,564 Z"/>
  <path d="M 347,564 L 369,564 L 369,565 L 347,565 Z"/>
  <path d="M 348,565 L 370,565 L 370,566 L 348,566 Z"/>
  <path d="M 348,566 L 371,566 L 371,567 L 348,567 Z"/>
  <path d="M 348,567 L 372,567 L 372,568 L 348,568 Z"/>
  <path d="M 349,568 L 372,568 L 372,569 L 349,569 Z"/>
  <path d="M 349,569 L 373,569 L 373,570 L 349,570 Z"/>
  <path d="M 350,570 L 374,570 L 374,571 L 350,571 Z"/>
  <path d="M 350,571 L 375,571 L 375,572 L 350,572 Z"/>
  <path d="M 351,572 L 376,572 L 376,573 L 351,573 Z"/>
  <path d="M 351,573 L 378,573 L 378,574 L 351,574 Z"/>
  <path d="M 352,574 L 379,574 L 379,575 L 352,575 Z"/>
  <path d="M 353,575 L 381,575 L 381,576 L 353,576 Z"/>
  <path d="M 354,576 L 382,576 L 382,577 L 354,577 Z"/>
  <path d="M 355,577 L 383,577 L 383,578 L 355,578 Z"/>
  <path d="M 356,578 L 384,578 L 384,579 L 356,579 Z"/>
  <path d="M 356,579 L 386,579 L 386,580 L 356,580 Z"/>
  <path d="M 358,580 L 388,580 L 388,581 L 358,581 Z"/>
  <path d="M 359,581 L 390,581 L 390,582 L 359,582 Z"/>
  <path d="M 360,582 L 391,582 L 391,583 L 360,583 Z"/>
  <path d="M 362,583 L 393,583 L 393,584 L 362,584 Z"/>
  <path d="M 363,584 L 395,584 L 395,585 L 363,585 Z"/>
  <path d="M 364,585 L 397,585 L 397,586 L 364,586 Z"/>
  <path d="M 365,586 L 398,586 L 398,587 L 365,587 Z"/>
  <path d="M 366,587 L 400,587 L 400,588 L 366,588 Z"/>
  <path d="M 367,588 L 402,588 L 402,589 L 367,589 Z"/>
  <path d="M 368,589 L 405,589 L 405,590 L 368,590 Z"/>
  <path d="M 369,590 L 408,590 L 408,591 L 369,591 Z"/>
  <path d="M 370,591 L 410,591 L 410,592 L 370,592 Z"/>
  <path d="M 372,592 L 412,592 L 412,593 L 372,593 Z"/>
  <path d="M 374,593 L 417,593 L 417,594 L 374,594 Z"/>
  <path d="M 377,594 L 423,594 L 423,595 L 377,595 Z"/>
  <path d="M 379,595 L 428,595 L 428,596 L 379,596 Z"/>
  <path d="M 381,596 L 434,596 L 434,597 L 381,597 Z"/>
  <path d="M 443,596 L 450,596 L 450,597 L 443,597 Z"/>
  <path d="M 382,597 L 450,597 L 450,598 L 382,598 Z"/>
  <path d="M 384,598 L 450,598 L 450,599 L 384,599 Z"/>
  <path d="M 385,599 L 450,599 L 450,600 L 385,600 Z"/>
  <path d="M 386,600 L 450,600 L 450,601 L 386,601 Z"/>
  <path d="M 387,601 L 450,601 L 450,602 L 387,602 Z"/>
  <path d="M 390,602 L 450,602 L 450,603 L 390,603 Z"/>
  <path d="M 395,603 L 450,603 L 450,604 L 395,604 Z"/>
  <path d="M 397,604 L 450,604 L 450,605 L 397,605 Z"/>
  <path d="M 399,605 L 450,605 L 450,606 L 399,606 Z"/>
  <path d="M 401,606 L 408,606 L 408,607 L 401,607 Z"/>
  <path d="M 409,606 L 450,606 L 450,607 L 409,607 Z"/>
  <path d="M 413,607 L 450,607 L 450,608 L 413,608 Z"/>
  <path d="M 416,608 L 450,608 L 450,609 L 416,609 Z"/>
  <path d="M 419,609 L 450,609 L 450,610 L 419,610 Z"/>
  <path d="M 430,610 L 445,610 L 445,611 L 430,611 Z"/>
  <path d="M 435,611 L 438,611 L 438,612 L 435,612 Z"/>
  </g>
</svg>
